<?xml version="1.0" encoding="utf-8"?>
<!-- Generator: Adobe Illustrator 21.0.0, SVG Export Plug-In . SVG Version: 6.00 Build 0)  -->
<svg version="1.1" id="Capa_1" xmlns="http://www.w3.org/2000/svg" xmlns:xlink="http://www.w3.org/1999/xlink" x="0px" y="0px"
	 viewBox="0 0 230 23" style="enable-background:new 0 0 230 23;" xml:space="preserve">
<style type="text/css">
	.st0{fill:#FEFEFE;}
	.st1{fill-rule:evenodd;clip-rule:evenodd;fill:#FEFEFE;}
</style>
<g>
	<path class="st0" d="M44.2,19.6c3.6,0.8,12.5,0.5,12.7-5.3c0-2.3-3-4.5-5.9-5.1c-3.5-0.8-5.8-0.8-9.3,0c-2.2,0.8-2.9-1.3-0.9-2
		c3.8-1.4,18.5-1.7,19.2,7.2c-0.6,8.7-13.5,8.1-16.4,7.5c-1.1-0.2-2-0.8-2-2.2v-7.3c0-1.7,2.6-1.7,2.6,0L44.2,19.6z"/>
	<path class="st0" d="M71.9,9.3c-2.9,0-7.7,8.8-9.1,11.9c-0.8,1.9-3.5,0.5-2.7-1.3c1.5-3.4,7.3-13.6,11.8-13.5
		c4.5-0.1,10.3,10.1,11.8,13.5c0.9,1.9-1.8,3.2-2.7,1.3C79.6,18.1,74.8,9.3,71.9,9.3"/>
	<path class="st0" d="M92,19.2c2.9,0,7.7-8.8,9.1-11.9c0.8-1.9,3.5-0.5,2.7,1.3c-1.5,3.4-7.3,13.6-11.8,13.5
		C87.6,22.2,81.8,12,80.3,8.6c-0.9-1.9,1.8-3.2,2.7-1.3C84.4,10.4,89.2,19.2,92,19.2"/>
	<path class="st0" d="M108.7,7.9l0,12.8c0,1.9-2.9,1.8-2.9-0.1l0-12.7C105.8,5.9,108.7,5.9,108.7,7.9"/>
	<path class="st0" d="M122.5,19.2c2.9,0,7.7-8.8,9.1-11.9c0.9-1.9,3.5-0.5,2.7,1.3c-1.5,3.4-7.3,13.6-11.8,13.5
		C118,22.2,112.2,12,110.7,8.6c-0.9-1.9,1.8-3.2,2.7-1.3C114.8,10.4,119.6,19.2,122.5,19.2"/>
	<path class="st0" d="M144.7,15.6c0.8,1.8,3.3,3.2,5.6,3.7c3.5,0.8,5.8,0.8,9.3,0c2.1-0.7,2.9,1.4,0.9,2c-3.9,1.3-18.4,1.8-19.3-7.1
		c0.5-8.5,12.1-8.2,16.5-7.7c2.2,0.3,1.7,2.6-0.5,2.1c-3-0.4-11-0.9-12.6,4.5l8.2,0c1.3,0,1.3,2.4,0,2.4L144.7,15.6z"/>
	<path class="st0" d="M190.6,19.6c3.6,0.8,12.5,0.5,12.7-5.3c0-2.3-3-4.5-5.9-5.1c-3.5-0.8-5.8-0.8-9.3,0c-2.2,0.8-2.9-1.3-0.9-2
		c3.8-1.4,18.5-1.7,19.2,7.2c-0.6,8.7-13.5,8.1-16.4,7.5c-1.1-0.2-2-0.8-2-2.2v-7.3c0-1.7,2.6-1.7,2.6,0L190.6,19.6z"/>
	<path class="st0" d="M218.3,9.3c-2.9,0-7.7,8.8-9.1,11.9c-0.9,1.9-3.5,0.5-2.7-1.3c1.5-3.4,7.3-13.6,11.8-13.5
		c4.5-0.1,10.3,10.1,11.8,13.5c0.9,1.9-1.8,3.2-2.7,1.3C225.9,18.1,221.2,9.3,218.3,9.3"/>
	<path class="st0" d="M139.1,7.9l0,12.8c0,1.9-2.9,1.8-2.9-0.1l0-12.7C136.3,5.9,139.1,5.9,139.1,7.9"/>
	<path class="st0" d="M173.8,16.9c-1.8-3.3-3.7-7.6-5.1-7.7c-3.3,0-1.8,6.6-1.9,11.7c0,1.8-2.9,1.8-2.9-0.2c0-6.5-1.4-14.3,4.8-14.3
		c1.8,0,3.6,2.7,5.1,5.3c1.8,3.3,3.9,7.6,5.3,7.7c3.3,0,1.7-6.4,1.8-11.5c0-1.8,2.9-1.8,2.9,0.2c0,6.5,1.5,14.2-4.8,14.2
		C177.3,22.2,175.4,19.4,173.8,16.9"/>
	<path class="st1" d="M7.9,12.8L7.9,12.8c0.1,0.3,0.4,1.6,1.5,1.7v-1.1c0-0.3-0.3-0.6-0.6-0.6H7.9z M6.2,12.4L6.2,12.4H9
		c0.4,0,0.8,0.4,0.8,0.8v1.9c0,0.4-0.4,0.8-0.8,0.8H6.2c-0.4,0-0.8-0.4-0.8-0.8v-1.9C5.4,12.8,5.7,12.4,6.2,12.4z M7.3,12.8
		c-0.1,0.3-0.4,1.6-1.5,1.7v-1.1c0-0.3,0.2-0.6,0.6-0.6H7.3z"/>
	<path class="st1" d="M15.5,17.3c0-0.2,0.2-0.4,0.4-0.4c0.2,0,0.4,0.2,0.4,0.4c0,0.2-0.2,0.4-0.4,0.4C15.6,17.7,15.5,17.5,15.5,17.3
		"/>
	<path class="st1" d="M13.8,0.2L13.8,0.2c1.1,0,3.3,0.8,5.7,2.2c0-0.1-0.1-0.2-0.1-0.3c-0.2-0.6,0-1.2,0.9-1.2h2.1
		c1.3,0,1.1,0.7,0.9,1.7C23.1,3.2,23,4,23,4.7c0,0,1.7,1.3,2.6,2c3,2.5,1,4.1-1.8,4c-0.3,0-0.6,0-0.8,0c0,0.8,0.3,2.4,1.6,4.1
		c3.3,3.9-1.1,8.9-7.2,7.5c-1,0.3-2.6,0.5-3.5,0.5s-2.5-0.2-3.5-0.5c-6.2,1.4-10.5-3.5-7.2-7.5c1.3-1.7,1.5-3.3,1.6-4.1
		c-0.3,0-0.6,0-0.8,0C1,10.9-1,9.2,2,6.7c0.9-0.8,2.6-2,2.6-2c1-0.8,3.1-2,3.5-2.2C10.5,1.1,12.7,0.2,13.8,0.2 M13.8,10.2L13.8,10.2
		c-2.6,0-4.9,0.2-8.6,0.4c-0.1,0.9-0.1,2.7-1.5,4.7c-1.8,2.9,0.4,7.3,6,6.4c0,0,0,0-0.2-0.1c-1.8-0.9-2.1-2-0.9-2.5
		c0.9-0.4,2.1-0.8,2.1-0.8c-0.6-3,0.4-7,3.1-7.1c2.7,0,3.7,4.1,3.1,7.1c0,0,1.2,0.4,2.1,0.8c1.2,0.5,0.9,1.7-0.9,2.5
		c-0.1,0.1-0.2,0.1-0.2,0.1c5.6,0.9,7.8-3.5,6-6.4c-1.4-2.1-1.5-3.8-1.5-4.7C18.7,10.5,16.4,10.3,13.8,10.2z M20.1,2.7L20.1,2.7
		c-0.3-0.9-0.3-1.1,0.5-1.1h1.6c1,0,0.6,0.6,0.4,1.5c-0.1,0.6-0.1,0.8-0.2,1.2C21.5,3.7,21,3.3,20.1,2.7z M13.8,1L13.8,1
		c2.8,0,9.5,4.3,11.5,6.5c1.4,1.5,0.5,2.6-1.7,2.5C20,9.8,17,9.5,13.8,9.5C10.6,9.5,7.6,9.8,4,10c-2.2,0.1-3.1-1-1.7-2.5
		C4.3,5.2,11,1,13.8,1z M13.8,12.1L13.8,12.1c2.4,0,3.6,4,2.2,8.3c0,0-0.9-0.2-2.2-0.2c-1.3,0-2.2,0.2-2.2,0.2
		C10.2,16.1,11.4,12.1,13.8,12.1z M13.8,22.5c2.2,0,3.8-0.4,3.8-1c0-0.6-1.4-1-3.8-1c-2.4,0-3.8,0.4-3.8,1
		C10,22,11.6,22.5,13.8,22.5z"/>
	<path class="st1" d="M20.3,12.8L20.3,12.8c0.1,0.3,0.4,1.6,1.5,1.7v-1.1c0-0.3-0.3-0.6-0.6-0.6H20.3z M18.6,12.4L18.6,12.4h2.8
		c0.4,0,0.8,0.4,0.8,0.8v1.9c0,0.4-0.4,0.8-0.8,0.8h-2.8c-0.4,0-0.8-0.4-0.8-0.8v-1.9C17.8,12.8,18.2,12.4,18.6,12.4z M19.7,12.8
		c-0.1,0.3-0.4,1.6-1.5,1.7v-1.1c0-0.3,0.2-0.6,0.6-0.6H19.7z"/>
</g>
</svg>
