<?xml version="1.0" encoding="utf-8"?>
<!-- Generator: Adobe Illustrator 21.0.0, SVG Export Plug-In . SVG Version: 6.00 Build 0)  -->
<svg version="1.1" id="LOGO_DAVIVIENDA_CALIBRADO" xmlns="http://www.w3.org/2000/svg" xmlns:xlink="http://www.w3.org/1999/xlink"
	 x="0px" y="0px" viewBox="0 0 500.6 44.8" style="enable-background:new 0 0 500.6 44.8;" xml:space="preserve">
<style type="text/css">
	.st0{fill:#FFFFFF;}
</style>
<g>
	<path class="st0" d="M159.2,23.1c0,1.8,0.4,3.2,1.3,4.1c0.8,0.9,1.9,1.4,3.2,1.4c1.3,0,2.3-0.5,3.2-1.4c0.8-0.9,1.2-2.3,1.2-4.2
		c0-1.8-0.4-3.2-1.2-4.1c-0.8-0.9-1.9-1.3-3.2-1.3c-1.3,0-2.4,0.5-3.2,1.4C159.6,19.9,159.2,21.3,159.2,23.1 M155.9,23.2
		c0-1.6,0.2-3,0.7-4.1c0.4-0.8,0.9-1.5,1.5-2.2c0.6-0.6,1.3-1.1,2.1-1.4c1-0.4,2.1-0.6,3.4-0.6c2.3,0,4.2,0.7,5.6,2.2
		s2.1,3.5,2.1,6.1s-0.7,4.6-2.1,6c-1.4,1.5-3.3,2.2-5.6,2.2c-2.4,0-4.3-0.7-5.7-2.2C156.6,27.8,155.9,25.8,155.9,23.2z M136.3,17.9
		v10.6h2.4c0.9,0,1.5,0,1.9-0.2c0.5-0.1,1-0.3,1.3-0.7c0.3-0.3,0.6-0.8,0.8-1.5c0.2-0.7,0.3-1.7,0.3-2.9c0-1.2-0.1-2.2-0.3-2.8
		c-0.2-0.7-0.5-1.2-0.9-1.5c-0.4-0.4-0.9-0.6-1.5-0.7c-0.4-0.1-1.3-0.2-2.6-0.2h-1.4L136.3,17.9L136.3,17.9z M133.1,15.2h5.9
		c1.3,0,2.3,0.1,3,0.3c0.9,0.3,1.7,0.8,2.4,1.5c0.7,0.7,1.2,1.6,1.5,2.6s0.5,2.3,0.5,3.8c0,1.3-0.2,2.4-0.5,3.4
		c-0.4,1.2-1,2.1-1.7,2.8c-0.6,0.5-1.3,1-2.3,1.3c-0.7,0.2-1.7,0.3-2.9,0.3h-6.1v-16L133.1,15.2L133.1,15.2z M118,24.8l-2.2-5.9
		l-2.2,5.9H118z M124,31.1h-3.5l-1.4-3.6h-6.4l-1.3,3.6H108l6.2-15.9h3.4L124,31.1z M88.7,31.1V15.3h3.2v13.1h8v2.7
		C99.9,31.1,88.7,31.1,88.7,31.1z M75,31.1V15.2h3.2v15.9H75z M57.8,25.2v-2.6h6.9v6.3c-0.7,0.7-1.7,1.2-2.9,1.7
		c-1.3,0.5-2.6,0.7-3.9,0.7c-1.7,0-3.1-0.3-4.4-1c-1.2-0.7-2.2-1.7-2.8-3s-0.9-2.7-0.9-4.2c0-1.7,0.3-3.1,1-4.4s1.7-2.3,3.1-3
		c1-0.5,2.3-0.8,3.8-0.8c2,0,3.5,0.4,4.6,1.2c1.1,0.8,1.8,2,2.1,3.4l-3.2,0.6c-0.2-0.8-0.6-1.4-1.3-1.9c-0.6-0.5-1.4-0.7-2.3-0.7
		c-1.4,0-2.5,0.4-3.4,1.3c-0.8,0.9-1.2,2.2-1.2,4c0,1.9,0.4,3.3,1.3,4.3c0.8,0.9,1.9,1.4,3.3,1.4c0.7,0,1.4-0.1,2-0.4
		c0.7-0.3,1.3-0.6,1.7-1v-2L57.8,25.2L57.8,25.2z M36.7,31.1V15.2h3.2v15.9H36.7z M18.6,31.1l-5.7-15.9h3.5l4,11.8l3.9-11.8h3.4
		L22,31.1H18.6z"/>
	<path class="st0" d="M489.4,13.5h4.5l-1.4-3.7c-0.4-1.1-0.7-2.1-0.9-2.8c-0.2,0.9-0.4,1.7-0.7,2.6L489.4,13.5z M485.5,19l5.1-13.4
		h1.9L498,19h-2l-1.6-4.1h-5.6l-1.5,4.1H485.5z M475.3,11.6h3.8c0.8,0,1.4-0.1,1.9-0.3c0.5-0.2,0.8-0.4,1-0.8s0.4-0.8,0.4-1.2
		c0-0.6-0.2-1.2-0.7-1.6s-1.2-0.6-2.2-0.6h-4.2V11.6z M473.5,19V5.6h5.9c1.2,0,2.1,0.1,2.7,0.4c0.6,0.2,1.1,0.7,1.5,1.3
		c0.4,0.6,0.6,1.3,0.6,2c0,1-0.3,1.7-0.9,2.4c-0.6,0.7-1.6,1.1-2.9,1.2c0.5,0.2,0.8,0.4,1.1,0.7c0.5,0.5,1,1.1,1.5,1.8l2.3,3.6h-2.2
		l-1.8-2.8c-0.5-0.8-0.9-1.4-1.3-1.8c-0.3-0.4-0.6-0.7-0.9-0.9c-0.3-0.2-0.5-0.3-0.8-0.4c-0.2,0-0.5-0.1-1-0.1h-2.1v5.9h-1.7
		L473.5,19L473.5,19z M461,19V5.6h9.7v1.6h-7.9v4.1h7.4v1.6h-7.4v4.6h8.2v1.6L461,19L461,19z M456.1,19V5.6h1.8V19H456.1z
		 M451.8,14.3l1.8,0.4c-0.4,1.5-1,2.6-2,3.3c-1,0.8-2.1,1.1-3.5,1.1s-2.6-0.3-3.5-0.9s-1.6-1.4-2.1-2.6c-0.5-1.1-0.7-2.3-0.7-3.6
		c0-1.4,0.3-2.6,0.8-3.6s1.3-1.8,2.3-2.4c1-0.5,2.1-0.8,3.2-0.8c1.3,0,2.5,0.3,3.4,1s1.5,1.6,1.9,2.9l-1.7,0.4
		c-0.3-1-0.8-1.7-1.4-2.1c-0.6-0.4-1.3-0.7-2.2-0.7c-1,0-1.9,0.2-2.6,0.7c-0.7,0.5-1.2,1.2-1.5,2s-0.4,1.7-0.4,2.6
		c0,1.1,0.2,2.1,0.5,3c0.3,0.8,0.8,1.5,1.5,1.9s1.5,0.6,2.3,0.6c1,0,1.8-0.3,2.5-0.9C451.1,16.3,451.6,15.5,451.8,14.3z M428.7,19
		V5.6h1.8l7,10.5V5.6h1.7V19h-1.8l-7-10.5V19H428.7z M418.7,13.5h4.5l-1.4-3.7c-0.4-1.1-0.7-2.1-0.9-2.8c-0.2,0.9-0.4,1.7-0.7,2.6
		L418.7,13.5z M414.8,19l5.1-13.4h1.9l5.5,13.4h-2l-1.6-4.1h-5.6l-1.5,4.1H414.8z M402.7,19V5.6h1.8l7,10.5V5.6h1.7V19h-1.8l-7-10.5
		V19H402.7z M397.9,19V5.6h1.8V19H397.9z M386.2,19V5.6h9v1.6h-7.3v4.1h6.3v1.6h-6.3V19C387.9,19,386.2,19,386.2,19z M371.9,13.5
		h4.5L375,9.8c-0.4-1.1-0.7-2.1-0.9-2.8c-0.2,0.9-0.4,1.7-0.7,2.6L371.9,13.5z M368,19l5.1-13.4h1.9l5.5,13.4h-2l-1.6-4.1h-5.5
		l-1.5,4.1H368z M364.6,19V5.6h1.8V19H364.6z M360.3,14.3l1.8,0.4c-0.4,1.5-1,2.6-2,3.3c-1,0.8-2.1,1.1-3.5,1.1s-2.6-0.3-3.5-0.9
		s-1.6-1.4-2.1-2.6c-0.5-1.1-0.7-2.3-0.7-3.6c0-1.4,0.3-2.6,0.8-3.6s1.3-1.8,2.3-2.4c1-0.5,2.1-0.8,3.2-0.8c1.3,0,2.5,0.3,3.4,1
		s1.5,1.6,1.9,2.9l-1.7,0.4c-0.3-1-0.8-1.7-1.4-2.1s-1.3-0.7-2.2-0.7c-1,0-1.9,0.2-2.6,0.7s-1.2,1.2-1.5,2s-0.4,1.7-0.4,2.6
		c0,1.1,0.2,2.1,0.5,3c0.3,0.8,0.8,1.5,1.5,1.9s1.5,0.6,2.3,0.6c1,0,1.8-0.3,2.5-0.9C359.6,16.3,360.1,15.5,360.3,14.3z M337.2,19
		V5.6h1.8l7,10.5V5.6h1.7V19h-1.8l-7-10.5V19H337.2z M324.8,19V5.6h9.7v1.6h-7.9v4.1h7.4v1.6h-7.4v4.6h8.2v1.6L324.8,19L324.8,19z
		 M313,17.5h2.9c0.9,0,1.6-0.1,2.1-0.2c0.5-0.2,0.9-0.4,1.2-0.7c0.4-0.4,0.7-1,1-1.7c0.2-0.7,0.4-1.6,0.4-2.6c0-1.4-0.2-2.5-0.7-3.2
		c-0.5-0.8-1-1.3-1.7-1.5c-0.5-0.2-1.2-0.3-2.3-0.3h-2.8v10.2C313.1,17.5,313,17.5,313,17.5z M311.3,19V5.6h4.6c1,0,1.8,0.1,2.4,0.2
		c0.8,0.2,1.4,0.5,2,1c0.7,0.6,1.2,1.4,1.6,2.3s0.5,2,0.5,3.2c0,1-0.1,1.9-0.4,2.7c-0.2,0.8-0.5,1.4-0.9,2c-0.4,0.5-0.8,0.9-1.2,1.2
		c-0.4,0.3-1,0.5-1.6,0.7s-1.3,0.2-2.2,0.2L311.3,19L311.3,19z M297.7,19V5.6h1.8l7,10.5V5.6h1.7V19h-1.8l-7-10.5V19H297.7z
		 M285.3,19V5.6h9.7v1.6h-7.9v4.1h7.4v1.6h-7.4v4.6h8.2v1.6L285.3,19L285.3,19z M277.2,19V7.2h-4.4V5.6h10.6v1.6H279V19H277.2z
		 M260.3,19V5.6h1.8l7,10.5V5.6h1.7V19H269l-7-10.5V19H260.3z M255.4,19V5.6h1.8V19H255.4z M243.4,11.6h3.8c0.8,0,1.4-0.1,1.9-0.3
		c0.5-0.2,0.8-0.4,1-0.8s0.4-0.8,0.4-1.2c0-0.6-0.2-1.2-0.7-1.6s-1.2-0.6-2.2-0.6h-4.2V11.6z M241.6,19V5.6h5.9
		c1.2,0,2.1,0.1,2.7,0.4c0.6,0.2,1.1,0.7,1.5,1.3c0.4,0.6,0.6,1.3,0.6,2c0,1-0.3,1.7-0.9,2.4c-0.6,0.7-1.6,1.1-2.9,1.2
		c0.5,0.2,0.8,0.4,1.1,0.7c0.5,0.5,1,1.1,1.5,1.8l2.3,3.6h-2.2l-1.8-2.8c-0.5-0.8-0.9-1.4-1.3-1.8c-0.3-0.4-0.6-0.7-0.9-0.9
		c-0.3-0.2-0.5-0.3-0.8-0.4c-0.2,0-0.5-0.1-1-0.1h-2v5.9h-1.8L241.6,19L241.6,19z M229.2,19V5.6h9.7v1.6H231v4.1h7.4v1.6H231v4.6
		h8.2v1.6L229.2,19L229.2,19z M218.4,12h3.5c1.1,0,2-0.2,2.4-0.6c0.5-0.4,0.7-1,0.7-1.8c0-0.6-0.1-1-0.4-1.4s-0.7-0.7-1.1-0.8
		c-0.3-0.1-0.8-0.1-1.7-0.1h-3.4V12z M216.7,19V5.6h5.1c0.9,0,1.6,0,2,0.1c0.7,0.1,1.2,0.3,1.7,0.6c0.4,0.3,0.8,0.7,1.1,1.3
		c0.3,0.6,0.4,1.2,0.4,1.8c0,1.1-0.4,2.1-1.1,2.9s-2,1.2-3.9,1.2h-3.6v5.4L216.7,19L216.7,19z M211.9,5.6h1.8v7.7
		c0,1.3-0.2,2.4-0.5,3.2c-0.3,0.8-0.9,1.4-1.6,1.9c-0.8,0.5-1.8,0.7-3.1,0.7c-1.3,0-2.3-0.2-3.1-0.6c-0.8-0.4-1.4-1.1-1.7-1.9
		c-0.3-0.8-0.5-1.9-0.5-3.4V5.6h1.8v7.7c0,1.2,0.1,2,0.3,2.6c0.2,0.6,0.6,1,1.1,1.3s1.2,0.4,1.9,0.4c1.3,0,2.2-0.3,2.8-0.9
		c0.6-0.6,0.8-1.7,0.8-3.4L211.9,5.6L211.9,5.6z M190.1,14.7l1.7-0.1c0.1,0.7,0.3,1.2,0.6,1.6c0.3,0.4,0.7,0.8,1.3,1
		c0.6,0.3,1.3,0.4,2.1,0.4c0.7,0,1.3-0.1,1.8-0.3c0.5-0.2,0.9-0.5,1.2-0.8c0.3-0.4,0.4-0.7,0.4-1.1s-0.1-0.8-0.4-1.1
		c-0.2-0.3-0.6-0.6-1.2-0.8c-0.4-0.1-1.2-0.4-2.4-0.7c-1.2-0.3-2.1-0.6-2.6-0.8c-0.6-0.3-1.1-0.8-1.4-1.2c-0.3-0.5-0.5-1.1-0.5-1.7
		c0-0.7,0.2-1.3,0.6-1.9s0.9-1,1.7-1.3c0.7-0.3,1.6-0.5,2.5-0.5c1,0,1.9,0.2,2.6,0.5c0.8,0.3,1.3,0.8,1.7,1.4
		c0.4,0.6,0.6,1.3,0.7,2.1l-1.7,0.1c-0.1-0.8-0.4-1.5-0.9-1.9S196.6,7,195.6,7c-1.1,0-1.9,0.2-2.3,0.6c-0.5,0.4-0.7,0.9-0.7,1.4
		s0.2,0.9,0.5,1.2c0.3,0.3,1.2,0.6,2.7,1c1.4,0.3,2.4,0.6,3,0.9c0.8,0.4,1.4,0.8,1.7,1.4c0.4,0.6,0.6,1.2,0.6,1.9
		c0,0.7-0.2,1.4-0.6,2s-1,1.1-1.8,1.5c-0.8,0.3-1.6,0.5-2.6,0.5c-1.2,0-2.2-0.2-3-0.5c-0.8-0.4-1.5-0.9-1.9-1.6
		C190.3,16.4,190.1,15.6,190.1,14.7z"/>
	<path class="st0" d="M399.9,34.4h4.5l-1.4-3.7c-0.4-1.1-0.7-2.1-0.9-2.8c-0.2,0.9-0.4,1.7-0.7,2.6L399.9,34.4z M396.1,39.9
		l5.1-13.4h1.9l5.5,13.4h-2l-1.6-4.1h-5.6l-1.5,4.1H396.1z M392.7,39.9V26.6h1.8V40L392.7,39.9L392.7,39.9z M381.6,38.4h3.3
		c0.6,0,1,0,1.2-0.1c0.4-0.1,0.7-0.2,1-0.4s0.5-0.4,0.7-0.7s0.3-0.7,0.3-1.1c0-0.5-0.1-0.9-0.4-1.3c-0.3-0.4-0.6-0.6-1.1-0.8
		c-0.5-0.1-1.1-0.2-2-0.2h-3.1v4.6H381.6z M381.6,32.2h2.9c0.8,0,1.3-0.1,1.7-0.2c0.4-0.1,0.8-0.4,1-0.7c0.2-0.3,0.3-0.7,0.3-1.2
		c0-0.4-0.1-0.8-0.3-1.2c-0.2-0.3-0.5-0.6-0.9-0.7s-1.1-0.2-2-0.2h-2.7L381.6,32.2L381.6,32.2z M379.8,39.9V26.6h5
		c1,0,1.8,0.1,2.5,0.4c0.6,0.3,1.1,0.7,1.5,1.3c0.3,0.6,0.5,1.2,0.5,1.8c0,0.6-0.2,1.1-0.5,1.6s-0.8,0.9-1.4,1.2
		c0.8,0.2,1.4,0.6,1.9,1.2c0.4,0.6,0.7,1.3,0.7,2c0,0.6-0.1,1.2-0.4,1.7c-0.3,0.5-0.6,1-1,1.2c-0.4,0.3-0.9,0.5-1.5,0.7
		c-0.6,0.1-1.3,0.2-2.2,0.2L379.8,39.9L379.8,39.9z M364.2,39.9V26.6h2.7l3.2,9.5c0.3,0.9,0.5,1.5,0.6,2c0.2-0.5,0.4-1.2,0.7-2.1
		l3.2-9.3h2.4v13.4h-1.7V28.9l-3.9,11.2h-1.6l-3.9-11.4v11.4h-1.7L364.2,39.9L364.2,39.9z M351,33.5c0,1.6,0.4,2.9,1.3,3.8
		s2,1.4,3.3,1.4s2.4-0.5,3.3-1.4s1.3-2.3,1.3-4c0-1.1-0.2-2-0.6-2.9c-0.4-0.8-0.9-1.4-1.6-1.9c-0.7-0.4-1.5-0.7-2.4-0.7
		c-1.3,0-2.3,0.4-3.2,1.3C351.5,30,351,31.4,351,33.5z M349.2,33.4c0-2.2,0.6-4,1.8-5.2c1.2-1.3,2.7-1.9,4.6-1.9
		c1.2,0,2.4,0.3,3.3,0.9c1,0.6,1.7,1.4,2.3,2.5c0.5,1.1,0.8,2.3,0.8,3.6c0,1.4-0.3,2.6-0.8,3.6c-0.5,1.1-1.3,1.9-2.3,2.4
		c-1,0.6-2.1,0.8-3.3,0.8c-1.3,0-2.4-0.3-3.4-0.9c-1-0.6-1.7-1.4-2.3-2.5C349.4,35.7,349.2,34.6,349.2,33.4z M339.2,39.9V26.6h1.8
		v11.8h6.6V40h-8.4V39.9z M326.1,33.5c0,1.6,0.4,2.9,1.3,3.8s2,1.4,3.3,1.4s2.4-0.5,3.3-1.4s1.3-2.3,1.3-4c0-1.1-0.2-2-0.6-2.9
		c-0.4-0.8-0.9-1.4-1.6-1.9c-0.7-0.4-1.5-0.7-2.4-0.7c-1.3,0-2.3,0.4-3.2,1.3C326.5,30,326.1,31.4,326.1,33.5z M324.2,33.4
		c0-2.2,0.6-4,1.8-5.2c1.2-1.3,2.7-1.9,4.6-1.9c1.2,0,2.4,0.3,3.3,0.9c1,0.6,1.7,1.4,2.3,2.5c0.5,1.1,0.8,2.3,0.8,3.6
		c0,1.4-0.3,2.6-0.8,3.6c-0.5,1.1-1.3,1.9-2.3,2.4c-1,0.6-2.1,0.8-3.3,0.8c-1.3,0-2.4-0.3-3.4-0.9c-1-0.6-1.7-1.4-2.3-2.5
		C324.5,35.7,324.2,34.6,324.2,33.4z M320.8,35.3l1.8,0.4c-0.4,1.5-1,2.6-2,3.3c-1,0.8-2.1,1.1-3.5,1.1s-2.6-0.3-3.5-0.9
		c-0.9-0.6-1.6-1.4-2.1-2.6c-0.5-1.1-0.7-2.3-0.7-3.6c0-1.4,0.3-2.6,0.8-3.6s1.3-1.8,2.3-2.4c1-0.5,2.1-0.8,3.2-0.8
		c1.3,0,2.5,0.3,3.4,1s1.5,1.6,1.9,2.9l-1.7,0.4c-0.3-1-0.8-1.7-1.4-2.1s-1.3-0.7-2.2-0.7c-1,0-1.9,0.2-2.6,0.7s-1.2,1.2-1.5,2
		s-0.4,1.7-0.4,2.6c0,1.1,0.2,2.1,0.5,3c0.3,0.8,0.8,1.5,1.6,1.9c0.7,0.4,1.5,0.6,2.3,0.6c1,0,1.8-0.3,2.5-0.9
		C320.1,37.2,320.6,36.4,320.8,35.3z M293.6,39.9V26.6h9.7v1.6h-7.9v4.1h7.4v1.6h-7.4v4.6h8.2v1.6h-10V39.9z M281.8,38.4h2.9
		c0.9,0,1.6-0.1,2.1-0.2c0.5-0.2,0.9-0.4,1.2-0.7c0.4-0.4,0.7-1,1-1.7c0.2-0.7,0.4-1.6,0.4-2.6c0-1.4-0.2-2.5-0.7-3.2
		c-0.5-0.8-1-1.3-1.7-1.5c-0.5-0.2-1.2-0.3-2.3-0.3h-2.8v10.2L281.8,38.4L281.8,38.4z M280.1,39.9V26.6h4.6c1,0,1.8,0.1,2.4,0.2
		c0.8,0.2,1.4,0.5,2,1c0.7,0.6,1.2,1.4,1.6,2.3s0.5,2,0.5,3.2c0,1-0.1,1.9-0.4,2.7c-0.2,0.8-0.5,1.4-0.9,2c-0.4,0.5-0.8,0.9-1.2,1.2
		c-0.4,0.3-1,0.5-1.6,0.7s-1.3,0.2-2.2,0.2h-4.8V39.9z"/>
	<rect x="2.6" class="st0" width="176.3" height="4"/>
	<rect x="2.6" y="40.8" class="st0" width="176.3" height="4"/>
</g>
</svg>
