<svg xmlns="http://www.w3.org/2000/svg" width="96" height="96" viewBox="0 0 96 96">
    <defs>
        <linearGradient id="0y2icvwnga" x1="50%" x2="50%" y1="-13.25%" y2="161.547%">
            <stop offset="0%" stop-color="#FFF"/>
            <stop offset="100%" stop-color="#DFE5F9"/>
        </linearGradient>
    </defs>
    <g fill="none" fill-rule="evenodd">
        <g>
            <g>
                <g>
                    <g>
                        <g>
                            <path fill="url(#0y2icvwnga)" d="M45 0L90 45 45 90 0 45z" transform="translate(-112 -2448) translate(8 1864) translate(10 584) translate(94) translate(3 3)"/>
                            <path fill="#F3F6FE" d="M11.121 80.379L10.5 82.5l.621 2.121L9 84l-2.121.621L7.5 82.5l-.621-2.121L9 81l2.121-.621zm73.94-15.44L84.75 66l.31 1.06-1.06-.31-1.06.31.31-1.06-.31-1.06 1.06.31 1.06-.31zM70.9 7.1l-.776 2.651.777 2.652-2.652-.777-2.652.777.777-2.652-.777-2.652 2.652.777 2.652-.777z" transform="translate(-112 -2448) translate(8 1864) translate(10 584) translate(94) translate(3 3)"/>
                            <path fill="#ADBAE6" d="M28.5 82.5l3 3-3 3-3-3 3-3zm51-4.5l3 3-3 3-3-3 3-3zM3 55.5l3 3-3 3-3-3 3-3zM85.5 24l3 3-3 3-3-3 3-3zM15 4.5L19.5 9 15 13.5 10.5 9 15 4.5z" transform="translate(-112 -2448) translate(8 1864) translate(10 584) translate(94) translate(3 3)"/>
                        </g>
                        <g>
                            <path fill="#ADBAE6" d="M15.754 7.5c1.319 0 2.572.548 3.619 1.58.701.646 1.382 1.334 2.031 2l.498.516 3.455 3.442c2.268 2.258 2.268 5.183 0 7.44l-.908.914c-.799.808-1.62 1.646-2.506 2.452.659 1.452 1.567 2.882 2.918 4.58 2.786 3.41 5.69 6.044 8.888 8.064.314.195.681.377 1.07.57l.831.43 3.414-3.386c1.09-1.085 2.365-1.655 3.693-1.655 1.236 0 2.408.494 3.405 1.424l.246.242 5.93 5.924C53.428 43.112 54 44.393 54 45.725c0 1.324-.562 2.614-1.63 3.721-.31.323-.624.636-.936.94l-.467.447c-.511.492-1.004.96-1.455 1.449l-.437.497-.043.054C47.391 54.607 45.296 55.5 42.8 55.5c-.216 0-.453-.011-.68-.022-3.705-.236-7.02-1.623-9.505-2.795-6.503-3.13-12.194-7.57-16.926-13.194-3.899-4.667-6.513-9.021-8.262-13.72-.713-1.914-1.642-4.84-1.383-7.978.16-1.808.852-3.383 2.058-4.701l.287-.3 3.694-3.71c1.08-1.032 2.354-1.58 3.67-1.58zm17.316.02c5.226.892 9.984 3.357 13.769 7.144 3.785 3.785 6.25 8.544 7.14 13.772-.912.118-1.86.304-2.663.441-.792-4.667-2.994-8.925-6.38-12.31-3.385-3.376-7.64-5.59-12.307-6.382.188-1.071.291-1.643.44-2.664zm.09 7.5c3.332.567 6.367 2.142 8.773 4.548 2.405 2.406 3.982 5.441 4.548 8.772l-2.805.483c-.472-2.753-1.764-5.253-3.76-7.249-1.996-1.995-4.496-3.298-7.249-3.76.188-1.055.282-1.589.494-2.795z" transform="translate(-112 -2448) translate(8 1864) translate(10 584) translate(94) translate(18 18)"/>
                            <path fill="#00246F" d="M15.754 6c1.715.365 2.92.892 3.619 1.58.701.646 1.382 1.334 2.031 2l.498.516 3.455 3.442c2.268 2.258 2.268 5.183 0 7.44l-.908.914c-.799.808-1.62 1.646-2.506 2.452.659 1.452 1.567 2.882 2.918 4.58 2.786 3.41 5.69 6.044 8.888 8.064.314.195.681.377 1.07.57l.831.43 3.414-3.386c1.09-1.085 2.365-1.655 3.693-1.655 1.236 0 2.408.494 3.405 1.424l.246.242 5.93 5.924C53.428 41.612 54 42.893 54 44.225c0 1.324-.562 2.614-1.63 3.721-.31.323-.624.636-.936.94l-.467.447c-.511.492-1.004.96-1.455 1.449l-.437.497-.043.054C47.391 53.107 45.296 54 42.8 54c-.216 0-.453-.011-.68-.022-3.705-.236-7.02-1.623-9.505-2.795-6.503-3.13-12.194-7.57-16.926-13.194-3.899-4.667-6.513-9.021-8.262-13.72-.713-1.914-1.642-4.84-1.383-7.978.16-1.808.852-3.383 2.058-4.701l.287-.3 3.694-3.71c.72-.688 1.943-1.215 3.67-1.58zm17.316.02c5.226.892 9.984 3.357 13.769 7.144 3.785 3.785 6.25 8.544 7.14 13.772-.912.118-1.86.304-2.663.441-.792-4.667-2.994-8.925-6.38-12.31-3.385-3.376-7.64-5.59-12.307-6.382.188-1.071.291-1.643.44-2.664zm.09 7.5c3.332.567 6.367 2.142 8.773 4.548 2.405 2.406 3.982 5.441 4.548 8.772l-2.805.483c-.472-2.753-1.764-5.253-3.76-7.249-1.996-1.995-4.496-3.298-7.249-3.76.188-1.055.282-1.589.494-2.795z" transform="translate(-112 -2448) translate(8 1864) translate(10 584) translate(94) translate(18 18)"/>
                            <path fill="#FFF" d="M15.754 9c-.452 0-.924.179-1.367.54l-.2.179-3.683 3.699c-.884.88-1.362 1.897-1.47 3.12-.172 2.084.273 4.183 1.204 6.684 1.63 4.379 4.075 8.442 7.746 12.836 4.464 5.305 9.819 9.48 15.91 12.412 3.224 1.52 5.751 2.344 8.371 2.511L42.8 51c1.552 0 2.778-.477 3.799-1.467l.184-.19.214-.25c.236-.272.488-.541.773-.83l.425-.423.708-.684c.495-.469.914-.882 1.309-1.294.545-.565.788-1.12.788-1.637 0-.441-.18-.896-.592-1.364l-.19-.202-5.97-5.963c-.503-.522-1-.749-1.49-.749-.44 0-.9.18-1.376.593l-.205.191-4.99 4.952-2.176-1.167-1.103-.562c-.277-.144-.514-.276-.762-.43-3.483-2.201-6.626-5.052-9.634-8.733-1.34-1.687-2.318-3.18-3.061-4.7l-.24-.508-.902-1.989 1.615-1.47c.192-.174.386-.355.588-.548l1.67-1.658 1.058-1.065c1.03-1.026 1.087-1.99.172-3.009l-.172-.18-3.508-3.496-.803-.827-.588-.593-.273-.27-.533-.51-.27-.252C16.765 9.221 16.259 9 15.755 9z" transform="translate(-112 -2448) translate(8 1864) translate(10 584) translate(94) translate(18 18)"/>
                        </g>
                    </g>
                </g>
            </g>
        </g>
    </g>
</svg>
