<svg xmlns="http://www.w3.org/2000/svg" width="24" height="24" viewBox="0 0 24 24">
    <defs>
        <linearGradient id="g5vpclhrca" x1="50%" x2="50%" y1="100%" y2="0%">
            <stop offset="25%" stop-color="#DBDBDA"/>
            <stop offset="100%" stop-color="#FFF"/>
        </linearGradient>
        <linearGradient id="qbi1z1virc" x1="49.05%" x2="25.713%" y1="35.703%" y2="77.572%">
            <stop offset="0%" stop-opacity="0"/>
            <stop offset="100%"/>
        </linearGradient>
        <radialGradient id="4v5rfw86fb" cx="57.025%" cy="39.017%" r="61.032%" fx="57.025%" fy="39.017%">
            <stop offset="0%" stop-color="#2ABCE1"/>
            <stop offset="11.363%" stop-color="#2ABBE1"/>
            <stop offset="100%" stop-color="#3375F8"/>
        </radialGradient>
    </defs>
    <g fill="none" fill-rule="evenodd">
        <g fill-rule="nonzero">
            <g transform="translate(2.000000, 2.000000)">
                <circle cx="10" cy="10" r="10" fill="url(#g5vpclhrca)"/>
                <circle cx="10" cy="10" r="9.25" fill="url(#4v5rfw86fb)"/>
                <g transform="translate(0.804687, 0.742188)">
                    <path fill="#F3F3F3" d="M9.21 2.258c-.062 0-.116-.047-.116-.11V.516c0-.063.054-.11.117-.11.062 0 .117.047.117.11v1.632c-.008.063-.055.11-.117.11z"/>
                    <path fill="#FFF" d="M9.586 2.266c-.281 0-.5-.055-.5-.118V.516c0-.063.219-.118.5-.118s.5.055.5.118v1.632c0 .063-.25.118-.5.118zm0-1.852c-.219 0-.438.047-.438.102v1.632c0 .055.188.102.438.102.219 0 .437-.047.437-.102V.516C9.993.46 9.805.414 9.586.414z"/>
                    <path fill="#F3F3F3" d="M9.992 1.383c-.062-.008-.11-.055-.11-.117l.056-.727c.007-.062.062-.11.124-.102.063.008.11.055.11.118l-.055.726c-.008.063-.062.11-.125.102z"/>
                    <path fill="#FFF" d="M10.26 1.428c-.231-.008-.385-.065-.385-.13l.18-.755c.025-.065.205-.121.435-.113.231.008.385.065.385.13l-.18.754c-.025.073-.205.122-.435.114zm.23-.982c-.18 0-.359.04-.359.097l-.18.755c0 .057.13.106.334.114.18 0 .36-.04.36-.098l.179-.754c0-.057-.154-.106-.334-.114z"/>
                    <path fill="#F3F3F3" d="M10.578 2.398c-.062-.015-.101-.07-.094-.132l.32-1.602c.016-.062.071-.102.133-.086.063.016.102.07.094.133l-.32 1.602c-.008.054-.07.093-.133.085z"/>
                    <path fill="#FFF" d="M10.655 2.406c-.123-.015-.191-.078-.178-.14l.56-1.602c.027-.062.137-.11.26-.094.122.016.19.078.177.14l-.56 1.603c-.027.062-.136.101-.26.093zm.641-1.82c-.095-.008-.19.023-.218.078l-.56 1.602c-.013.054.041.109.15.125.096.007.192-.024.219-.079l.56-1.601c.013-.063-.055-.11-.15-.125z"/>
                    <path fill="#F3F3F3" d="M11.516 1.695c-.063-.015-.102-.078-.086-.14l.195-.703c.016-.063.078-.094.14-.079.063.016.102.079.087.141l-.196.703c-.015.063-.078.094-.14.078z"/>
                    <path fill="#FFF" d="M11.632 1.759c-.142-.017-.248-.091-.195-.158l.442-.744c.036-.066.195-.108.336-.091.142.016.248.09.195.157l-.442.745c-.036.066-.177.107-.336.09zm.583-.968c-.124-.017-.265.016-.3.074l-.442.745c-.036.058.035.115.177.132.123.017.265-.017.3-.074l.442-.745c.018-.058-.053-.116-.177-.132z"/>
                    <path fill="#F3F3F3" d="M11.898 2.797c-.062-.024-.085-.094-.062-.149l.625-1.507c.023-.055.094-.086.148-.055.063.023.086.094.063.148l-.625 1.508c-.024.055-.094.086-.149.055z"/>
                    <path fill="#FFF" d="M11.91 2.805c-.072-.024-.108-.094-.08-.157l.714-1.507c.026-.063.107-.086.187-.063.072.024.107.094.08.156l-.714 1.508c-.036.063-.116.094-.187.063zm.812-1.711c-.062-.024-.134 0-.16.054l-.715 1.508c-.027.055.009.11.072.133.062.023.133 0 .16-.055l.715-1.507c.017-.047-.01-.11-.072-.133z"/>
                    <path fill="#F3F3F3" d="M12.953 2.297c-.055-.031-.078-.094-.055-.149l.329-.648c.03-.055.093-.078.156-.047.055.031.078.094.055.149l-.329.648c-.03.055-.093.078-.156.047z"/>
                    <path fill="#FFF" d="M13.004 2.408c-.109-.035-.15-.113-.095-.183l.57-.725c.055-.07.178-.096.286-.06.11.034.15.113.096.182l-.572.725c-.054.07-.176.096-.285.061zm.748-.951c-.095-.027-.204-.01-.245.052l-.571.725c-.041.052 0 .122.081.157.096.026.204.009.245-.053l.571-.724c.041-.053 0-.122-.081-.157z"/>
                    <path fill="#F3F3F3" d="M13.11 3.453c-.055-.039-.07-.11-.032-.156l.906-1.352c.032-.054.102-.062.157-.03.054.038.07.108.03.155l-.905 1.352c-.032.055-.102.07-.157.031z"/>
                    <path fill="#FFF" d="M13.11 3.46c-.055-.038-.07-.116-.04-.17l.907-1.353c.039-.054.109-.07.171-.03.055.038.07.116.04.171L13.28 3.43c-.039.054-.117.07-.172.03zm1.03-1.538c-.046-.031-.117-.024-.148.023l-.906 1.352c-.031.047-.016.11.031.14.047.032.117.024.149-.023l.906-1.344c.031-.047.015-.117-.031-.148z"/>
                    <path fill="#F3F3F3" d="M14.25 3.164c-.047-.039-.063-.11-.023-.156l.453-.57c.039-.047.11-.055.156-.016.047.039.062.11.023.156l-.453.57c-.039.047-.11.055-.156.016z"/>
                    <path fill="#FFF" d="M14.263 3.346c-.078-.048-.09-.143-.034-.21l.65-.696c.056-.067.168-.076.247-.02.078.049.09.144.033.21l-.65.697c-.056.066-.168.076-.246.019zm.84-.906c-.067-.048-.157-.038-.213.019l-.65.696c-.044.057-.033.134.034.181.067.048.157.038.213-.019l.65-.696c.045-.057.034-.143-.034-.181z"/>
                    <path fill="#F3F3F3" d="M14.172 4.336c-.047-.047-.047-.117 0-.156l1.156-1.149c.047-.047.117-.039.156 0 .04.04.047.117 0 .156l-1.148 1.149c-.047.047-.117.047-.164 0z"/>
                    <path fill="#FFF" d="M14.164 4.344c-.047-.047-.047-.125 0-.172l1.156-1.149c.047-.046.125-.046.172 0 .047.047.047.125 0 .172l-1.156 1.149c-.047.047-.125.047-.172 0zm1.32-1.313c-.039-.039-.109-.039-.148 0L14.18 4.18c-.04.039-.04.11 0 .148.039.04.11.04.148 0l1.156-1.148c.04-.04.04-.102 0-.149z"/>
                    <path fill="#F3F3F3" d="M15.344 4.273c-.04-.046-.04-.117.008-.156l.554-.469c.047-.039.117-.03.156.016.04.047.04.117-.007.156l-.555.47c-.047.038-.117.03-.156-.017z"/>
                    <path fill="#FFF" d="M15.344 4.545c-.059-.076-.049-.185.01-.24l.695-.652c.06-.066.157-.055.216.021.059.077.049.186-.01.24l-.696.653c-.058.065-.156.054-.215-.022zm.901-.86c-.049-.065-.127-.065-.186-.021l-.695.653c-.05.054-.06.141-.01.206.049.066.127.066.186.022l.696-.653c.058-.054.058-.141.01-.207z"/>
                    <path fill="#F3F3F3" d="M15.031 5.398c-.039-.054-.023-.125.031-.156l1.36-.906c.055-.031.125-.016.156.031.04.055.024.125-.031.156l-1.36.907c-.046.03-.117.015-.156-.032z"/>
                    <path fill="#FFF" d="M15.023 5.398c-.039-.054-.023-.132.032-.171l1.36-.907c.054-.039.132-.023.17.04.04.054.024.132-.03.171l-1.36.907c-.054.039-.133.023-.172-.04zm1.547-1.023c-.03-.047-.093-.063-.14-.031l-1.36.906c-.047.031-.062.094-.023.148.031.047.094.063.14.032l1.36-.907c.047-.039.055-.101.023-.148z"/>
                    <path fill="#F3F3F3" d="M16.195 5.563c-.03-.055-.015-.125.04-.157l.632-.36c.055-.03.125-.007.156.048.032.054.016.125-.039.156l-.632.36c-.055.03-.125.007-.157-.048z"/>
                    <path fill="#FFF" d="M16.19 5.931c-.036-.104-.018-.222.045-.274l.73-.6c.062-.053.152-.014.188.078.036.104.018.222-.045.274l-.729.6c-.063.053-.153.014-.19-.078zm.954-.783c-.036-.092-.108-.118-.162-.066l-.73.601c-.053.052-.071.157-.044.235.036.091.108.118.162.065l.73-.6c.053-.04.071-.144.044-.235z"/>
                    <path fill="#F3F3F3" d="M15.672 6.602c-.024-.063 0-.125.062-.149l1.508-.625c.055-.023.125.008.149.063.023.062 0 .125-.063.148l-1.508.625c-.054.024-.125 0-.148-.062z"/>
                    <path fill="#FFF" d="M15.664 6.723c-.023-.071 0-.152.063-.187l1.507-.715c.063-.026.133.01.157.08.023.072 0 .153-.063.188l-1.508.715c-.062.026-.133-.01-.156-.08zm1.711-.812c-.023-.063-.086-.09-.133-.072l-1.508.715c-.054.026-.078.098-.054.16.023.063.086.09.133.072l1.507-.715c.055-.026.078-.098.055-.16z"/>
                    <path fill="#F3F3F3" d="M16.773 6.992c-.023-.062.008-.125.07-.148l.688-.227c.055-.023.125.016.14.07.024.063-.007.125-.07.149l-.687.226c-.055.024-.117-.007-.14-.07z"/>
                    <path fill="#FFF" d="M16.766 7.436c-.025-.132.008-.281.083-.33l.734-.481c.067-.05.142.033.167.165.025.133-.009.282-.084.332l-.733.48c-.067.033-.142-.033-.167-.166zm.967-.629c-.017-.116-.083-.182-.142-.149l-.733.48c-.059.033-.084.166-.067.282.017.116.084.182.142.149l.733-.48c.059-.05.084-.166.067-.282z"/>
                    <path fill="#F3F3F3" d="M16.07 7.922c-.015-.063.024-.125.086-.133l1.602-.312c.062-.016.117.03.133.093.015.063-.024.125-.086.133l-1.602.313c-.062.007-.125-.032-.133-.094z"/>
                    <path fill="#FFF" d="M16.055 8.274c-.016-.124.03-.234.093-.261l1.602-.55c.063-.027.125.055.14.179.016.124-.03.233-.093.261l-1.602.55c-.062.027-.125-.055-.14-.179zm1.82-.618c-.008-.097-.063-.165-.117-.152l-1.602.55c-.054.014-.093.124-.078.22.008.096.063.165.117.151l1.602-.55c.055-.027.094-.123.078-.22z"/>
                    <path fill="#F3F3F3" d="M17.07 8.523c-.008-.062.032-.117.094-.125l.719-.085c.062-.008.117.039.125.101.008.063-.031.117-.094.125l-.719.086c-.054.008-.117-.04-.125-.102z"/>
                    <path fill="#FFF" d="M17.063 8.97c-.009-.209.04-.394.106-.417l.753-.254c.065-.024.13.115.139.323.008.209-.041.394-.107.417l-.752.255c-.066.023-.131-.116-.14-.324zm.99-.324c-.009-.162-.066-.301-.123-.278l-.753.254c-.057.024-.098.186-.09.348.008.162.066.3.123.277l.753-.254c.057-.023.098-.185.09-.347z"/>
                    <path fill="#F3F3F3" d="M16.195 9.281c0-.062.047-.117.11-.117h1.633c.062 0 .109.055.109.117 0 .063-.047.117-.11.117h-1.632c-.063 0-.11-.054-.11-.117z"/>
                    <path fill="#FFF" d="M16.188 9.656c0-.281.054-.5.117-.5h1.633c.062 0 .117.219.117.5s-.055.5-.117.5h-1.633c-.063 0-.117-.219-.117-.5zm1.851.031c0-.218-.047-.437-.102-.437h-1.632c-.055 0-.102.188-.102.438 0 .218.047.437.102.437h1.633c.054-.031.101-.219.101-.438z"/>
                    <path fill="#F3F3F3" d="M17.063 10.07c.007-.062.054-.11.117-.11l.726.056c.063.007.11.062.102.125-.008.062-.055.109-.117.109l-.727-.055c-.055-.008-.102-.062-.102-.125z"/>
                    <path fill="#FFF" d="M17.055 10.338c.008-.231.065-.385.13-.385l.755.18c.065.025.122.205.114.436-.008.23-.065.384-.13.384l-.756-.18c-.065-.025-.113-.23-.113-.435zm.99.23c.009-.179-.04-.358-.097-.358l-.755-.18c-.057 0-.106.128-.114.333-.008.18.04.36.098.36l.755.179c.057 0 .106-.154.114-.333z"/>
                    <path fill="#F3F3F3" d="M16.055 10.64c.015-.062.07-.1.133-.093l1.601.32c.063.016.102.07.086.133s-.07.102-.133.094l-1.601-.32c-.055-.008-.094-.07-.086-.133z"/>
                    <path fill="#FFF" d="M16.047 10.717c.015-.123.078-.19.14-.177l1.602.56c.063.027.11.136.094.259s-.078.191-.14.177l-1.602-.56c-.063-.027-.102-.136-.094-.259zm1.82.642c.008-.096-.023-.191-.078-.219l-1.602-.56c-.054-.013-.109.042-.125.15-.007.096.024.192.079.22l1.601.56c.063.013.11-.056.125-.151z"/>
                    <path fill="#F3F3F3" d="M16.758 11.578c.015-.062.078-.101.14-.086l.704.195c.062.016.093.079.078.141-.016.063-.078.102-.14.086l-.704-.195c-.063-.016-.094-.078-.078-.14z"/>
                    <path fill="#FFF" d="M16.75 11.694c.017-.141.091-.247.157-.194l.745.442c.066.035.107.194.09.336-.016.141-.09.247-.156.194l-.745-.442c-.066-.035-.107-.177-.09-.336zm.968.584c.017-.124-.016-.265-.074-.3l-.745-.443c-.058-.035-.116.036-.132.177-.017.124.016.265.074.3l.745.442c.058.018.116-.053.132-.176z"/>
                    <path fill="#F3F3F3" d="M15.656 11.953c.024-.062.094-.086.149-.062l1.508.625c.054.023.085.093.062.148-.023.063-.094.086-.148.063l-1.508-.625c-.063-.024-.086-.094-.063-.149z"/>
                    <path fill="#FFF" d="M15.648 11.956c.024-.071.094-.107.157-.08l1.508.714c.062.027.085.108.062.188-.023.071-.094.107-.156.08l-1.508-.714c-.063-.036-.086-.116-.063-.188zm1.711.813c.024-.062 0-.134-.054-.16l-1.508-.715c-.055-.027-.11.009-.133.071-.023.063 0 .134.055.161l1.508.714c.054.018.117-.008.132-.071z"/>
                    <path fill="#F3F3F3" d="M16.164 13.008c.031-.055.094-.078.148-.055l.649.328c.055.024.078.094.047.156-.031.055-.094.079-.149.055l-.648-.328c-.055-.031-.078-.101-.047-.156z"/>
                    <path fill="#FFF" d="M16.158 13.05c.035-.108.113-.149.183-.094l.725.57c.07.055.096.178.061.286-.035.11-.113.15-.183.096l-.725-.572c-.07-.04-.096-.176-.061-.285zm.943.749c.026-.095.009-.204-.053-.245l-.724-.571c-.053-.041-.122 0-.157.081-.027.096-.01.204.052.245l.725.571c.06.041.13.014.157-.081z"/>
                    <path fill="#F3F3F3" d="M15.016 13.156c.039-.054.101-.07.156-.031l1.36.906c.054.031.062.102.03.156-.039.055-.101.07-.156.032l-1.36-.906c-.054-.04-.07-.11-.03-.157z"/>
                    <path fill="#FFF" d="M15.008 13.148c.039-.054.117-.07.172-.039l1.36.907c.054.039.07.109.03.171-.039.055-.117.07-.172.04l-1.359-.907c-.062-.039-.07-.117-.031-.172zm1.539 1.032c.031-.047.023-.117-.024-.149l-1.359-.906c-.047-.031-.11-.016-.14.031-.032.047-.024.117.023.149l1.36.906c.046.031.109.016.14-.031z"/>
                    <path fill="#F3F3F3" d="M15.305 14.29c.039-.048.11-.063.156-.024l.57.445c.047.039.055.11.016.156-.04.047-.11.063-.156.024l-.57-.446c-.048-.039-.055-.11-.016-.156z"/>
                    <path fill="#FFF" d="M15.302 14.303c.048-.08.144-.09.211-.034l.7.646c.068.056.077.17.03.249-.048.08-.144.09-.212.034l-.7-.646c-.067-.057-.077-.17-.029-.25zm.921.85c.048-.068.039-.159-.019-.216l-.7-.646c-.058-.045-.134-.034-.182.034-.048.068-.039.16.019.216l.7.646c.058.045.134.034.182-.034z"/>
                    <path fill="#F3F3F3" d="M14.14 14.21c.047-.046.118-.046.157 0l1.156 1.15c.047.046.04.117 0 .156-.047.046-.117.046-.156 0l-1.156-1.149c-.04-.039-.04-.117 0-.156z"/>
                    <path fill="#FFF" d="M14.14 14.203c.047-.047.126-.047.172 0l1.157 1.149c.047.046.047.125 0 .171-.047.047-.125.047-.172 0l-1.156-1.148c-.055-.047-.055-.125 0-.172zm1.313 1.305c.04-.04.04-.11 0-.149l-1.156-1.148c-.04-.04-.11-.04-.149 0-.039.039-.039.11 0 .148l1.157 1.149c.039.047.101.047.148 0z"/>
                    <path fill="#F3F3F3" d="M14.21 15.375c.048-.04.118-.04.157.008l.477.547c.039.047.031.117-.016.156-.047.039-.117.039-.156-.008l-.477-.547c-.039-.039-.03-.11.016-.156z"/>
                    <path fill="#FFF" d="M14.22 15.383c.075-.059.173-.05.238.01l.66.693c.064.06.053.158-.022.218-.076.059-.173.05-.238-.01l-.66-.693c-.054-.07-.054-.168.022-.218zm.865.9c.065-.049.065-.128.021-.187l-.66-.693c-.053-.05-.14-.06-.205-.01-.065.05-.065.129-.021.188l.66.693c.053.06.14.06.205.01z"/>
                    <path fill="#F3F3F3" d="M13.086 15.078c.055-.039.125-.023.156.031l.906 1.352c.032.055.016.125-.03.156-.056.04-.126.024-.157-.031l-.906-1.352c-.032-.054-.016-.125.03-.156z"/>
                    <path fill="#FFF" d="M13.086 15.07c.055-.039.133-.023.172.032l.906 1.351c.04.055.024.133-.039.172-.055.04-.133.023-.172-.031l-.906-1.352c-.04-.062-.024-.133.039-.172zm1.031 1.54c.047-.032.063-.094.031-.141l-.906-1.352c-.031-.047-.094-.055-.148-.023-.047.031-.063.094-.031.14l.906 1.352c.031.039.101.055.148.023z"/>
                    <path fill="#F3F3F3" d="M12.922 16.234c.055-.03.125-.015.156.04l.36.632c.03.055.007.125-.047.157-.055.03-.125.015-.157-.04l-.359-.632c-.023-.055-.008-.125.047-.157z"/>
                    <path fill="#FFF" d="M12.963 16.229c.104-.036.221-.018.273.045l.597.73c.052.062.026.152-.078.188-.103.036-.22.018-.272-.045l-.598-.729c-.052-.063-.026-.144.078-.189zm.78.954c.077-.036.116-.108.064-.162l-.597-.729c-.052-.054-.156-.072-.234-.045-.078.036-.117.108-.065.162l.598.73c.039.053.156.08.233.044z"/>
                    <path fill="#F3F3F3" d="M11.883 15.719c.062-.024.125 0 .148.054l.633 1.508c.024.055-.008.125-.062.149-.055.023-.125 0-.149-.055l-.633-1.508c-.023-.055.008-.125.063-.148z"/>
                    <path fill="#FFF" d="M11.893 15.71c.071-.023.15 0 .186.063l.717 1.508c.026.063-.009.133-.08.157-.07.023-.15 0-.186-.063l-.716-1.508c-.027-.055.008-.125.08-.156zm.806 1.712c.062-.024.088-.086.062-.133l-.717-1.508c-.027-.054-.098-.078-.16-.054-.062.023-.088.085-.062.132l.717 1.508c.036.055.098.078.16.055z"/>
                    <path fill="#F3F3F3" d="M11.5 16.828c.063-.023.125.008.148.07l.227.688c.023.055-.016.125-.07.14-.063.024-.125-.007-.149-.07l-.226-.687c-.024-.055.008-.117.07-.14z"/>
                    <path fill="#FFF" d="M11.584 16.82c.133-.024.282.01.331.077l.48.74c.05.066-.033.142-.165.167-.133.025-.282-.008-.331-.075l-.48-.74c-.034-.067.033-.143.165-.168zm.646.967c.116-.016.182-.084.149-.143l-.48-.74c-.033-.058-.166-.083-.282-.066-.116.017-.182.084-.149.143l.48.74c.034.058.166.092.282.066z"/>
                    <path fill="#F3F3F3" d="M10.578 16.117c.063-.015.125.024.133.086l.328 1.602c.016.062-.031.117-.094.133-.062.015-.125-.024-.133-.086l-.328-1.602c-.007-.055.032-.117.094-.133z"/>
                    <path fill="#FFF" d="M10.65 16.11c.121-.016.23.03.257.093l.569 1.602c.027.062-.054.133-.163.14-.122.016-.23-.03-.257-.093l-.57-1.602c-.026-.063.042-.125.163-.14zm.636 1.82c.095-.008.163-.063.15-.125l-.57-1.602c-.013-.055-.122-.094-.217-.078-.094.008-.162.063-.149.125l.57 1.602c.026.054.121.085.216.078z"/>
                    <path fill="#F3F3F3" d="M9.984 17.133c.063-.008.118.031.133.094l.094.718c.008.063-.04.117-.102.125-.062.008-.117-.03-.132-.093l-.094-.72c-.008-.062.039-.116.101-.124z"/>
                    <path fill="#FFF" d="M10.193 17.125c.204-.008.385.041.407.106l.272.753c.022.066-.113.131-.317.14-.203.007-.384-.042-.407-.107l-.271-.753c-.023-.065.113-.13.316-.139zm.34.982c.158-.008.293-.066.27-.123l-.27-.753c-.023-.057-.181-.098-.34-.09-.158.009-.294.066-.271.123l.271.753c.023.057.181.098.34.09z"/>
                    <path fill="#F3F3F3" d="M9.18 16.258c.062 0 .117.047.117.11V18c0 .063-.055.11-.117.11-.063 0-.117-.047-.117-.11v-1.633c.007-.062.054-.11.117-.11z"/>
                    <path fill="#FFF" d="M9.555 16.25c.28 0 .5.055.5.117V18c0 .063-.22.117-.5.117-.282 0-.5-.055-.5-.117v-1.633c0-.062.25-.117.5-.117zm0 1.852c.218 0 .437-.047.437-.102v-1.633c0-.055-.187-.101-.437-.101-.22 0-.438.047-.438.101V18c.031.055.219.102.438.102z"/>
                    <path fill="#F3F3F3" d="M8.398 17.133c.063.008.11.055.11.117l-.055.727c-.008.062-.062.109-.125.101-.062-.008-.11-.055-.11-.117l.055-.727c.008-.062.063-.109.125-.101z"/>
                    <path fill="#FFF" d="M8.826 17.125c.231.008.385.065.385.13l-.18.755c-.025.065-.205.121-.435.113-.231-.008-.385-.065-.385-.13l.18-.754c.025-.073.205-.122.435-.114zm-.23.982c.179 0 .359-.04.359-.097l.179-.755c0-.057-.128-.106-.333-.114-.18 0-.36.04-.36.098l-.179.755c0 .056.154.105.334.113z"/>
                    <path fill="#F3F3F3" d="M7.813 16.117c.062.016.101.07.093.133l-.32 1.602c-.016.062-.07.101-.133.085-.062-.015-.101-.07-.094-.132l.32-1.602c.008-.055.071-.094.133-.086z"/>
                    <path fill="#FFF" d="M8.164 16.11c.122.015.19.078.177.14l-.56 1.602c-.027.062-.136.109-.259.093-.123-.015-.191-.078-.178-.14l.56-1.602c.027-.062.137-.101.26-.094zm-.642 1.82c.096.008.191-.024.218-.078l.56-1.602c.014-.055-.04-.11-.15-.125-.096-.008-.191.023-.219.078l-.56 1.602c-.013.062.055.11.151.125z"/>
                    <path fill="#F3F3F3" d="M6.875 16.82c.063.016.102.078.086.14l-.195.704c-.016.063-.079.094-.141.078-.063-.015-.102-.078-.086-.14l.195-.704c.016-.062.079-.093.141-.078z"/>
                    <path fill="#FFF" d="M7.317 16.813c.141.016.247.09.194.157l-.442.744c-.035.067-.194.108-.336.091-.141-.016-.247-.09-.194-.157l.442-.744c.035-.066.177-.108.336-.091zm-.584.968c.124.016.266-.017.3-.075l.443-.744c.035-.058-.035-.116-.177-.133-.124-.016-.265.017-.3.075l-.442.744c-.018.058.053.116.176.133z"/>
                    <path fill="#F3F3F3" d="M6.492 15.719c.063.023.086.094.063.148l-.625 1.508c-.024.055-.094.086-.149.055-.054-.032-.086-.094-.062-.149l.625-1.508c.023-.054.093-.085.148-.054z"/>
                    <path fill="#FFF" d="M6.606 15.71c.072.024.107.095.08.157l-.714 1.508c-.027.063-.107.086-.187.063-.072-.024-.108-.094-.08-.157l.714-1.508c.035-.062.116-.093.187-.062zm-.812 1.712c.062.023.133 0 .16-.055l.715-1.508c.026-.054-.01-.109-.072-.132-.062-.024-.134 0-.16.054l-.715 1.508c-.018.047.009.11.072.133z"/>
                    <path fill="#F3F3F3" d="M5.438 16.219c.054.031.078.093.054.148l-.328.649c-.031.054-.094.078-.156.047-.055-.032-.078-.094-.055-.149l.328-.648c.032-.055.094-.078.157-.047z"/>
                    <path fill="#FFF" d="M5.812 16.213c.11.034.15.113.096.183l-.572.725c-.054.07-.176.096-.285.06-.11-.034-.15-.113-.095-.183l.57-.724c.055-.07.178-.096.286-.061zm-.748.951c.096.026.204.009.245-.052l.571-.725c.041-.052 0-.122-.081-.157-.095-.026-.204-.009-.245.052l-.571.725c-.041.053 0 .122.081.157z"/>
                    <path fill="#F3F3F3" d="M5.281 15.063c.055.039.07.109.032.156l-.907 1.351c-.031.055-.101.063-.156.032-.055-.04-.07-.11-.031-.157l.906-1.351c.031-.055.102-.07.156-.031z"/>
                    <path fill="#FFF" d="M5.281 15.055c.055.039.07.117.04.172l-.907 1.351c-.039.055-.11.07-.172.031-.054-.039-.07-.117-.039-.172l.906-1.351c.04-.055.118-.07.172-.031zM4.25 16.594c.047.031.117.023.148-.024l.907-1.351c.03-.047.015-.11-.032-.14-.046-.032-.117-.024-.148.023l-.906 1.343c-.032.047-.016.117.031.149z"/>
                    <path fill="#F3F3F3" d="M4.14 15.352c.048.039.063.109.024.156l-.453.57c-.04.047-.11.055-.156.016-.047-.04-.063-.11-.024-.157l.453-.57c.04-.047.11-.055.157-.015z"/>
                    <path fill="#FFF" d="M4.43 15.35c.079.048.09.144.034.21l-.65.696c-.056.067-.168.077-.246.02-.079-.048-.09-.144-.034-.21l.65-.696c.056-.067.168-.077.246-.02zm-.84.906c.067.048.157.038.213-.019l.65-.696c.045-.057.033-.133-.034-.18-.067-.049-.157-.04-.213.018l-.65.696c-.044.057-.033.143.034.181z"/>
                    <path fill="#F3F3F3" d="M4.219 14.18c.047.047.047.117 0 .156l-1.157 1.148c-.046.047-.117.04-.156 0-.039-.039-.047-.117 0-.156l1.149-1.148c.047-.047.117-.047.164 0z"/>
                    <path fill="#FFF" d="M4.227 14.172c.046.047.046.125 0 .172L3.07 15.492c-.047.047-.125.047-.172 0-.046-.047-.046-.125 0-.172l1.157-1.148c.047-.047.125-.047.172 0zm-1.32 1.312c.038.04.109.04.148 0l1.156-1.148c.039-.04.039-.11 0-.149-.04-.039-.11-.039-.149 0l-1.156 1.149c-.039.039-.039.101 0 .148z"/>
                    <path fill="#F3F3F3" d="M3.047 14.242c.039.047.039.117-.008.156l-.555.47c-.046.038-.117.03-.156-.016-.039-.047-.039-.118.008-.157l.555-.468c.046-.04.117-.032.156.015z"/>
                    <path fill="#FFF" d="M3.25 14.253c.058.076.048.185-.01.24l-.696.652c-.059.065-.157.055-.216-.022-.058-.076-.049-.185.01-.24l.696-.652c.059-.065.157-.055.215.022zm-.902.86c.049.065.127.065.186.021l.696-.653c.049-.054.059-.141.01-.207-.05-.065-.128-.065-.187-.021l-.695.653c-.06.054-.06.141-.01.206z"/>
                    <path fill="#F3F3F3" d="M3.36 13.117c.038.055.023.125-.032.156l-1.36.907c-.054.03-.124.015-.155-.032-.04-.054-.024-.125.03-.156l1.36-.906c.047-.031.117-.016.156.031z"/>
                    <path fill="#FFF" d="M3.367 13.117c.04.055.024.133-.031.172l-1.36.906c-.054.04-.132.024-.171-.039-.04-.054-.024-.133.03-.172l1.36-.906c.055-.039.133-.023.172.04zM1.82 14.141c.032.046.094.062.14.03l1.36-.905c.047-.032.063-.094.024-.149-.031-.047-.094-.062-.14-.031l-1.36.906c-.047.04-.055.102-.024.149z"/>
                    <path fill="#F3F3F3" d="M2.195 12.953c.032.055.016.125-.039.156l-.633.36c-.054.031-.125.008-.156-.047s-.015-.125.04-.156l.632-.36c.055-.031.125-.008.156.047z"/>
                    <path fill="#FFF" d="M2.333 12.986c.036.105.018.222-.045.274l-.73.601c-.062.052-.152.013-.188-.078-.036-.105-.018-.222.045-.275l.729-.6c.063-.052.153-.013.189.078zm-.954.784c.036.091.108.117.162.065l.729-.6c.054-.053.072-.157.045-.236-.036-.091-.108-.117-.162-.065l-.73.6c-.053.04-.071.144-.044.236z"/>
                    <path fill="#F3F3F3" d="M2.719 11.914c.023.063 0 .125-.063.149l-1.508.624c-.054.024-.125-.007-.148-.062-.023-.063 0-.125.063-.148l1.507-.625c.055-.024.125 0 .149.062z"/>
                    <path fill="#FFF" d="M2.727 11.917c.023.072 0 .152-.063.188l-1.508.714c-.062.027-.133-.009-.156-.08-.023-.072 0-.152.063-.188l1.507-.714c.063-.027.133.009.157.08zm-1.711.813c.023.062.086.09.132.071l1.508-.714c.055-.027.078-.098.055-.16-.023-.063-.086-.09-.133-.072l-1.508.714c-.054.027-.078.098-.054.161z"/>
                    <path fill="#F3F3F3" d="M1.617 11.523c.024.063-.008.125-.07.149l-.688.226c-.054.024-.125-.015-.14-.07-.024-.062.008-.125.07-.148l.688-.227c.054-.023.117.008.14.07z"/>
                    <path fill="#FFF" d="M1.687 11.608c.025.132-.008.281-.083.33l-.734.48c-.066.05-.141-.032-.166-.165-.025-.132.008-.281.083-.33l.734-.481c.066-.033.141.033.166.166zm-.967.629c.017.116.084.182.142.149l.734-.48c.058-.034.083-.166.066-.282-.016-.116-.083-.182-.141-.149l-.734.48c-.058.05-.083.166-.067.282z"/>
                    <path fill="#F3F3F3" d="M2.32 10.594c.016.062-.023.125-.086.133l-1.601.312c-.063.016-.117-.031-.133-.094-.016-.062.023-.125.086-.133l1.602-.312c.062-.008.124.031.132.094z"/>
                    <path fill="#FFF" d="M2.336 10.673c.016.124-.031.234-.094.261l-1.601.55c-.063.027-.125-.055-.141-.179-.016-.123.031-.233.094-.26l1.601-.55c.063-.028.125.054.14.178zm-1.82.618c.007.097.062.165.117.152l1.601-.55c.055-.014.094-.124.079-.22-.008-.096-.063-.165-.118-.151l-1.601.55c-.055.027-.094.123-.078.22z"/>
                    <path fill="#F3F3F3" d="M1.32 9.992c.008.063-.03.117-.093.125l-.72.086c-.062.008-.116-.039-.124-.101-.008-.063.031-.118.094-.125l.718-.086c.055-.008.117.039.125.101z"/>
                    <path fill="#FFF" d="M1.373 10.208c.008.209-.04.394-.106.417l-.753.254c-.065.024-.13-.115-.139-.323-.008-.209.041-.394.106-.417l.753-.255c.066-.023.131.116.14.324zm-.99.324c.008.162.066.301.123.278l.753-.254c.057-.024.098-.186.09-.348-.008-.162-.066-.3-.123-.277l-.753.254c-.057.023-.098.185-.09.347z"/>
                    <path fill="#F3F3F3" d="M2.195 9.234c0 .063-.047.118-.11.118H.454c-.062 0-.11-.055-.11-.118 0-.062.048-.117.11-.117h1.633c.062 0 .11.055.11.117z"/>
                    <path fill="#FFF" d="M2.203 9.61c0 .28-.055.5-.117.5H.453c-.062 0-.117-.22-.117-.5 0-.282.055-.5.117-.5h1.633c.062 0 .117.218.117.5zM.352 9.577c0 .219.046.438.101.438h1.633c.055 0 .102-.188.102-.438 0-.219-.047-.437-.102-.437H.453c-.055.03-.101.218-.101.437z"/>
                    <path fill="#E2E2E2" d="M1.328 8.445c-.008.063-.055.11-.117.11L.484 8.5c-.062-.008-.109-.063-.101-.125.008-.063.054-.11.117-.11l.727.055c.054.008.101.063.101.125z"/>
                    <path fill="#FFF" d="M1.374 8.873c-.008.231-.065.385-.13.385l-.755-.18c-.065-.025-.122-.205-.114-.436.008-.23.065-.384.13-.384l.756.18c.065.025.113.23.113.435zm-.99-.23C.374 8.821.423 9 .48 9l.755.18c.057 0 .106-.128.114-.333.008-.18-.04-.36-.098-.36L.497 8.31c-.057 0-.106.154-.114.333z"/>
                    <path fill="#F3F3F3" d="M2.336 7.875c-.016.063-.07.102-.133.094L.602 7.64C.539 7.625.5 7.57.516 7.508c.015-.063.07-.102.132-.094l1.602.32c.055.016.094.079.086.141z"/>
                    <path fill="#FFF" d="M2.344 8.226c-.016.123-.078.191-.14.178l-1.602-.56c-.063-.027-.11-.137-.094-.26.015-.122.078-.19.14-.177l1.602.56c.063.027.102.136.094.26zm-1.82-.642c-.008.096.023.192.078.219l1.601.56c.055.013.11-.041.125-.15.008-.096-.023-.192-.078-.219l-1.602-.56c-.062-.013-.109.055-.125.15z"/>
                    <path fill="#F3F3F3" d="M1.633 6.938c-.016.062-.078.101-.14.085l-.704-.195c-.062-.016-.094-.078-.078-.14.016-.063.078-.102.14-.086l.704.195c.062.016.093.078.078.14z"/>
                    <path fill="#FFF" d="M1.696 7.38c-.017.14-.091.247-.157.194l-.745-.442c-.066-.036-.107-.195-.09-.336.016-.141.09-.248.157-.194l.744.441c.066.036.108.177.091.336zm-.968-.584c-.016.124.017.265.075.3l.744.442c.058.036.116-.035.132-.176.017-.124-.016-.266-.074-.3l-.744-.443c-.058-.017-.116.053-.133.177z"/>
                    <path fill="#F3F3F3" d="M2.734 6.563c-.023.062-.093.085-.148.062L1.078 6c-.055-.023-.086-.094-.062-.148.023-.063.093-.086.148-.063l1.508.625c.062.024.086.094.062.149z"/>
                    <path fill="#FFF" d="M2.742 6.684c-.023.072-.094.107-.156.08L1.078 6.05c-.062-.027-.086-.107-.062-.187.023-.072.093-.107.156-.08l1.508.714c.062.035.086.116.062.187zm-1.71-.812c-.024.062 0 .134.054.16l1.508.715c.054.027.11-.01.133-.072.023-.062 0-.134-.055-.16L1.164 5.8c-.055-.018-.117.01-.133.072z"/>
                    <path fill="#F3F3F3" d="M2.227 5.508c-.032.054-.094.078-.149.054l-.648-.328c-.055-.023-.078-.093-.047-.156.031-.055.094-.078.148-.055l.649.329c.054.03.078.101.047.156z"/>
                    <path fill="#FFF" d="M2.338 5.89c-.035.11-.114.15-.183.096l-.725-.572c-.07-.054-.096-.176-.061-.285.035-.109.113-.15.183-.095l.725.57c.07.042.096.178.061.286zm-.943-.748c-.026.096-.009.204.052.245l.725.571c.052.041.122 0 .157-.081.026-.095.009-.204-.052-.245l-.734-.571c-.052-.041-.122-.014-.148.081z"/>
                    <path fill="#F3F3F3" d="M3.375 5.36c-.04.054-.102.07-.156.03l-1.352-.898c-.054-.031-.062-.101-.031-.156.031-.055.101-.07.156-.031l1.36.906c.046.031.062.101.023.148z"/>
                    <path fill="#FFF" d="M3.383 5.367c-.04.055-.117.07-.172.04L1.859 4.5c-.054-.04-.07-.11-.03-.172.038-.055.116-.07.171-.039l1.352.906c.062.04.07.117.03.172zm-1.54-1.031c-.03.047-.023.117.024.148l1.36.907c.046.03.109.015.14-.032.031-.046.024-.117-.023-.148l-1.36-.906c-.046-.032-.109-.016-.14.03z"/>
                    <path fill="#F3F3F3" d="M3.086 4.227c-.04.046-.11.062-.156.023l-.57-.445c-.047-.04-.055-.11-.016-.157.039-.046.11-.062.156-.023l.57.445c.047.04.055.11.016.157z"/>
                    <path fill="#FFF" d="M3.274 4.523c-.048.08-.144.091-.211.034l-.7-.646c-.068-.056-.077-.17-.03-.249.049-.08.145-.09.212-.034l.7.646c.067.057.077.17.029.25zm-.921-.85c-.048.068-.038.16.02.216l.7.646c.057.045.134.034.182-.034.048-.068.038-.159-.02-.216l-.7-.645c-.057-.046-.134-.034-.182.034z"/>
                    <path fill="#F3F3F3" d="M4.25 4.305c-.047.047-.117.047-.156 0L2.93 3.156c-.047-.047-.04-.117 0-.156.047-.047.117-.047.156 0l1.156 1.148c.047.04.047.118.008.157z"/>
                    <path fill="#FFF" d="M4.25 4.313c-.047.046-.125.046-.172 0L2.922 3.163c-.047-.047-.047-.125 0-.172.047-.047.125-.047.172 0L4.25 4.141c.055.046.055.125 0 .171zM2.937 3.008c-.039.039-.039.11 0 .148l1.157 1.149c.039.039.11.039.148 0 .04-.04.04-.11 0-.149L3.086 3c-.04-.04-.102-.04-.148.008z"/>
                    <path fill="#F3F3F3" d="M4.18 3.14c-.047.04-.117.04-.157-.007l-.476-.547c-.04-.047-.031-.117.015-.156.047-.04.118-.04.157.007l.476.547c.04.04.032.11-.015.157z"/>
                    <path fill="#FFF" d="M4.448 3.343c-.075.06-.173.05-.237-.01l-.66-.693c-.065-.06-.054-.158.022-.218.075-.059.173-.049.237.01l.66.693c.054.07.054.168-.022.218zm-.865-.9c-.065.049-.065.128-.021.187l.66.693c.053.05.14.06.205.01.065-.05.065-.129.021-.188l-.66-.693c-.053-.06-.14-.06-.205-.01z"/>
                    <path fill="#F3F3F3" d="M5.305 3.438c-.055.039-.125.023-.157-.032l-.914-1.351c-.03-.055-.015-.125.032-.157.054-.039.125-.023.156.032l.906 1.351c.04.055.024.125-.023.156z"/>
                    <path fill="#FFF" d="M5.305 3.445c-.055.04-.133.024-.172-.03l-.906-1.353c-.04-.054-.024-.132.039-.171.054-.04.132-.024.171.03l.907 1.352c.039.063.023.133-.04.172zM4.273 1.906c-.046.032-.062.094-.03.14l.905 1.352c.032.047.094.055.149.024.047-.031.062-.094.031-.14l-.906-1.345c-.031-.046-.102-.062-.149-.03z"/>
                    <path fill="#F3F3F3" d="M5.469 2.281c-.055.031-.125.016-.157-.039l-.359-.633c-.031-.054-.008-.125.047-.156s.125-.016.156.04l.36.632c.023.055.007.125-.047.156z"/>
                    <path fill="#FFF" d="M5.826 2.419c-.104.036-.221.018-.273-.045l-.597-.73c-.052-.062-.026-.152.078-.188.103-.036.22-.018.272.045l.598.729c.052.063.026.144-.078.189zm-.78-.954c-.077.036-.116.108-.064.162l.597.729c.052.054.156.072.234.045.078-.036.117-.108.065-.162l-.598-.73c-.039-.053-.156-.08-.233-.044z"/>
                    <path fill="#F3F3F3" d="M6.508 2.797c-.063.023-.125 0-.149-.055l-.632-1.508c-.024-.054.007-.125.062-.148.063-.024.125 0 .149.055l.632 1.507c.024.055-.008.125-.062.149z"/>
                    <path fill="#FFF" d="M6.615 2.805c-.071.023-.15 0-.186-.063l-.717-1.508c-.027-.062.009-.132.08-.156.07-.023.15 0 .185.063l.717 1.507c.027.055-.009.125-.08.157zm-.806-1.711c-.062.023-.088.086-.062.133l.717 1.507c.027.055.098.079.16.055.061-.023.088-.086.061-.133L5.97 1.148c-.036-.054-.098-.078-.16-.054z"/>
                    <path fill="#F3F3F3" d="M6.89 1.688c-.062.023-.124-.008-.148-.07L6.516.93c-.024-.055.015-.125.07-.14.055-.017.125.007.148.07l.227.687c.023.055-.008.117-.07.14z"/>
                    <path fill="#FFF" d="M7.335 1.765c-.133.025-.282-.008-.331-.076l-.48-.74c-.05-.066.032-.142.165-.167.132-.025.281.008.331.075l.48.74c.033.067-.033.143-.165.168zM6.689.8c-.116.016-.182.084-.15.143l.481.74c.033.058.166.083.282.066.116-.017.182-.084.149-.143l-.48-.74C6.936.808 6.804.774 6.688.8z"/>
                    <path fill="#F3F3F3" d="M7.813 2.398c-.063.016-.125-.023-.133-.086L7.352.712c-.016-.063.03-.117.093-.133.063-.015.125.024.133.086l.328 1.602c.008.054-.031.117-.093.132z"/>
                    <path fill="#FFF" d="M8.164 2.406c-.121.016-.23-.031-.257-.094L7.338.712c-.027-.063.054-.133.163-.14.122-.016.23.03.257.093l.569 1.602c.027.062-.04.125-.163.14zM7.528.586c-.095.008-.163.062-.15.125l.57 1.602c.013.054.122.093.216.078.095-.008.163-.063.15-.125L7.743.664C7.718.61 7.624.578 7.529.586z"/>
                    <path fill="#F3F3F3" d="M8.406 1.383c-.062.008-.117-.031-.133-.094L8.18.57c-.008-.062.039-.117.101-.125.063-.008.117.032.133.094l.094.719c.008.062-.04.117-.102.125z"/>
                    <path fill="#FFF" d="M8.852 1.436c-.204.008-.385-.041-.407-.107L8.173.577c-.022-.066.114-.131.317-.14.204-.008.385.041.407.107l.272.753c.022.065-.114.13-.317.139zm-.34-.982c-.158.008-.293.065-.27.123l.27.752c.023.058.182.099.34.09.158-.008.294-.065.271-.122L8.852.544c-.023-.057-.181-.098-.34-.09z"/>
                    <circle cx="9.25" cy="9.25" r="9.25" fill="url(#qbi1z1virc)" fill-opacity=".2"/>
                </g>
                <path fill="#000" fill-opacity=".05" d="M16.461 4.125L9 8.906 8.992 8.906 8.992 8.914 8.984 8.922 4.328 16.602 11.172 11.094 11.18 11.086 11.18 11.078z"/>
                <path fill="#CD151E" d="M16.32 3.68L8.945 8.922 11.133 11.094 16.32 3.68"/>
                <path fill="#FA5153" d="M8.953 8.906L10.055 9.992 16.32 3.68z"/>
                <path fill="#ACACAC" d="M8.953 8.906L11.141 11.078 3.766 16.32z"/>
                <path fill="#EEE" d="M3.766 16.32L10.055 9.992 8.953 8.906z"/>
            </g>
        </g>
    </g>
</svg>
