<svg xmlns="http://www.w3.org/2000/svg" width="24" height="24" viewBox="0 0 24 24">
    <defs>
        <linearGradient id="9mvcpcq30a" x1="50%" x2="50%" y1=".716%" y2="97.01%">
            <stop offset="0%" stop-color="#96C1E9"/>
            <stop offset="100%" stop-color="#146CB5"/>
        </linearGradient>
    </defs>
    <g fill="none" fill-rule="evenodd">
        <g fill-rule="nonzero">
            <path fill="#E6322A" d="M11.974 2.002s5.896-.262 9.02 5.639h-9.521s-1.799-.06-3.331 2.114c-.443.91-.914 1.85-.384 3.7-.766-1.291-4.068-7.019-4.068-7.019s2.33-4.2 8.284-4.434z"/>
            <path fill="#FEDA00" d="M20.688 16.99s-2.719 5.218-9.412 4.962l4.761-8.215s.95-1.522-.172-3.932c-.57-.836-1.151-1.713-3.025-2.18 1.507-.015 8.136 0 8.136 0s2.486 4.11-.288 9.365z"/>
            <path fill="#65B54C" d="M3.303 17.03s-3.178-4.958.393-10.603l4.76 8.216s.847 1.581 3.503 1.818c1.012-.073 2.065-.137 3.408-1.519-.74 1.308-4.07 7.02-4.07 7.02s-4.814.088-7.994-4.933z"/>
            <path fill="#60AC48" d="M11.276 22l1.34-5.568s1.473-.114 2.707-1.463C14.555 16.31 11.276 22 11.276 22z"/>
            <path fill="#FFF" d="M7.488 12.063c0-1.798 1.087-3.42 2.754-4.107 1.667-.688 3.586-.308 4.862.963 1.276 1.271 1.658 3.183.967 4.844-.69 1.66-2.317 2.744-4.121 2.744-2.464 0-4.462-1.99-4.462-4.444z"/>
            <path fill="url(#9mvcpcq30a)" d="M8.235 12.063c0-2.044 1.662-3.701 3.714-3.702 2.05 0 3.714 1.656 3.715 3.7.001 2.043-1.66 3.7-3.712 3.702-.986 0-1.931-.389-2.628-1.083-.697-.694-1.09-1.636-1.09-2.617z"/>
            <path fill="#F1CF00" d="M20.976 7.625L15.46 9.238s-.832-1.216-2.62-1.612c1.549-.007 8.135 0 8.135 0z"/>
            <path fill="#DA3027" d="M7.651 13.256c-.775-1.337-3.96-6.82-3.96-6.82l4.083 4.027s-.42.86-.26 2.09l.137.703z"/>
        </g>
    </g>
</svg>
