<svg xmlns="http://www.w3.org/2000/svg" width="48" height="24" viewBox="0 0 48 24">
    <g fill="none" fill-rule="evenodd">
        <g>
            <g fill="#005CB9">
                <path d="M1.6 1.744h1.708v.165c0 .495-.151.919-.432 1.249-.281.33-.67.495-1.125.495-.454 0-.843-.165-1.146-.519C.303 2.804.13 2.38.13 1.885.13 1.39.28.966.584.636.886.306 1.276.118 1.73.118c.692 0 1.232.377 1.47.99l-.324.117c-.217-.47-.627-.73-1.125-.73-.346 0-.648.141-.886.4-.238.26-.346.59-.346.99s.13.707.367.99c.238.26.541.4.887.4.324 0 .584-.117.8-.33.216-.211.346-.494.39-.848H1.6v-.353zM6.054 1.084l-.022.377h-.13c-.583 0-.907.471-.907 1.178v.966h-.346V1.108h.324v.612c.216-.424.519-.636.908-.636h.173zM9.232 1.108v2.497h-.346v-.4c-.194.306-.475.471-.864.471-.281 0-.498-.094-.67-.283-.174-.188-.26-.447-.26-.777V1.108h.346V2.52c0 .472.26.778.627.778.476 0 .8-.353.8-.99V1.108h.367z" transform="translate(2 5) translate(5.55)"/>
                <path fill-rule="nonzero" d="M12.757 1.414c.216.236.346.565.346.943 0 .377-.108.706-.346.942-.216.236-.498.377-.8.377-.39 0-.692-.141-.908-.471v1.249h-.346V1.108h.346v.4c.216-.306.519-.471.908-.471.302 0 .562.118.8.377zm-.26 1.65c.173-.19.238-.425.238-.707 0-.283-.086-.519-.238-.707-.151-.189-.367-.26-.605-.26-.216 0-.433.095-.606.283-.172.189-.259.4-.259.707 0 .283.087.519.26.707.172.189.367.26.605.26.238-.024.432-.119.605-.284zM16.195 1.414c.237.236.346.542.346.943 0 .377-.109.683-.346.942-.238.26-.52.377-.865.377-.346 0-.627-.118-.865-.377-.238-.26-.346-.565-.346-.942 0-.378.108-.684.346-.943.238-.26.519-.377.865-.377s.627.118.865.377zm-.26 1.626c.173-.189.26-.424.26-.707s-.087-.518-.26-.683c-.173-.189-.367-.283-.605-.283s-.454.094-.606.283c-.173.188-.26.4-.26.683 0 .283.087.518.26.707.173.188.368.283.606.283s.432-.095.605-.283z" transform="translate(2 5) translate(5.55)"/>
            </g>
            <g>
                <g>
                    <g>
                        <path fill="#003764" d="M5.707 2.791L10.521 7.978 12.242 6.117 7.428 0.93z" transform="translate(2 5) translate(0 5.291)"/>
                        <path fill="#005CB9" d="M6.992.465c-.48-.512-1.242-.512-1.72 0L0 6.117l1.72 1.86 4.4-4.744c.96-1.023 2.506-1.023 3.442 0L6.992.465z" transform="translate(2 5) translate(0 5.291)"/>
                        <path fill="#003764" d="M28.6 2.791L33.414 7.978 35.135 6.117 30.321 0.93z" transform="translate(2 5) translate(0 5.291)"/>
                        <path fill="#0060A4" d="M29.885.465c-.48-.512-1.241-.512-1.72 0L22.87 6.117l1.721 1.86 4.4-4.744c.958-1.023 2.505-1.023 3.442 0L29.885.465z" transform="translate(2 5) translate(0 5.291)"/>
                    </g>
                    <path fill="#A32035" d="M18.101 5.28L13.265 0.093 11.545 1.931 16.38 7.117z" transform="translate(2 5) translate(0 5.291)"/>
                    <path fill="#E1251B" d="M16.816 7.582c.479.512 1.241.512 1.72 0l5.272-5.651L22.088.07l-4.4 4.745c-.96 1.023-2.506 1.023-3.464 0l2.592 2.767z" transform="translate(2 5) translate(0 5.291)"/>
                </g>
                <path fill="#003764" d="M36.42 0.07H38.707V6.117H36.42z" transform="translate(2 5) translate(0 5.291)"/>
                <path fill="#0060A4" d="M36.42 6.722c0 .674.523 1.233 1.154 1.233h6.339V5.512h-5.206c-1.263 0-2.287-1.093-2.287-2.465v3.675z" transform="translate(2 5) translate(0 5.291)"/>
            </g>
        </g>
    </g>
</svg>
