<svg xmlns="http://www.w3.org/2000/svg" width="24" height="24" viewBox="0 0 24 24">
    <defs>
        <radialGradient id="ayjittzvva" cx="86.85%" cy="30.027%" r="184.013%" fx="86.85%" fy="30.027%" gradientTransform="translate(0.868497,0.300273),scale(1.000000,0.374542),rotate(2.475373),translate(-0.868497,-0.300273)">
            <stop offset="4.5%" stop-color="#FFEA00"/>
            <stop offset="12%" stop-color="#FFDE00"/>
            <stop offset="25.4%" stop-color="#FFBF00"/>
            <stop offset="42.9%" stop-color="#FF8E00"/>
            <stop offset="76.9%" stop-color="#FF272D"/>
            <stop offset="87.2%" stop-color="#E0255A"/>
            <stop offset="95.3%" stop-color="#CC2477"/>
            <stop offset="100%" stop-color="#C42482"/>
        </radialGradient>
        <radialGradient id="ldks3qw4rb" cx="70.828%" cy="12.393%" r="112.146%" fx="70.828%" fy="12.393%" gradientTransform="translate(0.708276,0.123928),scale(0.974035,1.000000),translate(-0.708276,-0.123928)">
            <stop offset="0%" stop-color="#00CCDA"/>
            <stop offset="22%" stop-color="#0083FF"/>
            <stop offset="26.1%" stop-color="#007AF9"/>
            <stop offset="33%" stop-color="#0060E8"/>
            <stop offset="33.3%" stop-color="#005FE7"/>
            <stop offset="43.8%" stop-color="#2639AD"/>
            <stop offset="52.2%" stop-color="#401E84"/>
            <stop offset="56.6%" stop-color="#4A1475"/>
        </radialGradient>
        <radialGradient id="5dvgpmorld" cx="147.727%" cy="-21.664%" r="177.281%" fx="147.727%" fy="-21.664%" gradientTransform="translate(1.477273,-0.216638),scale(0.894578,1.000000),rotate(5.583552),translate(-1.477273,0.216638)">
            <stop offset=".3%" stop-color="#FFEA00"/>
            <stop offset="49.7%" stop-color="#FF272D"/>
            <stop offset="100%" stop-color="#C42482"/>
        </radialGradient>
        <radialGradient id="m3aatey17e" cx="135.976%" cy="-52.131%" r="453.756%" fx="135.976%" fy="-52.131%" gradientTransform="translate(1.359760,-0.521307),scale(1.000000,0.558882),rotate(5.583552),translate(-1.359760,0.521307)">
            <stop offset=".3%" stop-color="#FFE900"/>
            <stop offset="15.7%" stop-color="#FFAF0E"/>
            <stop offset="31.6%" stop-color="#FF7A1B"/>
            <stop offset="47.2%" stop-color="#FF4E26"/>
            <stop offset="62.1%" stop-color="#FF2C2E"/>
            <stop offset="76.2%" stop-color="#FF1434"/>
            <stop offset="89.2%" stop-color="#FF0538"/>
            <stop offset="100%" stop-color="#FF0039"/>
        </radialGradient>
        <radialGradient id="ux0gebavkf" cx="211.883%" cy="2.145%" r="389.55%" fx="211.883%" fy="2.145%" gradientTransform="translate(2.118834,0.021449),scale(0.516862,1.000000),rotate(5.583552),translate(-2.118834,-0.021449)">
            <stop offset=".3%" stop-color="#FF272D"/>
            <stop offset="49.7%" stop-color="#C42482"/>
            <stop offset="98.6%" stop-color="#620700"/>
        </radialGradient>
        <radialGradient id="93zzg8i11g" cx="89.956%" cy="39.179%" r="95.341%" fx="89.956%" fy="39.179%" gradientTransform="translate(0.899561,0.391795),scale(1.000000,0.990301),rotate(-1.218912),translate(-0.899561,-0.391795)">
            <stop offset="0%" stop-color="#FFEA00"/>
            <stop offset="23.1%" stop-color="#FFDE00"/>
            <stop offset="36.5%" stop-color="#FFBF00"/>
            <stop offset="54.1%" stop-color="#FF8E00"/>
            <stop offset="76.3%" stop-color="#FF272D"/>
            <stop offset="79.6%" stop-color="#F92433"/>
            <stop offset="84.1%" stop-color="#E91C45"/>
            <stop offset="89.3%" stop-color="#CF0E62"/>
            <stop offset="100%" stop-color="#B5007F"/>
        </radialGradient>
        <radialGradient id="fakgkp6tgh" cx="24.953%" cy=".138%" r="249.815%" fx="24.953%" fy=".138%" gradientTransform="translate(0.249534,0.001382),scale(1.000000,0.409225),translate(-0.249534,-0.001382)">
            <stop offset="27.9%" stop-color="#FFEA00"/>
            <stop offset="40.2%" stop-color="#FD0"/>
            <stop offset="63%" stop-color="#FFBA00"/>
            <stop offset="85.6%" stop-color="#FF9100"/>
            <stop offset="93.3%" stop-color="#FF6711"/>
            <stop offset="99.4%" stop-color="#FF4A1D"/>
        </radialGradient>
        <linearGradient id="56wfsbtvbc" x1="56.943%" x2="35.947%" y1="75.22%" y2="6.805%">
            <stop offset="0%" stop-color="#000F43" stop-opacity=".4"/>
            <stop offset="48.5%" stop-color="#001962" stop-opacity=".173"/>
            <stop offset="100%" stop-color="#002079" stop-opacity="0"/>
        </linearGradient>
        <linearGradient id="5k5p6p6izi" x1="-90.892%" x2="125.816%" y1="64.455%" y2="29.666%">
            <stop offset="0%" stop-color="#C42482" stop-opacity=".5"/>
            <stop offset="47.4%" stop-color="#FF272D" stop-opacity=".5"/>
            <stop offset="48.6%" stop-color="#FF2C2C" stop-opacity=".513"/>
            <stop offset="67.5%" stop-color="#FF7A1A" stop-opacity=".72"/>
            <stop offset="82.9%" stop-color="#FFB20D" stop-opacity=".871"/>
            <stop offset="94.2%" stop-color="#FFD605" stop-opacity=".964"/>
            <stop offset="100%" stop-color="#FFE302"/>
        </linearGradient>
        <linearGradient id="1fvovwcodj" x1="53.141%" x2="35.253%" y1="94.893%" y2="5.478%">
            <stop offset="0%" stop-color="#891551" stop-opacity=".6"/>
            <stop offset="100%" stop-color="#C42482" stop-opacity="0"/>
        </linearGradient>
        <linearGradient id="qrynd7fkyk" x1="25.499%" x2="48.782%" y1="6.686%" y2="47.886%">
            <stop offset=".5%" stop-color="#891551" stop-opacity=".5"/>
            <stop offset="48.4%" stop-color="#FF272D" stop-opacity=".5"/>
            <stop offset="100%" stop-color="#FF272D" stop-opacity="0"/>
        </linearGradient>
        <linearGradient id="hc9sh78o1l" x1="47.509%" x2="50.009%" y1="55.972%" y2="47.931%">
            <stop offset="0%" stop-color="#C42482"/>
            <stop offset="8.3%" stop-color="#C42482" stop-opacity=".81"/>
            <stop offset="20.6%" stop-color="#C42482" stop-opacity=".565"/>
            <stop offset="32.8%" stop-color="#C42482" stop-opacity=".362"/>
            <stop offset="44.7%" stop-color="#C42482" stop-opacity=".204"/>
            <stop offset="56.2%" stop-color="#C42482" stop-opacity=".091"/>
            <stop offset="67.3%" stop-color="#C42482" stop-opacity=".023"/>
            <stop offset="77.3%" stop-color="#C42482" stop-opacity="0"/>
        </linearGradient>
        <linearGradient id="yzx9wyi0im" x1="40.305%" x2="59.403%" y1="1.647%" y2="89.461%">
            <stop offset="0%" stop-color="#FFF14F"/>
            <stop offset="26.8%" stop-color="#FFEE4C"/>
            <stop offset="45.2%" stop-color="#FFE643"/>
            <stop offset="61.2%" stop-color="#FFD834"/>
            <stop offset="75.7%" stop-color="#FFC41E"/>
            <stop offset="89.2%" stop-color="#FFAB02"/>
            <stop offset="90.2%" stop-color="#FFA900"/>
            <stop offset="94.9%" stop-color="#FFA000"/>
            <stop offset="100%" stop-color="#FF9100"/>
        </linearGradient>
        <linearGradient id="kzya7qfp5n" x1="71.351%" x2="42.891%" y1="7.159%" y2="81.948%">
            <stop offset="0%" stop-color="#FF8E00"/>
            <stop offset="4%" stop-color="#FF8E00" stop-opacity=".858"/>
            <stop offset="8.4%" stop-color="#FF8E00" stop-opacity=".729"/>
            <stop offset="13%" stop-color="#FF8E00" stop-opacity=".628"/>
            <stop offset="17.8%" stop-color="#FF8E00" stop-opacity=".557"/>
            <stop offset="22.7%" stop-color="#FF8E00" stop-opacity=".514"/>
            <stop offset="28.2%" stop-color="#FF8E00" stop-opacity=".5"/>
            <stop offset="38.9%" stop-color="#FF8E00" stop-opacity=".478"/>
            <stop offset="52.4%" stop-color="#FF8E00" stop-opacity=".416"/>
            <stop offset="67.6%" stop-color="#FF8E00" stop-opacity=".314"/>
            <stop offset="83.8%" stop-color="#FF8E00" stop-opacity=".172"/>
            <stop offset="100%" stop-color="#FF8E00" stop-opacity="0"/>
        </linearGradient>
    </defs>
    <g fill="none" fill-rule="evenodd">
        <g fill-rule="nonzero">
            <g>
                <path fill="url(#ayjittzvva)" d="M16.16 1.86c-.503.568-.737 1.843-.228 3.136.51 1.293 1.29 1.012 1.777 2.331.643 1.74.344 4.077.344 4.077s.772 2.167 1.31-.135c1.191-4.323-3.204-8.343-3.204-9.408z" transform="translate(2.000000, 2.000000)"/>
                <path fill="url(#ldks3qw4rb)" d="M10.03 19.81c5.144 0 9.311-4.06 9.311-9.066 0-5.006-4.167-9.065-9.307-9.065-5.14 0-9.307 4.06-9.307 9.065-.01 5.01 4.162 9.066 9.302 9.066z" transform="translate(2.000000, 2.000000)"/>
                <path fill="url(#56wfsbtvbc)" d="M17.007 16.334c-.202.138-.413.261-.632.37.29-.413.559-.84.803-1.28.199-.213.38-.42.529-.643.072-.11.153-.246.239-.403.523-.913 1.1-2.39 1.116-3.907v-.003-.112c.003-.381-.038-.761-.12-1.134l.012.088-.014-.068c.008.042.014.082.02.122.108.878.031 1.735-.35 2.367l-.017.027c.197-.96.263-2.02.043-3.082 0 0-.088-.516-.742-2.082-.376-.901-1.045-1.64-1.636-2.179-.518-.62-.988-1.037-1.248-1.302-.541-.552-.769-.967-.862-1.237-.08-.04-1.114-1.012-1.197-1.05-.45.679-1.87 2.799-1.195 4.78.306.898 1.08 1.83 1.89 2.352.035.04.481.51.694 1.569.219 1.094.104 1.948-.347 3.21-.53 1.108-1.89 2.204-3.162 2.316-2.72.24-3.717-1.324-3.717-1.324.972.377 2.047.298 2.7-.092.66-.395 1.058-.688 1.381-.572.32.115.573-.219.345-.565-.36-.536-1.015-.813-1.665-.702-.66.103-1.264.61-2.128.12-.056-.032-.11-.066-.162-.104-.057-.036.185.056.129.014-.169-.088-.466-.28-.543-.35-.013-.01.13.045.117.033-.808-.644-.707-1.08-.681-1.353.02-.218.167-.498.414-.612.12.063.194.112.194.112l-.079-.154c.01-.004.02-.003.029-.007.098.045.314.164.428.237.148.101.196.192.196.192s.039-.021.01-.11c-.01-.036-.056-.151-.203-.267h.01c.087.05.17.105.248.168.042-.146.116-.298.1-.57-.01-.193-.005-.242-.04-.316-.031-.064.017-.089.071-.023-.009-.051-.024-.102-.046-.15v-.005c.068-.228 1.432-.822 1.532-.892.163-.112.3-.256.401-.422.076-.118.133-.282.147-.531.007-.18-.079-.3-1.458-.44-.377-.036-.599-.3-.725-.545-.023-.052-.046-.1-.07-.148-.022-.055-.04-.113-.053-.171.226-.628.604-1.158 1.162-1.56.03-.026-.122.008-.091-.019.035-.031.266-.121.31-.142.053-.024-.229-.14-.477-.112-.253.028-.307.057-.442.113.056-.055.234-.125.192-.125-.273.04-.612.194-.902.368 0-.03.006-.06.018-.088-.135.056-.467.28-.564.47.004-.036.006-.073.006-.11-.103.084-.196.178-.277.282l-.005.004c-.784-.306-1.473-.326-2.057-.189-.128-.124-.19-.033-.48-.651-.02-.038.015.036 0 0-.048-.12.029.16 0 0-.489.373-1.132.796-1.44 1.095-.004.012.36-.1 0 0-.126.035-.118.107-.137.762-.004.05 0 .105-.005.15-.246.304-.414.562-.477.695-.319.533-.67 1.362-1.01 2.674.15-.355.33-.698.54-1.024-.282.696-.556 1.79-.61 3.474.068-.347.156-.69.262-1.03-.066 1.398.182 2.793.73 4.087.195.464.519 1.168 1.07 1.94 1.731 1.764 4.173 2.863 6.877 2.863 2.823 0 5.359-1.197 7.1-3.097z" transform="translate(2.000000, 2.000000)"/>
                <path fill="url(#5dvgpmorld)" d="M14.918 17.616c3.416-.383 4.929-3.795 2.987-3.862-1.755-.054-4.606 4.043-2.987 3.862z" transform="translate(2.000000, 2.000000)"/>
                <path fill="url(#m3aatey17e)" d="M18.15 13.057c2.351-1.325 1.738-4.188 1.738-4.188s-.907 1.02-1.523 2.649c-.609 1.611-1.628 2.34-.214 1.54z" transform="translate(2.000000, 2.000000)"/>
                <path fill="url(#ux0gebavkf)" d="M10.688 19.31c3.277 1.013 6.094-1.488 4.358-2.323-1.579-.754-5.914 1.844-4.358 2.323z" transform="translate(2.000000, 2.000000)"/>
                <path fill="url(#93zzg8i11g)" d="M18.395 14.273c.08-.109.187-.458.283-.614.578-.905.582-1.626.582-1.643.35-1.691.318-2.382.103-3.66-.173-1.028-.93-2.501-1.585-3.21-.676-.732-.2-.494-.854-1.028-.573-.615-1.129-1.225-1.432-1.47C13.305.876 13.354.5 13.396.435l-.03.034c-.026-.1-.045-.184-.045-.184s-1.196 1.158-1.447 3.089c-.165 1.26.322 2.575 1.028 3.415.367.435.782.83 1.237 1.178.533.741.827 1.656.827 2.64 0 2.465-2.064 4.462-4.608 4.462-.347 0-.693-.037-1.031-.112-1.2-.221-1.894-.808-2.24-1.207-.198-.228-.283-.395-.283-.395 1.076.374 2.266.296 2.99-.091.728-.392 1.17-.682 1.527-.568.353.114.634-.217.382-.56-.247-.342-.89-.832-1.844-.696-.73.103-1.398.605-2.354.119-.062-.031-.122-.066-.18-.102-.063-.036.205.054.143.013-.186-.087-.516-.279-.601-.347-.014-.011.144.044.13.033-.894-.64-.782-1.071-.754-1.342.022-.217.185-.494.458-.607.132.063.215.11.215.11l-.087-.152c.01-.004.02-.003.031-.007.109.045.348.163.474.235.164.1.217.19.217.19s.043-.02.01-.108c-.01-.036-.06-.15-.223-.266l.01.001c.097.048.189.104.276.167.045-.145.128-.296.11-.567-.011-.19-.006-.239-.045-.312-.034-.063.02-.088.08-.023-.01-.051-.028-.101-.052-.149v-.005c.076-.226 1.585-.815 1.695-.884.177-.108.329-.25.444-.42.084-.116.148-.279.163-.526.005-.111-.03-.2-.43-.284-.24-.05-.611-.1-1.184-.151-.417-.036-.662-.299-.802-.541-.025-.052-.05-.1-.077-.147-.024-.055-.044-.112-.06-.17.25-.633.7-1.175 1.286-1.546.034-.026-.134.007-.1-.02.039-.03.295-.12.343-.14.06-.024-.253-.14-.528-.111-.28.027-.34.056-.489.111.062-.053.26-.124.213-.123-.302.04-.677.192-.998.365-.001-.03.006-.06.019-.088-.15.055-.517.278-.624.467.005-.036.007-.073.006-.109-.112.081-.215.175-.306.278l-.006.005c-.867-.303-1.63-.323-2.276-.187-.141-.123-.369-.31-.69-.923-.022-.037-.034.076-.05.04-.125-.28-.2-.74-.189-1.058 0 0-.258.114-.472.59-.04.086-.065.134-.09.181-.012.014.026-.157.02-.147-.037.06-.133.146-.176.256-.029.082-.07.128-.095.23l-.006.009c-.003-.03.007-.124 0-.104-.1.196-.186.398-.258.606-.115.367-.25.866-.27 1.516-.006.049-.001.104-.006.148-.272.302-.458.558-.529.69-.352.528-.74 1.35-1.117 2.652.167-.356.368-.696.598-1.016C.363 8.46.061 9.545 0 11.215c.076-.345.173-.686.291-1.02-.054 1.113.08 2.494.807 4.052.431.916 1.424 2.777 3.852 4.23 0 0 .825.595 2.244 1.042.105.037.212.073.32.108-.034-.013-.067-.027-.099-.042.945.275 1.926.414 2.912.415 3.675.003 4.759-1.427 4.759-1.427l-.011.008c.052-.047.102-.097.15-.148-.58.53-1.903.566-2.398.528.844-.24 1.4-.443 2.48-.844.126-.046.255-.097.387-.155l.043-.02.079-.035c.526-.24 1.02-.54 1.474-.894 1.084-.84 1.32-1.658 1.443-2.197-.017.052-.07.172-.108.25-.28.58-.899.934-1.571 1.239.32-.407.616-.83.889-1.269.22-.211.288-.541.452-.763z" transform="translate(2.000000, 2.000000)"/>
                <path fill="url(#fakgkp6tgh)" d="M17.075 16.28c.442-.472.839-1.013 1.14-1.625.774-1.577 1.97-4.199 1.028-6.937-.745-2.165-1.768-3.348-3.066-4.504C14.067 1.337 13.478.498 13.478 0c0 0-2.435 2.63-1.379 5.374 1.056 2.743 3.22 2.642 4.65 5.505 1.685 3.369-1.362 7.045-3.881 8.074.154-.033 5.6-1.227 5.886-4.245-.006.055-.129.89-1.68 1.572z" transform="translate(2.000000, 2.000000)"/>
                <path fill="url(#5k5p6p6izi)" d="M10.02 6.491c.007-.178-.088-.298-1.61-.436-.626-.056-.865-.616-.938-.852-.223.56-.315 1.148-.265 1.859.033.466.356.966.51 1.26 0 0 .035-.044.051-.06.29-.293 1.51-.74 1.624-.804.126-.077.606-.417.627-.967z" transform="translate(2.000000, 2.000000)"/>
                <path fill="url(#1fvovwcodj)" d="M3.321 3.18c-.022-.037-.033.077-.05.04-.125-.28-.201-.736-.183-1.057 0 0-.259.114-.472.59-.04.086-.066.133-.091.18-.012.014.027-.156.02-.147-.037.061-.133.147-.175.252-.034.086-.07.132-.096.24-.009.028.008-.13 0-.11-.497.931-.592 2.34-.54 2.28 1.06-1.096 2.273-1.355 2.273-1.355-.129-.092-.41-.359-.686-.913z" transform="translate(2.000000, 2.000000)"/>
                <path fill="url(#qrynd7fkyk)" d="M7.34 14.636c-1.464-.605-3.126-1.458-3.064-3.397.086-2.553 2.458-2.049 2.458-2.049-.09.022-.329.187-.414.363-.09.22-.253.717.242 1.237.779.817-1.598 1.939 2.07 4.057.093.048-.86-.03-1.293-.21z" transform="translate(2.000000, 2.000000)"/>
                <path fill="url(#hc9sh78o1l)" d="M6.82 13.364c1.037.35 2.245.288 2.968-.099.485-.261 1.106-.68 1.488-.576-.33-.127-.581-.186-.883-.2-.051 0-.113-.002-.169-.007-.11 0-.22.005-.33.017-.187.017-.394.131-.582.113-.01-.001.182-.077.167-.073-.1.02-.208.024-.323.038-.072.008-.135.016-.207.02-2.16.177-3.986-1.135-3.986-1.135-.156.507.695 1.51 1.857 1.902z" transform="translate(2.000000, 2.000000)"/>
                <path fill="url(#yzx9wyi0im)" d="M17.07 16.294c2.186-2.079 3.292-4.606 2.824-7.44 0 0 .187 1.453-.521 2.94.34-1.451.38-3.255-.524-5.122-1.206-2.492-3.19-3.804-3.947-4.351C13.755 1.49 13.279.648 13.27.474c-.342.68-1.38 3.012-.111 5.02 1.188 1.881 3.06 2.44 4.37 4.165 2.414 3.18-.458 6.635-.458 6.635z" transform="translate(2.000000, 2.000000)"/>
                <path fill="url(#kzya7qfp5n)" d="M16.758 10.885c-.764-1.528-1.717-2.195-2.619-2.918.105.143.131.193.19.285.793.82 1.963 2.818 1.113 5.327-1.599 4.723-7.995 2.5-8.666 1.875.271 2.733 4.994 4.041 8.068 2.269 1.75-1.605 3.165-4.333 1.914-6.838z" transform="translate(2.000000, 2.000000)"/>
            </g>
        </g>
    </g>
</svg>
