<svg xmlns="http://www.w3.org/2000/svg" xmlns:xlink="http://www.w3.org/1999/xlink" width="18" height="159" viewBox="0 0 18 159">
    <defs>
        <path id="prefix__a" d="M56.307 14.076v1.927H0v-1.927h56.307zm55.9-4.8c.392 0 .757.105 1.052.303.316.198.563.475.739.86.157.348.243.76.243 1.226 0 .458-.086.883-.275 1.239-.15.365-.424.648-.718.847-.34.185-.681.265-1.04.265-.408 0-.756-.08-1.067-.312-.313-.21-.557-.482-.72-.838-.167-.37-.235-.754-.235-1.155 0-.76.19-1.366.57-1.797.37-.417.854-.638 1.452-.638zm-12.175 0c.398 0 .761.117 1.062.349.28.242.49.569.598.987l-.542.152c-.103-.35-.254-.598-.43-.72-.198-.177-.43-.25-.72-.25-.326 0-.6.097-.81.26-.214.152-.37.396-.455.68-.09.286-.123.577-.123.865 0 .408.043.745.144 1.034.103.298.275.525.494.67.22.14.46.192.709.192.314 0 .585-.081.804-.273.22-.205.38-.506.434-.896l.563.17c-.103.493-.327.859-.616 1.143-.333.257-.686.377-1.143.377-.445 0-.811-.08-1.105-.289-.284-.197-.51-.488-.66-.885-.14-.377-.215-.788-.215-1.243 0-.45.082-.87.258-1.224.15-.354.387-.633.714-.819.3-.175.637-.28 1.039-.28zm4.281 0c.39 0 .75.105 1.057.303.316.198.55.475.718.86.173.348.247.76.247 1.226 0 .458-.074.883-.251 1.239-.19.365-.426.648-.741.847-.306.185-.664.265-1.03.265-.398 0-.757-.08-1.079-.312-.316-.21-.546-.482-.707-.838-.16-.37-.236-.754-.236-1.155 0-.76.187-1.366.574-1.797.369-.417.853-.638 1.448-.638zm-14.55.076c.341 0 .591.029.767.069.236.07.455.17.61.337.226.203.392.448.505.78.118.318.177.68.177 1.085 0 .349-.044.664-.118.925-.073.278-.172.505-.3.674-.117.18-.238.308-.375.417-.14.112-.305.18-.499.228-.22.07-.44.07-.688.07h-1.52V9.351h1.44zm37.487 0l1.723 4.584h-.627l-.498-1.388h-1.767l-.472 1.388h-.594l1.625-4.584h.61zm-2.76 0v4.584h-.557V9.352h.556zm-3.024 0c.314 0 .57.052.77.145.192.094.35.234.446.431.112.19.182.394.182.61 0 .19-.07.378-.16.551-.097.175-.241.301-.435.424.262.081.435.203.595.401.127.198.198.446.198.696 0 .223-.036.42-.114.612-.084.18-.198.33-.32.417-.123.112-.28.18-.471.228-.193.07-.415.07-.686.07h-1.61V9.351h1.605zm-5.686 0l1 3.258.207.693c.03-.186.134-.423.213-.755l1.02-3.196h.76v4.584h-.547v-3.835l-1.233 3.835h-.488l-1.238-3.891v3.891h-.537V9.352h.843zm-8.183 0v4.05h2.088v.534h-2.642V9.352h.554zm-11.931 0v.545h-2.514v1.407h2.359v.54h-2.36V13.4h2.607v.535H92.6V9.352h3.066zm16.542.441c-.39 0-.745.168-1.025.447-.285.298-.427.792-.427 1.476 0 .559.142.987.427 1.313.269.302.617.466 1.025.466.417 0 .765-.164 1.04-.478.267-.314.412-.778.412-1.363 0-.357-.06-.692-.16-.976-.13-.287-.3-.494-.527-.633-.23-.178-.485-.252-.765-.252zm-7.895 0c-.392 0-.725.168-1.01.447-.3.298-.433.792-.433 1.476 0 .559.112.987.385 1.313.298.302.645.466 1.058.466.412 0 .767-.164 1.036-.478.272-.314.401-.778.401-1.363 0-.357-.048-.692-.164-.976-.125-.287-.287-.494-.506-.633-.221-.178-.473-.252-.767-.252zm-14.55.104h-.886v3.504h.897c.283 0 .503-.028.67-.093.144-.046.28-.129.366-.233.144-.144.23-.325.315-.58.075-.232.105-.523.105-.896 0-.47-.079-.835-.213-1.091-.139-.257-.321-.43-.536-.524-.149-.056-.392-.087-.718-.087zm31.638 1.935h-.993v1.57h1.063c.18 0 .321 0 .39-.012.129-.035.236-.082.322-.14.09-.058.166-.152.223-.233.044-.137.065-.249.065-.407 0-.161-.025-.312-.122-.447-.076-.12-.183-.21-.32-.26-.136-.036-.361-.071-.628-.071zm5.526-2.008c-.05.3-.122.615-.214.904l-.471 1.338h1.427l-.433-1.279c-.112-.317-.2-.572-.265-.798l-.044-.165zm-5.655.073h-.864v1.4h.933c.251 0 .43-.033.546-.056.129-.041.236-.116.322-.252.06-.097.086-.225.086-.377 0-.162-.022-.29-.086-.418-.068-.116-.173-.196-.3-.233-.117-.047-.335-.064-.637-.064zM51.105 5.71c.43 0 .794.098 1.153.303.327.238.595.544.768.928.186.394.273.848.273 1.325 0 .512-.101.965-.284 1.36-.193.395-.445.696-.789.9-.36.202-.703.285-1.121.285-.435 0-.811-.083-1.148-.303-.355-.233-.607-.547-.782-.94-.173-.396-.252-.804-.252-1.243 0-.815.209-1.465.61-1.93.413-.466.94-.685 1.572-.685zm-33.627 0c.337 0 .643.028.9.163.27.116.489.29.64.487.15.209.258.477.347.812l-.552.163c-.064-.254-.15-.44-.251-.59-.114-.136-.258-.269-.44-.35-.188-.094-.408-.133-.644-.133-.264 0-.505.04-.708.145-.195.08-.37.22-.482.349-.124.162-.221.325-.28.486-.128.321-.182.656-.182 1.001 0 .442.054.82.204 1.138.144.272.333.51.61.645.269.14.56.214.864.214.254 0 .506-.056.767-.162.258-.117.424-.23.57-.347v-.943h-1.363V8.22h1.947v1.834c-.307.268-.6.454-.907.582-.326.128-.649.175-.982.175-.448 0-.863-.083-1.215-.285-.387-.204-.66-.505-.843-.912-.193-.383-.279-.836-.279-1.337 0-.477.086-.923.279-1.347.182-.418.449-.71.81-.917.342-.205.75-.303 1.19-.303zm25.684.08c.338 0 .607.018.8.065.258.065.488.186.674.365.243.216.415.5.537.842.13.342.188.738.188 1.181 0 .388-.048.72-.14 1.005-.07.29-.17.517-.295.713-.139.186-.273.338-.412.454-.155.111-.344.197-.553.263-.214.05-.461.07-.749.07h-1.649V5.79h1.599zm-6.86 0l1.877 4.957h-.696l-.538-1.499h-1.908l-.509 1.5h-.638l1.757-4.958h.656zm-7.787 0v4.357h2.241v.6h-2.861V5.79h.62zm-4.565 0v4.957h-.615V5.79h.615zm-12.57 0v4.957h-.621V5.79h.62zm-7.706 0l1.18 3.591c.097.307.193.58.258.813.062-.256.147-.522.234-.813l1.24-3.591h.62l-1.8 4.957h-.628L3.014 5.79h.66zm47.452.472c-.449 0-.804.174-1.126.482-.301.318-.462.847-.462 1.58 0 .639.15 1.092.452 1.434.289.343.67.517 1.115.517.461 0 .827-.174 1.132-.517.29-.354.444-.842.444-1.492 0-.4-.063-.756-.203-1.047-.112-.301-.312-.54-.553-.707-.225-.176-.513-.25-.799-.25zm-7.99.098h-.956v3.787h.982c.29 0 .515-.024.714-.07.17-.056.294-.163.397-.26.14-.164.262-.359.326-.638.097-.263.13-.577.13-.947 0-.517-.076-.914-.241-1.186-.156-.29-.333-.477-.559-.57-.171-.07-.43-.116-.793-.116zM35.96 6.3c-.047.327-.14.629-.25.941l-.507 1.467h1.563l-.483-1.374c-.144-.417-.263-.766-.323-1.034zm28.425-3.887V5.06c0 .407.033.68.097.87.068.187.187.35.342.431.178.116.383.175.624.175.412 0 .717-.099.874-.303.182-.219.279-.603.279-1.173V2.414h.552V5.06c0 .453-.043.82-.15 1.104-.087.273-.258.488-.527.674-.246.151-.574.244-.975.244-.402 0-.724-.081-.971-.232-.262-.128-.435-.361-.553-.63-.108-.29-.154-.671-.154-1.16V2.414h.562zm47.968-.086c.419 0 .785.11 1.067.342.302.252.5.577.615 1.006l-.534.128c-.13-.331-.252-.579-.44-.719-.21-.163-.435-.24-.723-.24-.322 0-.602.089-.812.263-.213.172-.375.393-.471.666-.08.286-.13.6-.13.908 0 .377.05.714.158 1.005.112.303.273.51.508.65.21.14.45.22.708.22.327 0 .567-.08.804-.294.21-.188.36-.49.43-.89l.573.175c-.107.493-.341.888-.642 1.137-.311.256-.692.396-1.126.396-.44 0-.817-.104-1.096-.313-.316-.199-.525-.489-.674-.862-.14-.394-.21-.801-.21-1.224 0-.494.07-.908.263-1.25.144-.361.398-.638.698-.824.314-.17.67-.28 1.034-.28zm-51.004 0c.29 0 .57.058.806.174.24.106.428.261.557.494.132.205.193.436.204.704l-.552.045c-.011-.278-.125-.52-.273-.65-.172-.15-.409-.238-.73-.238-.36 0-.596.077-.74.214-.168.13-.243.29-.243.489 0 .162.06.302.167.396.097.104.396.22.842.33.45.121.762.21.938.297.247.126.425.29.554.476.09.174.17.407.17.651 0 .226-.08.475-.205.685-.116.214-.309.373-.54.512-.246.117-.52.174-.83.174-.383 0-.709-.057-.96-.185-.248-.128-.456-.31-.607-.56-.146-.22-.226-.5-.237-.824l.532-.034c.031.232.086.428.176.563.096.144.243.26.429.354.177.081.403.14.65.14.204 0 .401-.047.57-.099.17-.076.276-.173.362-.273.071-.15.124-.257.124-.425 0-.116-.027-.26-.124-.377-.064-.081-.191-.197-.38-.256-.111-.046-.37-.117-.757-.21-.395-.097-.649-.213-.799-.295-.22-.117-.38-.256-.466-.423-.107-.164-.14-.373-.14-.594 0-.222.06-.42.172-.621.124-.222.295-.361.526-.482.237-.094.499-.152.804-.152zm80.287 0c.417 0 .76.11 1.065.342.287.252.48.577.602 1.006l-.558.128c-.112-.331-.234-.579-.42-.719-.19-.163-.416-.24-.706-.24-.331 0-.61.089-.821.263-.22.172-.374.393-.46.666-.09.286-.151.6-.151.908 0 .377.06.714.168 1.005.116.303.283.51.504.65.21.14.45.22.717.22.318 0 .57-.08.795-.294.236-.188.37-.49.455-.89l.546.175c-.133.493-.327.888-.631 1.137-.316.256-.675.396-1.122.396-.46 0-.83-.104-1.12-.313-.286-.199-.505-.489-.643-.862-.15-.394-.228-.801-.228-1.224 0-.494.079-.908.243-1.25.177-.361.407-.638.72-.824.32-.17.658-.28 1.045-.28zm-60.717.086V7h-.574V2.414h.574zm70.617 0c.387 0 .664.038.87.123.202.071.357.222.471.425.114.216.172.458.172.702 0 .333-.097.617-.286.82-.192.225-.492.372-.911.436.15.068.275.14.34.22.158.164.326.372.455.598L153.39 7h-.705l-.543-.959c-.166-.274-.316-.493-.423-.633-.103-.128-.19-.251-.263-.303-.09-.062-.182-.093-.262-.117-.064-.035-.172-.035-.318-.035h-.653V7h-.559V2.414h1.872zm-15.45 0l2.215 3.6v-3.6h.541V7h-.58l-2.213-3.603V7h-.548V2.414h.585zm-2.753 0L135.064 7h-.632l-.516-1.378h-1.762L131.685 7h-.588l1.641-4.586h.594zm-7.036 0V7h-.558V2.414h.558zm-1.384 0v.548h-2.305v1.412h1.996v.546h-1.996V7h-.549V2.414h2.854zm2.936 0l2.235 3.6v-3.6h.545V7h-.571l-2.237-3.603V7h-.527V2.414h.555zm-22.478 0v.548h-2.5V4.35h2.332v.557h-2.332v1.57h2.59V7h-3.148V2.414h3.058zm1.436 0l2.23 3.6v-3.6h.533V7h-.575l-2.21-3.603V7h-.545V2.414h.567zm11.401 0L119.947 7h-.656l-.486-1.378h-1.787L116.566 7h-.6l1.636-4.586h.605zm-25.339 0v.548h-2.505V4.35H92.7v.557h-2.337v1.57h2.602V7h-3.159V2.414h3.062zm-23.173 0c.273 0 .481.024.63.038.206.033.388.11.539.213.122.105.236.257.32.466.092.173.124.37.124.61 0 .381-.114.735-.332.992-.215.267-.644.407-1.238.407H68.63V7h-.535V2.414h1.6zm86.003 0L157.428 7h-.637l-.492-1.378h-1.775L154.073 7h-.598l1.627-4.586h.596zm-80.578 0v.548h-2.514V4.35h2.36v.557h-2.36v1.57h2.6V7h-3.153V2.414h3.067zm2.764 0c.36 0 .66.038.846.123.205.071.348.222.478.425.124.216.172.458.172.702 0 .333-.087.617-.302.82-.197.225-.48.372-.89.436.141.068.263.14.334.22.172.164.32.372.47.598L79.724 7h-.703l-.57-.959c-.15-.274-.301-.493-.407-.633-.092-.128-.199-.251-.263-.303-.086-.062-.183-.093-.263-.117-.079-.035-.171-.035-.315-.035h-.644V7H76V2.414h1.883zm66.834 0V7h-.563V2.414h.563zm-45.248 0c.343 0 .58.024.767.066.247.057.44.157.627.314.215.213.38.47.492.79.103.325.172.697.172 1.098 0 .342-.058.655-.112.94-.09.251-.171.494-.3.657-.108.197-.245.302-.392.418-.116.093-.294.163-.502.221-.19.059-.41.082-.684.082h-1.517V2.414h1.45zm-5.138 0l2.197 3.6v-3.6h.539V7H96.5l-2.222-3.603V7h-.538V2.414h.592zm-11.858 0l2.216 3.6v-3.6h.545V7h-.578l-2.215-3.603V7h-.547V2.414h.579zm6.736 0v.548h-1.388V7h-.57V2.962h-1.39v-.548h3.348zm59.568 0v.548h-2.51V4.35h2.35v.557h-2.35v1.57h2.618V7h-3.17V2.414h3.062zm-33.338 0V7h-.562V2.414h.562zm-15.97.548h-.89v3.514h.893c.287 0 .512-.04.663-.116.154-.04.294-.128.38-.21.129-.16.247-.346.3-.602.091-.234.12-.524.12-.866 0-.494-.065-.854-.217-1.122-.138-.238-.304-.43-.519-.517-.162-.047-.408-.081-.73-.081zm18.411-.07c-.053.286-.123.58-.23.882l-.451 1.343h1.437l-.451-1.274c-.128-.376-.237-.712-.305-.952zm15.142 0c-.083.286-.134.58-.232.882l-.465 1.343h1.435l-.438-1.274c-.142-.376-.254-.712-.3-.952zm22.355 0c-.057.286-.12.58-.223.882l-.472 1.343h1.453l-.464-1.274c-.143-.376-.228-.712-.294-.952zm-85.523.07H68.63V4.6h1.108c.373 0 .62-.077.771-.226.16-.14.226-.349.226-.61 0-.204-.044-.344-.125-.5-.1-.133-.208-.24-.36-.268-.07-.029-.209-.033-.395-.034zm81.712-.04h-1.345v1.522h1.2c.263 0 .472-.037.6-.094.156-.064.259-.145.327-.273.072-.133.13-.273.13-.413 0-.197-.073-.4-.216-.533-.16-.135-.385-.21-.696-.21zm-73.668 0h-1.34v1.522h1.2c.265 0 .463-.037.602-.094.144-.064.257-.145.333-.273.064-.133.112-.273.112-.413 0-.197-.076-.4-.215-.533-.14-.135-.38-.21-.692-.21zM56.307.029V1.95H0V.03h56.307z"/>
    </defs>
    <g fill="none" fill-rule="evenodd" transform="rotate(-90 80 79)">
        <mask id="prefix__b" fill="#fff">
            <use xlink:href="#prefix__a"/>
        </mask>
        <use fill="#C0C8CF" xlink:href="#prefix__a"/>
        <g fill="#022047" mask="url(#prefix__b)">
            <path d="M0 0L161 0 161 20 0 20z" transform="translate(-.004 -2)"/>
        </g>
    </g>
</svg>
