<svg xmlns="http://www.w3.org/2000/svg" width="45.809" height="45.809" viewBox="0 0 45.809 45.809">
  <g id="Group_4313" data-name="Group 4313" transform="translate(0 0)">
    <path id="Path_1162" data-name="Path 1162" d="M31.95,1.7C30.5,1.7,29.33,3.562,29.4,5.768S30.571,9.7,31.95,9.7,34.432,7.974,34.5,5.837C34.57,3.63,33.466,1.769,31.95,1.7" transform="translate(-9.114 -0.514)" fill="#e31837"/>
    <path id="Path_1163" data-name="Path 1163" d="M60.9,32.05c0-1.448-1.862-2.62-4.068-2.551S52.9,30.671,52.9,32.05s1.724,2.482,3.861,2.551c2.275.069,4.137-1.1,4.137-2.551" transform="translate(-16.413 -9.145)" fill="#e31837"/>
    <path id="Path_1164" data-name="Path 1164" d="M31.95,61c1.448,0,2.62-1.862,2.551-4.068S33.329,53,31.95,53s-2.482,1.724-2.551,3.861C29.33,59.136,30.433,61,31.95,61" transform="translate(-9.114 -16.444)" fill="#e31837"/>
    <path id="Path_1165" data-name="Path 1165" d="M1.7,32.046c0,1.448,1.862,2.62,4.068,2.551S9.7,33.425,9.7,32.046,7.974,29.564,5.837,29.5C3.562,29.357,1.7,30.529,1.7,32.046" transform="translate(-0.514 -9.142)" fill="#e31837"/>
    <path id="Path_1166" data-name="Path 1166" d="M51.362,12.316c-.965-1.034-2.758-.758-4,.552s-1.586,3.24-.689,4.137,2.827.552,4.137-.689c1.379-1.172,1.586-2.965.552-4" transform="translate(-14.323 -3.614)" fill="#e31837"/>
    <path id="Path_1167" data-name="Path 1167" d="M51.348,51.362c1.034-.965.758-2.758-.552-4s-3.24-1.586-4.137-.689c-.965.9-.552,2.827.689,4.137,1.241,1.379,3.034,1.586,4,.552" transform="translate(-14.31 -14.323)" fill="#e31837"/>
    <path id="Path_1168" data-name="Path 1168" d="M12.329,51.362c.965,1.034,2.758.758,4-.552s1.586-3.24.689-4.137-2.827-.552-4.137.689-1.517,3.034-.552,4" transform="translate(-3.628 -14.323)" fill="#e31837"/>
    <path id="Path_1169" data-name="Path 1169" d="M12.316,12.329c-1.034.965-.758,2.758.552,4s3.24,1.586,4.137.689.552-2.827-.689-4.137a2.837,2.837,0,0,0-4-.552" transform="translate(-3.614 -3.628)" fill="#e31837"/>
    <path id="Path_1170" data-name="Path 1170" d="M32.672,19.6A1.329,1.329,0,0,0,31.5,21.048a1.188,1.188,0,1,0,2.344,0A1.329,1.329,0,0,0,32.672,19.6" transform="translate(-9.768 -6.072)" fill="#e31837"/>
    <path id="Path_1171" data-name="Path 1171" d="M40.222,13.149c-.965-.414-2.137.345-2.62,1.655-.483,1.241-.138,2.551.758,2.9a2.245,2.245,0,0,0,2.62-1.517c.483-1.241.207-2.62-.758-3.034" transform="translate(-11.595 -4.034)" fill="#0071bb"/>
    <path id="Path_1172" data-name="Path 1172" d="M51.108,24.44a2.558,2.558,0,0,0-4.55,1.862c.345.9,1.655,1.241,2.9.758a2.252,2.252,0,0,0,1.655-2.62" transform="translate(-14.414 -7.258)" fill="#0071bb"/>
    <path id="Path_1173" data-name="Path 1173" d="M51.108,40.221c.414-.965-.345-2.137-1.655-2.62-1.241-.483-2.551-.138-2.9.758a2.245,2.245,0,0,0,1.517,2.62c1.172.483,2.62.207,3.034-.758" transform="translate(-14.414 -11.595)" fill="#0071bb"/>
    <path id="Path_1174" data-name="Path 1174" d="M40.19,51.108c.965-.414,1.241-1.793.689-3.034a2.245,2.245,0,0,0-2.62-1.517c-.9.345-1.241,1.655-.758,2.9a2.357,2.357,0,0,0,2.689,1.655" transform="translate(-11.564 -14.414)" fill="#0071bb"/>
    <path id="Path_1175" data-name="Path 1175" d="M24.454,51.108c.965.414,2.137-.345,2.62-1.655.483-1.241.138-2.551-.758-2.9a2.245,2.245,0,0,0-2.62,1.517c-.483,1.172-.207,2.62.758,3.034" transform="translate(-7.272 -14.414)" fill="#0071bb"/>
    <path id="Path_1176" data-name="Path 1176" d="M13.162,40.221a2.247,2.247,0,0,0,3.034.758,2.245,2.245,0,0,0,1.517-2.62c-.345-.9-1.655-1.241-2.9-.758a2.252,2.252,0,0,0-1.655,2.62" transform="translate(-4.047 -11.595)" fill="#0071bb"/>
    <path id="Path_1177" data-name="Path 1177" d="M13.149,24.454c-.414.965.345,2.137,1.655,2.62,1.241.483,2.551.138,2.9-.758a2.245,2.245,0,0,0-1.517-2.62c-1.241-.483-2.62-.207-3.034.758" transform="translate(-4.034 -7.272)" fill="#0071bb"/>
    <path id="Path_1178" data-name="Path 1178" d="M24.44,13.162a2.247,2.247,0,0,0-.758,3.034,2.245,2.245,0,0,0,2.62,1.517c.9-.345,1.241-1.655.758-2.9a2.252,2.252,0,0,0-2.62-1.655" transform="translate(-7.258 -4.047)" fill="#0071bb"/>
    <path id="Path_1179" data-name="Path 1179" d="M45.427,32.672A1.329,1.329,0,0,0,43.979,31.5a1.188,1.188,0,1,0,0,2.344,1.329,1.329,0,0,0,1.448-1.172" transform="translate(-13.215 -9.768)" fill="#e31837"/>
    <path id="Path_1180" data-name="Path 1180" d="M32.669,45.427a1.329,1.329,0,0,0,1.172-1.448,1.188,1.188,0,1,0-2.344,0,1.283,1.283,0,0,0,1.172,1.448" transform="translate(-9.765 -13.215)" fill="#e31837"/>
    <path id="Path_1181" data-name="Path 1181" d="M19.6,32.669a1.329,1.329,0,0,0,1.448,1.172,1.188,1.188,0,1,0,0-2.344A1.283,1.283,0,0,0,19.6,32.669" transform="translate(-6.072 -9.765)" fill="#e31837"/>
    <path id="Path_1182" data-name="Path 1182" d="M23.467,23.467a1.333,1.333,0,0,0,.207,1.862,1.241,1.241,0,0,0,1.793.138,1.3,1.3,0,0,0-.138-1.793,1.333,1.333,0,0,0-1.862-.207" transform="translate(-7.182 -7.182)" fill="#e31837"/>
    <path id="Path_1183" data-name="Path 1183" d="M41.754,23.467a1.333,1.333,0,0,0-1.862.207,1.241,1.241,0,0,0-.138,1.793,1.3,1.3,0,0,0,1.793-.138,1.333,1.333,0,0,0,.207-1.862" transform="translate(-12.231 -7.182)" fill="#e31837"/>
    <path id="Path_1184" data-name="Path 1184" d="M41.767,41.754a1.333,1.333,0,0,0-.207-1.862,1.241,1.241,0,0,0-1.793-.138,1.3,1.3,0,0,0,.138,1.793,1.329,1.329,0,0,0,1.862.207" transform="translate(-12.243 -12.231)" fill="#e31837"/>
    <path id="Path_1185" data-name="Path 1185" d="M23.467,41.767a1.333,1.333,0,0,0,1.862-.207,1.241,1.241,0,0,0,.138-1.793,1.3,1.3,0,0,0-1.793.138,1.329,1.329,0,0,0-.207,1.862" transform="translate(-7.182 -12.243)" fill="#e31837"/>
    <path id="Path_1186" data-name="Path 1186" d="M45.766.062c-.758-.345-1.793.414-2.275,1.655-.483,1.172-.207,2.344.483,2.689.758.276,1.724-.345,2.206-1.517.552-1.172.345-2.482-.414-2.827" transform="translate(-13.416 0.021)" fill="#0071bb"/>
    <path id="Path_1187" data-name="Path 1187" d="M64.345,19.166c-.345-.758-1.586-.965-2.758-.483-1.172.552-1.793,1.517-1.517,2.275s1.448.965,2.62.483,1.93-1.517,1.655-2.275" transform="translate(-18.62 -5.707)" fill="#0071bb"/>
    <path id="Path_1188" data-name="Path 1188" d="M64.314,45.766c.345-.758-.414-1.793-1.655-2.275-1.172-.483-2.344-.207-2.689.483-.276.758.345,1.724,1.517,2.206,1.172.552,2.482.345,2.827-.414" transform="translate(-18.589 -13.416)" fill="#0071bb"/>
    <path id="Path_1189" data-name="Path 1189" d="M45.758,64.345c.758-.345.965-1.586.483-2.758-.552-1.172-1.517-1.793-2.275-1.517s-.965,1.448-.483,2.62c.414,1.172,1.517,1.93,2.275,1.655" transform="translate(-13.408 -18.62)" fill="#0071bb"/>
    <path id="Path_1190" data-name="Path 1190" d="M19.173,64.314c.758.345,1.793-.414,2.275-1.655.483-1.172.207-2.344-.483-2.689-.758-.276-1.724.345-2.206,1.517-.552,1.172-.345,2.482.414,2.827" transform="translate(-5.715 -18.589)" fill="#0071bb"/>
    <path id="Path_1191" data-name="Path 1191" d="M.074,45.758c.345.758,1.586.965,2.758.483C4,45.689,4.625,44.724,4.349,43.966S2.9,43,1.729,43.483C.557,43.9-.2,45,.074,45.758" transform="translate(0.009 -13.408)" fill="#0071bb"/>
    <path id="Path_1192" data-name="Path 1192" d="M.062,19.173c-.345.758.414,1.793,1.655,2.275,1.172.483,2.344.207,2.689-.483.276-.758-.345-1.724-1.517-2.206-1.172-.552-2.482-.345-2.827.414" transform="translate(0.021 -5.715)" fill="#0071bb"/>
    <path id="Path_1193" data-name="Path 1193" d="M19.166.074c-.758.345-.965,1.586-.483,2.758C19.235,4,20.2,4.625,20.958,4.349s.965-1.448.483-2.62S19.924-.2,19.166.074" transform="translate(-5.707 0.009)" fill="#0071bb"/>
  </g>
</svg>
