<?xml version="1.0" encoding="utf-8"?>
<!-- Generator: Adobe Illustrator 23.0.3, SVG Export Plug-In . SVG Version: 6.00 Build 0)  -->
<svg version="1.1" id="Capa_1" xmlns="http://www.w3.org/2000/svg" xmlns:xlink="http://www.w3.org/1999/xlink" x="0px" y="0px"
	 viewBox="0 0 415.3 101.4" style="enable-background:new 0 0 415.3 101.4;" xml:space="preserve">
<style type="text/css">
	.st0{fill:#B01630;}
	.st1{fill:#005DB4;}
	.st2{fill:#74A5D7;}
	.st3{fill:#75A8DA;}
	.st4{fill:#003E6F;}
	.st5{fill:#FFFFFF;}
	.st6{fill:none;stroke:#005DB4;stroke-width:2;stroke-miterlimit:10;}
</style>
<g>
	<g>
		<g>
			<path class="st0" d="M34.9,14.1c-2.3,0-4,2.8-3.9,6.2c0.1,3.4,1.8,6,3.9,6c2.1,0,3.8-2.6,3.9-6C39,17,37.2,14.1,34.9,14.1"/>
			<path class="st0" d="M68.1,47.3c0-2.3-2.8-4-6.2-3.9c-3.4,0.1-6,1.8-6,3.9c0,2.1,2.6,3.8,5.9,3.9C65.2,51.3,68.1,49.6,68.1,47.3"
				/>
			<path class="st0" d="M34.9,80.4c2.3,0,4-2.8,3.9-6.2c-0.1-3.4-1.8-6-3.9-6c-2.1,0-3.8,2.6-3.9,6C30.9,77.6,32.6,80.4,34.9,80.4"
				/>
			<path class="st0" d="M1.8,47.3c0,2.3,2.8,4,6.2,3.9c3.4-0.1,6-1.8,6-3.9c0-2.1-2.6-3.8-5.9-3.9C4.6,43.2,1.8,45,1.8,47.3"/>
			<path class="st0" d="M56.7,25.6c-1.5-1.5-4.2-1.2-6.1,0.8c-1.9,2-2.5,4.9-1.1,6.4c1.4,1.4,4.3,0.9,6.3-1
				C57.9,29.9,58.2,27.2,56.7,25.6"/>
			<path class="st0" d="M56.7,69c1.5-1.5,1.2-4.2-0.8-6.1c-2-1.9-4.9-2.5-6.4-1.1c-1.4,1.4-0.9,4.3,1,6.3
				C52.4,70.1,55.1,70.5,56.7,69"/>
			<path class="st0" d="M13.3,69c1.5,1.5,4.2,1.2,6.1-0.8c1.9-2,2.5-4.9,1.1-6.4c-1.4-1.4-4.3-0.9-6.3,1
				C12.2,64.7,11.8,67.4,13.3,69"/>
			<path class="st0" d="M13.3,25.6c-1.5,1.5-1.2,4.2,0.8,6.1c2,1.9,4.9,2.5,6.4,1.1c1.4-1.4,0.9-4.3-1-6.3
				C17.6,24.4,14.9,24.1,13.3,25.6"/>
			<path class="st0" d="M35,33c-1,0-1.8,1-1.8,2.2c0,1.2,0.8,2.1,1.8,2.1c1,0,1.8-0.9,1.8-2.1C36.8,34.1,36,33,35,33"/>
			<path class="st1" d="M43.7,26.2c-1.5-0.6-3.3,0.6-4.1,2.5c-0.7,1.9-0.2,3.9,1.2,4.4c1.4,0.6,3.1-0.4,4-2.3
				C45.7,29,45.2,26.9,43.7,26.2"/>
			<path class="st1" d="M56.1,38.6c-0.6-1.5-2.7-2-4.6-1.1c-1.9,0.8-2.9,2.6-2.3,4c0.6,1.4,2.5,1.9,4.4,1.2
				C55.5,41.9,56.7,40.1,56.1,38.6"/>
			<path class="st1" d="M56.1,56c0.6-1.5-0.6-3.3-2.5-4.1c-1.9-0.7-3.9-0.2-4.5,1.2c-0.6,1.4,0.4,3.1,2.3,4
				C53.3,58,55.4,57.5,56.1,56"/>
			<path class="st1" d="M43.7,68.3c1.5-0.6,2-2.7,1.1-4.6c-0.8-1.9-2.6-2.9-4-2.3c-1.4,0.6-1.9,2.5-1.2,4.4
				C40.4,67.8,42.3,69,43.7,68.3"/>
			<path class="st1" d="M26.3,68.4c1.5,0.6,3.3-0.6,4.1-2.5c0.7-1.9,0.2-3.9-1.2-4.4c-1.4-0.6-3.1,0.4-4,2.3
				C24.3,65.6,24.8,67.7,26.3,68.4"/>
			<path class="st1" d="M14,56c0.6,1.5,2.7,2,4.6,1.1c1.9-0.8,2.9-2.6,2.3-4c-0.6-1.4-2.5-1.9-4.4-1.2C14.5,52.7,13.3,54.5,14,56"/>
			<path class="st1" d="M13.9,38.6c-0.6,1.5,0.6,3.3,2.5,4.1c1.9,0.7,3.9,0.2,4.5-1.2c0.6-1.4-0.4-3.1-2.3-4
				C16.7,36.6,14.6,37.1,13.9,38.6"/>
			<path class="st1" d="M26.3,26.2c-1.5,0.6-2,2.7-1.1,4.6c0.8,1.9,2.6,2.9,4,2.3c1.4-0.6,1.9-2.5,1.2-4.4
				C29.6,26.8,27.8,25.6,26.3,26.2"/>
			<path class="st0" d="M49.3,47.3c0-1-1-1.8-2.2-1.8c-1.2,0-2.1,0.8-2.1,1.8c0,1,0.9,1.8,2.1,1.8C48.2,49.1,49.3,48.3,49.3,47.3"/>
			<path class="st0" d="M35,61.6c1,0,1.8-1,1.8-2.2c0-1.2-0.8-2.1-1.8-2.1c-1,0-1.8,0.9-1.8,2.1C33.2,60.5,34,61.6,35,61.6"/>
			<path class="st0" d="M20.7,47.3c0,1,1,1.8,2.2,1.8c1.2,0,2.1-0.8,2.1-1.8c0-1-0.9-1.8-2.1-1.8C21.8,45.5,20.7,46.3,20.7,47.3"/>
			<path class="st0" d="M24.9,37.2c-0.7,0.7-0.6,2,0.3,2.9c0.9,0.8,2.1,0.9,2.8,0.2c0.7-0.7,0.6-1.9-0.2-2.8
				C26.9,36.6,25.6,36.5,24.9,37.2"/>
			<path class="st0" d="M45.1,37.2c-0.7-0.7-2-0.6-2.9,0.3c-0.8,0.9-0.9,2.1-0.2,2.8c0.7,0.7,1.9,0.6,2.8-0.2
				C45.7,39.2,45.8,37.9,45.1,37.2"/>
			<path class="st0" d="M45.1,57.4c0.7-0.7,0.6-2-0.3-2.9c-0.9-0.8-2.1-0.9-2.8-0.2c-0.7,0.7-0.6,1.9,0.2,2.8
				C43.1,57.9,44.4,58.1,45.1,57.4"/>
			<path class="st0" d="M24.9,57.4c0.7,0.7,2,0.6,2.9-0.3c0.8-0.9,0.9-2.1,0.2-2.8c-0.7-0.7-1.9-0.6-2.8,0.2
				C24.4,55.4,24.2,56.7,24.9,57.4"/>
			<path class="st1" d="M49.4,12.4c-1.2-0.5-2.8,0.7-3.5,2.5c-0.7,1.8-0.3,3.6,0.8,4.1c1.1,0.5,2.6-0.5,3.4-2.3
				C50.9,14.9,50.6,12.9,49.4,12.4"/>
			<path class="st1" d="M69.9,32.8c-0.5-1.2-2.5-1.5-4.2-0.7c-1.8,0.8-2.8,2.3-2.3,3.4c0.5,1.1,2.2,1.5,4.1,0.8
				C69.2,35.6,70.4,34,69.9,32.8"/>
			<path class="st1" d="M69.9,61.7c0.5-1.2-0.7-2.8-2.5-3.5c-1.8-0.7-3.6-0.3-4.1,0.8c-0.5,1.1,0.5,2.6,2.3,3.4
				C67.4,63.2,69.4,62.9,69.9,61.7"/>
			<path class="st1" d="M49.5,82.2c1.2-0.5,1.5-2.4,0.7-4.2c-0.8-1.8-2.3-2.8-3.4-2.3c-1.1,0.5-1.5,2.2-0.8,4
				C46.7,81.5,48.3,82.7,49.5,82.2"/>
			<path class="st1" d="M20.6,82.2c1.2,0.5,2.8-0.7,3.5-2.5c0.7-1.8,0.3-3.6-0.8-4.1c-1.1-0.5-2.6,0.5-3.4,2.3
				C19.1,79.7,19.4,81.7,20.6,82.2"/>
			<path class="st1" d="M0.1,61.8c0.5,1.2,2.4,1.5,4.2,0.7c1.8-0.8,2.8-2.3,2.3-3.4c-0.5-1.1-2.2-1.5-4.1-0.8
				C0.8,58.9-0.4,60.5,0.1,61.8"/>
			<path class="st1" d="M0.1,32.9c-0.5,1.2,0.7,2.8,2.5,3.5c1.8,0.7,3.6,0.3,4.1-0.8c0.5-1.1-0.5-2.6-2.3-3.4
				C2.6,31.4,0.6,31.7,0.1,32.9"/>
			<path class="st1" d="M20.5,12.4c-1.2,0.5-1.5,2.4-0.7,4.2c0.8,1.8,2.3,2.8,3.4,2.3c1.1-0.5,1.5-2.2,0.8-4.1
				C23.4,13.1,21.8,11.9,20.5,12.4"/>
			<g>
				<path class="st1" d="M98.4,47.7c-0.5-0.5-1.1-0.9-1.7-1.1c-0.2-0.1-0.4-0.2-0.6-0.2c0.1-0.1,0.2-0.1,0.3-0.2
					c0.5-0.3,0.9-0.7,1.2-1.1c0.3-0.4,0.6-1,0.8-1.6c0.2-0.6,0.3-1.2,0.3-1.9c0-1.1-0.2-2.1-0.6-2.8c-0.4-0.8-1-1.4-1.7-1.9
					c-0.7-0.5-1.6-0.8-2.6-1.1c-1-0.2-2.1-0.3-3.3-0.3c-1,0-1.9,0-2.8,0.1c-1,0.1-1.7,0.1-2.2,0.3l-0.3,0.1v22.8l0.3,0
					c0.8,0.1,1.7,0.2,2.6,0.3c0.9,0.1,1.8,0.1,2.6,0.1c1.3,0,2.5-0.1,3.6-0.3c1.1-0.2,2.1-0.6,3-1.2c0.9-0.5,1.6-1.3,2.1-2.1
					c0.5-0.9,0.8-2,0.8-3.2c0-1-0.2-1.9-0.5-2.7C99.3,48.8,98.9,48.2,98.4,47.7 M89,48.4h2.2c0.7,0,1.4,0.1,2,0.2
					c0.6,0.1,1.1,0.3,1.5,0.6c0.4,0.3,0.7,0.7,1,1.1c0.2,0.5,0.4,1.1,0.4,1.8c0,0.7-0.1,1.3-0.4,1.7c-0.3,0.4-0.6,0.8-1,1.1
					c-0.5,0.3-1,0.5-1.6,0.6c-1,0.2-2.2,0.2-3.3,0.1c-0.3,0-0.5,0-0.7,0V48.4z M93.9,44.2c-0.7,0.5-1.7,0.8-3,0.8H89v-6.3
					c0.2,0,0.4,0,0.6,0c0.4,0,0.8,0,1.2,0c1.3,0,2.3,0.3,3,0.8c0.7,0.5,1,1.3,1,2.3C94.8,42.9,94.5,43.7,93.9,44.2"/>
				<path class="st1" d="M108,41.8c-0.8,0-1.6,0.1-2.5,0.2c-0.9,0.1-1.7,0.3-2.4,0.5l-0.3,0.1v0.3c0,1,0.2,1.9,0.6,2.6l0.2,0.3
					l0.3-0.1c0.6-0.2,1.2-0.3,1.8-0.4c0.6-0.1,1.3-0.2,2-0.2c1.1,0,1.9,0.2,2.5,0.6c0.5,0.4,0.8,1.2,0.8,2.2v0.2
					c-0.2,0-0.4,0-0.7-0.1c-0.4,0-1,0-1.6,0c-0.9,0-1.8,0.1-2.6,0.3c-0.8,0.2-1.6,0.6-2.2,1c-0.7,0.5-1.2,1.1-1.6,1.8
					c-0.4,0.7-0.6,1.6-0.6,2.5c0,1,0.2,1.8,0.5,2.5c0.3,0.7,0.8,1.3,1.4,1.7c0.6,0.4,1.3,0.8,2.2,1c0.8,0.2,1.8,0.3,2.8,0.3
					c1.1,0,2.2-0.1,3.2-0.3c1-0.2,1.9-0.3,2.6-0.5l0.3-0.1V48c0-2.2-0.6-3.8-1.7-4.8C111.8,42.3,110.2,41.8,108,41.8 M111,51.2v4.4
					c-0.3,0.1-0.6,0.1-1,0.2c-0.9,0.1-1.7,0.1-2.6,0c-0.4,0-0.7-0.1-1-0.3c-0.3-0.2-0.5-0.4-0.7-0.7c-0.2-0.3-0.3-0.7-0.3-1.2
					c0-0.8,0.3-1.5,0.8-1.9c0.6-0.4,1.5-0.6,2.7-0.6c0.3,0,0.7,0,1.2,0.1C110.5,51.2,110.7,51.2,111,51.2"/>
				<path class="st1" d="M125.6,41.8c-0.7,0-1.3,0.1-1.9,0.3c-0.6,0.2-1.1,0.4-1.5,0.7c-0.4,0.3-0.8,0.6-1.2,1
					c-0.1,0.1-0.1,0.2-0.2,0.2c0-0.1,0-0.2,0-0.3c-0.1-0.5-0.1-1-0.2-1.3l-0.1-0.2l-0.2,0c-0.2,0-0.4-0.1-0.7-0.1
					c-0.4,0-0.9,0-1.4,0c-0.2,0-0.5,0.1-0.7,0.1l-0.3,0.1v16.4l0.3,0.1c0.2,0,0.5,0.1,0.8,0.1c0.6,0,1,0,1.6,0
					c0.3,0,0.5-0.1,0.8-0.1l0.3-0.1v-8.3c0-0.9,0.1-1.7,0.3-2.4c0.2-0.6,0.5-1.2,0.9-1.6c0.3-0.4,0.8-0.7,1.2-0.9
					c0.5-0.2,1-0.3,1.5-0.3c0.9,0,1.5,0.3,1.8,0.9c0.4,0.6,0.6,1.6,0.6,3v9.5l0.3,0.1c0.2,0,0.5,0.1,0.8,0.1c0.3,0,0.6,0,0.8,0
					c0.2,0,0.5,0,0.8,0c0.3,0,0.6-0.1,0.8-0.1l0.3-0.1V48.3c0-2.1-0.5-3.7-1.4-4.8C129,42.3,127.5,41.8,125.6,41.8"/>
				<path class="st1" d="M146.2,56.6c-0.1-0.5-0.3-0.8-0.5-1.2l-0.2-0.3l-0.3,0.1c-0.5,0.2-1,0.3-1.5,0.4c-0.5,0.1-1.1,0.1-1.7,0.1
					c-1.4,0-2.6-0.4-3.4-1.3c-0.8-0.8-1.2-2.2-1.2-4.1c0-1.6,0.4-3,1.1-3.9c0.7-1,1.8-1.4,3.2-1.4c1.2,0,2.4,0.2,3.3,0.5l0.3,0.1
					l0.1-0.3c0.2-0.4,0.3-0.8,0.4-1.3c0.1-0.5,0.1-0.9,0.1-1.3v-0.3l-0.2-0.1c-0.6-0.2-1.3-0.4-2-0.5c-0.7-0.1-1.5-0.2-2.3-0.2
					c-1.3,0-2.5,0.2-3.5,0.7c-1,0.5-1.9,1.1-2.6,1.9c-0.7,0.8-1.2,1.7-1.5,2.8c-0.3,1-0.5,2.2-0.5,3.4c0,2.6,0.7,4.7,2.1,6.3
					c1.4,1.6,3.5,2.4,6.2,2.4c1.6,0,3.1-0.2,4.3-0.7l0.3-0.1l0-0.3C146.4,57.5,146.4,57,146.2,56.6"/>
				<path class="st1" d="M161.3,44.3c-0.7-0.8-1.5-1.4-2.4-1.9c-1-0.5-2.1-0.7-3.4-0.7S153,42,152,42.5c-1,0.5-1.8,1.1-2.4,1.9
					c-0.6,0.8-1.1,1.7-1.4,2.8c-0.3,1-0.5,2.2-0.5,3.4c0,1.2,0.2,2.3,0.5,3.4c0.3,1.1,0.8,2,1.4,2.8c0.7,0.8,1.5,1.4,2.4,1.8
					c1,0.4,2.1,0.7,3.4,0.7c1.3,0,2.4-0.2,3.4-0.7c1-0.4,1.8-1.1,2.4-1.8c0.6-0.8,1.1-1.7,1.4-2.8c0.3-1,0.5-2.2,0.5-3.4
					c0-1.2-0.2-2.3-0.5-3.4C162.4,46,161.9,45.1,161.3,44.3 M155.4,55.9c-1.3,0-2.2-0.5-2.8-1.4c-0.6-1-0.9-2.3-0.9-4.1
					c0-1.7,0.3-3.1,0.9-4.1c0.6-0.9,1.5-1.4,2.8-1.4c1.3,0,2.2,0.4,2.8,1.4c0.6,1,1,2.3,1,4.1c0,1.7-0.3,3.1-1,4.1
					C157.7,55.5,156.7,55.9,155.4,55.9"/>
				<path class="st1" d="M187.6,54.9l-0.2-0.3l-0.3,0.1c-0.6,0.3-1.2,0.5-1.9,0.6c-0.7,0.1-1.4,0.2-2.3,0.2c-1.1,0-2-0.2-2.9-0.5
					c-0.8-0.3-1.6-0.8-2.2-1.5c-0.6-0.7-1.1-1.5-1.4-2.5c-0.3-1-0.5-2.3-0.5-3.7c0-2.8,0.6-4.9,1.8-6.3c1.2-1.4,2.8-2.1,4.9-2.1
					c0.5,0,0.9,0,1.3,0c0.4,0,0.8,0.1,1.1,0.1c0.3,0.1,0.6,0.1,0.9,0.2c0.3,0.1,0.6,0.2,0.9,0.3l0.3,0.1l0.1-0.3
					c0.2-0.5,0.3-0.9,0.5-1.3c0.1-0.4,0.2-0.9,0.3-1.4l0-0.3l-0.3-0.1c-0.7-0.2-1.4-0.4-2.3-0.6c-0.9-0.2-1.9-0.3-3.1-0.3
					c-1.6,0-3.1,0.3-4.4,0.9c-1.3,0.6-2.5,1.4-3.4,2.4c-0.9,1-1.6,2.3-2.1,3.8c-0.5,1.5-0.7,3.1-0.7,4.9c0,1.8,0.2,3.4,0.7,4.8
					c0.5,1.4,1.2,2.7,2.1,3.7c0.9,1,2.1,1.8,3.4,2.3c1.3,0.5,2.8,0.8,4.5,0.8c1.1,0,2.1-0.1,3-0.3c0.9-0.2,1.8-0.4,2.7-0.8l0.3-0.1
					l0-0.3C188.4,56.7,188.1,55.8,187.6,54.9"/>
				<path class="st1" d="M196.4,41.8c-0.8,0-1.6,0.1-2.5,0.2c-0.9,0.1-1.7,0.3-2.4,0.5l-0.3,0.1v0.3c0,1,0.2,1.9,0.6,2.6l0.1,0.3
					l0.3-0.1c0.6-0.2,1.2-0.3,1.8-0.4c0.6-0.1,1.3-0.2,2-0.2c1.1,0,1.9,0.2,2.5,0.6c0.5,0.4,0.8,1.2,0.8,2.2v0.2
					c-0.2,0-0.4,0-0.7-0.1c-0.4,0-1,0-1.6,0c-0.9,0-1.8,0.1-2.6,0.3c-0.8,0.2-1.6,0.6-2.2,1c-0.7,0.5-1.2,1.1-1.6,1.8
					c-0.4,0.7-0.6,1.6-0.6,2.5c0,1,0.2,1.8,0.5,2.5c0.3,0.7,0.8,1.3,1.4,1.7c0.6,0.4,1.3,0.8,2.2,1c0.8,0.2,1.8,0.3,2.8,0.3
					c1.1,0,2.2-0.1,3.2-0.3c1-0.2,1.9-0.3,2.6-0.5l0.3-0.1V48c0-2.2-0.6-3.8-1.7-4.8C200.2,42.3,198.5,41.8,196.4,41.8 M199.3,51.2
					v4.4c-0.3,0.1-0.6,0.1-1,0.2c-0.9,0.1-1.7,0.1-2.6,0c-0.4,0-0.7-0.1-1-0.3c-0.3-0.2-0.5-0.4-0.7-0.7c-0.2-0.3-0.3-0.7-0.3-1.2
					c0-0.8,0.3-1.5,0.8-1.9c0.6-0.4,1.5-0.6,2.7-0.6c0.3,0,0.7,0,1.2,0.1C198.8,51.2,199.1,51.2,199.3,51.2"/>
				<path class="st1" d="M205.9,42.4c0,0.2-0.1,0.4-0.1,0.6c0,0.2,0,0.5,0,0.7c0,0.2,0,0.4,0,0.7c0,0.2,0.1,0.4,0.1,0.6l0.1,0.3h1.9
					V59c0,0.6-0.1,1-0.2,1.3c-0.1,0.3-0.3,0.5-0.5,0.6c-0.2,0.1-0.4,0.2-0.6,0.3c-1,0.1-1.8,0-2.4-0.2l-0.3-0.1l-0.1,0.3
					c-0.2,0.4-0.3,0.8-0.4,1.2c-0.1,0.4-0.1,0.9-0.2,1.3l0,0.3l0.3,0.1c0.8,0.3,1.8,0.4,2.9,0.4c0.7,0,1.4-0.1,2-0.3
					c0.6-0.2,1.2-0.5,1.7-0.9c0.5-0.4,0.9-1,1.1-1.6c0.3-0.7,0.4-1.5,0.4-2.5V42.1H206L205.9,42.4z"/>
				<path class="st1" d="M207.2,39.1l0,0.3l0.3,0c0.3,0,0.5,0.1,0.9,0.1c0.3,0,0.6,0,0.8,0c0.2,0,0.5,0,0.8,0c0.3,0,0.6-0.1,0.8-0.1
					l0.3,0l0-0.3c0-0.3,0.1-0.6,0.1-0.8c0-0.3,0-0.5,0-0.8c0-0.2,0-0.5,0-0.8c0-0.3-0.1-0.5-0.1-0.8l0-0.3l-0.3,0
					c-0.2,0-0.5-0.1-0.8-0.1c-0.3,0-0.6,0-0.8,0c-0.2,0-0.5,0-0.8,0c-0.3,0-0.6,0.1-0.9,0.1l-0.3,0l0,0.3c0,0.3-0.1,0.5-0.1,0.8
					c0,0.3,0,0.5,0,0.8s0,0.5,0,0.8C207.1,38.5,207.1,38.8,207.2,39.1"/>
				<path class="st1" d="M220.7,41.8c-0.8,0-1.6,0.1-2.5,0.2c-0.9,0.1-1.7,0.3-2.4,0.5l-0.3,0.1v0.3c0,1,0.2,1.9,0.6,2.6l0.1,0.3
					l0.3-0.1c0.6-0.2,1.2-0.3,1.8-0.4c0.6-0.1,1.3-0.2,2-0.2c1.1,0,1.9,0.2,2.5,0.6c0.5,0.4,0.8,1.2,0.8,2.2v0.2
					c-0.2,0-0.4,0-0.7-0.1c-0.4,0-1,0-1.6,0c-0.9,0-1.8,0.1-2.6,0.3c-0.8,0.2-1.6,0.6-2.2,1c-0.7,0.5-1.2,1.1-1.6,1.8
					c-0.4,0.7-0.6,1.6-0.6,2.5c0,1,0.2,1.8,0.5,2.5c0.3,0.7,0.8,1.3,1.4,1.7c0.6,0.4,1.3,0.8,2.2,1c0.8,0.2,1.8,0.3,2.8,0.3
					c1.1,0,2.2-0.1,3.2-0.3c1-0.2,1.9-0.3,2.6-0.5l0.3-0.1V48c0-2.2-0.6-3.8-1.7-4.8C224.5,42.3,222.8,41.8,220.7,41.8 M223.6,51.2
					v4.4c-0.3,0.1-0.6,0.1-1,0.2c-0.9,0.1-1.7,0.1-2.6,0c-0.4,0-0.7-0.1-1-0.3c-0.3-0.2-0.5-0.4-0.7-0.7c-0.2-0.3-0.3-0.7-0.3-1.2
					c0-0.8,0.3-1.5,0.8-1.9c0.6-0.4,1.5-0.6,2.7-0.6c0.3,0,0.7,0,1.2,0.1C223.1,51.2,223.4,51.2,223.6,51.2"/>
				<path class="st1" d="M249.5,47.6c-0.5-0.5-1.1-1-1.7-1.3c-0.6-0.4-1.4-0.7-2.2-1.1l-1.7-0.7c-0.4-0.2-0.8-0.3-1.2-0.5
					c-0.4-0.2-0.7-0.4-0.9-0.6c-0.3-0.2-0.5-0.5-0.6-0.8c-0.2-0.3-0.2-0.6-0.2-1c0-0.9,0.3-1.6,0.9-2.1c0.6-0.5,1.6-0.7,2.8-0.7
					c0.9,0,1.7,0.1,2.4,0.2c0.7,0.2,1.3,0.3,1.9,0.5l0.3,0.1l0.1-0.3c0.4-0.9,0.6-1.8,0.7-2.7l0-0.3l-0.3-0.1
					c-0.7-0.3-1.5-0.5-2.4-0.6c-0.9-0.2-1.9-0.3-2.9-0.3c-2.4,0-4.3,0.6-5.6,1.7c-1.4,1.1-2,2.7-2,4.7c0,0.8,0.1,1.5,0.3,2.1
					c0.2,0.6,0.5,1.1,0.9,1.6c0.4,0.5,0.8,0.9,1.4,1.2c0.5,0.3,1.1,0.6,1.7,0.8l1.8,0.7c0.7,0.3,1.3,0.6,1.8,0.8
					c0.5,0.2,0.9,0.5,1.2,0.8c0.3,0.3,0.5,0.6,0.7,0.9c0.2,0.4,0.2,0.8,0.2,1.3c0,1.1-0.4,1.9-1.1,2.5c-0.8,0.6-2,0.9-3.5,0.9
					c-1,0-1.9-0.1-2.6-0.3c-0.7-0.2-1.4-0.4-2.1-0.6l-0.4-0.1l-0.1,0.3c-0.2,0.4-0.3,0.9-0.5,1.4c-0.2,0.5-0.3,1-0.3,1.5l0,0.3
					l0.3,0.1c0.4,0.1,0.9,0.3,1.3,0.4c0.4,0.1,0.9,0.2,1.3,0.3c0.5,0.1,0.9,0.1,1.5,0.2c0.5,0,1.1,0.1,1.8,0.1
					c2.7,0,4.9-0.6,6.4-1.9c1.5-1.3,2.3-3.1,2.3-5.3c0-0.9-0.1-1.7-0.4-2.4C250.3,48.7,250,48.1,249.5,47.6"/>
				<path class="st1" d="M266.1,44.3c-0.7-0.8-1.5-1.4-2.4-1.9c-1-0.5-2.1-0.7-3.4-0.7c-1.3,0-2.4,0.2-3.4,0.7
					c-1,0.5-1.8,1.1-2.4,1.9c-0.6,0.8-1.1,1.7-1.4,2.8c-0.3,1-0.5,2.2-0.5,3.4c0,1.2,0.2,2.3,0.5,3.4c0.3,1.1,0.8,2,1.4,2.8
					c0.7,0.8,1.5,1.4,2.4,1.8c1,0.4,2.1,0.7,3.4,0.7c1.3,0,2.4-0.2,3.4-0.7c1-0.4,1.8-1.1,2.4-1.8c0.6-0.8,1.1-1.7,1.4-2.8
					c0.3-1,0.5-2.2,0.5-3.4c0-1.2-0.2-2.3-0.5-3.4C267.2,46,266.7,45.1,266.1,44.3 M260.2,55.9c-1.3,0-2.2-0.5-2.8-1.4
					c-0.6-1-0.9-2.3-0.9-4.1c0-1.7,0.3-3.1,0.9-4.1c0.6-0.9,1.5-1.4,2.8-1.4c1.3,0,2.2,0.4,2.8,1.4c0.6,1,1,2.3,1,4.1
					c0,1.7-0.3,3.1-1,4.1C262.4,55.5,261.5,55.9,260.2,55.9"/>
				<path class="st1" d="M282.3,56.6c-0.1-0.5-0.3-0.8-0.5-1.2l-0.2-0.3l-0.3,0.1c-0.5,0.2-1,0.3-1.5,0.4c-0.5,0.1-1.1,0.1-1.7,0.1
					c-1.4,0-2.6-0.4-3.4-1.3c-0.8-0.8-1.2-2.2-1.2-4.1c0-1.6,0.4-3,1.1-3.9c0.7-1,1.8-1.4,3.2-1.4c1.2,0,2.4,0.2,3.3,0.5l0.3,0.1
					l0.1-0.3c0.2-0.4,0.3-0.8,0.4-1.3c0.1-0.5,0.1-0.9,0.1-1.3v-0.3l-0.2-0.1c-0.6-0.2-1.3-0.4-2-0.5c-0.7-0.1-1.5-0.2-2.3-0.2
					c-1.3,0-2.5,0.2-3.5,0.7c-1,0.5-1.9,1.1-2.6,1.9c-0.7,0.8-1.2,1.7-1.5,2.7c-0.3,1-0.5,2.2-0.5,3.4c0,2.6,0.7,4.7,2.1,6.3
					c1.4,1.6,3.5,2.4,6.2,2.4c1.6,0,3.1-0.2,4.3-0.7l0.2-0.1l0-0.3C282.5,57.5,282.5,57,282.3,56.6"/>
				<path class="st1" d="M285.6,39.1l0,0.3l0.3,0c0.3,0,0.6,0.1,0.9,0.1c0.3,0,0.6,0,0.9,0c0.2,0,0.5,0,0.8,0c0.3,0,0.6-0.1,0.9-0.1
					l0.3,0l0-0.3c0-0.3,0.1-0.5,0.1-0.9c0-0.3,0-0.6,0-0.8c0-0.2,0-0.5,0-0.8c0-0.3,0-0.6-0.1-0.8l0-0.3l-0.3,0
					c-0.3,0-0.6-0.1-0.9-0.1c-0.3,0-0.6,0-0.8,0c-0.2,0-0.5,0-0.8,0c-0.3,0-0.6,0.1-0.9,0.1l-0.3,0l0,0.3c0,0.2-0.1,0.5-0.1,0.8
					c0,0.3,0,0.6,0,0.8c0,0.2,0,0.5,0,0.8C285.5,38.6,285.6,38.8,285.6,39.1"/>
				<path class="st1" d="M284.3,42.4c0,0.2-0.1,0.4-0.1,0.6c0,0.2,0,0.4,0,0.7c0,0.2,0,0.4,0,0.7c0,0.2,0.1,0.4,0.1,0.6l0.1,0.3h1.9
					v13.4l0.3,0.1c0.2,0,0.5,0.1,0.8,0.1c0.3,0,0.5,0,0.8,0c0.2,0,0.5,0,0.8,0c0.3,0,0.5-0.1,0.8-0.1l0.3-0.1V42.1h-5.7L284.3,42.4z
					"/>
				<path class="st1" d="M298.4,41.8c-0.8,0-1.6,0.1-2.5,0.2c-0.9,0.1-1.7,0.3-2.4,0.5l-0.3,0.1v0.3c0,1,0.2,1.9,0.6,2.6l0.2,0.3
					l0.3-0.1c0.6-0.2,1.2-0.3,1.8-0.4c0.6-0.1,1.3-0.2,2-0.2c1.1,0,1.9,0.2,2.5,0.6c0.5,0.4,0.8,1.2,0.8,2.2v0.2
					c-0.2,0-0.4,0-0.7-0.1c-0.4,0-1,0-1.6,0c-0.9,0-1.8,0.1-2.6,0.3c-0.8,0.2-1.6,0.6-2.2,1c-0.7,0.5-1.2,1.1-1.6,1.8
					c-0.4,0.7-0.6,1.6-0.6,2.5c0,1,0.2,1.8,0.5,2.5c0.3,0.7,0.8,1.3,1.4,1.7c0.6,0.4,1.3,0.8,2.2,1c0.8,0.2,1.8,0.3,2.8,0.3
					c1.1,0,2.2-0.1,3.2-0.3c1-0.2,1.9-0.3,2.6-0.5l0.3-0.1V48c0-2.2-0.6-3.8-1.7-4.8C302.2,42.3,300.6,41.8,298.4,41.8 M301.4,51.2
					v4.4c-0.3,0.1-0.6,0.1-1,0.2c-0.9,0.1-1.7,0.1-2.6,0c-0.4,0-0.7-0.1-1-0.3c-0.3-0.2-0.5-0.4-0.7-0.7c-0.2-0.3-0.3-0.7-0.3-1.2
					c0-0.8,0.3-1.5,0.8-1.9c0.6-0.4,1.5-0.6,2.7-0.6c0.3,0,0.7,0,1.2,0.1C300.9,51.2,301.1,51.2,301.4,51.2"/>
				<path class="st1" d="M314.6,55.9l-0.1-0.4l-0.4,0.1c-0.1,0-0.3,0.1-0.5,0.1c-0.5,0-0.9,0-1.3,0c-0.2,0-0.3-0.1-0.4-0.2
					c-0.1-0.1-0.2-0.3-0.3-0.6c-0.1-0.3-0.1-0.7-0.1-1.2V35.4l-0.3-0.1c-0.2,0-0.5-0.1-0.8-0.1c-0.3,0-0.6,0-0.8,0
					c-0.2,0-0.5,0-0.8,0c-0.3,0-0.6,0.1-0.8,0.1l-0.3,0.1v18.8c0,0.9,0.1,1.6,0.4,2.2c0.2,0.6,0.6,1.1,1,1.5
					c0.4,0.4,0.9,0.6,1.5,0.8c0.5,0.2,1.1,0.2,1.8,0.2c0.4,0,0.8,0,1.2,0c0.4,0,0.8-0.1,1.1-0.2l0.2-0.1v-0.3
					C314.9,57.4,314.8,56.6,314.6,55.9"/>
			</g>
			<g>
				<path class="st1" d="M85.4,76.8c0.3,0.1,0.6,0.2,0.9,0.3c0.3,0.1,0.7,0.1,1.2,0.1c0.7,0,1.3-0.2,1.7-0.5
					c0.4-0.3,0.5-0.7,0.5-1.2c0-0.3,0-0.5-0.1-0.7c-0.1-0.2-0.2-0.3-0.3-0.5c-0.2-0.1-0.3-0.3-0.6-0.4c-0.2-0.1-0.5-0.2-0.8-0.4
					l-0.8-0.3c-0.3-0.1-0.5-0.2-0.7-0.4c-0.2-0.1-0.4-0.3-0.6-0.5c-0.2-0.2-0.3-0.4-0.4-0.7c-0.1-0.2-0.1-0.5-0.1-0.9
					c0-0.8,0.3-1.5,0.8-1.9c0.6-0.5,1.3-0.7,2.4-0.7c0.4,0,0.8,0,1.2,0.1c0.4,0.1,0.7,0.2,1,0.3c0,0.4-0.1,0.8-0.3,1.1
					c-0.2-0.1-0.5-0.2-0.8-0.2c-0.3-0.1-0.7-0.1-1.1-0.1c-0.6,0-1,0.1-1.3,0.3c-0.3,0.2-0.5,0.6-0.5,1c0,0.2,0,0.4,0.1,0.5
					c0.1,0.1,0.2,0.3,0.3,0.4c0.1,0.1,0.3,0.2,0.4,0.3c0.2,0.1,0.4,0.2,0.5,0.2l0.8,0.3c0.4,0.1,0.7,0.3,1,0.5
					c0.3,0.2,0.5,0.3,0.7,0.6c0.2,0.2,0.4,0.5,0.5,0.8c0.1,0.3,0.2,0.6,0.2,1c0,0.9-0.3,1.7-1,2.2c-0.6,0.5-1.5,0.8-2.7,0.8
					c-0.3,0-0.5,0-0.8,0c-0.2,0-0.4,0-0.6-0.1c-0.2,0-0.4-0.1-0.6-0.1s-0.4-0.1-0.6-0.2c0-0.2,0.1-0.4,0.1-0.6
					C85.3,77.2,85.3,77,85.4,76.8z"/>
				<path class="st1" d="M93.3,71.3c0.1,0,0.2,0,0.3,0c0.1,0,0.2,0,0.3,0c0.1,0,0.2,0,0.3,0c0.1,0,0.2,0,0.3,0v3.8
					c0,0.4,0,0.8,0.1,1.1c0.1,0.3,0.2,0.5,0.4,0.7c0.2,0.2,0.4,0.3,0.6,0.3c0.2,0.1,0.5,0.1,0.8,0.1c0.5,0,0.9,0,1.2-0.1v-5.9
					c0.1,0,0.2,0,0.3,0c0.1,0,0.2,0,0.3,0c0.1,0,0.2,0,0.3,0c0.1,0,0.2,0,0.3,0v6.7c-0.3,0.1-0.7,0.2-1.1,0.3
					c-0.4,0.1-0.9,0.1-1.4,0.1c-0.4,0-0.9,0-1.3-0.1c-0.4-0.1-0.7-0.2-1-0.5c-0.3-0.2-0.5-0.6-0.7-1c-0.2-0.4-0.3-1-0.3-1.7V71.3z"
					/>
				<path class="st1" d="M105.2,68.3c0.1,0,0.2,0,0.3,0c0.1,0,0.2,0,0.3,0c0.1,0,0.2,0,0.3,0c0.1,0,0.2,0,0.3,0v3.8
					c0.2-0.3,0.4-0.5,0.8-0.7c0.3-0.2,0.8-0.3,1.2-0.3c0.4,0,0.8,0.1,1.2,0.2c0.4,0.1,0.7,0.3,0.9,0.6c0.3,0.3,0.5,0.6,0.6,1.1
					c0.1,0.4,0.2,1,0.2,1.6c0,1.2-0.3,2.1-1,2.8c-0.7,0.7-1.6,1-2.9,1c-0.4,0-0.8,0-1.2-0.1c-0.4-0.1-0.8-0.2-1.1-0.3V68.3z
					 M106.5,77.2c0.2,0.1,0.3,0.1,0.5,0.1c0.2,0,0.4,0,0.6,0c0.3,0,0.6-0.1,0.9-0.2c0.3-0.1,0.5-0.3,0.7-0.5
					c0.2-0.2,0.4-0.5,0.5-0.8c0.1-0.3,0.2-0.7,0.2-1.2c0-0.8-0.1-1.3-0.4-1.8c-0.3-0.4-0.7-0.6-1.3-0.6c-0.2,0-0.4,0-0.6,0.1
					c-0.2,0.1-0.4,0.2-0.6,0.3c-0.2,0.1-0.3,0.3-0.4,0.6c-0.1,0.2-0.2,0.5-0.2,0.9V77.2z"/>
				<path class="st1" d="M117,73.7c0-0.5-0.1-0.9-0.4-1.1c-0.3-0.2-0.7-0.3-1.2-0.3c-0.3,0-0.6,0-0.9,0.1c-0.3,0-0.5,0.1-0.8,0.2
					c-0.2-0.3-0.3-0.7-0.3-1.1c0.3-0.1,0.6-0.2,1-0.2c0.4-0.1,0.7-0.1,1.1-0.1c0.9,0,1.6,0.2,2.1,0.6c0.5,0.4,0.7,1.1,0.7,2v4.4
					c-0.3,0.1-0.7,0.1-1.2,0.2c-0.5,0.1-0.9,0.1-1.4,0.1c-0.4,0-0.8,0-1.2-0.1c-0.4-0.1-0.7-0.2-0.9-0.4c-0.2-0.2-0.4-0.4-0.6-0.7
					c-0.1-0.3-0.2-0.6-0.2-1c0-0.4,0.1-0.7,0.2-1c0.2-0.3,0.4-0.5,0.6-0.7c0.3-0.2,0.6-0.3,0.9-0.4c0.4-0.1,0.7-0.1,1.1-0.1
					c0.3,0,0.5,0,0.7,0c0.2,0,0.3,0,0.5,0V73.7z M117,75c-0.1,0-0.3,0-0.5-0.1c-0.2,0-0.4,0-0.5,0c-0.6,0-1,0.1-1.3,0.3
					c-0.3,0.2-0.4,0.5-0.4,0.9c0,0.3,0,0.5,0.1,0.6c0.1,0.2,0.2,0.3,0.4,0.4c0.1,0.1,0.3,0.1,0.5,0.1c0.2,0,0.4,0,0.5,0
					c0.2,0,0.4,0,0.6,0c0.2,0,0.4-0.1,0.6-0.1V75z"/>
				<path class="st1" d="M120.5,71.3c0.1,0,0.2,0,0.3,0c0.1,0,0.2,0,0.3,0s0.2,0,0.3,0c0.1,0,0.2,0,0.3,0c0,0.1,0.1,0.3,0.1,0.5
					c0,0.2,0,0.4,0,0.6c0.1-0.2,0.2-0.3,0.3-0.5c0.1-0.2,0.3-0.3,0.5-0.4c0.2-0.1,0.4-0.2,0.6-0.3c0.2-0.1,0.5-0.1,0.8-0.1
					c0.8,0,1.4,0.2,1.8,0.7c0.4,0.5,0.6,1.1,0.6,2v4.4c-0.1,0-0.2,0-0.3,0c-0.1,0-0.2,0-0.3,0c-0.1,0-0.2,0-0.3,0
					c-0.1,0-0.2,0-0.3,0v-4c0-0.6-0.1-1.1-0.3-1.4c-0.2-0.3-0.5-0.5-1-0.5c-0.3,0-0.5,0-0.7,0.1c-0.2,0.1-0.4,0.2-0.6,0.4
					c-0.2,0.2-0.3,0.4-0.4,0.7c-0.1,0.3-0.2,0.7-0.2,1.1v3.5c-0.1,0-0.2,0-0.3,0c-0.1,0-0.2,0-0.3,0c-0.1,0-0.2,0-0.3,0
					c-0.1,0-0.2,0-0.3,0V71.3z"/>
				<path class="st1" d="M133.6,77.1c0.1,0.1,0.1,0.3,0.2,0.5c0.1,0.2,0.1,0.4,0.1,0.6c-0.5,0.2-1.1,0.3-1.8,0.3c-1.2,0-2-0.3-2.6-1
					c-0.6-0.7-0.9-1.5-0.9-2.7c0-0.5,0.1-1,0.2-1.4c0.1-0.4,0.4-0.8,0.6-1.2c0.3-0.3,0.6-0.6,1.1-0.8c0.4-0.2,0.9-0.3,1.5-0.3
					c0.4,0,0.7,0,1,0.1c0.3,0,0.6,0.1,0.8,0.2c0,0.2,0,0.3-0.1,0.5c0,0.2-0.1,0.4-0.2,0.5c-0.4-0.2-1-0.2-1.5-0.2
					c-0.7,0-1.2,0.2-1.6,0.7c-0.3,0.5-0.5,1.1-0.5,1.8c0,0.9,0.2,1.5,0.6,1.9c0.4,0.4,0.9,0.6,1.6,0.6c0.3,0,0.5,0,0.8-0.1
					C133.2,77.2,133.4,77.2,133.6,77.1z"/>
				<path class="st1" d="M138.5,78.5c-0.5,0-1-0.1-1.4-0.3c-0.4-0.2-0.7-0.4-1-0.8c-0.3-0.3-0.5-0.7-0.6-1.2
					c-0.1-0.4-0.2-0.9-0.2-1.4c0-0.5,0.1-1,0.2-1.4c0.1-0.4,0.3-0.8,0.6-1.2c0.3-0.3,0.6-0.6,1-0.8c0.4-0.2,0.9-0.3,1.4-0.3
					c0.5,0,1,0.1,1.4,0.3c0.4,0.2,0.7,0.4,1,0.8c0.3,0.3,0.5,0.7,0.6,1.2c0.1,0.4,0.2,0.9,0.2,1.4c0,0.5-0.1,1-0.2,1.4
					c-0.1,0.4-0.3,0.8-0.6,1.2c-0.3,0.3-0.6,0.6-1,0.8C139.5,78.4,139.1,78.5,138.5,78.5z M138.5,77.4c0.6,0,1.1-0.2,1.4-0.7
					c0.3-0.5,0.4-1.1,0.4-1.9c0-0.8-0.1-1.4-0.4-1.9c-0.3-0.4-0.8-0.7-1.4-0.7c-0.6,0-1.1,0.2-1.4,0.7c-0.3,0.4-0.4,1.1-0.4,1.9
					c0,0.8,0.1,1.4,0.4,1.9C137.4,77.2,137.9,77.4,138.5,77.4z"/>
				<path class="st1" d="M151.2,73.7c0-0.5-0.1-0.9-0.4-1.1s-0.7-0.3-1.2-0.3c-0.3,0-0.6,0-0.9,0.1c-0.3,0-0.5,0.1-0.8,0.2
					c-0.2-0.3-0.3-0.7-0.3-1.1c0.3-0.1,0.6-0.2,1-0.2c0.4-0.1,0.7-0.1,1.1-0.1c0.9,0,1.6,0.2,2.1,0.6c0.5,0.4,0.7,1.1,0.7,2v4.4
					c-0.3,0.1-0.7,0.1-1.2,0.2c-0.5,0.1-0.9,0.1-1.4,0.1c-0.4,0-0.8,0-1.2-0.1c-0.4-0.1-0.7-0.2-0.9-0.4c-0.2-0.2-0.4-0.4-0.6-0.7
					c-0.1-0.3-0.2-0.6-0.2-1c0-0.4,0.1-0.7,0.2-1c0.2-0.3,0.4-0.5,0.6-0.7c0.3-0.2,0.6-0.3,0.9-0.4c0.4-0.1,0.7-0.1,1.1-0.1
					c0.3,0,0.5,0,0.7,0s0.3,0,0.5,0V73.7z M151.2,75c-0.1,0-0.3,0-0.5-0.1c-0.2,0-0.4,0-0.5,0c-0.6,0-1,0.1-1.3,0.3
					c-0.3,0.2-0.4,0.5-0.4,0.9c0,0.3,0,0.5,0.1,0.6c0.1,0.2,0.2,0.3,0.4,0.4c0.1,0.1,0.3,0.1,0.5,0.1c0.2,0,0.4,0,0.5,0
					c0.2,0,0.4,0,0.6,0c0.2,0,0.4-0.1,0.6-0.1V75z"/>
				<path class="st1" d="M155,71.3c0.1,0,0.2,0,0.3,0c0.1,0,0.2,0,0.3,0c0.1,0,0.2,0,0.3,0c0.1,0,0.2,0,0.3,0c0,0.1,0.1,0.3,0.1,0.5
					c0,0.2,0,0.4,0,0.6c0.1-0.2,0.2-0.3,0.3-0.5c0.1-0.1,0.3-0.3,0.4-0.4c0.2-0.1,0.4-0.2,0.6-0.3c0.2-0.1,0.5-0.1,0.7-0.1
					c0.5,0,1,0.1,1.3,0.3c0.3,0.2,0.5,0.5,0.7,0.9c0.1-0.2,0.2-0.3,0.3-0.5c0.1-0.2,0.3-0.3,0.4-0.4c0.2-0.1,0.3-0.2,0.6-0.3
					c0.2-0.1,0.4-0.1,0.7-0.1c0.8,0,1.4,0.2,1.8,0.7c0.4,0.5,0.5,1.1,0.5,2v4.4c-0.1,0-0.2,0-0.3,0c-0.1,0-0.2,0-0.3,0
					c-0.1,0-0.2,0-0.3,0c-0.1,0-0.2,0-0.3,0v-4c0-0.6-0.1-1.1-0.3-1.4c-0.2-0.3-0.5-0.5-0.9-0.5c-0.5,0-0.8,0.2-1.1,0.5
					c-0.3,0.3-0.4,0.8-0.4,1.5v3.9c-0.1,0-0.2,0-0.3,0c-0.1,0-0.2,0-0.3,0c-0.1,0-0.2,0-0.3,0c-0.1,0-0.2,0-0.3,0v-4.1
					c0-0.6-0.1-1.1-0.3-1.4c-0.2-0.3-0.5-0.5-0.9-0.5c-0.2,0-0.4,0.1-0.6,0.1s-0.4,0.2-0.5,0.4c-0.1,0.2-0.3,0.5-0.4,0.8
					c-0.1,0.3-0.1,0.7-0.1,1.1v3.6c-0.1,0-0.2,0-0.3,0c-0.1,0-0.2,0-0.3,0c-0.1,0-0.2,0-0.3,0c-0.1,0-0.2,0-0.3,0V71.3z"/>
				<path class="st1" d="M167.4,72.4h-0.9c0-0.1,0-0.2,0-0.3c0-0.1,0-0.2,0-0.3s0-0.2,0-0.3c0-0.1,0-0.2,0-0.3h2.2v7
					c-0.1,0-0.2,0-0.3,0c-0.1,0-0.2,0-0.3,0c-0.1,0-0.2,0-0.3,0c-0.1,0-0.2,0-0.3,0V72.4z M167.1,69.8c0-0.1,0-0.2,0-0.4
					c0-0.1,0-0.2,0-0.3c0-0.1,0-0.2,0-0.3c0-0.1,0-0.2,0-0.3c0.1,0,0.2,0,0.4,0c0.1,0,0.3,0,0.4,0c0.1,0,0.2,0,0.4,0
					c0.1,0,0.3,0,0.4,0c0,0.1,0,0.2,0,0.3c0,0.1,0,0.2,0,0.3c0,0.1,0,0.2,0,0.3c0,0.1,0,0.2,0,0.4c-0.1,0-0.2,0-0.4,0
					c-0.1,0-0.2,0-0.3,0c-0.1,0-0.2,0-0.4,0C167.3,69.8,167.2,69.8,167.1,69.8z"/>
				<path class="st1" d="M175,77.4c0.8,0,1.4,0.2,1.8,0.5c0.4,0.3,0.5,0.8,0.5,1.3c0,0.4-0.1,0.7-0.3,1c-0.2,0.3-0.5,0.5-0.8,0.8
					c-0.3,0.2-0.7,0.4-1.2,0.5c-0.5,0.1-1,0.2-1.5,0.2c-0.9,0-1.6-0.1-2.1-0.4c-0.5-0.3-0.7-0.7-0.7-1.4c0-0.4,0.1-0.7,0.3-1
					c0.2-0.3,0.5-0.5,0.8-0.7c-0.2-0.1-0.3-0.3-0.5-0.4c-0.1-0.2-0.2-0.4-0.2-0.7c0-0.3,0.1-0.6,0.2-0.9c0.1-0.2,0.4-0.5,0.6-0.7
					c-0.3-0.2-0.5-0.5-0.7-0.8c-0.2-0.3-0.3-0.7-0.3-1.1c0-0.3,0.1-0.7,0.2-1c0.1-0.3,0.3-0.6,0.5-0.8c0.2-0.2,0.5-0.4,0.9-0.5
					c0.4-0.1,0.8-0.2,1.2-0.2c0.4,0,0.8,0.1,1.1,0.2c0.3,0.1,0.6,0.3,0.8,0.4c0.2-0.1,0.4-0.3,0.7-0.4c0.3-0.1,0.6-0.1,1-0.1
					c0,0.2,0.1,0.4,0.1,0.6c0,0.1,0,0.2,0,0.3c0,0.1,0,0.2,0,0.3h-1.2c0.1,0.2,0.2,0.3,0.2,0.5c0.1,0.2,0.1,0.4,0.1,0.6
					c0,0.4-0.1,0.7-0.2,1c-0.1,0.3-0.3,0.6-0.6,0.8c-0.2,0.2-0.5,0.4-0.9,0.5c-0.3,0.1-0.7,0.2-1.1,0.2c-0.4,0-0.7,0-1-0.1
					c-0.1,0.1-0.3,0.2-0.4,0.3c-0.1,0.1-0.2,0.3-0.2,0.5c0,0.2,0.1,0.3,0.2,0.4c0.1,0.1,0.4,0.2,0.8,0.2L175,77.4z M173.2,78.5
					c-0.4,0-0.7,0.1-0.9,0.3c-0.2,0.2-0.3,0.5-0.3,0.8c0,0.2,0,0.4,0.1,0.5c0.1,0.1,0.2,0.2,0.3,0.3c0.1,0.1,0.3,0.1,0.5,0.2
					c0.2,0,0.4,0,0.7,0c0.7,0,1.3-0.1,1.7-0.4c0.4-0.2,0.6-0.5,0.6-0.9c0-0.3-0.1-0.5-0.3-0.6s-0.5-0.2-0.9-0.2L173.2,78.5z
					 M173.8,75.1c0.5,0,0.8-0.1,1.1-0.4c0.2-0.3,0.4-0.6,0.4-1c0-0.4-0.1-0.8-0.4-1.1c-0.2-0.3-0.6-0.4-1.1-0.4
					c-0.5,0-0.8,0.1-1.1,0.4c-0.2,0.3-0.3,0.6-0.3,1.1c0,0.4,0.1,0.8,0.3,1C173,74.9,173.3,75.1,173.8,75.1z"/>
				<path class="st1" d="M181.9,78.5c-0.5,0-1-0.1-1.4-0.3c-0.4-0.2-0.7-0.4-1-0.8c-0.3-0.3-0.5-0.7-0.6-1.2
					c-0.1-0.4-0.2-0.9-0.2-1.4c0-0.5,0.1-1,0.2-1.4c0.1-0.4,0.3-0.8,0.6-1.2c0.3-0.3,0.6-0.6,1-0.8c0.4-0.2,0.9-0.3,1.4-0.3
					c0.5,0,1,0.1,1.4,0.3c0.4,0.2,0.7,0.4,1,0.8c0.3,0.3,0.5,0.7,0.6,1.2c0.1,0.4,0.2,0.9,0.2,1.4c0,0.5-0.1,1-0.2,1.4
					c-0.1,0.4-0.3,0.8-0.6,1.2c-0.3,0.3-0.6,0.6-1,0.8C182.9,78.4,182.4,78.5,181.9,78.5z M181.9,77.4c0.6,0,1.1-0.2,1.4-0.7
					c0.3-0.5,0.4-1.1,0.4-1.9c0-0.8-0.1-1.4-0.4-1.9c-0.3-0.4-0.8-0.7-1.4-0.7c-0.6,0-1.1,0.2-1.4,0.7c-0.3,0.4-0.4,1.1-0.4,1.9
					c0,0.8,0.1,1.4,0.4,1.9C180.8,77.2,181.3,77.4,181.9,77.4z"/>
				<path class="st1" d="M187,78.3c0-0.1,0-0.3,0-0.4c0-0.1,0-0.2,0-0.4s0-0.3,0-0.4c0-0.1,0-0.3,0-0.4c0.1,0,0.3,0,0.4,0
					c0.1,0,0.2,0,0.4,0c0.1,0,0.3,0,0.4,0c0.1,0,0.3,0,0.4,0c0,0.1,0,0.3,0,0.4c0,0.1,0,0.3,0,0.4c0,0.1,0,0.3,0,0.4
					c0,0.1,0,0.3,0,0.4c-0.1,0-0.3,0-0.4,0c-0.1,0-0.2,0-0.4,0c-0.1,0-0.3,0-0.4,0C187.3,78.3,187.2,78.3,187,78.3z"/>
			</g>
		</g>
		<g>
			<g>
				<g>
					<path class="st2" d="M90.6,89.1c-0.3,0-0.6-0.3-0.6-0.6c0-0.4,0.2-0.7,0.6-0.7c0.4,0,43.4-2.8,60.6-2.5
						c17.2,0.3,24.4,0.6,24.5,0.6c0.4,0,0.6,0.3,0.6,0.7c0,0.4-0.3,0.6-0.7,0.6c-0.1,0-7.3-0.3-24.5-0.6
						C134,86.3,91.1,89.1,90.6,89.1C90.6,89.1,90.6,89.1,90.6,89.1z"/>
				</g>
				<g>
					<path class="st2" d="M183.6,87.4C183.5,87.4,183.5,87.4,183.6,87.4l-4.3-0.2c-0.4,0-0.6-0.3-0.6-0.7c0-0.4,0.3-0.6,0.7-0.6
						l4.3,0.2c0.4,0,0.6,0.3,0.6,0.7C184.2,87.1,183.9,87.4,183.6,87.4z"/>
				</g>
				<g>
					<path class="st2" d="M187.2,87.6C187.1,87.6,187.1,87.6,187.2,87.6l-1.3-0.1c-0.4,0-0.6-0.3-0.6-0.7s0.3-0.6,0.7-0.6l1.3,0.1
						c0.4,0,0.6,0.3,0.6,0.7C187.8,87.3,187.5,87.6,187.2,87.6z"/>
				</g>
			</g>
		</g>
		<g>
			<g>
				<path class="st3" d="M90.6,89.1c-0.3,0-0.6-0.3-0.6-0.6c0-0.4,0.2-0.7,0.6-0.7c0.4,0,43.4-2.8,60.6-2.5
					c17.2,0.3,24.4,0.6,24.5,0.6c0.4,0,0.6,0.3,0.6,0.7c0,0.4-0.3,0.6-0.7,0.6c-0.1,0-7.3-0.3-24.5-0.6
					C134,86.3,91.1,89.1,90.6,89.1C90.6,89.1,90.6,89.1,90.6,89.1z"/>
			</g>
			<g>
				<path class="st3" d="M183.6,87.4C183.5,87.4,183.5,87.4,183.6,87.4l-4.3-0.2c-0.4,0-0.6-0.3-0.6-0.7c0-0.4,0.3-0.6,0.7-0.6
					l4.3,0.2c0.4,0,0.6,0.3,0.6,0.7C184.2,87.1,183.9,87.4,183.6,87.4z"/>
			</g>
			<g>
				<path class="st3" d="M187.2,87.6C187.1,87.6,187.1,87.6,187.2,87.6l-1.3-0.1c-0.4,0-0.6-0.3-0.6-0.7c0-0.4,0.3-0.6,0.7-0.6
					l1.3,0.1c0.4,0,0.6,0.3,0.6,0.7C187.8,87.3,187.5,87.6,187.2,87.6z"/>
			</g>
		</g>
	</g>
	<g>
		<rect x="359.8" y="28.4" class="st4" width="55.5" height="50.4"/>
		<rect x="359.8" y="15.8" class="st1" width="55.5" height="12.6"/>
		<g>
			<path class="st5" d="M368.4,19.2h-0.3c0,0-0.1,0-0.1,0.1v4.2c0,0.1,0,0.3,0,0.4c0,0.1-0.1,0.2-0.1,0.3c-0.1,0.1-0.1,0.1-0.2,0.2
				c-0.1,0-0.2,0.1-0.4,0.1c-0.1,0-0.3,0-0.4-0.1c-0.1,0-0.2-0.1-0.2-0.2c-0.1-0.1-0.1-0.2-0.1-0.3c0-0.1,0-0.3,0-0.4v-4.2
				c0,0,0-0.1-0.1-0.1H366c0,0-0.1,0-0.1,0.1v4.2c0,0.2,0,0.4,0.1,0.6c0,0.2,0.1,0.3,0.2,0.5c0.1,0.1,0.2,0.2,0.4,0.3
				c0.2,0.1,0.4,0.1,0.6,0.1c0.2,0,0.4,0,0.6-0.1c0.2-0.1,0.3-0.2,0.4-0.3c0.1-0.1,0.2-0.3,0.2-0.5c0-0.2,0.1-0.4,0.1-0.6
				L368.4,19.2C368.5,19.3,368.4,19.2,368.4,19.2z"/>
			<path class="st5" d="M371.8,19.2h-0.3c0,0-0.1,0-0.1,0.1v4.2l-1.5-4.2c0,0,0-0.1-0.1-0.1h-0.5c0,0-0.1,0-0.1,0.1v5.5
				c0,0,0,0.1,0.1,0.1h0.3c0,0,0.1,0,0.1-0.1v-4.4l1.6,4.5c0,0,0,0.1,0.1,0.1h0.4c0,0,0.1,0,0.1-0.1L371.8,19.2
				C371.9,19.3,371.8,19.2,371.8,19.2z"/>
			<path class="st5" d="M374.4,19.2h-0.5c0,0-0.1,0-0.1,0.1l-1.2,5.5c0,0,0,0,0,0.1c0,0,0,0,0.1,0h0.3c0,0,0.1,0,0.1-0.1l0.3-1.2
				h1.6l0.3,1.2c0,0,0,0.1,0.1,0.1h0.4c0,0,0,0,0.1,0c0,0,0,0,0-0.1L374.4,19.2C374.5,19.3,374.4,19.2,374.4,19.2z M374.8,23.2h-1.4
				l0.7-3.1L374.8,23.2z"/>
			<path class="st5" d="M380.2,19.2H378c0,0-0.1,0-0.1,0.1v5.5c0,0,0,0.1,0.1,0.1h2.2c0,0,0.1,0,0.1-0.1v-0.3c0,0,0-0.1-0.1-0.1
				h-1.7v-2.1h1.4c0,0,0.1,0,0.1-0.1v-0.3c0,0,0-0.1-0.1-0.1h-1.4v-2.1h1.7c0,0,0.1,0,0.1-0.1L380.2,19.2
				C380.3,19.3,380.2,19.2,380.2,19.2z"/>
			<path class="st5" d="M384.5,19.2h-0.5c0,0-0.1,0-0.1,0.1l-1.1,4.6l-1.1-4.6c0,0,0-0.1-0.1-0.1h-0.5c0,0-0.1,0-0.1,0.1v5.5
				c0,0,0,0.1,0.1,0.1h0.3c0,0,0.1,0,0.1-0.1v-4.2l1,4.2c0,0,0,0.1,0.1,0.1h0.4c0,0,0.1,0,0.1-0.1l1-4.2v4.2c0,0,0,0.1,0.1,0.1h0.3
				c0,0,0.1,0,0.1-0.1L384.5,19.2C384.5,19.3,384.5,19.2,384.5,19.2z"/>
			<path class="st5" d="M386.6,19.2h-1.1c0,0-0.1,0-0.1,0.1v5.5c0,0,0,0.1,0.1,0.1h0.4c0,0,0.1,0,0.1-0.1v-2.2h0.6
				c0.5,0,0.8-0.1,1-0.3c0.2-0.2,0.3-0.6,0.3-1v-0.6c0-0.4-0.1-0.8-0.3-1C387.3,19.4,387,19.2,386.6,19.2z M386.5,22.2h-0.6v-2.4
				h0.7c0.3,0,0.5,0.1,0.6,0.2c0.1,0.2,0.2,0.4,0.2,0.7v0.6c0,0.3-0.1,0.5-0.2,0.7C387,22.1,386.8,22.2,386.5,22.2z"/>
			<path class="st5" d="M391,24.5c0-0.1,0-0.2,0-0.3v-0.9c0-0.3-0.1-0.6-0.2-0.8c-0.1-0.2-0.2-0.3-0.4-0.3c0.4-0.2,0.6-0.6,0.6-1.1
				v-0.5c0-0.4-0.1-0.7-0.3-1c-0.2-0.2-0.5-0.4-1-0.4h-1.2c0,0-0.1,0-0.1,0.1v5.5c0,0,0,0.1,0.1,0.1h0.4c0,0,0.1,0,0.1-0.1v-2.4h0.5
				c0.2,0,0.3,0,0.4,0c0.1,0,0.2,0.1,0.3,0.1c0.1,0.1,0.1,0.1,0.2,0.3c0,0.1,0.1,0.3,0.1,0.4v0.9c0,0.2,0,0.3,0,0.4
				c0,0.1,0.1,0.2,0.1,0.3c0,0,0,0,0.1,0h0.4c0,0,0.1,0,0.1,0c0,0,0-0.1,0-0.1C391.1,24.7,391.1,24.6,391,24.5z M389.1,19.7h0.7
				c0.3,0,0.5,0.1,0.6,0.2c0.1,0.2,0.2,0.4,0.2,0.6v0.5c0,0.2,0,0.3-0.1,0.4c0,0.1-0.1,0.2-0.2,0.2c-0.1,0.1-0.2,0.1-0.3,0.1
				c-0.1,0-0.3,0-0.4,0h-0.5V19.7z"/>
			<path class="st5" d="M394.1,19.2H392c0,0-0.1,0-0.1,0.1v5.5c0,0,0,0.1,0.1,0.1h2.2c0,0,0.1,0,0.1-0.1v-0.3c0,0,0-0.1-0.1-0.1
				h-1.7v-2.1h1.4c0,0,0.1,0,0.1-0.1v-0.3c0,0,0-0.1-0.1-0.1h-1.4v-2.1h1.7c0,0,0.1,0,0.1-0.1L394.1,19.2
				C394.2,19.3,394.2,19.2,394.1,19.2z"/>
			<path class="st5" d="M396.9,22.3c-0.2-0.1-0.3-0.3-0.5-0.4c-0.2-0.1-0.3-0.2-0.5-0.4c-0.1-0.1-0.3-0.3-0.4-0.4
				c-0.1-0.1-0.1-0.3-0.1-0.5c0-0.3,0.1-0.5,0.2-0.7c0.1-0.2,0.3-0.3,0.6-0.3c0.1,0,0.2,0,0.3,0.1c0.1,0,0.2,0.1,0.2,0.2
				c0.1,0.1,0.1,0.2,0.1,0.3c0,0.1,0,0.2,0,0.4v0.1c0,0,0,0.1,0.1,0.1h0.3c0,0,0.1,0,0.1-0.1v-0.1c0-0.2,0-0.4-0.1-0.6
				c0-0.2-0.1-0.3-0.2-0.5c-0.1-0.1-0.2-0.2-0.4-0.3c-0.2-0.1-0.3-0.1-0.6-0.1c0,0,0,0,0,0c-0.4,0-0.8,0.1-1,0.4
				c-0.2,0.3-0.3,0.6-0.3,1c0,0.3,0.1,0.5,0.2,0.7c0.1,0.2,0.2,0.4,0.4,0.5c0.2,0.1,0.3,0.3,0.5,0.4c0.2,0.1,0.3,0.2,0.5,0.4
				c0.1,0.1,0.3,0.3,0.4,0.4c0.1,0.1,0.1,0.3,0.1,0.5c0,0.3-0.1,0.5-0.2,0.7c-0.1,0.2-0.3,0.3-0.6,0.3c-0.3,0-0.5-0.1-0.6-0.3
				c-0.1-0.2-0.2-0.4-0.2-0.7v-0.3c0,0,0-0.1-0.1-0.1H395c0,0-0.1,0-0.1,0.1v0.3c0,0.2,0,0.4,0.1,0.6c0,0.2,0.1,0.3,0.2,0.5
				c0.1,0.1,0.2,0.2,0.4,0.3c0.2,0.1,0.4,0.1,0.6,0.1c0.2,0,0.4,0,0.6-0.1c0.2-0.1,0.3-0.2,0.4-0.3c0.1-0.1,0.2-0.3,0.2-0.5
				c0-0.2,0.1-0.4,0.1-0.6c0-0.3-0.1-0.5-0.2-0.7C397.2,22.6,397.1,22.5,396.9,22.3z"/>
			<path class="st5" d="M399.9,19.2h-0.5c0,0-0.1,0-0.1,0.1l-1.2,5.5c0,0,0,0,0,0.1c0,0,0,0,0.1,0h0.3c0,0,0.1,0,0.1-0.1l0.3-1.2
				h1.6l0.3,1.2c0,0,0,0.1,0.1,0.1h0.4c0,0,0,0,0.1,0c0,0,0,0,0-0.1L399.9,19.2C400,19.3,400,19.2,399.9,19.2z M400.4,23.2H399
				l0.7-3.1L400.4,23.2z"/>
			<path class="st5" d="M405.8,19.7c-0.1-0.1-0.2-0.2-0.4-0.3c-0.2-0.1-0.4-0.1-0.6-0.1h-1.2c0,0-0.1,0-0.1,0.1v5.5
				c0,0,0,0.1,0.1,0.1h1.2c0.2,0,0.4,0,0.6-0.1c0.2-0.1,0.3-0.2,0.4-0.3c0.1-0.1,0.2-0.3,0.2-0.5c0-0.2,0.1-0.4,0.1-0.6v-2.8
				c0-0.2,0-0.4-0.1-0.6C406,19.9,405.9,19.8,405.8,19.7z M405.6,20.7v2.8c0,0.3-0.1,0.5-0.2,0.7c-0.1,0.2-0.3,0.2-0.6,0.2H404v-4.7
				h0.8c0.3,0,0.5,0.1,0.6,0.3C405.5,20.2,405.6,20.4,405.6,20.7z"/>
			<path class="st5" d="M409.1,19.7C409.2,19.7,409.2,19.7,409.1,19.7l0.1-0.4c0,0,0-0.1-0.1-0.1h-2.2c0,0-0.1,0-0.1,0.1v5.5
				c0,0,0,0.1,0.1,0.1h2.2c0,0,0.1,0,0.1-0.1v-0.3c0,0,0-0.1-0.1-0.1h-1.7v-2.1h1.4c0,0,0.1,0,0.1-0.1v-0.3c0,0,0-0.1-0.1-0.1h-1.4
				v-2.1H409.1z"/>
		</g>
		<g>
			<g>
				<path class="st5" d="M382.7,33.2c-0.2,0-0.5,0.1-0.6,0.3l-5.8,9.9c-0.1,0.2-0.1,0.5,0,0.7l5.8,9.7c0.1,0.2,0.3,0.3,0.6,0.3
					l11.3,0c0.2,0,0.5-0.1,0.6-0.3l4-7c0.1-0.2,0.1-0.5,0-0.7l-5.6-9.8c-0.1-0.2-0.3-0.3-0.6-0.3l-8,0c-0.2,0-0.5,0.1-0.6,0.3
					l-4.1,7.1c-0.1,0.2-0.1,0.5,0,0.7l4.1,6.9c0.1,0.2,0.3,0.3,0.6,0.3l8,0c0.2,0,0.5-0.1,0.6-0.3l1.9-3.4l0,0l0.7-1.2l-1.2-1.9
					l-0.5,0.9l0,0l-2,3.6c-0.1,0.2-0.3,0.3-0.6,0.3l-5.7,0c-0.2,0-0.5-0.1-0.6-0.3l-2.9-5c-0.1-0.2-0.1-0.5,0-0.7l3-5.1
					c0.1-0.2,0.3-0.3,0.6-0.3h5.7c0.2,0,0.5,0.1,0.6,0.3l4.5,7.8c0.1,0.2,0.1,0.5,0,0.7l-2.9,5.1c-0.1,0.2-0.3,0.3-0.6,0.3h-9
					c-0.2,0-0.5-0.1-0.6-0.3l-4.6-7.8c-0.1-0.2-0.1-0.5,0-0.7l4.6-8c0.1-0.2,0.3-0.3,0.6-0.3h8.9c0.2,0,0.5,0.1,0.6,0.3l3.6,6.4l0,0
					l0.6,1l1.1-2v0l-0.2-0.3l0,0l-0.5-0.9l-0.2-0.4l0,0l-3.2-5.6c-0.1-0.2-0.3-0.3-0.6-0.3L382.7,33.2z"/>
			</g>
			<g>
				<polygon class="st5" points="371.5,61.2 373,61.2 373,62.2 371.5,62.2 371.5,65.2 370.4,65.2 370.4,58 373.4,58 373.4,59 
					371.5,59 				"/>
			</g>
			<g>
				<g>
					<path class="st5" d="M375,58v5.6c0,0.3,0.1,0.4,0.2,0.5c0.1,0.1,0.2,0.2,0.4,0.2s0.3-0.1,0.4-0.2c0.1-0.1,0.2-0.3,0.2-0.5V58
						h1.1v5.5c0,0.6-0.1,1-0.4,1.3c-0.3,0.3-0.7,0.5-1.3,0.5c-0.6,0-1-0.2-1.3-0.5c-0.3-0.3-0.4-0.8-0.4-1.3V58H375z"/>
				</g>
			</g>
			<g>
				<polygon class="st5" points="379.1,59.9 379.1,65.2 378.1,65.2 378.1,58 379.5,58 380.7,62.3 380.7,58 381.7,58 381.7,65.2 
					380.5,65.2 				"/>
			</g>
			<g>
				<g>
					<path class="st5" d="M383.6,59v5.2h0.6c0.2,0,0.3-0.1,0.4-0.2c0.1-0.1,0.2-0.3,0.2-0.5v-3.8c0-0.3-0.1-0.4-0.2-0.5
						c-0.1-0.1-0.2-0.2-0.4-0.2H383.6z M382.5,58h1.8c0.6,0,1,0.2,1.3,0.5c0.3,0.3,0.4,0.7,0.4,1.3v3.7c0,0.6-0.1,1-0.4,1.3
						c-0.3,0.3-0.7,0.5-1.3,0.5h-1.8V58z"/>
				</g>
			</g>
			<g>
				<path class="st5" d="M387.8,62.9h1.1l-0.5-3.7L387.8,62.9z M390.4,65.2h-1.1l-0.2-1.3h-1.4l-0.2,1.3h-1l1.2-7.2h1.7L390.4,65.2z
					"/>
			</g>
			<g>
				<g>
					<path class="st5" d="M394.2,62.5v1c0,0.6-0.1,1-0.4,1.3c-0.3,0.3-0.7,0.5-1.3,0.5c-0.6,0-1-0.2-1.3-0.5
						c-0.3-0.3-0.4-0.8-0.4-1.3v-3.8c0-0.6,0.1-1,0.4-1.3c0.3-0.3,0.7-0.5,1.3-0.5c0.6,0,1,0.2,1.3,0.5c0.3,0.3,0.4,0.8,0.4,1.3v0.7
						h-1.1v-0.8c0-0.3-0.1-0.4-0.2-0.6c-0.1-0.1-0.2-0.2-0.4-0.2c-0.2,0-0.3,0.1-0.4,0.2c-0.1,0.1-0.2,0.3-0.2,0.6v3.9
						c0,0.3,0.1,0.4,0.2,0.5c0.1,0.1,0.2,0.2,0.4,0.2c0.2,0,0.3-0.1,0.4-0.2c0.1-0.1,0.2-0.3,0.2-0.5v-1H394.2z"/>
				</g>
			</g>
			<g>
				<rect x="394.9" y="58" class="st5" width="1.1" height="7.2"/>
			</g>
			<g>
				<g>
					<path class="st5" d="M397.9,63.5c0,0.3,0.1,0.4,0.2,0.6c0.1,0.1,0.2,0.2,0.4,0.2c0.2,0,0.3-0.1,0.4-0.2
						c0.1-0.1,0.2-0.3,0.2-0.6v-3.9c0-0.3-0.1-0.4-0.2-0.6c-0.1-0.1-0.2-0.2-0.4-0.2c-0.2,0-0.3,0.1-0.4,0.2
						c-0.1,0.1-0.2,0.3-0.2,0.6V63.5z M399.7,56.4l-1.1,1.1h-0.8l0.7-1.1H399.7z M396.7,59.7c0-0.6,0.1-1,0.4-1.3
						c0.3-0.3,0.7-0.5,1.3-0.5c0.6,0,1,0.2,1.3,0.5c0.3,0.3,0.4,0.8,0.4,1.3v3.8c0,0.6-0.1,1-0.4,1.3c-0.3,0.3-0.7,0.5-1.3,0.5
						c-0.6,0-1-0.2-1.3-0.5c-0.3-0.3-0.4-0.8-0.4-1.3V59.7z"/>
				</g>
			</g>
			<g>
				<polygon class="st5" points="401.9,59.9 401.9,65.2 400.9,65.2 400.9,58 402.3,58 403.5,62.3 403.5,58 404.5,58 404.5,65.2 
					403.3,65.2 				"/>
			</g>
			<g>
				<g>
					<path class="st5" d="M367.8,69.9h1.6v2.3c0,0.6-0.1,1-0.4,1.3c-0.3,0.3-0.7,0.5-1.3,0.5c-0.6,0-1-0.2-1.3-0.5
						c-0.3-0.3-0.4-0.8-0.4-1.3v-3.8c0-0.6,0.1-1,0.4-1.3c0.3-0.3,0.7-0.5,1.3-0.5c0.6,0,1,0.2,1.3,0.5c0.3,0.3,0.4,0.8,0.4,1.3v0.7
						h-1.1v-0.8c0-0.3-0.1-0.4-0.2-0.6s-0.2-0.2-0.4-0.2c-0.2,0-0.3,0.1-0.4,0.2c-0.1,0.1-0.2,0.3-0.2,0.6v3.9
						c0,0.3,0.1,0.4,0.2,0.5c0.1,0.1,0.2,0.2,0.4,0.2c0.2,0,0.3-0.1,0.4-0.2c0.1-0.1,0.2-0.3,0.2-0.5v-1.3h-0.5V69.9z"/>
				</g>
				<g>
					<path class="st5" d="M371.3,67.7V70h0.4c0.2,0,0.4-0.1,0.5-0.2c0.1-0.1,0.2-0.3,0.2-0.6v-0.7c0-0.3,0-0.5-0.1-0.6
						c-0.1-0.1-0.2-0.2-0.4-0.2H371.3z M372.5,73.9c0,0,0-0.1,0-0.1c0,0,0-0.1,0-0.2c0-0.1,0-0.1,0-0.2c0-0.1,0-0.2,0-0.4v-1.1
						c0-0.3-0.1-0.6-0.2-0.7c-0.1-0.1-0.3-0.2-0.6-0.2h-0.4v2.9h-1.1v-7.2h1.7c0.6,0,1,0.1,1.3,0.4c0.3,0.3,0.4,0.7,0.4,1.2v0.6
						c0,0.7-0.2,1.2-0.7,1.5c0.3,0.1,0.5,0.3,0.6,0.6c0.1,0.3,0.2,0.6,0.2,1v1.1c0,0.2,0,0.3,0,0.5c0,0.1,0,0.3,0.1,0.4H372.5z"/>
				</g>
				<g>
					<path class="st5" d="M375.4,66.7v5.6c0,0.3,0.1,0.4,0.2,0.5c0.1,0.1,0.2,0.2,0.4,0.2c0.2,0,0.3-0.1,0.4-0.2
						c0.1-0.1,0.2-0.3,0.2-0.5v-5.6h1.1v5.5c0,0.6-0.1,1-0.4,1.3c-0.3,0.3-0.7,0.5-1.3,0.5c-0.6,0-1-0.2-1.3-0.5
						c-0.3-0.3-0.4-0.8-0.4-1.3v-5.5H375.4z"/>
				</g>
				<g>
					<path class="st5" d="M379.5,67.7v2.4h0.5c0.2,0,0.3,0,0.4-0.1c0.1-0.1,0.1-0.3,0.1-0.5v-1.1c0-0.3,0-0.4-0.1-0.5
						c-0.1-0.1-0.2-0.1-0.4-0.1H379.5z M380.1,66.7c0.6,0,1,0.2,1.3,0.5c0.3,0.3,0.4,0.7,0.4,1.3v0.9c0,0.6-0.1,1-0.4,1.3
						c-0.3,0.3-0.7,0.5-1.3,0.5h-0.5v2.7h-1.1v-7.2H380.1z"/>
				</g>
				<g>
					<path class="st5" d="M383.4,72.3c0,0.3,0.1,0.4,0.2,0.6c0.1,0.1,0.2,0.2,0.4,0.2c0.2,0,0.3-0.1,0.4-0.2
						c0.1-0.1,0.2-0.3,0.2-0.6v-3.9c0-0.3-0.1-0.4-0.2-0.6s-0.2-0.2-0.4-0.2c-0.2,0-0.3,0.1-0.4,0.2c-0.1,0.1-0.2,0.3-0.2,0.6V72.3z
						 M382.2,68.4c0-0.6,0.1-1,0.4-1.3c0.3-0.3,0.7-0.5,1.3-0.5c0.6,0,1,0.2,1.3,0.5c0.3,0.3,0.4,0.8,0.4,1.3v3.8
						c0,0.6-0.1,1-0.4,1.3c-0.3,0.3-0.7,0.5-1.3,0.5c-0.6,0-1-0.2-1.3-0.5c-0.3-0.3-0.4-0.8-0.4-1.3V68.4z"/>
				</g>
				<g>
					<path class="st5" d="M387.9,68.4c0-0.6,0.1-1,0.4-1.3c0.3-0.3,0.7-0.5,1.3-0.5c0.6,0,1,0.2,1.3,0.5c0.3,0.3,0.4,0.8,0.4,1.3
						v0.2h-1.1v-0.3c0-0.3-0.1-0.4-0.1-0.6s-0.2-0.2-0.4-0.2c-0.2,0-0.3,0.1-0.4,0.2c-0.1,0.1-0.1,0.3-0.1,0.6
						c0,0.2,0.1,0.5,0.2,0.7c0.1,0.2,0.2,0.4,0.4,0.5c0.2,0.2,0.3,0.3,0.5,0.5c0.2,0.2,0.4,0.4,0.5,0.6c0.2,0.2,0.3,0.4,0.4,0.7
						c0.1,0.3,0.2,0.6,0.2,0.9c0,0.6-0.1,1-0.4,1.3c-0.3,0.3-0.7,0.5-1.3,0.5s-1-0.2-1.3-0.5c-0.3-0.3-0.4-0.8-0.4-1.3v-0.4h1.1v0.5
						c0,0.3,0.1,0.4,0.2,0.5c0.1,0.1,0.2,0.2,0.4,0.2c0.2,0,0.3-0.1,0.4-0.2c0.1-0.1,0.2-0.3,0.2-0.5c0-0.2-0.1-0.5-0.2-0.7
						c-0.1-0.2-0.2-0.4-0.4-0.5c-0.2-0.2-0.3-0.3-0.5-0.5c-0.2-0.2-0.4-0.4-0.5-0.6c-0.2-0.2-0.3-0.4-0.4-0.7
						C387.9,69.1,387.9,68.8,387.9,68.4"/>
				</g>
				<g>
					<path class="st5" d="M392.9,72.3c0,0.3,0.1,0.4,0.2,0.6c0.1,0.1,0.2,0.2,0.4,0.2c0.2,0,0.3-0.1,0.4-0.2
						c0.1-0.1,0.2-0.3,0.2-0.6v-3.9c0-0.3-0.1-0.4-0.2-0.6s-0.2-0.2-0.4-0.2c-0.2,0-0.3,0.1-0.4,0.2c-0.1,0.1-0.2,0.3-0.2,0.6V72.3z
						 M391.8,68.4c0-0.6,0.1-1,0.4-1.3c0.3-0.3,0.7-0.5,1.3-0.5c0.6,0,1,0.2,1.3,0.5c0.3,0.3,0.4,0.8,0.4,1.3v3.8
						c0,0.6-0.1,1-0.4,1.3c-0.3,0.3-0.7,0.5-1.3,0.5c-0.6,0-1-0.2-1.3-0.5c-0.3-0.3-0.4-0.8-0.4-1.3V68.4z"/>
				</g>
				<g>
					<path class="st5" d="M399.3,71.2v1c0,0.6-0.1,1-0.4,1.3c-0.3,0.3-0.7,0.5-1.3,0.5c-0.6,0-1-0.2-1.3-0.5
						c-0.3-0.3-0.4-0.8-0.4-1.3v-3.8c0-0.6,0.1-1,0.4-1.3c0.3-0.3,0.7-0.5,1.3-0.5c0.6,0,1,0.2,1.3,0.5c0.3,0.3,0.4,0.8,0.4,1.3v0.7
						h-1.1v-0.8c0-0.3-0.1-0.4-0.2-0.6c-0.1-0.1-0.2-0.2-0.4-0.2c-0.2,0-0.3,0.1-0.4,0.2c-0.1,0.1-0.2,0.3-0.2,0.6v3.9
						c0,0.3,0.1,0.4,0.2,0.5c0.1,0.1,0.2,0.2,0.4,0.2c0.2,0,0.3-0.1,0.4-0.2c0.1-0.1,0.2-0.3,0.2-0.5v-1H399.3z"/>
				</g>
			</g>
			<g>
				<rect x="400" y="66.7" class="st5" width="1.1" height="7.2"/>
			</g>
			<g>
				<path class="st5" d="M403.6,68l0.5,3.7H403L403.6,68z M402.8,66.7l-1.2,7.2h1l0.2-1.3h1.4l0.2,1.3h1.1l-1.2-7.2H402.8z"/>
			</g>
			<g>
				<polygon class="st5" points="406.1,66.7 406.1,73.9 409.1,73.9 409.1,72.9 407.3,72.9 407.3,66.7 				"/>
			</g>
		</g>
	</g>
	<line class="st6" x1="337.3" y1="24.9" x2="337.3" y2="69.8"/>
</g>
</svg>
