<?xml version="1.0" encoding="utf-8"?>
<!-- Generator: Adobe Illustrator 19.0.0, SVG Export Plug-In . SVG Version: 6.00 Build 0)  -->
<svg version="1.1" id="Layer_1" xmlns="http://www.w3.org/2000/svg" xmlns:xlink="http://www.w3.org/1999/xlink" x="0px" y="0px"
	 viewBox="0 0 28.7 480.2" style="enable-background:new 0 0 28.7 480.2;" xml:space="preserve">
<style type="text/css">
	.st0{fill:#FFFFFF;}
</style>
<g>
	<g>
		<path class="st0" d="M14.6,365.3c0,1.6-1.2,3-2.9,3v-1c1.6,0,2-1.2,2-2.5c0-1.1-0.7-2.5-2-2.5c-1,0-1.5,0.7-1.8,1.6
			c-0.5,1.7-1.1,4.2-3.3,4.2c-1.8,0-2.7-1.6-2.7-3.2c0-1.3,0.5-3.1,2.4-3.3v1c-1.3,0-1.6,1.2-1.6,2.2c0,1.1,0.5,2.4,1.8,2.4
			c2.9,0,1.6-5.8,5.1-5.8C13.9,361.3,14.6,363.2,14.6,365.3z"/>
		<path class="st0" d="M4.2,358.2h6.6c1.8-0.1,3-1.1,3-2.8c0-1.7-1.1-2.7-3-2.8H4.2v-0.9h6.6c2.2,0,3.8,1.3,3.8,3.7
			c0,2.5-1.6,3.7-3.8,3.7H4.2V358.2z"/>
		<path class="st0" d="M14.3,348.9H4.2v-2.6c0-2,0.4-4.2,2.9-4.2c2.4,0,2.9,2.2,2.9,4.2v1.6h4.4V348.9z M9.1,348v-2.2
			c0-1.4-0.4-2.6-2-2.6c-1.6,0-2,1.2-2,2.6v2.2H9.1z"/>
		<path class="st0" d="M14.3,340.3H4.2v-6.1H5v5.1h3.7v-4.9h0.8v4.9h4V334h0.8V340.3z"/>
		<path class="st0" d="M14.3,330.7v0.9H4.2v-3.3c0-0.9,0.1-1.6,0.5-2.4c0.4-0.7,1.2-1,2.1-1c1.1,0,1.9,0.8,2.2,2h0
			c0.2-1.3,1.1-1.6,2.3-1.7c1.6-0.2,2.4-0.1,3-0.5v1.1c-0.7,0.2-1.4,0.3-2.1,0.3c-2.3,0.2-2.7,0.4-2.7,2.2v2.5H14.3z M8.6,328.7
			c0-1.3-0.1-2.9-1.8-2.9c-2,0-1.8,1.8-1.8,2.8v2.1h3.6V328.7z"/>
		<path class="st0" d="M14.3,322.2H4.1v-0.9h10.2V322.2z"/>
		<path class="st0" d="M4.2,318.4v-1l9-5.6v0h-9v-0.9h10.2v1.2l-8.8,5.5v0h8.8v0.9H4.2z"/>
		<path class="st0" d="M5,306.1v3.3H4.2v-7.4H5v3.2l9.3,0v0.9L5,306.1z"/>
		<path class="st0" d="M14.3,300.3H4.2v-6.1H5v5.1h3.7v-4.9h0.8v4.9h4V294h0.8V300.3z"/>
		<path class="st0" d="M4.2,291.8v-1l9-5.6v0h-9v-0.9h10.2v1.2l-8.8,5.5v0h8.8v0.9H4.2z"/>
		<path class="st0" d="M4.2,278.9c0-3.3,1.7-5.3,5.1-5.3c3.4,0,5.1,1.9,5.1,5.3v2.8H4.2V278.9z M13.5,278.7c0-2.9-1.7-4-4.3-4
			c-3,0-4.3,1.8-4.2,4.7v1.4h8.5V278.7z"/>
		<path class="st0" d="M14.3,271.3H4.2v-6.1H5v5.1h3.7v-4.9h0.8v4.9h4V265h0.8V271.3z"/>
		<path class="st0" d="M4.2,262.8v-1l9-5.6v0h-9v-0.9h10.2v1.2l-8.8,5.5v0h8.8v0.9H4.2z"/>
		<path class="st0" d="M6.5,246.3c-1.2,0.2-1.8,1.2-1.8,2.4c0,2.6,2.4,3.4,4.5,3.4c2.1,0,4.5-0.8,4.5-3.4c0-1.1-0.6-2.3-1.8-2.5v-1
			c1.7,0.3,2.7,1.9,2.7,3.5c0,3.1-2.5,4.4-5.3,4.4c-2.8,0-5.3-1.3-5.3-4.4c0-1.7,0.8-3.3,2.6-3.4V246.3z"/>
		<path class="st0" d="M14.3,243H4.1v-0.9h10.2V243z"/>
		<path class="st0" d="M14.3,240.5l-10.2-4v-1.1l10.2-4.1v1l-2.7,1.1v5.1l2.7,1.1V240.5z M10.7,233.7L5,235.9l5.7,2.3V233.7z"/>
		<path class="st0" d="M14.3,225.9H4.2v-5.8H5v4.8h3.6v-4.7h0.8v4.7h4.9V225.9z"/>
		<path class="st0" d="M14.3,217.9H4.1V217h10.2V217.9z"/>
		<path class="st0" d="M4.2,214.2v-1.1l9-5.6v0h-9v-0.9h10.2v1.2l-8.8,5.5v0h8.8v0.9H4.2z"/>
		<path class="st0" d="M14.3,205.2l-10.2-4v-1.1l10.2-4.1v1l-2.7,1.1v5.1l2.7,1.1V205.2z M10.7,198.5L5,200.7l5.7,2.2V198.5z"/>
		<path class="st0" d="M4.2,194.6v-1.1l9-5.6v0h-9V187h10.2v1.2l-8.8,5.5v0h8.8v0.9H4.2z"/>
		<path class="st0" d="M6.5,178.1c-1.2,0.2-1.8,1.2-1.8,2.4c0,2.6,2.4,3.4,4.5,3.4c2.1,0,4.5-0.8,4.5-3.4c0-1.1-0.6-2.3-1.8-2.5v-1
			c1.7,0.3,2.7,1.9,2.7,3.5c0,3.1-2.5,4.4-5.3,4.4c-2.8,0-5.3-1.3-5.3-4.4c0-1.7,0.8-3.3,2.6-3.4V178.1z"/>
		<path class="st0" d="M14.3,174.8H4.1v-0.9h10.2V174.8z"/>
		<path class="st0" d="M14.3,171H4.2v-6H5v5.1h3.7v-4.9h0.8v4.9h4v-5.3h0.8V171z"/>
		<path class="st0" d="M14.3,161.4v0.9H4.2V159c0-0.9,0.1-1.6,0.5-2.4c0.4-0.7,1.2-1.1,2.1-1.1c1.1,0,1.9,0.8,2.2,2h0
			c0.2-1.3,1.1-1.6,2.3-1.7c1.6-0.2,2.4-0.1,3-0.5v1.1c-0.7,0.2-1.4,0.3-2.1,0.4c-2.3,0.2-2.7,0.4-2.7,2.2v2.5H14.3z M8.6,159.5
			c0-1.3-0.1-2.9-1.8-2.9c-2,0-1.8,1.8-1.8,2.8v2.1h3.6V159.5z"/>
		<path class="st0" d="M14.3,154.3l-10.2-4v-1.1l10.2-4.1v1l-2.7,1.1v5.1l2.7,1.1V154.3z M10.7,147.5L5,149.7l5.7,2.3V147.5z"/>
	</g>
	<g>
		<path class="st0" d="M18.3,302c0-3.3,1.7-5.2,5.1-5.2c3.4,0,5.1,1.9,5.1,5.2v2.8H18.3V302z M27.6,301.8c0-2.9-1.7-4-4.2-4
			c-3,0-4.3,1.8-4.2,4.6v1.4h8.5V301.8z"/>
		<path class="st0" d="M28.5,294.4H18.3v-6h0.8v5.1h3.7v-4.9h0.8v4.9h4v-5.4h0.8V294.4z"/>
		<path class="st0" d="M20.7,275.7c-1.2,0.2-1.7,1.2-1.7,2.4c0,2.6,2.4,3.4,4.5,3.4c2.1,0,4.5-0.8,4.5-3.4c0-1.1-0.6-2.3-1.8-2.5v-1
			c1.7,0.3,2.7,1.9,2.7,3.5c0,3.1-2.5,4.4-5.3,4.4c-2.8,0-5.3-1.3-5.3-4.4c0-1.7,0.8-3.2,2.6-3.4V275.7z"/>
		<path class="st0" d="M28.7,268.4c0,2.9-2.1,4.6-5.3,4.6c-3.2,0-5.3-1.6-5.3-4.6c0-2.9,2.1-4.5,5.3-4.5
			C26.5,263.9,28.7,265.5,28.7,268.4z M27.8,268.4c0-2.5-2.2-3.5-4.5-3.5c-2.2,0-4.5,1-4.5,3.5c0,2.6,2.2,3.6,4.5,3.6
			C25.6,272,27.8,271,27.8,268.4z"/>
		<path class="st0" d="M28.5,261.5H18.3v-0.9h9.3v-5.1h0.8V261.5z"/>
		<path class="st0" d="M28.7,249.6c0,2.9-2.1,4.5-5.3,4.5c-3.2,0-5.3-1.6-5.3-4.5c0-2.9,2.1-4.5,5.3-4.5
			C26.5,245.1,28.7,246.7,28.7,249.6z M27.8,249.6c0-2.5-2.2-3.6-4.5-3.6c-2.2,0-4.5,1-4.5,3.6s2.2,3.6,4.5,3.6
			C25.6,253.2,27.8,252.2,27.8,249.6z"/>
		<path class="st0" d="M28.5,242.8H18.3v-1.5l8.9-3.8l-8.9-3.9v-1.4h10.2v0.9H19v0l9.4,3.9v0.9l-9.4,3.9v0h9.4V242.8z"/>
		<path class="st0" d="M28.5,229.4H18.3l0-3.7c0-1.5,0.9-2.8,2.5-2.8c1.1,0,2,0.8,2.3,1.9h0c0.2-1.4,1.1-2.3,2.6-2.3
			c1.3,0,2.7,0.8,2.7,3V229.4z M22.8,226.3c0-1.2-0.5-2.4-1.8-2.4c-1.5,0-1.8,1.2-1.8,2.4v2.2h3.6V226.3z M27.6,228.5v-2.2
			c0-1.8-0.4-2.8-2-2.8c-1.7,0-2,1.4-2,3.3v1.7H27.6z"/>
		<path class="st0" d="M28.5,219.9H18.2V219h10.2V219.9z"/>
		<path class="st0" d="M28.5,217.4l-10.2-4v-1.1l10.2-4.1v1l-2.7,1.1v5.1l2.7,1.1V217.4z M24.9,210.6l-5.7,2.2l5.7,2.2V210.6z"/>
	</g>
	<g>
		<polygon class="st0" points="0,138.8 0,137.3 27.4,137.3 27.4,138.8 0,138.8 		"/>
	</g>
	<g>
		<path class="st0" d="M17.9,125.5H4.3l0-4.9c0-2,1.2-3.8,3.4-3.8c1.5,0,2.7,1.1,3.1,2.5h0c0.3-1.8,1.5-3.1,3.4-3.1
			c1.8,0,3.6,1.1,3.6,4V125.5z M10.3,121.3c0-1.6-0.6-3.2-2.5-3.2c-2,0-2.4,1.6-2.4,3.2v2.9h4.8V121.3z M16.7,124.3v-3
			c0-2.3-0.6-3.7-2.7-3.7c-2.3,0-2.7,1.9-2.7,4.4v2.3H16.7z"/>
		<path class="st0" d="M11.2,109.1c-1.5,0.1-2,0.9-2,2.2c0,1.2,0.4,2.2,1.6,2.3v1.2c-1.9-0.3-2.7-1.7-2.7-3.5c0-2.1,1-3.4,3.1-3.3
			h4.5c0.7,0,1.5-0.1,2.1-0.1v1.2l-1.4,0v0l0.1,0.1c0.8,0.4,1.5,1.7,1.5,3c0,1.7-1.1,3.1-2.9,3.1c-1.3,0-2.3-0.8-2.7-1.9
			c-0.5-1.3-0.4-2.9-0.4-4.3H11.2z M17.1,112c0-2.5-2-2.9-4-2.8c0.1,1.6-0.2,5,2.1,5C16.5,114.1,17.1,113.1,17.1,112z"/>
		<path class="st0" d="M17.9,105.1v1.1h-7.3c-0.7,0-1.5,0.1-2.1,0.1v-1.2l1.4-0.1l0,0c-1.2-0.7-1.7-1.7-1.7-3c0-3.1,2.7-3.3,3.8-3.3
			h5.9v1.1h-6.1c-1.6,0-2.6,0.9-2.6,2.5c0,1.9,1.6,2.7,3.3,2.7H17.9z"/>
		<path class="st0" d="M11.3,90.9c-1.4,0.1-2.1,1-2.1,2.6c0,1.7,1.8,2.8,4,2.8c2.2,0,4-1.1,4-2.8c0-1.5-0.9-2.5-2.2-2.6v-1.2
			c2.2,0.3,3.2,1.5,3.2,3.7c0,2.8-2.4,4.1-5,4.1c-2.6,0-5-1.4-5-4.2c0-1.9,1.2-3.5,3.2-3.6V90.9z"/>
		<path class="st0" d="M13.1,80.5c2.5,0,5,1.4,5,4.4c0,3-2.5,4.4-5,4.4c-2.5,0-5-1.4-5-4.4C8.1,81.9,10.7,80.5,13.1,80.5z M9.2,84.9
			c0,2.3,2.2,3.2,4,3.2c1.8,0,4-0.9,4-3.2c0-2.3-2.2-3.2-4-3.2C11.4,81.7,9.2,82.6,9.2,84.9z"/>
		<path class="st0" d="M7.5,66.5c-1.7,0.2-2.3,1.7-2.3,3.2c0,3.5,3.2,4.5,5.9,4.5c2.8,0,5.9-1.1,5.9-4.5c0-1.5-0.8-3-2.4-3.4V65
			c2.3,0.4,3.6,2.5,3.6,4.7c0,4.1-3.3,5.8-7.1,5.8c-3.7,0-7.1-1.7-7.1-5.8c0-2.2,1-4.3,3.5-4.5V66.5z"/>
		<path class="st0" d="M11.2,58.4c-1.5,0.1-2,0.9-2,2.2c0,1.2,0.4,2.2,1.6,2.3v1.2c-1.9-0.3-2.7-1.7-2.7-3.5c0-2.1,1-3.4,3.1-3.3
			h4.5c0.7,0,1.5-0.1,2.1-0.1v1.2l-1.4,0v0l0.1,0.1c0.8,0.4,1.5,1.7,1.5,3c0,1.7-1.1,3.1-2.9,3.1c-1.3,0-2.3-0.8-2.7-1.9
			c-0.5-1.3-0.4-2.9-0.4-4.3H11.2z M17.1,61.2c0-2.5-2-2.9-4-2.8c0.1,1.6-0.2,4.9,2.1,4.9C16.5,63.4,17.1,62.4,17.1,61.2z"/>
		<path class="st0" d="M5.7,54.3v1.3H4.3v-1.3H5.7z M20.4,56.9c0-1.7-0.4-1.5-2.9-1.5H8.4v-1.1h9.9c2.4,0,3.3,0.1,3.2,2.6H20.4z"/>
		<path class="st0" d="M11.2,47.1c-1.5,0.1-2,0.9-2,2.2c0,1.2,0.4,2.2,1.6,2.3v1.2c-1.9-0.3-2.7-1.7-2.7-3.5c0-2.1,1-3.4,3.1-3.3
			h4.5c0.7,0,1.5-0.1,2.1-0.1V47l-1.4,0v0l0.1,0.1c0.8,0.4,1.5,1.7,1.5,3c0,1.8-1.1,3.1-2.9,3.1c-1.3,0-2.3-0.8-2.7-1.9
			c-0.5-1.3-0.4-2.9-0.4-4.3H11.2z M17.1,49.9c0-2.5-2-2.9-4-2.8c0.1,1.6-0.2,5,2.1,5C16.5,52.1,17.1,51.1,17.1,49.9z"/>
		<path class="st0" d="M18.2,36.4c0,2.2-1.6,4-3.8,4v-1.3c2.1,0,2.7-1.6,2.7-3.4c0-1.5-0.9-3.3-2.6-3.3c-1.4,0-2,1-2.4,2.1
			c-0.7,2.2-1.4,5.5-4.4,5.5C5.3,40.2,4,38,4,35.8c0-1.8,0.6-4.1,3.2-4.4v1.3c-1.7,0-2.1,1.6-2.1,3c0,1.4,0.7,3.2,2.4,3.2
			c3.9,0,2.1-7.7,6.8-7.7C17.2,31.2,18.2,33.7,18.2,36.4z"/>
		<path class="st0" d="M13.1,21.6c2.5,0,5,1.4,5,4.4c0,3-2.5,4.4-5,4.4c-2.5,0-5-1.4-5-4.4C8.1,23,10.7,21.6,13.1,21.6z M9.2,26
			c0,2.3,2.2,3.2,4,3.2c1.8,0,4-0.9,4-3.2c0-2.3-2.2-3.2-4-3.2C11.4,22.8,9.2,23.7,9.2,26z"/>
		<path class="st0" d="M11.3,14.4c-1.4,0.1-2.1,1-2.1,2.6c0,1.7,1.8,2.8,4,2.8c2.2,0,4-1.1,4-2.8c0-1.5-0.9-2.5-2.2-2.6v-1.2
			c2.2,0.3,3.2,1.5,3.2,3.7c0,2.8-2.4,4.1-5,4.1c-2.6,0-5-1.4-5-4.2c0-1.9,1.2-3.5,3.2-3.6V14.4z"/>
		<path class="st0" d="M5.7,10.9v1.3H4.3v-1.3H5.7z M8.4,11h9.4v1.1H8.4V11z"/>
		<path class="st0" d="M11.2,3.7c-1.5,0.1-2,0.9-2,2.2c0,1.2,0.4,2.2,1.6,2.3v1.2C8.9,9.2,8.1,7.7,8.1,5.9c0-2.1,1-3.4,3.1-3.3h4.5
			c0.7,0,1.5-0.1,2.1-0.1v1.2l-1.4,0v0l0.1,0.1c0.8,0.4,1.5,1.7,1.5,3c0,1.7-1.1,3.1-2.9,3.1C14,9.9,13,9.1,12.5,8
			c-0.5-1.3-0.4-2.9-0.4-4.3H11.2z M17.1,6.5c0-2.5-2-2.9-4-2.8c0.1,1.6-0.2,4.9,2.1,4.9C16.5,8.7,17.1,7.7,17.1,6.5z"/>
		<path class="st0" d="M17.9-0.4v1.1H4.3v-1.1H17.9z"/>
	</g>
	<g>
		<path class="st0" d="M7.9,466.8l14.7,5.4v2.6l-14.7,5.4v-2.1l13-4.6l-13-4.6V466.8z"/>
		<path class="st0" d="M22.7,459.4v5.8h-1.5v-1.9H9.4v1.9H7.9v-5.8h1.5v1.9h11.7v-1.9H22.7z"/>
		<path class="st0" d="M21.6,443.8c0.4,0.8,0.7,1.7,1,2.6c0.3,0.9,0.4,1.9,0.4,2.8c0,1.1-0.2,2.2-0.5,3.2c-0.3,1-0.8,1.8-1.4,2.5
			c-0.6,0.7-1.4,1.2-2.4,1.6c-1,0.4-2.1,0.6-3.4,0.6c-2.4,0-4.2-0.7-5.6-2.1c-1.4-1.4-2-3.3-2-5.7c0-0.9,0.1-1.7,0.3-2.6
			c0.2-0.9,0.5-1.8,1-2.8h2.3v0.2c-0.2,0.2-0.4,0.5-0.6,0.9c-0.3,0.4-0.5,0.8-0.6,1.2c-0.2,0.5-0.4,1-0.5,1.5
			c-0.1,0.6-0.2,1.2-0.2,2c0,1.7,0.5,3,1.6,3.9c1.1,1,2.5,1.4,4.3,1.4c1.9,0,3.4-0.5,4.5-1.5c1.1-1,1.6-2.4,1.6-4.1
			c0-0.6-0.1-1.3-0.2-1.9c-0.1-0.6-0.3-1.2-0.5-1.7H17v4h-1.7v-5.9H21.6z"/>
		<path class="st0" d="M22.7,435.1v5.8h-1.5V439H9.4v1.9H7.9v-5.8h1.5v1.9h11.7v-1.9H22.7z"/>
		<path class="st0" d="M22.7,422.5v9.3H7.9v-2h13v-7.4H22.7z"/>
		<path class="st0" d="M22.7,408.9v2.1l-4.1,1.4v6.4l4.1,1.4v2l-14.7-5.4v-2.6L22.7,408.9z M16.9,413l-7.2,2.6l7.2,2.6V413z"/>
		<path class="st0" d="M15.3,394.2c1.3,0,2.6,0.3,3.6,0.9c1.1,0.6,1.9,1.4,2.5,2.3c0.4,0.7,0.7,1.4,0.9,2.2c0.2,0.8,0.3,1.9,0.3,3.3
			v3.7H7.9V403c0-1.4,0.1-2.6,0.3-3.4c0.2-0.9,0.5-1.6,0.9-2.2c0.6-1,1.5-1.8,2.5-2.3C12.6,394.5,13.9,394.2,15.3,394.2z
			 M15.3,396.2c-1.2,0-2.1,0.2-2.9,0.6c-0.8,0.4-1.4,1-1.9,1.8c-0.3,0.6-0.6,1.2-0.7,1.8c-0.1,0.7-0.2,1.4-0.2,2.3v1.8H21v-1.8
			c0-0.9-0.1-1.8-0.2-2.5c-0.1-0.7-0.4-1.3-0.8-1.9c-0.5-0.7-1.1-1.3-1.8-1.6C17.4,396.4,16.4,396.2,15.3,396.2z"/>
		<path class="st0" d="M9.6,380c0.7-0.6,1.5-1.1,2.4-1.4c1-0.3,2-0.5,3.3-0.5c1.2,0,2.3,0.2,3.3,0.5c1,0.3,1.8,0.8,2.4,1.4
			c0.7,0.6,1.2,1.3,1.5,2.2C22.8,383,23,384,23,385c0,1-0.2,2-0.5,2.8c-0.3,0.9-0.8,1.6-1.5,2.2c-0.7,0.6-1.5,1.1-2.4,1.4
			c-1,0.3-2,0.5-3.3,0.5c-1.2,0-2.3-0.2-3.2-0.5c-1-0.3-1.8-0.8-2.5-1.4c-0.6-0.6-1.1-1.3-1.5-2.2C7.8,387,7.6,386,7.6,385
			c0-1.1,0.2-2,0.5-2.8C8.5,381.3,9,380.6,9.6,380z M15.3,380.2c-1.9,0-3.4,0.4-4.4,1.3c-1,0.9-1.6,2-1.6,3.5c0,1.5,0.5,2.7,1.6,3.5
			c1,0.9,2.5,1.3,4.4,1.3c1.9,0,3.4-0.4,4.4-1.3c1-0.9,1.5-2,1.5-3.5c0-1.5-0.5-2.6-1.5-3.5C18.7,380.6,17.2,380.2,15.3,380.2z"/>
	</g>
	<polygon class="st0" points="25.2,376.6 27.4,376.6 27.4,480.9 25.2,480.9 25.2,376.6 	"/>
	<polygon class="st0" points="4.6,376.6 6.8,376.6 6.8,480.9 4.6,480.9 4.6,376.6 	"/>
</g>
</svg>
