<?xml version="1.0" encoding="utf-8"?>
<!-- Generator: Adobe Illustrator 23.0.3, SVG Export Plug-In . SVG Version: 6.00 Build 0)  -->
<svg version="1.1" id="Capa_1" xmlns="http://www.w3.org/2000/svg" xmlns:xlink="http://www.w3.org/1999/xlink" x="0px" y="0px"
	 viewBox="0 0 100 39.7" style="enable-background:new 0 0 100 39.7;" xml:space="preserve">
<style type="text/css">
	.st0{fill:#FFFFFF;}
	.st1{fill:#003E6F;}
	.st2{fill:#B01630;}
	.st3{fill:#75A8DA;}
	.st4{fill:none;stroke:#FFFFFF;stroke-width:2;stroke-miterlimit:10;}
</style>
<g>
	<g>
		<rect x="84.1" y="12.1" class="st0" width="15.9" height="14.4"/>
		<rect x="84.1" y="8.5" class="st1" width="15.9" height="3.6"/>
		<g>
			<path class="st0" d="M86.6,9.5L86.6,9.5c-0.1,0-0.1,0-0.1,0v1.2c0,0,0,0.1,0,0.1c0,0,0,0.1,0,0.1c0,0,0,0-0.1,0.1
				c0,0-0.1,0-0.1,0c0,0-0.1,0-0.1,0c0,0,0,0-0.1-0.1c0,0,0-0.1,0-0.1c0,0,0-0.1,0-0.1V9.5c0,0,0,0,0,0h-0.1c0,0,0,0,0,0v1.2
				c0,0.1,0,0.1,0,0.2c0,0.1,0,0.1,0.1,0.1c0,0,0.1,0.1,0.1,0.1c0,0,0.1,0,0.2,0s0.1,0,0.2,0c0,0,0.1-0.1,0.1-0.1c0,0,0-0.1,0.1-0.1
				c0,0,0-0.1,0-0.2L86.6,9.5C86.6,9.5,86.6,9.5,86.6,9.5z"/>
			<path class="st0" d="M87.6,9.5L87.6,9.5c-0.1,0-0.1,0-0.1,0v1.2L87,9.5c0,0,0,0,0,0h-0.1c0,0,0,0,0,0v1.6c0,0,0,0,0,0h0.1
				c0,0,0,0,0,0V9.8l0.4,1.3c0,0,0,0,0,0h0.1c0,0,0,0,0,0L87.6,9.5C87.6,9.5,87.6,9.5,87.6,9.5z"/>
			<path class="st0" d="M88.3,9.5h-0.2c0,0,0,0,0,0l-0.3,1.6c0,0,0,0,0,0c0,0,0,0,0,0h0.1c0,0,0,0,0,0l0.1-0.3h0.5l0.1,0.3
				c0,0,0,0,0,0h0.1c0,0,0,0,0,0c0,0,0,0,0,0L88.3,9.5C88.3,9.5,88.3,9.5,88.3,9.5z M88.4,10.7H88l0.2-0.9L88.4,10.7z"/>
			<path class="st0" d="M90,9.5h-0.6c0,0,0,0,0,0v1.6c0,0,0,0,0,0H90c0,0,0,0,0,0V11c0,0,0,0,0,0h-0.5v-0.6h0.4c0,0,0,0,0,0v-0.1
				c0,0,0,0,0,0h-0.4V9.7H90c0,0,0,0,0,0L90,9.5C90,9.5,90,9.5,90,9.5z"/>
			<path class="st0" d="M91.2,9.5H91c0,0,0,0,0,0l-0.3,1.3l-0.3-1.3c0,0,0,0,0,0h-0.1c0,0,0,0,0,0v1.6c0,0,0,0,0,0h0.1c0,0,0,0,0,0
				V9.9l0.3,1.2c0,0,0,0,0,0h0.1c0,0,0,0,0,0l0.3-1.2v1.2c0,0,0,0,0,0h0.1c0,0,0,0,0,0L91.2,9.5C91.2,9.5,91.2,9.5,91.2,9.5z"/>
			<path class="st0" d="M91.8,9.5h-0.3c0,0,0,0,0,0v1.6c0,0,0,0,0,0h0.1c0,0,0,0,0,0v-0.6h0.2c0.1,0,0.2,0,0.3-0.1
				c0.1-0.1,0.1-0.2,0.1-0.3V9.9c0-0.1,0-0.2-0.1-0.3C92,9.6,91.9,9.5,91.8,9.5z M91.7,10.3h-0.2V9.7h0.2c0.1,0,0.1,0,0.2,0.1
				c0,0,0,0.1,0,0.2v0.2c0,0.1,0,0.2-0.1,0.2C91.9,10.3,91.8,10.3,91.7,10.3z"/>
			<path class="st0" d="M93.1,11C93.1,11,93.1,11,93.1,11l0-0.3c0-0.1,0-0.2-0.1-0.2c0,0-0.1-0.1-0.1-0.1c0.1-0.1,0.2-0.2,0.2-0.3
				V9.9c0-0.1,0-0.2-0.1-0.3c-0.1-0.1-0.2-0.1-0.3-0.1h-0.3c0,0,0,0,0,0v1.6c0,0,0,0,0,0h0.1c0,0,0,0,0,0v-0.7h0.1c0,0,0.1,0,0.1,0
				c0,0,0.1,0,0.1,0c0,0,0,0,0.1,0.1c0,0,0,0.1,0,0.1v0.2c0,0,0,0.1,0,0.1c0,0,0,0.1,0,0.1c0,0,0,0,0,0h0.1c0,0,0,0,0,0
				C93.1,11.1,93.1,11.1,93.1,11C93.1,11.1,93.1,11.1,93.1,11z M92.5,9.7h0.2c0.1,0,0.1,0,0.2,0.1c0,0,0,0.1,0,0.2V10
				c0,0,0,0.1,0,0.1c0,0,0,0.1-0.1,0.1c0,0,0,0-0.1,0c0,0-0.1,0-0.1,0h-0.1V9.7z"/>
			<path class="st0" d="M93.9,9.5h-0.6c0,0,0,0,0,0v1.6c0,0,0,0,0,0h0.6c0,0,0,0,0,0V11c0,0,0,0,0,0h-0.5v-0.6h0.4c0,0,0,0,0,0v-0.1
				c0,0,0,0,0,0h-0.4V9.7h0.5c0,0,0,0,0,0L93.9,9.5C94,9.5,94,9.5,93.9,9.5z"/>
			<path class="st0" d="M94.7,10.4c0,0-0.1-0.1-0.1-0.1c0,0-0.1-0.1-0.1-0.1c0,0-0.1-0.1-0.1-0.1c0,0,0-0.1,0-0.2c0-0.1,0-0.1,0-0.2
				c0,0,0.1-0.1,0.2-0.1c0,0,0.1,0,0.1,0c0,0,0,0,0.1,0.1c0,0,0,0.1,0,0.1c0,0,0,0.1,0,0.1v0c0,0,0,0,0,0h0.1c0,0,0,0,0,0v0
				c0-0.1,0-0.1,0-0.2c0-0.1,0-0.1-0.1-0.1c0,0-0.1-0.1-0.1-0.1c0,0-0.1,0-0.2,0c0,0,0,0,0,0c-0.1,0-0.2,0-0.3,0.1
				c-0.1,0.1-0.1,0.2-0.1,0.3c0,0.1,0,0.1,0,0.2c0,0.1,0.1,0.1,0.1,0.1c0,0,0.1,0.1,0.1,0.1c0,0,0.1,0.1,0.1,0.1
				c0,0,0.1,0.1,0.1,0.1c0,0,0,0.1,0,0.2c0,0.1,0,0.1-0.1,0.2c0,0-0.1,0.1-0.2,0.1c-0.1,0-0.1,0-0.2-0.1c0-0.1-0.1-0.1-0.1-0.2v-0.1
				c0,0,0,0,0,0h-0.1c0,0,0,0,0,0v0.1c0,0.1,0,0.1,0,0.2c0,0.1,0,0.1,0.1,0.1c0,0,0.1,0.1,0.1,0.1c0,0,0.1,0,0.2,0
				c0.1,0,0.1,0,0.2,0c0,0,0.1-0.1,0.1-0.1c0,0,0.1-0.1,0.1-0.1c0,0,0-0.1,0-0.2c0-0.1,0-0.1,0-0.2C94.8,10.5,94.8,10.4,94.7,10.4z"
				/>
			<path class="st0" d="M95.6,9.5h-0.2c0,0,0,0,0,0l-0.3,1.6c0,0,0,0,0,0c0,0,0,0,0,0h0.1c0,0,0,0,0,0l0.1-0.3h0.5l0.1,0.3
				c0,0,0,0,0,0H96c0,0,0,0,0,0c0,0,0,0,0,0L95.6,9.5C95.6,9.5,95.6,9.5,95.6,9.5z M95.7,10.7h-0.4l0.2-0.9L95.7,10.7z"/>
			<path class="st0" d="M97.3,9.6c0,0-0.1-0.1-0.1-0.1c0,0-0.1,0-0.2,0h-0.3c0,0,0,0,0,0v1.6c0,0,0,0,0,0H97c0.1,0,0.1,0,0.2,0
				c0,0,0.1,0,0.1-0.1c0,0,0.1-0.1,0.1-0.1c0,0,0-0.1,0-0.2V9.9c0-0.1,0-0.1,0-0.2C97.3,9.7,97.3,9.7,97.3,9.6z M97.2,9.9v0.8
				c0,0.1,0,0.1-0.1,0.2c0,0-0.1,0.1-0.2,0.1h-0.2V9.7H97c0.1,0,0.1,0,0.2,0.1C97.2,9.8,97.2,9.8,97.2,9.9z"/>
			<path class="st0" d="M98.2,9.7C98.2,9.7,98.3,9.6,98.2,9.7l0-0.1c0,0,0,0,0,0h-0.6c0,0,0,0,0,0v1.6c0,0,0,0,0,0h0.6c0,0,0,0,0,0
				V11c0,0,0,0,0,0h-0.5v-0.6h0.4c0,0,0,0,0,0v-0.1c0,0,0,0,0,0h-0.4V9.7H98.2z"/>
		</g>
		<g>
			<g>
				<path class="st1" d="M90.7,13.5c-0.1,0-0.1,0-0.2,0.1l-1.7,2.8c0,0.1,0,0.1,0,0.2l1.6,2.8c0,0.1,0.1,0.1,0.2,0.1l3.2,0
					c0.1,0,0.1,0,0.2-0.1l1.1-2c0-0.1,0-0.1,0-0.2l-1.6-2.8c0-0.1-0.1-0.1-0.2-0.1l-2.3,0c-0.1,0-0.1,0-0.2,0.1l-1.2,2
					c0,0.1,0,0.1,0,0.2l1.2,2c0,0.1,0.1,0.1,0.2,0.1l2.3,0c0.1,0,0.1,0,0.2-0.1l0.6-1l0,0l0.2-0.3L94,16.7L93.8,17l0,0l-0.6,1
					c0,0.1-0.1,0.1-0.2,0.1l-1.6,0c-0.1,0-0.1,0-0.2-0.1l-0.8-1.4c0-0.1,0-0.1,0-0.2l0.8-1.5c0-0.1,0.1-0.1,0.2-0.1h1.6
					c0.1,0,0.1,0,0.2,0.1l1.3,2.2c0,0.1,0,0.1,0,0.2l-0.8,1.5c0,0.1-0.1,0.1-0.2,0.1H91c-0.1,0-0.1,0-0.2-0.1l-1.3-2.2
					c0-0.1,0-0.1,0-0.2l1.3-2.3c0-0.1,0.1-0.1,0.2-0.1h2.6c0.1,0,0.1,0,0.2,0.1l1,1.8l0,0l0.2,0.3l0.3-0.6v0l-0.1-0.1l0,0L95,15.3
					L95,15.2l0,0l-0.9-1.6c0-0.1-0.1-0.1-0.2-0.1L90.7,13.5z"/>
			</g>
			<g>
				<polygon class="st1" points="87.5,21.5 87.9,21.5 87.9,21.8 87.5,21.8 87.5,22.7 87.2,22.7 87.2,20.6 88,20.6 88,20.9 
					87.5,20.9 				"/>
			</g>
			<g>
				<g>
					<path class="st1" d="M88.5,20.6v1.6c0,0.1,0,0.1,0,0.2c0,0,0.1,0,0.1,0s0.1,0,0.1,0c0,0,0-0.1,0-0.2v-1.6h0.3v1.6
						c0,0.2,0,0.3-0.1,0.4c-0.1,0.1-0.2,0.1-0.4,0.1c-0.2,0-0.3,0-0.4-0.1c-0.1-0.1-0.1-0.2-0.1-0.4v-1.6H88.5z"/>
				</g>
			</g>
			<g>
				<polygon class="st1" points="89.6,21.2 89.6,22.7 89.3,22.7 89.3,20.6 89.8,20.6 90.1,21.8 90.1,20.6 90.4,20.6 90.4,22.7 
					90,22.7 				"/>
			</g>
			<g>
				<g>
					<path class="st1" d="M90.9,20.9v1.5h0.2c0.1,0,0.1,0,0.1,0c0,0,0-0.1,0-0.2v-1.1c0-0.1,0-0.1,0-0.2c0,0-0.1,0-0.1,0H90.9z
						 M90.6,20.6h0.5c0.2,0,0.3,0,0.4,0.1c0.1,0.1,0.1,0.2,0.1,0.4v1c0,0.2,0,0.3-0.1,0.4c-0.1,0.1-0.2,0.1-0.4,0.1h-0.5V20.6z"/>
				</g>
			</g>
			<g>
				<path class="st1" d="M92.1,22h0.3l-0.2-1L92.1,22z M92.9,22.7h-0.3l-0.1-0.4h-0.4L92,22.7h-0.3l0.3-2.1h0.5L92.9,22.7z"/>
			</g>
			<g>
				<g>
					<path class="st1" d="M94,21.9v0.3c0,0.2,0,0.3-0.1,0.4c-0.1,0.1-0.2,0.1-0.4,0.1c-0.2,0-0.3,0-0.4-0.1C93,22.5,93,22.3,93,22.2
						v-1.1c0-0.2,0-0.3,0.1-0.4c0.1-0.1,0.2-0.1,0.4-0.1c0.2,0,0.3,0,0.4,0.1c0.1,0.1,0.1,0.2,0.1,0.4v0.2h-0.3v-0.2
						c0-0.1,0-0.1,0-0.2c0,0-0.1,0-0.1,0c-0.1,0-0.1,0-0.1,0c0,0,0,0.1,0,0.2v1.1c0,0.1,0,0.1,0,0.2c0,0,0.1,0,0.1,0
						c0.1,0,0.1,0,0.1,0c0,0,0-0.1,0-0.2v-0.3H94z"/>
				</g>
			</g>
			<g>
				<rect x="94.2" y="20.6" class="st1" width="0.3" height="2.1"/>
			</g>
			<g>
				<g>
					<path class="st1" d="M95,22.2c0,0.1,0,0.1,0,0.2c0,0,0.1,0,0.1,0c0.1,0,0.1,0,0.1,0c0,0,0-0.1,0-0.2v-1.1c0-0.1,0-0.1,0-0.2
						s-0.1,0-0.1,0c-0.1,0-0.1,0-0.1,0c0,0,0,0.1,0,0.2V22.2z M95.5,20.1l-0.3,0.3H95l0.2-0.3H95.5z M94.7,21.1c0-0.2,0-0.3,0.1-0.4
						c0.1-0.1,0.2-0.1,0.4-0.1c0.2,0,0.3,0,0.4,0.1c0.1,0.1,0.1,0.2,0.1,0.4v1.1c0,0.2,0,0.3-0.1,0.4c-0.1,0.1-0.2,0.1-0.4,0.1
						c-0.2,0-0.3,0-0.4-0.1c-0.1-0.1-0.1-0.2-0.1-0.4V21.1z"/>
				</g>
			</g>
			<g>
				<polygon class="st1" points="96.2,21.2 96.2,22.7 95.9,22.7 95.9,20.6 96.3,20.6 96.6,21.8 96.6,20.6 96.9,20.6 96.9,22.7 
					96.6,22.7 				"/>
			</g>
			<g>
				<g>
					<path class="st1" d="M86.4,24h0.5v0.7c0,0.2,0,0.3-0.1,0.4c-0.1,0.1-0.2,0.1-0.4,0.1c-0.2,0-0.3,0-0.4-0.1
						c-0.1-0.1-0.1-0.2-0.1-0.4v-1.1c0-0.2,0-0.3,0.1-0.4c0.1-0.1,0.2-0.1,0.4-0.1c0.2,0,0.3,0,0.4,0.1c0.1,0.1,0.1,0.2,0.1,0.4v0.2
						h-0.3v-0.2c0-0.1,0-0.1,0-0.2c0,0-0.1,0-0.1,0c-0.1,0-0.1,0-0.1,0c0,0,0,0.1,0,0.2v1.1c0,0.1,0,0.1,0,0.2c0,0,0.1,0,0.1,0
						c0.1,0,0.1,0,0.1,0c0,0,0-0.1,0-0.2v-0.4h-0.1V24z"/>
				</g>
				<g>
					<path class="st1" d="M87.4,23.4V24h0.1c0.1,0,0.1,0,0.1,0c0,0,0.1-0.1,0.1-0.2v-0.2c0-0.1,0-0.1,0-0.2c0,0-0.1-0.1-0.1-0.1
						H87.4z M87.8,25.2C87.8,25.1,87.8,25.1,87.8,25.2C87.7,25.1,87.7,25.1,87.8,25.2c0-0.1,0-0.1,0-0.2c0,0,0-0.1,0-0.1v-0.3
						c0-0.1,0-0.2-0.1-0.2c0,0-0.1-0.1-0.2-0.1h-0.1v0.8h-0.3v-2.1h0.5c0.2,0,0.3,0,0.4,0.1c0.1,0.1,0.1,0.2,0.1,0.4v0.2
						c0,0.2-0.1,0.4-0.2,0.4c0.1,0,0.1,0.1,0.2,0.2c0,0.1,0,0.2,0,0.3v0.3c0,0.1,0,0.1,0,0.1c0,0,0,0.1,0,0.1H87.8z"/>
				</g>
				<g>
					<path class="st1" d="M88.6,23.1v1.6c0,0.1,0,0.1,0,0.2c0,0,0.1,0,0.1,0c0.1,0,0.1,0,0.1,0c0,0,0-0.1,0-0.2v-1.6h0.3v1.6
						c0,0.2,0,0.3-0.1,0.4c-0.1,0.1-0.2,0.1-0.4,0.1c-0.2,0-0.3,0-0.4-0.1c-0.1-0.1-0.1-0.2-0.1-0.4v-1.6H88.6z"/>
				</g>
				<g>
					<path class="st1" d="M89.8,23.4v0.7h0.2c0.1,0,0.1,0,0.1,0c0,0,0-0.1,0-0.2v-0.3c0-0.1,0-0.1,0-0.2c0,0-0.1,0-0.1,0H89.8z
						 M89.9,23.1c0.2,0,0.3,0,0.4,0.1c0.1,0.1,0.1,0.2,0.1,0.4v0.3c0,0.2,0,0.3-0.1,0.4c-0.1,0.1-0.2,0.1-0.4,0.1h-0.2v0.8h-0.3
						v-2.1H89.9z"/>
				</g>
				<g>
					<path class="st1" d="M90.9,24.7c0,0.1,0,0.1,0,0.2c0,0,0.1,0,0.1,0s0.1,0,0.1,0c0,0,0-0.1,0-0.2v-1.1c0-0.1,0-0.1,0-0.2
						c0,0-0.1,0-0.1,0s-0.1,0-0.1,0c0,0,0,0.1,0,0.2V24.7z M90.5,23.6c0-0.2,0-0.3,0.1-0.4c0.1-0.1,0.2-0.1,0.4-0.1
						c0.2,0,0.3,0,0.4,0.1c0.1,0.1,0.1,0.2,0.1,0.4v1.1c0,0.2,0,0.3-0.1,0.4c-0.1,0.1-0.2,0.1-0.4,0.1c-0.2,0-0.3,0-0.4-0.1
						c-0.1-0.1-0.1-0.2-0.1-0.4V23.6z"/>
				</g>
				<g>
					<path class="st1" d="M92.2,23.6c0-0.2,0-0.3,0.1-0.4c0.1-0.1,0.2-0.1,0.4-0.1c0.2,0,0.3,0,0.4,0.1c0.1,0.1,0.1,0.2,0.1,0.4v0.1
						h-0.3v-0.1c0-0.1,0-0.1,0-0.2s-0.1,0-0.1,0c-0.1,0-0.1,0-0.1,0c0,0,0,0.1,0,0.2c0,0.1,0,0.1,0,0.2c0,0.1,0.1,0.1,0.1,0.2
						c0,0,0.1,0.1,0.2,0.1c0.1,0,0.1,0.1,0.2,0.2c0,0.1,0.1,0.1,0.1,0.2c0,0.1,0,0.2,0,0.3c0,0.2,0,0.3-0.1,0.4
						c-0.1,0.1-0.2,0.1-0.4,0.1c-0.2,0-0.3,0-0.4-0.1c-0.1-0.1-0.1-0.2-0.1-0.4v-0.1h0.3v0.1c0,0.1,0,0.1,0,0.2c0,0,0.1,0,0.1,0
						s0.1,0,0.1,0c0,0,0-0.1,0-0.2c0-0.1,0-0.1,0-0.2c0-0.1-0.1-0.1-0.1-0.2c0,0-0.1-0.1-0.2-0.1c-0.1,0-0.1-0.1-0.2-0.2
						c0-0.1-0.1-0.1-0.1-0.2C92.2,23.8,92.2,23.7,92.2,23.6"/>
				</g>
				<g>
					<path class="st1" d="M93.6,24.7c0,0.1,0,0.1,0,0.2c0,0,0.1,0,0.1,0c0.1,0,0.1,0,0.1,0c0,0,0-0.1,0-0.2v-1.1c0-0.1,0-0.1,0-0.2
						s-0.1,0-0.1,0c-0.1,0-0.1,0-0.1,0c0,0,0,0.1,0,0.2V24.7z M93.3,23.6c0-0.2,0-0.3,0.1-0.4c0.1-0.1,0.2-0.1,0.4-0.1
						c0.2,0,0.3,0,0.4,0.1c0.1,0.1,0.1,0.2,0.1,0.4v1.1c0,0.2,0,0.3-0.1,0.4c-0.1,0.1-0.2,0.1-0.4,0.1c-0.2,0-0.3,0-0.4-0.1
						c-0.1-0.1-0.1-0.2-0.1-0.4V23.6z"/>
				</g>
				<g>
					<path class="st1" d="M95.4,24.4v0.3c0,0.2,0,0.3-0.1,0.4c-0.1,0.1-0.2,0.1-0.4,0.1c-0.2,0-0.3,0-0.4-0.1
						c-0.1-0.1-0.1-0.2-0.1-0.4v-1.1c0-0.2,0-0.3,0.1-0.4c0.1-0.1,0.2-0.1,0.4-0.1c0.2,0,0.3,0,0.4,0.1c0.1,0.1,0.1,0.2,0.1,0.4v0.2
						h-0.3v-0.2c0-0.1,0-0.1,0-0.2c0,0-0.1,0-0.1,0c-0.1,0-0.1,0-0.1,0c0,0,0,0.1,0,0.2v1.1c0,0.1,0,0.1,0,0.2c0,0,0.1,0,0.1,0
						c0.1,0,0.1,0,0.1,0c0,0,0-0.1,0-0.2v-0.3H95.4z"/>
				</g>
			</g>
			<g>
				<rect x="95.6" y="23.1" class="st1" width="0.3" height="2.1"/>
			</g>
			<g>
				<path class="st1" d="M96.6,23.5l0.2,1h-0.3L96.6,23.5z M96.4,23.1l-0.3,2.1h0.3l0.1-0.4h0.4l0.1,0.4h0.3l-0.3-2.1H96.4z"/>
			</g>
			<g>
				<polygon class="st1" points="97.4,23.1 97.4,25.2 98.2,25.2 98.2,24.9 97.7,24.9 97.7,23.1 				"/>
			</g>
		</g>
	</g>
	<g>
		<path class="st2" d="M11,6.3c-0.7,0-1.3,0.9-1.2,1.9c0,1.1,0.6,1.9,1.2,1.9c0.7,0,1.2-0.8,1.2-1.9C12.3,7.2,11.7,6.3,11,6.3"/>
		<path class="st2" d="M21.4,16.7c0-0.7-0.9-1.3-1.9-1.2c-1.1,0-1.9,0.6-1.9,1.2c0,0.7,0.8,1.2,1.9,1.2C20.5,18,21.4,17.5,21.4,16.7
			"/>
		<path class="st2" d="M11,27.2c0.7,0,1.3-0.9,1.2-1.9c0-1.1-0.6-1.9-1.2-1.9c-0.7,0-1.2,0.8-1.2,1.9C9.7,26.3,10.3,27.2,11,27.2"/>
		<path class="st2" d="M0.6,16.7c0,0.7,0.9,1.3,1.9,1.2c1.1,0,1.9-0.6,1.9-1.2c0-0.7-0.8-1.2-1.9-1.2C1.5,15.5,0.6,16,0.6,16.7"/>
		<path class="st2" d="M17.8,9.9c-0.5-0.5-1.3-0.4-1.9,0.3c-0.6,0.6-0.8,1.6-0.3,2c0.4,0.4,1.4,0.3,2-0.3
			C18.2,11.3,18.3,10.4,17.8,9.9"/>
		<path class="st2" d="M17.8,23.6c0.5-0.5,0.4-1.3-0.3-1.9c-0.6-0.6-1.6-0.8-2-0.3c-0.4,0.4-0.3,1.4,0.3,2
			C16.5,23.9,17.4,24,17.8,23.6"/>
		<path class="st2" d="M4.2,23.6c0.5,0.5,1.3,0.4,1.9-0.3c0.6-0.6,0.8-1.6,0.3-2c-0.4-0.4-1.4-0.3-2,0.3C3.8,22.2,3.7,23.1,4.2,23.6
			"/>
		<path class="st2" d="M4.2,9.9c-0.5,0.5-0.4,1.3,0.3,1.9c0.6,0.6,1.6,0.8,2,0.3c0.4-0.4,0.3-1.4-0.3-2C5.5,9.6,4.7,9.4,4.2,9.9"/>
		<path class="st2" d="M11,12.2c-0.3,0-0.6,0.3-0.6,0.7c0,0.4,0.3,0.7,0.6,0.7c0.3,0,0.6-0.3,0.6-0.7C11.6,12.6,11.3,12.2,11,12.2"
			/>
		<path class="st0" d="M13.8,10.1c-0.5-0.2-1,0.2-1.3,0.8c-0.2,0.6-0.1,1.2,0.4,1.4c0.4,0.2,1-0.1,1.2-0.7
			C14.4,11,14.2,10.3,13.8,10.1"/>
		<path class="st0" d="M17.6,14c-0.2-0.5-0.9-0.6-1.5-0.3c-0.6,0.3-0.9,0.8-0.7,1.3c0.2,0.4,0.8,0.6,1.4,0.4
			C17.5,15,17.8,14.5,17.6,14"/>
		<path class="st0" d="M17.6,19.5c0.2-0.5-0.2-1-0.8-1.3c-0.6-0.2-1.2-0.1-1.4,0.4c-0.2,0.4,0.1,1,0.7,1.2
			C16.8,20.1,17.4,19.9,17.6,19.5"/>
		<path class="st0" d="M13.8,23.4c0.5-0.2,0.6-0.9,0.3-1.5c-0.3-0.6-0.8-0.9-1.3-0.7c-0.4,0.2-0.6,0.8-0.4,1.4
			C12.7,23.2,13.3,23.6,13.8,23.4"/>
		<path class="st0" d="M8.3,23.4c0.5,0.2,1-0.2,1.3-0.8c0.2-0.6,0.1-1.2-0.4-1.4c-0.4-0.2-1,0.1-1.2,0.7C7.7,22.5,7.8,23.2,8.3,23.4
			"/>
		<path class="st0" d="M4.4,19.5c0.2,0.5,0.9,0.6,1.5,0.3c0.6-0.3,0.9-0.8,0.7-1.3c-0.2-0.4-0.8-0.6-1.4-0.4
			C4.6,18.4,4.2,19,4.4,19.5"/>
		<path class="st0" d="M4.4,14c-0.2,0.5,0.2,1,0.8,1.3c0.6,0.2,1.2,0.1,1.4-0.4c0.2-0.4-0.1-1-0.7-1.3C5.3,13.4,4.6,13.5,4.4,14"/>
		<path class="st0" d="M8.3,10.1c-0.5,0.2-0.6,0.9-0.3,1.5c0.3,0.6,0.8,0.9,1.3,0.7c0.4-0.2,0.6-0.8,0.4-1.4
			C9.3,10.3,8.7,9.9,8.3,10.1"/>
		<path class="st2" d="M15.5,16.7c0-0.3-0.3-0.6-0.7-0.6c-0.4,0-0.7,0.3-0.7,0.6c0,0.3,0.3,0.6,0.7,0.6
			C15.2,17.3,15.5,17.1,15.5,16.7"/>
		<path class="st2" d="M11,21.2c0.3,0,0.6-0.3,0.6-0.7c0-0.4-0.3-0.7-0.6-0.7c-0.3,0-0.6,0.3-0.6,0.7C10.4,20.9,10.7,21.2,11,21.2"
			/>
		<path class="st2" d="M6.5,16.7c0,0.3,0.3,0.6,0.7,0.6c0.4,0,0.7-0.3,0.7-0.6c0-0.3-0.3-0.6-0.7-0.6C6.8,16.2,6.5,16.4,6.5,16.7"/>
		<path class="st2" d="M7.8,13.6c-0.2,0.2-0.2,0.6,0.1,0.9c0.3,0.3,0.7,0.3,0.9,0.1C9,14.3,9,13.9,8.7,13.7
			C8.5,13.4,8.1,13.3,7.8,13.6"/>
		<path class="st2" d="M14.2,13.6c-0.2-0.2-0.6-0.2-0.9,0.1c-0.3,0.3-0.3,0.7-0.1,0.9c0.2,0.2,0.6,0.2,0.9-0.1
			C14.4,14.2,14.4,13.8,14.2,13.6"/>
		<path class="st2" d="M14.2,19.9c0.2-0.2,0.2-0.6-0.1-0.9c-0.3-0.3-0.7-0.3-0.9-0.1c-0.2,0.2-0.2,0.6,0.1,0.9
			C13.5,20.1,14,20.1,14.2,19.9"/>
		<path class="st2" d="M7.8,19.9c0.2,0.2,0.6,0.2,0.9-0.1C9,19.5,9,19.2,8.8,18.9c-0.2-0.2-0.6-0.2-0.9,0.1
			C7.7,19.3,7.6,19.7,7.8,19.9"/>
		<path class="st0" d="M15.6,5.8c-0.4-0.2-0.9,0.2-1.1,0.8c-0.2,0.6-0.1,1.1,0.2,1.3c0.4,0.1,0.8-0.2,1.1-0.7
			C16,6.5,15.9,5.9,15.6,5.8"/>
		<path class="st0" d="M22,12.2c-0.2-0.4-0.8-0.5-1.3-0.2c-0.6,0.3-0.9,0.7-0.7,1.1c0.1,0.4,0.7,0.5,1.3,0.2
			C21.8,13.1,22.1,12.6,22,12.2"/>
		<path class="st0" d="M22,21.3c0.2-0.4-0.2-0.9-0.8-1.1c-0.6-0.2-1.1-0.1-1.3,0.2c-0.1,0.4,0.2,0.8,0.7,1.1
			C21.2,21.8,21.8,21.7,22,21.3"/>
		<path class="st0" d="M15.6,27.7c0.4-0.2,0.5-0.8,0.2-1.3c-0.3-0.6-0.7-0.9-1.1-0.7c-0.4,0.1-0.5,0.7-0.2,1.3
			C14.7,27.5,15.2,27.9,15.6,27.7"/>
		<path class="st0" d="M6.5,27.7c0.4,0.2,0.9-0.2,1.1-0.8c0.2-0.6,0.1-1.1-0.2-1.3c-0.4-0.1-0.8,0.2-1.1,0.7
			C6,26.9,6.1,27.6,6.5,27.7"/>
		<path class="st0" d="M0,21.3c0.2,0.4,0.8,0.5,1.3,0.2c0.6-0.3,0.9-0.7,0.7-1.1C2,20.1,1.4,20,0.8,20.2C0.3,20.4-0.1,20.9,0,21.3"
			/>
		<path class="st0" d="M0,12.2c-0.2,0.4,0.2,0.9,0.8,1.1C1.4,13.5,2,13.4,2.1,13c0.1-0.4-0.2-0.8-0.7-1.1C0.8,11.7,0.2,11.8,0,12.2"
			/>
		<path class="st0" d="M6.5,5.8C6.1,5.9,6,6.5,6.2,7.1C6.5,7.7,7,8,7.3,7.8c0.4-0.1,0.5-0.7,0.2-1.3C7.3,6,6.8,5.6,6.5,5.8"/>
	</g>
	<g>
		<path class="st0" d="M27.6,15.7c0.3,0,0.5,0,0.8,0c0.4,0,0.8,0,1.1-0.1c0.3-0.1,0.7-0.2,0.9-0.4c0.3-0.2,0.5-0.4,0.6-0.7
			c0.2-0.3,0.2-0.6,0.2-1c0-0.3-0.1-0.6-0.1-0.8c-0.1-0.2-0.2-0.4-0.4-0.6c-0.2-0.1-0.3-0.3-0.5-0.3c-0.1,0-0.1-0.1-0.2-0.1
			c0,0,0.1,0,0.1-0.1c0.1-0.1,0.3-0.2,0.4-0.3c0.1-0.1,0.2-0.3,0.3-0.5c0.1-0.2,0.1-0.4,0.1-0.6c0-0.3-0.1-0.6-0.2-0.9
			c-0.1-0.2-0.3-0.4-0.5-0.6c-0.2-0.1-0.5-0.3-0.8-0.3c-0.5-0.1-1.2-0.1-1.9-0.1c-0.3,0-0.5,0-0.7,0.1l-0.1,0v6.9l0.1,0
			C27,15.6,27.3,15.6,27.6,15.7 M27.8,11.4V9.5c0.1,0,0.1,0,0.2,0c0.1,0,0.2,0,0.4,0c0.4,0,0.7,0.1,0.9,0.2c0.2,0.2,0.3,0.4,0.3,0.7
			c0,0.3-0.1,0.6-0.3,0.7c-0.2,0.2-0.5,0.3-0.9,0.3H27.8z M29.9,13c0.1,0.1,0.1,0.3,0.1,0.5c0,0.2,0,0.4-0.1,0.5
			c-0.1,0.1-0.2,0.2-0.3,0.3c-0.1,0.1-0.3,0.1-0.5,0.2c-0.3,0.1-0.6,0.1-1,0c-0.1,0-0.2,0-0.2,0v-2.2h0.7c0.2,0,0.4,0,0.6,0.1
			c0.2,0,0.3,0.1,0.5,0.2C29.7,12.8,29.8,12.9,29.9,13"/>
		<path class="st0" d="M32.4,15.3c0.2,0.1,0.4,0.2,0.7,0.3c0.3,0.1,0.5,0.1,0.9,0.1c0.3,0,0.7,0,1-0.1c0.3-0.1,0.6-0.1,0.8-0.2
			l0.1,0v-3.1c0-0.7-0.2-1.1-0.5-1.4c-0.3-0.3-0.8-0.5-1.5-0.5c-0.2,0-0.5,0-0.8,0.1c-0.3,0-0.5,0.1-0.7,0.2l-0.1,0v0.1
			c0,0.3,0.1,0.6,0.2,0.8l0,0.1l0.1,0c0.2-0.1,0.4-0.1,0.5-0.1c0.2,0,0.4,0,0.6,0c0.3,0,0.6,0.1,0.7,0.2c0.2,0.1,0.2,0.3,0.2,0.7
			v0.1c-0.1,0-0.1,0-0.2,0c-0.1,0-0.3,0-0.5,0c-0.3,0-0.5,0-0.8,0.1c-0.3,0.1-0.5,0.2-0.7,0.3c-0.2,0.1-0.4,0.3-0.5,0.5
			c-0.1,0.2-0.2,0.5-0.2,0.8c0,0.3,0.1,0.5,0.2,0.8C32.1,15,32.3,15.2,32.4,15.3 M33,14c0-0.3,0.1-0.4,0.3-0.6
			c0.2-0.1,0.5-0.2,0.8-0.2c0.1,0,0.2,0,0.4,0c0.1,0,0.2,0,0.3,0v1.3c-0.1,0-0.2,0-0.3,0c-0.3,0-0.5,0-0.8,0c-0.1,0-0.2,0-0.3-0.1
			c-0.1,0-0.2-0.1-0.2-0.2C33,14.3,33,14.2,33,14"/>
		<path class="st0" d="M39.9,11.8c0.1,0.2,0.2,0.5,0.2,0.9v2.9l0.1,0c0.1,0,0.2,0,0.2,0c0.1,0,0.2,0,0.2,0c0.1,0,0.1,0,0.2,0
			c0.1,0,0.2,0,0.2,0l0.1,0v-3.1c0-0.6-0.1-1.1-0.4-1.5c-0.3-0.3-0.7-0.5-1.3-0.5c-0.2,0-0.4,0-0.6,0.1c-0.2,0.1-0.3,0.1-0.5,0.2
			c-0.1,0.1-0.2,0.2-0.4,0.3c0,0,0,0-0.1,0.1c0,0,0-0.1,0-0.1c0-0.2,0-0.3-0.1-0.4l0-0.1l-0.1,0c-0.1,0-0.1,0-0.2,0
			c-0.1,0-0.3,0-0.4,0c-0.1,0-0.1,0-0.2,0l-0.1,0v5l0.1,0c0.1,0,0.2,0,0.2,0c0.2,0,0.3,0,0.5,0c0.1,0,0.2,0,0.2,0l0.1,0V13
			c0-0.3,0-0.5,0.1-0.7c0.1-0.2,0.2-0.4,0.3-0.5c0.1-0.1,0.2-0.2,0.4-0.3c0.1-0.1,0.3-0.1,0.5-0.1C39.6,11.5,39.8,11.6,39.9,11.8"/>
		<path class="st0" d="M46,14.9c0-0.1-0.1-0.3-0.1-0.4l0-0.1l-0.1,0c-0.2,0.1-0.3,0.1-0.5,0.1c-0.1,0-0.3,0-0.5,0
			c-0.4,0-0.8-0.1-1-0.4c-0.2-0.3-0.4-0.7-0.4-1.2c0-0.5,0.1-0.9,0.3-1.2c0.2-0.3,0.5-0.4,1-0.4c0.4,0,0.7,0.1,1,0.2l0.1,0l0-0.1
			c0.1-0.1,0.1-0.2,0.1-0.4c0-0.1,0-0.3,0-0.4v-0.1l-0.1,0c-0.2-0.1-0.4-0.1-0.6-0.2c-0.2,0-0.4,0-0.7,0c-0.4,0-0.8,0.1-1.1,0.2
			c-0.3,0.1-0.6,0.3-0.8,0.6c-0.2,0.2-0.4,0.5-0.5,0.8c-0.1,0.3-0.2,0.7-0.2,1c0,0.8,0.2,1.4,0.6,1.9c0.4,0.5,1.1,0.7,1.9,0.7
			c0.5,0,0.9-0.1,1.3-0.2l0.1,0l0-0.1C46,15.2,46,15.1,46,14.9"/>
		<path class="st0" d="M50.7,11.2c-0.2-0.2-0.4-0.4-0.7-0.6c-0.3-0.1-0.6-0.2-1-0.2c-0.4,0-0.7,0.1-1,0.2c-0.3,0.1-0.5,0.3-0.7,0.6
			c-0.2,0.2-0.3,0.5-0.4,0.8c-0.1,0.3-0.1,0.7-0.1,1c0,0.4,0,0.7,0.1,1c0.1,0.3,0.2,0.6,0.4,0.8c0.2,0.2,0.4,0.4,0.7,0.6
			c0.3,0.1,0.6,0.2,1,0.2c0.4,0,0.7-0.1,1-0.2c0.3-0.1,0.5-0.3,0.7-0.6c0.2-0.2,0.3-0.5,0.4-0.8c0.1-0.3,0.1-0.7,0.1-1
			c0-0.4,0-0.7-0.1-1C51,11.7,50.9,11.4,50.7,11.2 M48.9,14.7c-0.4,0-0.7-0.1-0.9-0.4c-0.2-0.3-0.3-0.7-0.3-1.2
			c0-0.5,0.1-0.9,0.3-1.2c0.2-0.3,0.5-0.4,0.9-0.4c0.4,0,0.7,0.1,0.9,0.4c0.2,0.3,0.3,0.7,0.3,1.2c0,0.5-0.1,0.9-0.3,1.2
			C49.6,14.6,49.3,14.7,48.9,14.7"/>
		<path class="st0" d="M31.2,23.7L31.2,23.7L31,23.6c-0.2,0.1-0.4,0.1-0.6,0.2c-0.2,0-0.4,0.1-0.7,0.1c-0.3,0-0.6-0.1-0.9-0.2
			c-0.3-0.1-0.5-0.2-0.7-0.4c-0.2-0.2-0.3-0.5-0.4-0.8c-0.1-0.3-0.2-0.7-0.2-1.1c0-0.8,0.2-1.5,0.5-1.9c0.4-0.4,0.8-0.7,1.5-0.7
			c0.2,0,0.3,0,0.4,0c0.1,0,0.2,0,0.3,0c0.1,0,0.2,0,0.3,0.1c0.1,0,0.2,0.1,0.3,0.1l0.1,0l0-0.1c0.1-0.1,0.1-0.3,0.1-0.4
			c0-0.1,0.1-0.3,0.1-0.4l0-0.1l-0.1,0c-0.2-0.1-0.4-0.1-0.7-0.2c-0.3-0.1-0.6-0.1-0.9-0.1c-0.5,0-0.9,0.1-1.3,0.3
			c-0.4,0.2-0.7,0.4-1,0.7c-0.3,0.3-0.5,0.7-0.6,1.1c-0.1,0.4-0.2,0.9-0.2,1.5c0,0.5,0.1,1,0.2,1.5c0.1,0.4,0.4,0.8,0.6,1.1
			c0.3,0.3,0.6,0.5,1,0.7c0.4,0.2,0.9,0.2,1.4,0.2c0.3,0,0.6,0,0.9-0.1c0.3-0.1,0.6-0.1,0.8-0.2l0.1,0l0-0.1
			C31.4,24.2,31.3,23.9,31.2,23.7"/>
		<path class="st0" d="M34,19.7c-0.2,0-0.5,0-0.8,0.1c-0.3,0-0.5,0.1-0.7,0.2l-0.1,0V20c0,0.3,0.1,0.6,0.2,0.8l0,0.1l0.1,0
			c0.2-0.1,0.4-0.1,0.5-0.1c0.2,0,0.4,0,0.6,0c0.3,0,0.6,0.1,0.7,0.2c0.2,0.1,0.2,0.3,0.2,0.7v0.1c-0.1,0-0.1,0-0.2,0
			c-0.1,0-0.3,0-0.5,0c-0.3,0-0.5,0-0.8,0.1c-0.3,0.1-0.5,0.2-0.7,0.3c-0.2,0.1-0.4,0.3-0.5,0.5c-0.1,0.2-0.2,0.5-0.2,0.8
			c0,0.3,0.1,0.5,0.2,0.7c0.1,0.2,0.2,0.4,0.4,0.5c0.2,0.1,0.4,0.2,0.7,0.3c0.3,0.1,0.5,0.1,0.9,0.1c0.3,0,0.7,0,1-0.1
			c0.3-0.1,0.6-0.1,0.8-0.2l0.1,0v-3.1c0-0.7-0.2-1.1-0.5-1.4C35.2,19.8,34.7,19.7,34,19.7 M34.9,22.5v1.3c-0.1,0-0.2,0-0.3,0
			c-0.3,0-0.5,0-0.8,0c-0.1,0-0.2,0-0.3-0.1c-0.1,0-0.2-0.1-0.2-0.2c-0.1-0.1-0.1-0.2-0.1-0.4c0-0.3,0.1-0.4,0.3-0.6
			c0.2-0.1,0.5-0.2,0.8-0.2c0.1,0,0.2,0,0.4,0C34.8,22.5,34.8,22.5,34.9,22.5"/>
		<path class="st0" d="M36.9,19.9c0,0.1,0,0.1,0,0.2c0,0.1,0,0.1,0,0.2c0,0.1,0,0.1,0,0.2c0,0.1,0,0.1,0,0.2l0,0.1h0.6v4.2
			c0,0.2,0,0.3-0.1,0.4c0,0.1-0.1,0.2-0.2,0.2c-0.1,0-0.1,0.1-0.2,0.1c-0.3,0-0.5,0-0.7-0.1l-0.1,0l0,0.1c0,0.1-0.1,0.2-0.1,0.4
			c0,0.1,0,0.3,0,0.4l0,0.1l0.1,0c0.2,0.1,0.5,0.1,0.9,0.1c0.2,0,0.4,0,0.6-0.1c0.2-0.1,0.4-0.1,0.5-0.3c0.1-0.1,0.3-0.3,0.3-0.5
			c0.1-0.2,0.1-0.4,0.1-0.7v-5.2L36.9,19.9L36.9,19.9z"/>
		<path class="st0" d="M37.3,18.9L37.3,18.9c0.2,0,0.3,0,0.3,0c0.1,0,0.2,0,0.3,0c0.1,0,0.2,0,0.2,0c0.1,0,0.2,0,0.3,0l0.1,0l0-0.1
			c0-0.1,0-0.2,0-0.3c0-0.1,0-0.2,0-0.2c0-0.1,0-0.1,0-0.2c0-0.1,0-0.2,0-0.2l0-0.1l-0.1,0c-0.1,0-0.2,0-0.3,0c-0.2,0-0.3,0-0.5,0
			c-0.1,0-0.2,0-0.3,0l-0.1,0l0,0.1c0,0.1,0,0.2,0,0.2c0,0.1,0,0.2,0,0.2c0,0.1,0,0.1,0,0.2C37.3,18.7,37.3,18.7,37.3,18.9
			L37.3,18.9z"/>
		<path class="st0" d="M41.6,19.7c-0.2,0-0.5,0-0.8,0.1c-0.3,0-0.5,0.1-0.7,0.2l-0.1,0V20c0,0.3,0.1,0.6,0.2,0.8l0,0.1l0.1,0
			c0.2-0.1,0.4-0.1,0.5-0.1c0.2,0,0.4,0,0.6,0c0.3,0,0.6,0.1,0.7,0.2c0.2,0.1,0.2,0.3,0.2,0.7v0.1c-0.1,0-0.1,0-0.2,0
			c-0.1,0-0.3,0-0.5,0c-0.3,0-0.5,0-0.8,0.1c-0.3,0.1-0.5,0.2-0.7,0.3c-0.2,0.1-0.4,0.3-0.5,0.5c-0.1,0.2-0.2,0.5-0.2,0.8
			c0,0.3,0.1,0.5,0.2,0.7c0.1,0.2,0.2,0.4,0.4,0.5c0.2,0.1,0.4,0.2,0.7,0.3c0.3,0.1,0.5,0.1,0.9,0.1c0.3,0,0.7,0,1-0.1
			c0.3-0.1,0.6-0.1,0.8-0.2l0.1,0v-3.1c0-0.7-0.2-1.1-0.5-1.4C42.7,19.8,42.2,19.7,41.6,19.7 M42.5,22.5v1.3c-0.1,0-0.2,0-0.3,0
			c-0.3,0-0.5,0-0.8,0c-0.1,0-0.2,0-0.3-0.1c-0.1,0-0.2-0.1-0.2-0.2c-0.1-0.1-0.1-0.2-0.1-0.4c0-0.3,0.1-0.4,0.3-0.6
			c0.2-0.1,0.5-0.2,0.8-0.2c0.1,0,0.2,0,0.4,0C42.3,22.5,42.4,22.5,42.5,22.5"/>
		<path class="st0" d="M50.7,21.4c-0.1-0.2-0.3-0.3-0.5-0.4c-0.2-0.1-0.4-0.2-0.7-0.3L49,20.5c-0.1-0.1-0.3-0.1-0.4-0.2
			c-0.1-0.1-0.2-0.1-0.3-0.2c-0.1-0.1-0.1-0.1-0.2-0.2c0-0.1-0.1-0.2-0.1-0.3c0-0.3,0.1-0.5,0.3-0.6c0.2-0.1,0.5-0.2,0.8-0.2
			c0.3,0,0.5,0,0.7,0.1c0.2,0,0.4,0.1,0.6,0.2l0.1,0l0-0.1c0.1-0.3,0.2-0.5,0.2-0.8l0-0.1l-0.1,0c-0.2-0.1-0.5-0.1-0.7-0.2
			c-0.3-0.1-0.6-0.1-0.9-0.1c-0.7,0-1.3,0.2-1.7,0.5c-0.4,0.3-0.6,0.8-0.6,1.4c0,0.2,0,0.5,0.1,0.7c0.1,0.2,0.2,0.3,0.3,0.5
			c0.1,0.1,0.3,0.3,0.4,0.4c0.2,0.1,0.3,0.2,0.5,0.3l0.5,0.2c0.2,0.1,0.4,0.2,0.6,0.2c0.1,0.1,0.3,0.1,0.4,0.2
			c0.1,0.1,0.2,0.2,0.2,0.3c0,0.1,0.1,0.2,0.1,0.4c0,0.3-0.1,0.6-0.3,0.8c-0.2,0.2-0.6,0.3-1.1,0.3c-0.3,0-0.6,0-0.8-0.1
			c-0.2-0.1-0.4-0.1-0.6-0.2l-0.1,0l0,0.1c-0.1,0.1-0.1,0.3-0.1,0.4c0,0.1-0.1,0.3-0.1,0.4l0,0.1l0.1,0c0.1,0,0.3,0.1,0.4,0.1
			c0.1,0,0.3,0.1,0.4,0.1c0.1,0,0.3,0,0.4,0.1c0.2,0,0.3,0,0.5,0c0.8,0,1.5-0.2,1.9-0.6c0.5-0.4,0.7-0.9,0.7-1.6
			c0-0.3,0-0.5-0.1-0.7C50.9,21.8,50.8,21.6,50.7,21.4"/>
		<path class="st0" d="M55.9,20.4c-0.2-0.2-0.4-0.4-0.7-0.6c-0.3-0.1-0.6-0.2-1-0.2c-0.4,0-0.7,0.1-1,0.2c-0.3,0.1-0.5,0.3-0.7,0.6
			c-0.2,0.2-0.3,0.5-0.4,0.8c-0.1,0.3-0.1,0.7-0.1,1c0,0.4,0,0.7,0.1,1c0.1,0.3,0.2,0.6,0.4,0.8c0.2,0.2,0.4,0.4,0.7,0.6
			c0.3,0.1,0.6,0.2,1,0.2c0.4,0,0.7-0.1,1-0.2c0.3-0.1,0.5-0.3,0.7-0.6c0.2-0.2,0.3-0.5,0.4-0.8c0.1-0.3,0.1-0.7,0.1-1
			c0-0.4,0-0.7-0.1-1C56.2,20.9,56.1,20.7,55.9,20.4 M54.1,23.9c-0.4,0-0.7-0.1-0.9-0.4c-0.2-0.3-0.3-0.7-0.3-1.2
			c0-0.5,0.1-0.9,0.3-1.2c0.2-0.3,0.5-0.4,0.9-0.4c0.4,0,0.7,0.1,0.9,0.4c0.2,0.3,0.3,0.7,0.3,1.2c0,0.5-0.1,0.9-0.3,1.2
			C54.8,23.8,54.5,23.9,54.1,23.9"/>
		<path class="st0" d="M61,24.1c0-0.1-0.1-0.3-0.1-0.4l0-0.1l-0.1,0c-0.2,0.1-0.3,0.1-0.5,0.1c-0.2,0-0.3,0-0.5,0
			c-0.4,0-0.8-0.1-1-0.4c-0.2-0.3-0.4-0.7-0.4-1.2c0-0.5,0.1-0.9,0.3-1.2c0.2-0.3,0.5-0.4,1-0.4c0.4,0,0.7,0.1,1,0.2l0.1,0l0-0.1
			c0.1-0.1,0.1-0.2,0.1-0.4c0-0.2,0-0.3,0-0.4v-0.1l-0.1,0c-0.2-0.1-0.4-0.1-0.6-0.2c-0.2,0-0.4,0-0.7,0c-0.4,0-0.8,0.1-1.1,0.2
			c-0.3,0.1-0.6,0.3-0.8,0.6c-0.2,0.2-0.4,0.5-0.5,0.8c-0.1,0.3-0.2,0.7-0.2,1c0,0.8,0.2,1.4,0.6,1.9c0.4,0.5,1.1,0.7,1.9,0.7
			c0.5,0,0.9-0.1,1.3-0.2l0.1,0l0-0.1C61.1,24.4,61.1,24.3,61,24.1"/>
		<path class="st0" d="M61.6,19.9c0,0.1,0,0.1,0,0.2c0,0.1,0,0.1,0,0.2c0,0.1,0,0.1,0,0.2c0,0.1,0,0.1,0,0.2l0,0.1h0.6v4l0.1,0
			c0.1,0,0.2,0,0.2,0c0.1,0,0.2,0,0.2,0c0.1,0,0.2,0,0.2,0c0.1,0,0.2,0,0.2,0l0.1,0v-5L61.6,19.9L61.6,19.9z"/>
		<path class="st0" d="M62,18.8L62,18.8L62,18.8c0.2,0.1,0.3,0.1,0.4,0.1c0.1,0,0.2,0,0.3,0c0.1,0,0.2,0,0.2,0c0.1,0,0.2,0,0.3,0
			l0.1,0l0-0.1c0-0.1,0-0.2,0-0.3c0-0.1,0-0.2,0-0.2c0-0.1,0-0.1,0-0.2c0-0.1,0-0.2,0-0.2l0-0.1l-0.1,0c-0.1,0-0.2,0-0.3,0
			c-0.2,0-0.3,0-0.5,0c-0.1,0-0.2,0-0.3,0l-0.1,0l0,0.1c0,0.1,0,0.2,0,0.2c0,0.1,0,0.2,0,0.2c0,0.1,0,0.1,0,0.2
			C62,18.7,62,18.8,62,18.8"/>
		<path class="st0" d="M66.1,19.7c-0.2,0-0.5,0-0.8,0.1c-0.3,0-0.5,0.1-0.7,0.2l-0.1,0V20c0,0.3,0.1,0.6,0.2,0.8l0,0.1l0.1,0
			c0.2-0.1,0.4-0.1,0.5-0.1c0.2,0,0.4,0,0.6,0c0.3,0,0.6,0.1,0.7,0.2c0.2,0.1,0.2,0.3,0.2,0.7v0.1c-0.1,0-0.1,0-0.2,0
			c-0.1,0-0.3,0-0.5,0c-0.3,0-0.5,0-0.8,0.1c-0.3,0.1-0.5,0.2-0.7,0.3c-0.2,0.1-0.4,0.3-0.5,0.5c-0.1,0.2-0.2,0.5-0.2,0.8
			c0,0.3,0.1,0.5,0.2,0.7c0.1,0.2,0.2,0.4,0.4,0.5c0.2,0.1,0.4,0.2,0.7,0.3c0.3,0.1,0.5,0.1,0.9,0.1c0.3,0,0.7,0,1-0.1
			c0.3-0.1,0.6-0.1,0.8-0.2l0.1,0v-3.1c0-0.7-0.2-1.1-0.5-1.4C67.2,19.8,66.7,19.7,66.1,19.7 M67,22.5v1.3c-0.1,0-0.2,0-0.3,0
			c-0.3,0-0.5,0-0.8,0c-0.1,0-0.2,0-0.3-0.1c-0.1,0-0.2-0.1-0.2-0.2c-0.1-0.1-0.1-0.2-0.1-0.4c0-0.3,0.1-0.4,0.3-0.6
			c0.2-0.1,0.5-0.2,0.8-0.2c0.1,0,0.2,0,0.4,0C66.8,22.5,66.9,22.5,67,22.5"/>
		<path class="st0" d="M71.2,23.9l0-0.1l-0.1,0c0,0-0.1,0-0.2,0c-0.2,0-0.3,0-0.4,0c-0.1,0-0.1,0-0.1-0.1c0,0-0.1-0.1-0.1-0.2
			c0-0.1,0-0.2,0-0.4v-5.5l-0.1,0c-0.1,0-0.2,0-0.2,0c-0.2,0-0.3,0-0.5,0c-0.1,0-0.2,0-0.2,0l-0.1,0v5.7c0,0.3,0,0.5,0.1,0.7
			c0.1,0.2,0.2,0.3,0.3,0.4c0.1,0.1,0.3,0.2,0.5,0.2c0.2,0,0.3,0.1,0.5,0.1c0.1,0,0.2,0,0.4,0c0.1,0,0.3,0,0.3-0.1l0.1,0v-0.1
			C71.3,24.4,71.2,24.2,71.2,23.9"/>
	</g>
	<g>
		<path class="st0" d="M26.9,30.6c0.1,0,0.2,0.1,0.3,0.1c0.1,0,0.2,0,0.4,0c0.2,0,0.4,0,0.5-0.1c0.1-0.1,0.2-0.2,0.2-0.4
			c0-0.1,0-0.1,0-0.2c0-0.1-0.1-0.1-0.1-0.1c0,0-0.1-0.1-0.2-0.1c-0.1,0-0.1-0.1-0.2-0.1l-0.2-0.1c-0.1,0-0.1-0.1-0.2-0.1
			c-0.1,0-0.1-0.1-0.2-0.1c0-0.1-0.1-0.1-0.1-0.2c0-0.1,0-0.2,0-0.3c0-0.2,0.1-0.4,0.3-0.6c0.2-0.1,0.4-0.2,0.7-0.2
			c0.1,0,0.3,0,0.4,0c0.1,0,0.2,0,0.3,0.1c0,0.1,0,0.2-0.1,0.3c-0.1,0-0.2-0.1-0.3-0.1c-0.1,0-0.2,0-0.3,0c-0.2,0-0.3,0-0.4,0.1
			c-0.1,0.1-0.1,0.2-0.1,0.3c0,0.1,0,0.1,0,0.2c0,0,0.1,0.1,0.1,0.1c0,0,0.1,0.1,0.1,0.1c0.1,0,0.1,0.1,0.2,0.1l0.2,0.1
			c0.1,0,0.2,0.1,0.3,0.1c0.1,0,0.2,0.1,0.2,0.2c0.1,0.1,0.1,0.1,0.1,0.2c0,0.1,0,0.2,0,0.3c0,0.3-0.1,0.5-0.3,0.7
			c-0.2,0.2-0.5,0.2-0.8,0.2c-0.1,0-0.2,0-0.2,0c-0.1,0-0.1,0-0.2,0c-0.1,0-0.1,0-0.2,0c-0.1,0-0.1,0-0.2-0.1c0-0.1,0-0.1,0-0.2
			C26.8,30.7,26.8,30.6,26.9,30.6z"/>
		<path class="st0" d="M29.2,28.9c0,0,0.1,0,0.1,0c0,0,0.1,0,0.1,0c0,0,0.1,0,0.1,0c0,0,0.1,0,0.1,0v1.1c0,0.1,0,0.2,0,0.3
			c0,0.1,0.1,0.2,0.1,0.2c0,0,0.1,0.1,0.2,0.1c0.1,0,0.2,0,0.2,0c0.1,0,0.3,0,0.4,0v-1.7c0,0,0.1,0,0.1,0c0,0,0.1,0,0.1,0
			c0,0,0.1,0,0.1,0c0,0,0.1,0,0.1,0v2c-0.1,0-0.2,0.1-0.3,0.1c-0.1,0-0.3,0-0.4,0c-0.1,0-0.3,0-0.4,0c-0.1,0-0.2-0.1-0.3-0.1
			c-0.1-0.1-0.2-0.2-0.2-0.3c-0.1-0.1-0.1-0.3-0.1-0.5V28.9z"/>
		<path class="st0" d="M32.7,28C32.8,28,32.8,28,32.7,28c0.1,0,0.2,0,0.2,0c0,0,0.1,0,0.1,0c0,0,0.1,0,0.1,0v1.1
			c0-0.1,0.1-0.2,0.2-0.2c0.1-0.1,0.2-0.1,0.4-0.1c0.1,0,0.2,0,0.3,0.1c0.1,0,0.2,0.1,0.3,0.2c0.1,0.1,0.1,0.2,0.2,0.3
			c0,0.1,0.1,0.3,0.1,0.5c0,0.4-0.1,0.6-0.3,0.8c-0.2,0.2-0.5,0.3-0.9,0.3c-0.1,0-0.2,0-0.4,0c-0.1,0-0.2,0-0.3-0.1V28z M33.1,30.7
			c0,0,0.1,0,0.2,0c0.1,0,0.1,0,0.2,0c0.1,0,0.2,0,0.3,0c0.1,0,0.2-0.1,0.2-0.1c0.1-0.1,0.1-0.1,0.1-0.2c0-0.1,0.1-0.2,0.1-0.3
			c0-0.2,0-0.4-0.1-0.5c-0.1-0.1-0.2-0.2-0.4-0.2c-0.1,0-0.1,0-0.2,0c-0.1,0-0.1,0.1-0.2,0.1c-0.1,0-0.1,0.1-0.1,0.2
			c0,0.1,0,0.2,0,0.3V30.7z"/>
		<path class="st0" d="M36.3,29.6c0-0.2,0-0.3-0.1-0.3c-0.1-0.1-0.2-0.1-0.4-0.1c-0.1,0-0.2,0-0.3,0c-0.1,0-0.2,0-0.2,0.1
			c-0.1-0.1-0.1-0.2-0.1-0.3c0.1,0,0.2-0.1,0.3-0.1c0.1,0,0.2,0,0.3,0c0.3,0,0.5,0.1,0.6,0.2c0.1,0.1,0.2,0.3,0.2,0.6v1.3
			c-0.1,0-0.2,0-0.3,0.1c-0.1,0-0.3,0-0.4,0c-0.1,0-0.3,0-0.4,0c-0.1,0-0.2-0.1-0.3-0.1c-0.1-0.1-0.1-0.1-0.2-0.2
			c0-0.1-0.1-0.2-0.1-0.3c0-0.1,0-0.2,0.1-0.3c0-0.1,0.1-0.2,0.2-0.2c0.1-0.1,0.2-0.1,0.3-0.1c0.1,0,0.2,0,0.3,0c0.1,0,0.2,0,0.2,0
			C36.2,29.7,36.2,29.7,36.3,29.6L36.3,29.6z M36.3,30c0,0-0.1,0-0.2,0c-0.1,0-0.1,0-0.2,0c-0.2,0-0.3,0-0.4,0.1
			c-0.1,0.1-0.1,0.2-0.1,0.3c0,0.1,0,0.1,0,0.2c0,0,0.1,0.1,0.1,0.1c0,0,0.1,0,0.1,0c0.1,0,0.1,0,0.2,0c0.1,0,0.1,0,0.2,0
			c0.1,0,0.1,0,0.2,0V30z"/>
		<path class="st0" d="M37.3,28.9C37.3,28.9,37.4,28.9,37.3,28.9c0.1,0,0.1,0,0.2,0c0,0,0.1,0,0.1,0c0,0,0.1,0,0.1,0
			c0,0,0,0.1,0,0.2c0,0.1,0,0.1,0,0.2c0,0,0.1-0.1,0.1-0.1c0,0,0.1-0.1,0.1-0.1c0.1,0,0.1-0.1,0.2-0.1c0.1,0,0.1,0,0.2,0
			c0.2,0,0.4,0.1,0.5,0.2c0.1,0.1,0.2,0.3,0.2,0.6V31c0,0-0.1,0-0.1,0c0,0-0.1,0-0.1,0c0,0-0.1,0-0.1,0c0,0-0.1,0-0.1,0v-1.2
			c0-0.2,0-0.3-0.1-0.4c-0.1-0.1-0.2-0.1-0.3-0.1c-0.1,0-0.1,0-0.2,0c-0.1,0-0.1,0.1-0.2,0.1c-0.1,0.1-0.1,0.1-0.1,0.2
			c0,0.1,0,0.2,0,0.3v1c0,0-0.1,0-0.1,0c0,0-0.1,0-0.1,0c0,0-0.1,0-0.1,0c0,0-0.1,0-0.1,0V28.9z"/>
		<path class="st0" d="M41.2,30.6c0,0,0,0.1,0.1,0.1c0,0.1,0,0.1,0,0.2c-0.2,0.1-0.3,0.1-0.5,0.1c-0.3,0-0.6-0.1-0.8-0.3
			c-0.2-0.2-0.3-0.5-0.3-0.8c0-0.2,0-0.3,0.1-0.4c0-0.1,0.1-0.2,0.2-0.3c0.1-0.1,0.2-0.2,0.3-0.2c0.1-0.1,0.3-0.1,0.4-0.1
			c0.1,0,0.2,0,0.3,0c0.1,0,0.2,0,0.2,0.1c0,0,0,0.1,0,0.2c0,0.1,0,0.1-0.1,0.2c-0.1,0-0.3-0.1-0.5-0.1c-0.2,0-0.4,0.1-0.5,0.2
			c-0.1,0.1-0.2,0.3-0.2,0.5c0,0.3,0.1,0.4,0.2,0.6c0.1,0.1,0.3,0.2,0.5,0.2c0.1,0,0.2,0,0.2,0C41.1,30.7,41.1,30.7,41.2,30.6z"/>
		<path class="st0" d="M42.7,31.1c-0.2,0-0.3,0-0.4-0.1c-0.1-0.1-0.2-0.1-0.3-0.2c-0.1-0.1-0.1-0.2-0.2-0.3c0-0.1-0.1-0.3-0.1-0.4
			c0-0.2,0-0.3,0.1-0.4c0-0.1,0.1-0.2,0.2-0.3c0.1-0.1,0.2-0.2,0.3-0.2c0.1-0.1,0.3-0.1,0.4-0.1c0.2,0,0.3,0,0.4,0.1
			c0.1,0.1,0.2,0.1,0.3,0.2c0.1,0.1,0.1,0.2,0.2,0.3c0,0.1,0.1,0.3,0.1,0.4c0,0.2,0,0.3-0.1,0.4c0,0.1-0.1,0.2-0.2,0.3
			c-0.1,0.1-0.2,0.2-0.3,0.2C43,31,42.8,31.1,42.7,31.1z M42.7,30.7c0.2,0,0.3-0.1,0.4-0.2c0.1-0.1,0.1-0.3,0.1-0.6
			c0-0.2,0-0.4-0.1-0.6c-0.1-0.1-0.2-0.2-0.4-0.2c-0.2,0-0.3,0.1-0.4,0.2c-0.1,0.1-0.1,0.3-0.1,0.6c0,0.2,0,0.4,0.1,0.6
			C42.3,30.7,42.5,30.7,42.7,30.7z"/>
		<path class="st0" d="M46.4,29.6c0-0.2,0-0.3-0.1-0.3c-0.1-0.1-0.2-0.1-0.4-0.1c-0.1,0-0.2,0-0.3,0c-0.1,0-0.2,0-0.2,0.1
			c-0.1-0.1-0.1-0.2-0.1-0.3c0.1,0,0.2-0.1,0.3-0.1c0.1,0,0.2,0,0.3,0c0.3,0,0.5,0.1,0.6,0.2c0.1,0.1,0.2,0.3,0.2,0.6v1.3
			c-0.1,0-0.2,0-0.3,0.1c-0.1,0-0.3,0-0.4,0c-0.1,0-0.3,0-0.4,0c-0.1,0-0.2-0.1-0.3-0.1c-0.1-0.1-0.1-0.1-0.2-0.2
			c0-0.1-0.1-0.2-0.1-0.3c0-0.1,0-0.2,0.1-0.3c0-0.1,0.1-0.2,0.2-0.2c0.1-0.1,0.2-0.1,0.3-0.1c0.1,0,0.2,0,0.3,0c0.1,0,0.2,0,0.2,0
			C46.4,29.7,46.4,29.7,46.4,29.6L46.4,29.6z M46.4,30c0,0-0.1,0-0.2,0c-0.1,0-0.1,0-0.2,0c-0.2,0-0.3,0-0.4,0.1
			c-0.1,0.1-0.1,0.2-0.1,0.3c0,0.1,0,0.1,0,0.2c0,0,0.1,0.1,0.1,0.1c0,0,0.1,0,0.1,0c0.1,0,0.1,0,0.2,0c0.1,0,0.1,0,0.2,0
			c0.1,0,0.1,0,0.2,0V30z"/>
		<path class="st0" d="M47.6,28.9C47.6,28.9,47.6,28.9,47.6,28.9c0.1,0,0.1,0,0.2,0c0,0,0.1,0,0.1,0c0,0,0.1,0,0.1,0
			c0,0,0,0.1,0,0.2c0,0.1,0,0.1,0,0.2c0,0,0.1-0.1,0.1-0.1c0,0,0.1-0.1,0.1-0.1c0,0,0.1-0.1,0.2-0.1c0.1,0,0.1,0,0.2,0
			c0.2,0,0.3,0,0.4,0.1c0.1,0.1,0.2,0.2,0.2,0.3c0,0,0.1-0.1,0.1-0.1c0,0,0.1-0.1,0.1-0.1c0,0,0.1-0.1,0.2-0.1c0.1,0,0.1,0,0.2,0
			c0.2,0,0.4,0.1,0.5,0.2c0.1,0.1,0.2,0.3,0.2,0.6V31c0,0-0.1,0-0.1,0c0,0-0.1,0-0.1,0c0,0-0.1,0-0.1,0c0,0-0.1,0-0.1,0v-1.2
			c0-0.2,0-0.3-0.1-0.4c-0.1-0.1-0.1-0.1-0.3-0.1c-0.1,0-0.2,0-0.3,0.1c-0.1,0.1-0.1,0.2-0.1,0.4V31c0,0-0.1,0-0.1,0
			c0,0-0.1,0-0.1,0c0,0-0.1,0-0.1,0c0,0-0.1,0-0.1,0v-1.2c0-0.2,0-0.3-0.1-0.4c-0.1-0.1-0.1-0.1-0.3-0.1c-0.1,0-0.1,0-0.2,0
			c-0.1,0-0.1,0.1-0.2,0.1c0,0.1-0.1,0.1-0.1,0.2c0,0.1,0,0.2,0,0.3V31c0,0-0.1,0-0.1,0c0,0-0.1,0-0.1,0c0,0-0.1,0-0.1,0
			c0,0-0.1,0-0.1,0V28.9z"/>
		<path class="st0" d="M51.2,29.2H51c0,0,0,0,0-0.1c0,0,0-0.1,0-0.1c0,0,0-0.1,0-0.1c0,0,0-0.1,0-0.1h0.7V31c0,0-0.1,0-0.1,0
			c0,0-0.1,0-0.1,0c0,0-0.1,0-0.1,0c0,0-0.1,0-0.1,0V29.2z M51.2,28.5c0,0,0-0.1,0-0.1c0,0,0-0.1,0-0.1c0,0,0-0.1,0-0.1
			c0,0,0-0.1,0-0.1c0,0,0.1,0,0.1,0c0,0,0.1,0,0.1,0c0,0,0.1,0,0.1,0c0,0,0.1,0,0.1,0c0,0,0,0.1,0,0.1c0,0,0,0.1,0,0.1
			c0,0,0,0.1,0,0.1c0,0,0,0.1,0,0.1c0,0-0.1,0-0.1,0c0,0-0.1,0-0.1,0c0,0-0.1,0-0.1,0C51.2,28.5,51.2,28.5,51.2,28.5z"/>
		<path class="st0" d="M53.5,30.7c0.2,0,0.4,0.1,0.5,0.2c0.1,0.1,0.2,0.2,0.2,0.4c0,0.1,0,0.2-0.1,0.3c-0.1,0.1-0.1,0.2-0.2,0.2
			c-0.1,0.1-0.2,0.1-0.4,0.1c-0.1,0-0.3,0.1-0.4,0.1c-0.3,0-0.5,0-0.6-0.1c-0.1-0.1-0.2-0.2-0.2-0.4c0-0.1,0-0.2,0.1-0.3
			c0.1-0.1,0.1-0.2,0.2-0.2c-0.1,0-0.1-0.1-0.1-0.1c0-0.1-0.1-0.1-0.1-0.2c0-0.1,0-0.2,0.1-0.3c0-0.1,0.1-0.1,0.2-0.2
			c-0.1-0.1-0.2-0.1-0.2-0.2c-0.1-0.1-0.1-0.2-0.1-0.3c0-0.1,0-0.2,0.1-0.3c0-0.1,0.1-0.2,0.2-0.2c0.1-0.1,0.2-0.1,0.3-0.2
			c0.1,0,0.2-0.1,0.4-0.1c0.1,0,0.2,0,0.3,0.1c0.1,0,0.2,0.1,0.3,0.1c0.1,0,0.1-0.1,0.2-0.1c0.1,0,0.2,0,0.3,0c0,0.1,0,0.1,0,0.2
			c0,0,0,0.1,0,0.1c0,0,0,0.1,0,0.1h-0.4c0,0,0.1,0.1,0.1,0.1c0,0.1,0,0.1,0,0.2c0,0.1,0,0.2-0.1,0.3c0,0.1-0.1,0.2-0.2,0.2
			c-0.1,0.1-0.2,0.1-0.3,0.1c-0.1,0-0.2,0.1-0.3,0.1c-0.1,0-0.2,0-0.3,0c0,0-0.1,0.1-0.1,0.1c0,0-0.1,0.1-0.1,0.1c0,0,0,0.1,0.1,0.1
			c0,0,0.1,0.1,0.2,0.1L53.5,30.7z M53,31.1c-0.1,0-0.2,0-0.3,0.1c-0.1,0.1-0.1,0.1-0.1,0.2c0,0.1,0,0.1,0,0.1c0,0,0.1,0.1,0.1,0.1
			c0,0,0.1,0,0.2,0c0.1,0,0.1,0,0.2,0c0.2,0,0.4,0,0.5-0.1c0.1-0.1,0.2-0.2,0.2-0.3c0-0.1,0-0.1-0.1-0.2c-0.1,0-0.1-0.1-0.3-0.1
			L53,31.1z M53.2,30c0.1,0,0.3,0,0.3-0.1c0.1-0.1,0.1-0.2,0.1-0.3c0-0.1,0-0.2-0.1-0.3c-0.1-0.1-0.2-0.1-0.3-0.1
			c-0.1,0-0.3,0-0.3,0.1c-0.1,0.1-0.1,0.2-0.1,0.3c0,0.1,0,0.2,0.1,0.3C52.9,30,53,30,53.2,30z"/>
		<path class="st0" d="M55.6,31.1c-0.2,0-0.3,0-0.4-0.1c-0.1-0.1-0.2-0.1-0.3-0.2c-0.1-0.1-0.1-0.2-0.2-0.3c0-0.1-0.1-0.3-0.1-0.4
			c0-0.2,0-0.3,0.1-0.4c0-0.1,0.1-0.2,0.2-0.3c0.1-0.1,0.2-0.2,0.3-0.2c0.1-0.1,0.3-0.1,0.4-0.1c0.2,0,0.3,0,0.4,0.1
			c0.1,0.1,0.2,0.1,0.3,0.2c0.1,0.1,0.1,0.2,0.2,0.3c0,0.1,0.1,0.3,0.1,0.4c0,0.2,0,0.3-0.1,0.4c0,0.1-0.1,0.2-0.2,0.3
			c-0.1,0.1-0.2,0.2-0.3,0.2C55.9,31,55.7,31.1,55.6,31.1z M55.6,30.7c0.2,0,0.3-0.1,0.4-0.2c0.1-0.1,0.1-0.3,0.1-0.6
			c0-0.2,0-0.4-0.1-0.6c-0.1-0.1-0.2-0.2-0.4-0.2c-0.2,0-0.3,0.1-0.4,0.2C55.1,29.5,55,29.7,55,30c0,0.2,0,0.4,0.1,0.6
			C55.2,30.7,55.4,30.7,55.6,30.7z"/>
		<path class="st0" d="M57.1,31c0,0,0-0.1,0-0.1c0,0,0-0.1,0-0.1c0,0,0-0.1,0-0.1c0,0,0-0.1,0-0.1c0,0,0.1,0,0.1,0c0,0,0.1,0,0.1,0
			c0,0,0.1,0,0.1,0c0,0,0.1,0,0.1,0c0,0,0,0.1,0,0.1c0,0,0,0.1,0,0.1c0,0,0,0.1,0,0.1c0,0,0,0.1,0,0.1c0,0-0.1,0-0.1,0
			c0,0-0.1,0-0.1,0c0,0-0.1,0-0.1,0C57.2,31,57.1,31,57.1,31z"/>
	</g>
	<g>
		<g>
			<path class="st3" d="M27.4,34c-0.1,0-0.2-0.1-0.2-0.2c0-0.1,0.1-0.2,0.2-0.2c0.1,0,13.6-0.9,18.9-0.8c5.4,0.1,7.6,0.2,7.7,0.2
				c0.1,0,0.2,0.1,0.2,0.2c0,0.1-0.1,0.2-0.2,0.2c0,0-2.3-0.1-7.6-0.2C40.9,33.1,27.5,34,27.4,34C27.4,34,27.4,34,27.4,34z"/>
		</g>
		<g>
			<path class="st3" d="M56.4,33.4C56.4,33.4,56.4,33.4,56.4,33.4l-1.4-0.1c-0.1,0-0.2-0.1-0.2-0.2c0-0.1,0.1-0.2,0.2-0.2l1.4,0.1
				c0.1,0,0.2,0.1,0.2,0.2C56.6,33.3,56.5,33.4,56.4,33.4z"/>
		</g>
		<g>
			<path class="st3" d="M57.5,33.5C57.5,33.5,57.5,33.5,57.5,33.5l-0.4,0c-0.1,0-0.2-0.1-0.2-0.2c0-0.1,0.1-0.2,0.2-0.2l0.4,0
				c0.1,0,0.2,0.1,0.2,0.2C57.7,33.4,57.6,33.5,57.5,33.5z"/>
		</g>
	</g>
	<line class="st4" x1="77.7" y1="11.3" x2="77.7" y2="25.8"/>
</g>
</svg>
