<?xml version="1.0" encoding="UTF-8"?>
<svg width="132px" height="40px" viewBox="0 0 132 40" version="1.1" xmlns="http://www.w3.org/2000/svg" xmlns:xlink="http://www.w3.org/1999/xlink">
    <!-- Generator: Sketch 54.1 (76490) - https://sketchapp.com -->
    <title>Artboard</title>
    <desc>Created with Sketch.</desc>
    <g id="Artboard" stroke="none" stroke-width="1" fill="none" fill-rule="evenodd">
        <g id="Group" transform="translate(1.000000, 1.000000)" fill="#FFFFFF" fill-rule="nonzero">
            <path d="M93.4300798,5.34370051 L82.0929001,26.611888 C81.8464397,27.074738 81.1489101,27.074738 80.9024497,26.611888 L69.5559696,5.34370051 C69.4443648,5.13289753 69.2165052,5 68.974695,5 L63.492113,5 C63.1200972,5 62.8829372,5.38952724 63.0596447,5.71489706 L80.9210505,38.6597365 C81.1675109,39.1134212 81.8324891,39.1134212 82.0789495,38.6597365 L99.9403553,5.71489706 C100.117063,5.38952724 99.8799028,5 99.507887,5 L94.0160046,5 C93.7695442,5 93.5463348,5.13289753 93.4300798,5.34370051 Z" id="Path"></path>
            <path d="M99.5660952,33.6517168 L110.9047,12.3835293 C111.151191,11.9206793 111.848809,11.9206793 112.0953,12.3835293 L123.443206,33.6517168 C123.554825,33.8625198 123.782713,33.9954173 124.024554,33.9954173 L129.507825,33.9954173 C129.879888,33.9954173 130.117078,33.6058901 129.940348,33.2805203 L112.081348,0.340263504 C111.834856,-0.113421168 111.169795,-0.113421168 110.923303,0.340263504 L93.0596522,33.2851029 C92.8829225,33.6104728 93.1201123,34 93.4921748,34 L98.9847475,34 C99.2312389,34 99.4544764,33.8671025 99.5660952,33.6517168 Z" id="Path"></path>
            <path d="M23.646998,20.6894879 C25.9877841,19.5256065 27.4502006,16.9962264 27.4502006,13.8894879 C27.4502006,8.59703504 23.3066873,5 17.4570215,5 L0.648429934,5 C0.289724013,5.00458221 0,5.29326146 0,5.65067385 L0,38.3539084 C0,38.7113208 0.289724013,39 0.648429934,39 L16.7166157,39 C24.7599061,39 28.9999941,35.5495957 28.9999941,28.8 C29.0045929,22.2107817 23.646998,20.6894879 23.646998,20.6894879 Z M6.2957488,9.9212938 L16.2613351,9.9212938 C19.9357714,9.9212938 21.8074805,11.4884097 21.8074805,14.3752022 C21.8074805,17.2757412 19.944969,18.8291105 16.2613351,18.8291105 L6.2957488,18.8291105 C5.93704287,18.8291105 5.64731886,18.5404313 5.64731886,18.1830189 L5.64731886,10.5719677 C5.64272007,10.209973 5.93704287,9.9212938 6.2957488,9.9212938 Z M16.3947001,34.074124 L6.28655121,34.074124 C5.92784529,34.074124 5.63812127,33.7854447 5.63812127,33.4280323 L5.63812127,24.396496 C5.63812127,24.0390836 5.92784529,23.7504043 6.28655121,23.7504043 L16.3947001,23.7504043 C21.2142361,23.7504043 23.3618728,25.1113208 23.3618728,28.9145553 C23.3618728,32.7177898 21.260224,34.074124 16.3947001,34.074124 Z" id="Shape"></path>
            <path d="M57.6470004,20.6916026 C59.9877868,19.5275644 61.4502034,16.9978434 61.4502034,13.8906861 C61.4502034,8.59751988 57.3066897,5 51.4570233,5 L34.64843,5 C34.289724,5 34,5.28871816 34,5.64617873 L34,38.3538213 C34,38.7112818 34.289724,39 34.64843,39 L50.7166174,39 C58.7599087,39 62.999997,35.5491306 62.999997,28.7986252 C63.0045958,22.2131015 57.6470004,20.6916026 57.6470004,20.6916026 Z M40.2957494,9.92195714 L50.2613367,9.92195714 C53.9357734,9.92195714 55.8074827,11.4892843 55.8074827,14.3764658 C55.8074827,17.2773959 53.944971,18.8309745 50.2613367,18.8309745 L40.2957494,18.8309745 C39.9370435,18.8309745 39.6473194,18.5422564 39.6473194,18.1847958 L39.6473194,10.5727187 C39.6427206,10.2106753 39.9370435,9.92195714 40.2957494,9.92195714 Z M50.3947018,34.0780429 L40.2865518,34.0780429 C39.9278459,34.0780429 39.6381218,33.7893247 39.6381218,33.4318641 L39.6381218,24.3991104 C39.6381218,24.0416498 39.9278459,23.7529317 40.2865518,23.7529317 L50.3947018,23.7529317 C55.2142382,23.7529317 57.3618752,25.1140315 57.3618752,28.9177787 C57.3618752,32.7215258 55.2602262,34.0780429 50.3947018,34.0780429 Z" id="Shape"></path>
        </g>
    </g>
</svg>