<?xml version="1.0" encoding="UTF-8"?>
<svg width="53px" height="53px" viewBox="0 0 53 53" version="1.1" xmlns="http://www.w3.org/2000/svg" xmlns:xlink="http://www.w3.org/1999/xlink">
    <!-- Generator: Sketch 60 (88103) - https://sketch.com -->
    <title>🖼 Illustration Copy 2</title>
    <desc>Created with Sketch.</desc>
    <defs>
        <linearGradient x1="26.5203405%" y1="5.84303349%" x2="73.4767357%" y2="94.1569868%" id="linearGradient-1">
            <stop stop-color="#142649" stop-opacity="0.5" offset="0%"></stop>
            <stop stop-color="#142649" stop-opacity="0" offset="100%"></stop>
        </linearGradient>
        <linearGradient x1="24.4362235%" y1="28.1187754%" x2="61.2234439%" y2="53.1981374%" id="linearGradient-2">
            <stop stop-color="#FFFFFF" stop-opacity="0.6" offset="0%"></stop>
            <stop stop-color="#FFFFFF" stop-opacity="0.2" offset="100%"></stop>
        </linearGradient>
    </defs>
    <g id="--⎿--Envio-dinero-inmediato-a-no-cliente---Net" stroke="none" stroke-width="1" fill="none" fill-rule="evenodd">
        <g id="CC-03-01-00-08" transform="translate(-205.000000, -504.000000)">
            <g id="Emoticons/Weary" transform="translate(188.000000, 487.000000)">
                <g id="Weary" transform="translate(17.066667, 17.066667)">
                    <path d="M52.6666706,29.6617597 C52.6740465,42.3594592 42.3866411,52.6590304 29.6889417,52.6666621 C16.9912423,52.6742853 6.69147055,42.3870808 6.68359093,29.6893815 C6.67572034,16.9916823 16.9627239,6.69170991 29.660423,6.68358243 C35.7583903,6.67968625 41.6081308,9.0984453 45.9226771,13.4077272 C50.2372234,17.7170091 52.6631226,23.5637922 52.6666706,29.6617597" id="Path" fill="url(#linearGradient-1)" fill-rule="nonzero"></path>
                    <path d="M46.0178342,23.0182741 C46.0178342,35.7291201 35.7090694,46.0098139 23.0436717,46.0098139 C10.3782741,46.0098139 0.0347546531,35.6903553 0.0347546531,23.0182741 C0.0347546531,10.3461929 10.3421827,0.0267343486 23.0075804,0.0267343486 L23.0075804,0.0267343486 C35.7063959,0.0267343486 46.0178342,10.3087648 46.0178342,23.0182741" id="Path" fill="#FFCC28" fill-rule="nonzero"></path>
                    <path d="M23.0089171,0.0267121607 C10.3421827,0.0267121607 0.0347546531,10.3435195 0.0347546531,23.0182741 C0.0347546531,31.8539763 5.05947547,39.542775 12.3953807,43.3911844 L33.8550423,2.73626058 C30.5184971,0.952298187 26.7924377,0.021472143 23.0089171,0.0267121607 Z" id="Path" fill="url(#linearGradient-2)" fill-rule="nonzero"></path>
                    <path d="M29.2741117,10.9610829 C28.2180597,10.9728321 27.1789124,10.6954796 26.2691709,10.1590525 C26.1309448,10.0722808 25.9539208,10.0779348 25.8215136,10.1733502 C25.6891063,10.2687656 25.6277324,10.4349062 25.6663113,10.5934856 C26.1035538,12.227442 27.584001,13.3638151 29.2754484,13.3638151 C30.9668958,13.3638151 32.447343,12.227442 32.8845854,10.5934856 C32.9236964,10.434493 32.8622213,10.2676912 32.7292854,10.1721067 C32.5963496,10.0765223 32.418655,10.0713548 32.2803892,10.1590525 C31.370391,10.6960326 30.3306589,10.9734178 29.2741117,10.9610829 L29.2741117,10.9610829 Z" id="Path" fill="#003267" fill-rule="nonzero"></path>
                    <path d="M16.7731303,10.9610829 C15.7170784,10.9728321 14.677931,10.6954796 13.7681895,10.1590525 C13.6299634,10.0722808 13.4529394,10.0779348 13.3205322,10.1733502 C13.188125,10.2687656 13.126751,10.4349062 13.1653299,10.5934856 C13.6007044,12.2292413 15.0817628,13.3676624 16.774467,13.3676624 C18.4671712,13.3676624 19.9482296,12.2292413 20.3836041,10.5934856 C20.422183,10.4349062 20.3608091,10.2687656 20.2284018,10.1733502 C20.0959946,10.0779348 19.9189706,10.0722808 19.7807445,10.1590525 C18.870224,10.6959514 17.8300874,10.9733211 16.7731303,10.9610829 Z" id="Path" fill="#003267" fill-rule="nonzero"></path>
                    <path d="M29.0856345,19.8355499 C27.0343512,20.1286465 24.9647386,20.2747211 22.8926227,20.2726565 C20.8985226,20.2759229 18.9065622,20.1419345 16.9308629,19.8716413 C14.8196783,21.77932 13.6208685,24.4958444 13.6344025,27.3412183 L13.6344025,27.3706261 C13.6421839,27.9966135 13.9571641,28.5788097 14.4769446,28.9277327 C14.996725,29.2766557 15.6548429,29.3476896 16.2371066,29.1177157 C20.6155341,27.5029703 25.426361,27.5029703 29.8047885,29.1177157 C30.3868981,29.3478091 31.0449491,29.2767925 31.5645641,28.9278013 C32.084179,28.5788102 32.398841,27.9965196 32.4060406,27.3706261 L32.4060406,27.3412183 C32.4238735,24.47954 31.2151536,21.7472687 29.0856345,19.8355499 L29.0856345,19.8355499 Z" id="Path" fill="#003267" fill-rule="nonzero"></path>
                    <path d="M23.0262944,17.5109983 C20.770639,17.5149607 18.5968854,18.3567365 16.9268528,19.872978 C18.9038971,20.1432656 20.8971907,20.2772535 22.8926227,20.2739932 C24.9660702,20.2760529 27.0370157,20.1299789 29.0896447,19.8368866 C27.4238869,18.3414123 25.2648626,17.5132152 23.0262944,17.5109983 Z" id="Path" fill="#CDEEFE" fill-rule="nonzero"></path>
                    <path d="M22.9915398,26.9094585 C21.2885618,26.9094585 20.2125042,27.2824027 18.8851438,28.3290525 L18.8717766,28.3410829 C21.6373084,27.756483 24.4950666,27.7619489 27.2583418,28.3571235 L27.2169036,28.3196954 C25.8574619,27.2850761 24.7199154,26.9094585 22.9915398,26.9094585 Z" id="Path" fill="#FF9098" fill-rule="nonzero"></path>
                    <path d="M22.9915398,26.9094585 C21.2885618,26.9094585 20.2125042,27.2824027 18.8851438,28.3290525 L18.8717766,28.3410829 C21.6373084,27.756483 24.4950666,27.7619489 27.2583418,28.3571235 L27.2169036,28.3196954 C25.8574619,27.2850761 24.7199154,26.9094585 22.9915398,26.9094585 Z" id="Path" fill="#FF9098" fill-rule="nonzero"></path>
                </g>
            </g>
        </g>
    </g>
</svg>