<?xml version="1.0" encoding="UTF-8"?>
<svg width="59px" height="59px" viewBox="0 0 59 59" version="1.1" xmlns="http://www.w3.org/2000/svg" xmlns:xlink="http://www.w3.org/1999/xlink">
    <!-- Generator: Sketch 60 (88103) - https://sketch.com -->
    <title>🖼 Illustration</title>
    <desc>Created with Sketch.</desc>
    <defs>
        <linearGradient x1="44.2749466%" y1="18.8033661%" x2="77.8116679%" y2="82.0923204%" id="linearGradient-1">
            <stop stop-color="#192647" offset="0%"></stop>
            <stop stop-color="#192647" stop-opacity="0.5" offset="0%"></stop>
            <stop stop-color="#192647" stop-opacity="0" offset="100%"></stop>
        </linearGradient>
        <linearGradient x1="100.004339%" y1="50.003136%" x2="0%" y2="50.003136%" id="linearGradient-2">
            <stop stop-color="#192647" offset="0%"></stop>
            <stop stop-color="#043263" stop-opacity="0.4" offset="0%"></stop>
            <stop stop-color="#043263" stop-opacity="0.1" offset="100%"></stop>
        </linearGradient>
        <linearGradient x1="-21.2302161%" y1="-49.8420825%" x2="85.5181301%" y2="86.0947206%" id="linearGradient-3">
            <stop stop-color="#FFFFFF" stop-opacity="0.5" offset="0%"></stop>
            <stop stop-color="#EDF8F9" stop-opacity="0.2" offset="100%"></stop>
            <stop stop-color="#FFFFFF" stop-opacity="0" offset="100%"></stop>
        </linearGradient>
    </defs>
    <g id="--⎿--Envio-dinero-inmediato-a-no-cliente---Net" stroke="none" stroke-width="1" fill="none" fill-rule="evenodd">
        <g id="CC-03-01-00-08" transform="translate(-202.000000, -309.000000)">
            <g id="Objects/Rocket" transform="translate(188.000000, 295.000000)">
                <g id="Rocket" transform="translate(14.266667, 14.266667)">
                    <path d="M56.368,20.7373333 C57.8292073,16.5177502 58.487217,12.0618258 58.308,7.6 L58.296,7.26933333 C58.279895,6.9706025 58.0401729,6.73260919 57.7413333,6.71866667 C53.2074317,6.59888979 48.6922352,7.34418229 44.4373333,8.91466667 L44.4146667,8.92266667 C37.4193232,11.4842301 31.4895325,16.325374 27.58,22.6666667 L25.564,25.9453333 L21.388,25.7986667 C18.4287709,25.694532 15.5594154,26.8251769 13.4666667,28.92 L7.26,35.1266667 C6.9519304,35.4343832 6.88533715,35.9091107 7.09685159,36.2897128 C7.30836604,36.6703149 7.74667153,36.8644518 8.17066667,36.7653333 L16.704,34.7826667 C17.2896818,34.6463513 17.9034936,34.6990971 18.4573333,34.9333333 L19.712,35.4666667 L18.0706667,38.1333333 C17.9670999,38.3045163 17.9929072,38.5241529 18.1333333,38.6666667 L18.9466667,39.4786667 L18.9466667,39.4786667 L18.0893333,40.3346667 C17.9333582,40.490836 17.9333582,40.7438306 18.0893333,40.9 L18.5026667,41.3133333 C17.6756762,42.0496917 16.9609819,42.9031921 16.3813333,43.8466667 L14.1866667,47.4186667 C13.5413862,48.4705318 13.6867441,49.8252763 14.540488,50.7163029 C15.3942319,51.6073296 16.7415305,51.8104256 17.82,51.2106667 L21.0066667,49.4373333 C22.1771623,48.7841215 23.2226563,47.9286763 24.0946667,46.9106667 L24.5186667,47.3346667 C24.5937207,47.4099818 24.6956727,47.4523154 24.802,47.4523154 C24.9083273,47.4523154 25.0102793,47.4099818 25.0853333,47.3346667 L25.9413333,46.4786667 L25.9666667,46.504 L26.3186667,46.8573333 C26.3859364,46.9239043 26.4729319,46.9669343 26.5666667,46.98 C26.5897342,46.9820067 26.6129325,46.9820067 26.636,46.98 C26.7075741,46.978418 26.7776494,46.9591817 26.84,46.924 L29.688,45.3386667 L30.292,46.764 C30.526682,47.3176958 30.5798949,47.9315115 30.444,48.5173333 L28.4613333,57.0506667 C28.3630901,57.474417 28.5575369,57.9119721 28.9378884,58.1230378 C29.31824,58.3341035 29.7924115,58.2675799 30.1,57.96 L36.3066667,51.7533333 C38.4020381,49.6593983 39.5322747,46.7884041 39.4266667,43.828 L39.2933333,39.988 L41.0946667,38.984 C45.8966344,36.3102497 49.9570622,32.4826056 52.9093333,27.8466667 C53.0106667,27.6866667 53.112,27.5266667 53.2106667,27.3653333 C53.9494993,26.1599683 54.6121292,24.9095215 55.1946667,23.6213333 C55.5946667,22.7253333 55.9946667,21.8146667 56.3186667,20.8786667 C56.3346667,20.8386667 56.3533333,20.7746667 56.368,20.7373333 Z" id="Path" fill="url(#linearGradient-1)" fill-rule="nonzero"></path>
                    <path d="M32.208,29.8666667 L32.4666667,37.176 C32.5726254,40.1362062 31.442883,43.0071717 29.348,45.1013333 L23.1413333,51.308 C22.8338738,51.6150942 22.3602552,51.6815504 21.9801524,51.470932 C21.6000496,51.2603136 21.4052943,50.8235054 21.5026667,50.4 L23.4853333,41.8666667 C23.623556,41.2774649 23.5703106,40.6595383 23.3333333,40.1026667 L21.5466667,35.884 L32.208,29.8666667 Z" id="Path" fill="#2DCCCD" fill-rule="nonzero"></path>
                    <path d="M19.268,36.52 C18.26387,34.8529711 16.8608641,33.4618784 15.1853333,32.472 C12.7903676,33.351264 10.7606872,35.0104174 9.42266667,37.1826667 L7.228,40.752 C6.57065221,41.822265 6.7333387,43.2037214 7.62133333,44.092 L7.62133333,44.092 C8.47887113,44.9499858 9.80171849,45.1345311 10.8613333,44.544 L14.0466667,42.7706667 C16.4994499,41.4035803 18.35939,39.1769717 19.268,36.52 L19.268,36.52 Z" id="Path" fill="#F8CD50" fill-rule="nonzero"></path>
                    <path d="M21.7333333,19.3933333 L14.424,19.1346667 C11.4637938,19.028708 8.5928283,20.1584503 6.49866667,22.2533333 L0.297333333,28.46 C-0.0102465312,28.7675885 -0.0767701563,29.24176 0.134295555,29.6221116 C0.345361266,30.0024631 0.782916381,30.1969099 1.20666667,30.0986667 L9.74,28.116 C10.3273718,27.9785229 10.9432381,28.0312847 11.4986667,28.2666667 L15.7173333,30.0533333 L21.7333333,19.3933333 Z" id="Path" fill="#2DCCCD" fill-rule="nonzero"></path>
                    <path d="M51.3493333,0.933333333 L51.3373333,0.602666667 C51.3212283,0.303935837 51.0815062,0.0659425248 50.7826667,0.052 C46.2486344,-0.0680040596 41.7333126,0.677761655 37.4786667,2.24933333 C42.3664971,5.15131218 46.4641245,9.21276244 49.4093333,14.0746667 C50.8703913,9.85366429 51.5283898,5.39645893 51.3493333,0.933333333 L51.3493333,0.933333333 Z" id="Path" fill="#2DCCCD" fill-rule="nonzero"></path>
                    <path d="M49.3866667,14.064 C46.4532539,9.19372445 42.3541174,5.12987 37.4586667,2.23866667 C30.4609347,4.80628283 24.5304232,9.65335357 20.6213333,16 L11.112,31.4666667 C11.0084332,31.6378496 11.0342405,31.8574862 11.1746667,32 L19.36,40.1853333 C19.4984845,40.3224875 19.7108578,40.3518178 19.8813333,40.2573333 L34.1333333,32.328 C41.2998229,28.333831 46.7335782,21.827574 49.3866667,14.064 Z" id="Path" fill="#1464A5" fill-rule="nonzero"></path>
                    <path d="M38.836,3.10666667 L18.6546667,39.4853333 L19.36,40.1906667 C19.4984845,40.3278208 19.7108578,40.3571512 19.8813333,40.2626667 L34.1333333,32.328 C41.3003282,28.3331848 46.7341478,21.8259007 49.3866667,14.0613333 C46.7371846,9.66369819 43.1310208,5.91944934 38.836,3.10666667 Z" id="Path" fill="url(#linearGradient-2)" fill-rule="nonzero"></path>
                    <circle id="Oval" fill="#D4EDFC" fill-rule="nonzero" cx="35.1906667" cy="16.4106667" r="6.236"></circle>
                    <circle id="Oval" fill="#49A5E6" fill-rule="nonzero" cx="35.1906667" cy="16.4106667" r="5.176"></circle>
                    <path d="M35.1906667,11.2359962 C32.827211,11.2359962 30.7639427,12.8369859 30.1769035,15.1263761 C29.5898642,17.4157663 30.6281712,19.8120348 32.7,20.9493333 L37.6426667,11.8533333 C36.8892825,11.4471221 36.0465839,11.2349582 35.1906667,11.2359962 L35.1906667,11.2359962 Z" id="Path" fill="url(#linearGradient-3)" fill-rule="nonzero" opacity="0.5"></path>
                    <path d="M9.96842645,36.0813742 L19.8657598,36.0813742 L19.8657598,37.2920409 C19.8657598,37.5129548 19.6866737,37.6920409 19.4657598,37.6920409 L10.3684265,37.6920409 C10.1475126,37.6920409 9.96842645,37.5129548 9.96842645,37.2920409 L9.96842645,36.0813742 L9.96842645,36.0813742 Z" id="Path" fill="#043263" fill-rule="nonzero" transform="translate(14.917093, 36.886708) rotate(45.000000) translate(-14.917093, -36.886708) "></path>
                </g>
            </g>
        </g>
    </g>
</svg>