<?xml version="1.0" encoding="UTF-8"?>
<svg width="23px" height="23px" viewBox="0 0 23 23" version="1.1" xmlns="http://www.w3.org/2000/svg" xmlns:xlink="http://www.w3.org/1999/xlink">
    <!-- Generator: Sketch 51.1 (57501) - http://www.bohemiancoding.com/sketch -->
    <title>Emoticons/Optimistas 1</title>
    <desc>Created with Sketch.</desc>
    <defs></defs>
    <g id="PagoFactura-1-Desktop-🔥" stroke="none" stroke-width="1" fill="none" fill-rule="evenodd">
        <g id="4-pagoFactura" transform="translate(-1065.000000, -439.000000)">
            <g id="Group-4" transform="translate(735.000000, 335.000000)">
                <g id="Group-5" transform="translate(22.000000, 104.000000)">
                    <g id="Emoticons/Optimistas-1" transform="translate(308.000000, 0.000000)">
                        <g>
                            <path d="M23,11.4992031 C23,17.8504844 17.8511755,22.9992559 11.5,22.9992559 C5.14882447,22.9992559 0,17.8504844 0,11.4992031 C0,5.14802752 5.14882447,0 11.5,0 C17.8511755,0 23,5.14802752 23,11.4992031" id="Shape" fill="#FFDE8A" fill-rule="nonzero"></path>
                            <path d="M21.440531,8.594111 L8.59490833,21.439734 C9.53863936,21.7155256 10.5167965,21.855702 11.5,21.8560528 C17.2196822,21.8560528 21.856744,17.2189381 21.856744,11.4992031 C21.8564131,10.5160057 21.7162726,9.53785064 21.440531,8.59411138" id="Shape" fill="#F0CD74" fill-rule="nonzero"></path>
                            <path d="M13.9441333,10.3159305 C13.7234867,10.225588 13.5663967,10.0557441 13.5417376,9.8129891 C13.5158039,9.55418467 13.7530309,9.46522412 14.0119431,9.43929047 L17.3665149,9.10119737 C17.6252132,9.07515753 17.7703988,8.97992603 17.7965448,9.23873047 C17.8226908,9.4975349 17.7289474,9.98368283 17.2893522,10.0265157 L14.1800865,10.32677 L13.9441333,10.3159305 Z" id="Shape" fill="#FFEEC3" fill-rule="nonzero"></path>
                            <ellipse id="Oval" fill="#FFEEC3" fill-rule="nonzero" cx="7.33064625" cy="9.49902262" rx="1.30114297" ry="1.61298348"></ellipse>
                            <path d="M15.7613967,14.0760862 C15.7567557,14.4403382 15.6490616,14.7958299 15.4507782,15.101419 C15.1469624,15.5889492 14.6133578,16.034284 13.9165521,16.3523955 C13.2208098,16.6709321 12.367021,16.8620325 11.4442534,16.8618202 L11.4075852,16.8620325 L11.4185869,17.2972692 L11.4201279,16.8619252 C10.1856796,16.8584177 9.07590273,16.5107589 8.30081807,15.9800772 C7.91282417,15.7153212 7.60938018,15.4067754 7.40669307,15.0799485 C7.2090058,14.7729806 7.10227112,14.416314 7.09883807,14.0512144 L7.09883807,14.0469629 L6.92846327,14.0477069 L7.09883807,14.0488761 L7.09883807,14.0469629 L6.92846327,14.0477069 L7.09883807,14.0488761 L6.73465223,14.0465378 L7.09846623,14.0630119 L7.09883807,14.0488761 L6.73465223,14.0465378 L7.09846623,14.0630119 L7.09878517,14.0558911 L7.09889135,14.0467505 C7.0991041,14.0224111 7.09952922,14.0026423 7.10037945,13.9875497 L6.23107298,13.9390837 C6.2288945,13.9772399 6.228469,14.010826 6.22825663,14.0398421 L6.66360063,14.0433492 L6.22868175,14.0235803 L6.22815045,14.0470694 L6.22815045,14.0512144 L6.22820335,14.0512144 C6.23169222,14.5785976 6.38377397,15.0943162 6.66700157,15.5392063 C7.0851799,16.2106097 7.75647745,16.7518139 8.57625495,17.1314645 C9.39698887,17.5105835 10.3714111,17.7285744 11.4169915,17.732507 L11.424325,17.732507 L11.429533,17.7324005 L11.4286828,17.698602 L11.4290017,17.7324005 L11.429533,17.7324005 L11.4286828,17.698602 L11.4290017,17.7324005 L11.4442534,17.7324005 C12.8339851,17.731444 14.0994692,17.3545568 15.044663,16.7159956 C15.5167813,16.3961836 15.9097176,16.0089867 16.1888747,15.5633333 C16.4730893,15.120146 16.6266762,14.6058438 16.6320303,14.0793798 L15.7614488,14.0761913 L15.7613967,14.0760862 Z" id="Shape" fill="#FFEFC8" fill-rule="nonzero"></path>
                            <path d="M15.7280233,13.411379 C15.7234919,13.7553199 15.6215768,14.090934 15.4340917,14.3793179 C15.1447835,14.8443154 14.62845,15.2781713 13.9469501,15.5890554 C13.2667251,15.9005773 12.4278165,16.0889144 11.5200353,16.0885954 C11.5156776,16.0885954 11.5027086,16.0882769 11.4804971,16.0888082 L11.4940484,16.632882 L11.4959616,16.088702 C10.2815474,16.0856196 9.19159158,15.7424247 8.437872,15.2258789 C8.06040022,14.9683502 7.76806293,14.6699014 7.57483533,14.3582732 C7.38780567,14.0685182 7.28673727,13.7316846 7.28334867,13.3868272 L7.28334867,13.3820444 L7.00737895,13.3833197 L7.28334867,13.3851264 L7.28334867,13.3820444 L7.00737895,13.3833197 L7.28334867,13.3851264 L6.81096432,13.3821506 L7.28287027,13.4036203 L7.28334867,13.3851264 L6.81096432,13.3821506 L7.28287027,13.4036203 L7.2832421,13.3944797 L7.28340157,13.3832135 C7.28361432,13.3594055 7.28398615,13.3400617 7.2847302,13.3248629 C7.29879854,13.0248352 7.06711638,12.7701471 6.76710026,12.7558327 C6.46708414,12.7415182 6.21220611,12.9729914 6.19764555,13.2729956 C6.19578562,13.3110457 6.19530722,13.3450569 6.19509485,13.3746043 L6.73927485,13.378962 L6.19562615,13.3541987 L6.19498867,13.382683 L6.19498867,13.3873597 L6.30026388,13.3868284 L6.19504233,13.3868284 L6.19498943,13.3873597 L6.30026465,13.3868284 L6.19504233,13.3868284 C6.19855374,13.934524 6.35630203,14.4701499 6.6502085,14.9323207 C7.08273615,15.6263625 7.77119822,16.1790452 8.60617412,16.5660298 C9.44242575,16.9521634 10.4315691,17.1729178 11.4920819,17.1769566 L11.5040921,17.1769566 L11.5075463,17.1768504 L11.504145,17.0408054 L11.5054736,17.1768504 L11.5075463,17.1768504 L11.504145,17.0408054 L11.5054736,17.1768504 L11.5200349,17.1768504 C12.9296417,17.1756812 14.2148414,16.7943301 15.1813455,16.1417392 C15.6640388,15.8146999 16.0680825,15.417406 16.3566999,14.95666 C16.6516539,14.496253 16.8109474,13.96207 16.81633,13.4153127 C16.8173867,13.1147997 16.5746293,12.8703292 16.2741163,12.8692726 C15.9736033,12.868216 15.7291328,13.1109733 15.7280762,13.4114863 L15.7280233,13.411379 Z" id="Shape" fill="#BD253B" fill-rule="nonzero"></path>
                            <path d="M13.9728304,10.0950699 C13.7220267,10.0947872 13.5154411,9.89800662 13.5029727,9.64751283 C13.4905044,9.39701903 13.6765278,9.18069635 13.9260638,9.15550918 L17.280848,8.81741608 C17.4482477,8.80055649 17.6119258,8.87428426 17.7102265,9.01082685 C17.8085272,9.14736944 17.8265162,9.32598278 17.7574172,9.47938496 C17.6883181,9.63278714 17.5426289,9.73767271 17.3752293,9.7545323 L14.0206574,10.0925173 L13.9728304,10.0950699 Z" id="Shape" fill="#7A5D1F" fill-rule="nonzero"></path>
                            <path d="M17.3280398,11.4995216 L14.0113056,11.4995216 C14.0113056,11.4995216 15.6697789,10.0925188 17.3280398,11.4995216 Z" id="Shape" fill="#FFDE8A" fill-rule="nonzero"></path>
                            <ellipse id="Oval" fill="#7A5D1F" fill-rule="nonzero" cx="7.33064625" cy="9.09875285" rx="1.30114297" ry="1.61298348"></ellipse>
                            <path d="M10.8002185,1.05488005 C5.57566575,1.4003067 1.40057273,5.57518735 1.05535845,10.7995277 L10.8002185,1.05488005 Z" id="Shape" fill="#FFEFC8" fill-rule="nonzero"></path>
                        </g>
                    </g>
                </g>
            </g>
        </g>
    </g>
</svg>