<?xml version="1.0" encoding="UTF-8"?>
<svg width="98px" height="128px" viewBox="0 0 98 128" version="1.1" xmlns="http://www.w3.org/2000/svg" xmlns:xlink="http://www.w3.org/1999/xlink">
    <!-- Generator: sketchtool 63.1 (101010) - https://sketch.com -->
    <title>A04807E5-8004-4B1E-A068-B63F540AB90D</title>
    <desc>Created with sketchtool.</desc>
    <defs>
        <linearGradient x1="37.0641619%" y1="1.03244838%" x2="75.0585142%" y2="99.0100495%" id="linearGradient-1">
            <stop stop-color="#192647" stop-opacity="0.5" offset="0%"></stop>
            <stop stop-color="#192647" stop-opacity="0" offset="100%"></stop>
        </linearGradient>
        <linearGradient x1="28.052615%" y1="20.8025907%" x2="62.7754559%" y2="66.9982973%" id="linearGradient-2">
            <stop stop-color="#FFFFFF" stop-opacity="0.5" offset="0%"></stop>
            <stop stop-color="#EDF6F7" stop-opacity="0.1" offset="100%"></stop>
        </linearGradient>
        <linearGradient x1="99.9999955%" y1="50.00929%" x2="0%" y2="50.00929%" id="linearGradient-3">
            <stop stop-color="#49A5E6" stop-opacity="0.2" offset="0%"></stop>
            <stop stop-color="#49A5E6" stop-opacity="0" offset="100%"></stop>
        </linearGradient>
    </defs>
    <g id="Assets" stroke="none" stroke-width="1" fill="none" fill-rule="evenodd">
        <g id="PSE--00-00-10" transform="translate(-877.000000, -206.000000)">
            <g id="ðŸŒ-Micro" transform="translate(876.000000, 206.000000)">
                <g id="Notifications/Mobile-Notifications-Copy-3" transform="translate(0.956250, 0.000000)">
                    <g id="Password_SMS" transform="translate(0.872500, 0.733333)">
                        <path d="M96.8166804,28.4431988 L96.8166804,28.4431988 L96.8166804,20.4556866 C96.8166804,18.8246973 96.1700054,17.2605091 95.0189165,16.1072256 C93.8678276,14.953942 92.306616,14.306034 90.6787304,14.306034 L39.4682826,14.306034 C36.0783864,14.306034 33.3303326,17.0593273 33.3303326,20.4556866 L33.3303326,38.1306608 L21.0094865,38.1306608 C17.4411748,38.1306608 14.5484865,41.0288642 14.5484865,44.6039793 L14.5484865,85.518167 C14.5484865,89.0932822 17.4411748,91.9914856 21.0094865,91.9914856 L33.3303326,91.9914856 L33.3303326,120.741463 C33.3318827,124.137179 36.0790287,126.889563 39.4682826,126.891116 L90.6787304,126.891116 C94.0686266,126.891116 96.8166804,124.137823 96.8166804,120.741463 L96.8166804,35.9297324 L96.8166804,35.9297324 L96.8166804,28.4431988 Z" id="Path" fill="url(#linearGradient-1)" fill-rule="nonzero"></path>
                        <path d="M25.0230186,0.233602365 L76.2292788,0.233602365 C79.6203314,0.233602365 82.3693226,2.98689563 82.3693226,6.38325499 L82.3693226,106.663403 C82.3693226,110.059762 79.6203314,112.813055 76.2292788,112.813055 L25.0230186,112.813055 C21.631966,112.813055 18.8829748,110.059762 18.8829748,106.663403 L18.8829748,6.38325499 C18.8829748,2.98689563 21.631966,0.233602365 25.0230186,0.233602365 Z" id="Rectangle" fill="#1464A5" fill-rule="nonzero"></path>
                        <rect id="Rectangle" fill="#49A5E6" fill-rule="nonzero" x="18.8829748" y="14.3707672" width="63.4863478" height="84.3023089"></rect>
                        <polygon id="Path" fill="url(#linearGradient-2)" opacity="0.5" points="18.8829748 14.3707672 18.8829748 98.6730761 40.7745283 98.6730761 82.3693226 21.8573008 82.3693226 14.3707672"></polygon>
                        <path d="M65.4527391,24.0582071 L6.5621287,24.0582071 C2.99381693,24.0582071 0.101128696,26.9564326 0.101128696,30.5315477 L0.101128696,71.4457354 C0.101128696,75.0208505 2.99381693,77.919054 6.5621287,77.919054 L60.0367357,77.919054 L70.4923191,88.3748707 C70.7333277,88.6160387 71.0955429,88.6881322 71.410257,88.5575724 C71.7249711,88.4270127 71.9305939,88.1194748 71.9305939,87.7781996 L71.9305939,84.1756571 L71.9305939,30.5315477 C71.9305939,28.811787 71.247576,27.1627088 70.0322557,25.9482394 C68.8169353,24.7337701 67.1692213,24.0537428 65.4527391,24.0582071 Z" id="Path" fill="#D4EDFC" fill-rule="nonzero"></path>
                        <path d="M65.4527391,24.058207 L44.344933,24.058207 L15.5232548,77.919054 L60.0367357,77.919054 L70.4923191,88.3748707 C70.7336893,88.6164023 71.0965866,88.6883175 71.4115561,88.5570354 C71.7265256,88.4257533 71.9314319,88.1171726 71.9305965,87.7753851 L71.9305965,30.5202897 C71.9276179,28.8024807 71.2432787,27.1562966 70.0282823,25.9442626 C68.813286,24.7322287 67.167276,24.0537453 65.4527391,24.058207 Z" id="Path" fill="url(#linearGradient-3)" fill-rule="nonzero"></path>
                        <path d="M52.1065604,44.468884 L19.9251622,44.468884 C16.0465624,44.468884 12.9023361,47.6191051 12.9023361,51.5050998 L12.9023361,51.5050998 C12.9023361,55.3910945 16.0465624,58.5413156 19.9251622,58.5413156 L52.1065604,58.5413156 C55.9851602,58.5413156 59.1293865,55.3910945 59.1293865,51.5050998 L59.1293865,51.5050998 C59.1293865,47.6191051 55.9851602,44.468884 52.1065604,44.468884 Z" id="Path" fill="#1D447D" fill-rule="nonzero"></path>
                        <polygon id="Path" fill="#EAF9FA" fill-rule="nonzero" points="25.5658961 52.0370377 23.5938865 51.9075713 24.7203478 53.5230865 23.7174883 54.1253865 22.8522761 52.3353732 22.0067278 54.1253865 21.0038683 53.5230865 22.1106657 51.9075713 20.1386561 52.0370377 20.1386561 50.9140576 22.1219022 51.054782 21.0038683 49.4280089 22.0067278 48.8257088 22.8522761 50.6100931 23.7034426 48.8257088 24.7203478 49.4280089 23.5938865 51.054782 25.5658961 50.9140576"></polygon>
                        <polygon id="Path" fill="#EAF9FA" fill-rule="nonzero" points="34.265773 52.0370377 32.2937635 51.9075713 33.4202248 53.5230865 32.4145561 54.1253865 31.552153 52.3353732 30.7066048 54.1253865 29.7009361 53.5230865 30.8105426 51.9075713 28.838533 52.0370377 28.838533 50.9140576 30.8217791 51.054782 29.7009361 49.4280089 30.7066048 48.8257088 31.552153 50.6100931 32.4033196 48.8257088 33.4202248 49.4280089 32.2937635 51.054782 34.265773 50.9140576"></polygon>
                        <polygon id="Path" fill="#EAF9FA" fill-rule="nonzero" points="42.96565 52.0370377 40.9908313 51.9075713 42.1172926 53.5230865 41.114433 54.1253865 40.25203 52.3353732 39.4036726 54.1253865 38.400813 53.5230865 39.5104196 51.9075713 37.53841 52.0370377 37.53841 50.9140576 39.5216561 51.054782 38.400813 49.4280089 39.4036726 48.8257088 40.25203 50.6100931 41.1031965 48.8257088 42.1172926 49.4280089 40.9908313 51.054782 42.96565 50.9140576"></polygon>
                        <polygon id="Path" fill="#EAF9FA" fill-rule="nonzero" points="51.6627178 52.0370377 49.6907083 51.9075713 50.8171696 53.5230865 49.81431 54.1253865 48.9490978 52.3353732 48.1035496 54.1253865 47.10069 53.5230865 48.2074874 51.9075713 46.2354778 52.0370377 46.2354778 50.9140576 48.2187239 51.054782 47.10069 49.4280089 48.1035496 48.8257088 48.9490978 50.6100931 49.8030735 48.8257088 50.8171696 49.4280089 49.6907083 51.054782 51.6627178 50.9140576"></polygon>
                    </g>
                </g>
            </g>
        </g>
    </g>
</svg>