<?xml version="1.0" encoding="UTF-8"?>
<svg width="69px" height="19px" viewBox="0 0 69 19" version="1.1" xmlns="http://www.w3.org/2000/svg" xmlns:xlink="http://www.w3.org/1999/xlink">
    <title>2 Logos/Corporate/Aval/1Color Copy</title>
    <g id="Registro-mobile" stroke="none" stroke-width="1" fill="none" fill-rule="evenodd">
        <g id="footer-aval" transform="translate(-19.000000, -16.000000)" fill-rule="nonzero">
            <g id="Group" transform="translate(19.000000, 16.000000)">
                <g id="aval-01" transform="translate(0.625000, 0.000000)">
                    <g id="Group" transform="translate(8.833966, 0.000000)" fill="#005CB9">
                        <path d="M2.30942359,2.44477319 L4.98414951,2.44477319 C4.98414951,2.51084814 4.98414951,2.57692309 4.98414951,2.67603551 C4.98414951,3.3698225 4.74714848,3.96449706 4.30700371,4.42702171 C3.86685894,4.88954637 3.25742771,5.1208087 2.54642462,5.1208087 C1.83542152,5.1208087 1.2259903,4.88954637 0.751988236,4.39398424 C0.277986172,3.93145958 0.00712785057,3.33678502 0.00712785057,2.64299804 C0.00712785057,1.94921105 0.244128882,1.35453649 0.718130945,0.892011838 C1.19213301,0.429487181 1.80156423,0.165187377 2.51256733,0.165187377 C3.59600061,0.165187377 4.44243287,0.693786985 4.81486306,1.55276135 L4.30700371,1.71794872 C3.96843081,1.05719922 3.32514229,0.693786985 2.54642462,0.693786985 C2.00470797,0.693786985 1.53070591,0.892011838 1.15827572,1.25542407 C0.785845526,1.6188363 0.616559075,2.08136096 0.616559075,2.64299804 C0.616559075,3.20463512 0.819702816,3.6341223 1.19213301,4.03057201 C1.5645632,4.39398424 2.03856526,4.59220909 2.58028191,4.59220909 C3.08814126,4.59220909 3.49442874,4.42702171 3.83300165,4.12968443 C4.17157455,3.83234716 4.37471829,3.43589745 4.44243287,2.94033532 L2.30942359,2.94033532 L2.30942359,2.44477319 L2.30942359,2.44477319 Z" id="Shape"></path>
                        <path d="M9.28402537,1.51972387 L9.25016808,2.04832348 C9.21631079,2.04832348 9.14859621,2.04832348 9.04702434,2.04832348 C8.13287751,2.04832348 7.62501815,2.70907299 7.62501815,3.70019725 L7.62501815,5.05473375 L7.08330151,5.05473375 L7.08330151,1.55276135 L7.59116086,1.55276135 L7.59116086,2.41173571 C7.92973376,1.81706115 8.40373583,1.51972387 9.01316705,1.51972387 C9.14859621,1.51972387 9.21631079,1.51972387 9.28402537,1.51972387 Z" id="Shape"></path>
                        <path d="M14.261047,1.55276135 L14.261047,5.05473375 L13.7193304,5.05473375 L13.7193304,4.49309667 C13.4146148,4.92258385 12.97447,5.15384617 12.3650388,5.15384617 C11.924894,5.15384617 11.5863211,5.02169627 11.3154628,4.75739647 C11.0446045,4.49309667 10.9091753,4.12968443 10.9091753,3.66715978 L10.9091753,1.55276135 L11.4508919,1.55276135 L11.4508919,3.53500988 C11.4508919,4.19575939 11.8571794,4.62524657 12.4327534,4.62524657 C13.1776138,4.62524657 13.6854731,4.12968443 13.6854731,3.2376726 L13.6854731,1.55276135 L14.261047,1.55276135 Z" id="Shape"></path>
                        <path d="M19.7797853,1.98224853 C20.1183582,2.31262328 20.321502,2.77514794 20.321502,3.30374755 C20.321502,3.83234716 20.1522155,4.29487181 19.7797853,4.62524657 C19.4412124,4.95562132 19.0010677,5.15384617 18.5270656,5.15384617 C17.9176344,5.15384617 17.4436323,4.95562132 17.1050594,4.49309667 L17.1050594,6.24408287 L16.5633428,6.24408287 L16.5633428,1.55276135 L17.1050594,1.55276135 L17.1050594,2.11439843 C17.4436323,1.68491125 17.9176344,1.45364892 18.5270656,1.45364892 C19.0010677,1.45364892 19.4073552,1.6188363 19.7797853,1.98224853 Z M19.3734979,4.29487181 C19.6443562,4.03057201 19.7459281,3.70019725 19.7459281,3.30374755 C19.7459281,2.90729784 19.6104989,2.57692309 19.3734979,2.31262328 C19.1364968,2.04832348 18.7979239,1.94921105 18.4254937,1.94921105 C18.0869208,1.94921105 17.7483479,2.08136096 17.4774896,2.34566076 C17.2066313,2.60996056 17.0712021,2.90729784 17.0712021,3.33678502 C17.0712021,3.73323473 17.2066313,4.06360948 17.4774896,4.32790929 C17.7483479,4.59220909 18.0530635,4.69132152 18.4254937,4.69132152 C18.7979239,4.65828404 19.1026395,4.52613414 19.3734979,4.29487181 Z" id="Shape"></path>
                        <path d="M25.1630945,1.98224853 C25.5355247,2.31262328 25.7048111,2.74211046 25.7048111,3.30374755 C25.7048111,3.83234716 25.5355247,4.26183434 25.1630945,4.62524657 C24.7906643,4.9886588 24.3505195,5.15384617 23.8088029,5.15384617 C23.2670862,5.15384617 22.8269415,4.9886588 22.4545113,4.62524657 C22.0820811,4.26183434 21.9127946,3.83234716 21.9127946,3.30374755 C21.9127946,2.77514794 22.0820811,2.34566076 22.4545113,1.98224853 C22.8269415,1.6188363 23.2670862,1.45364892 23.8088029,1.45364892 C24.3505195,1.45364892 24.7906643,1.6188363 25.1630945,1.98224853 Z M24.756807,4.26183434 C25.0276653,3.99753453 25.1630945,3.66715978 25.1630945,3.27071007 C25.1630945,2.87426037 25.0276653,2.54388561 24.756807,2.31262328 C24.4859487,2.04832348 24.1812331,1.91617358 23.8088029,1.91617358 C23.4363727,1.91617358 23.0977998,2.04832348 22.8607988,2.31262328 C22.5899404,2.57692309 22.4545113,2.87426037 22.4545113,3.27071007 C22.4545113,3.66715978 22.5899404,3.99753453 22.8607988,4.26183434 C23.1316571,4.52613414 23.4363727,4.65828404 23.8088029,4.65828404 C24.1812331,4.65828404 24.4859487,4.52613414 24.756807,4.26183434 Z" id="Shape"></path>
                    </g>
                    <g id="Group" transform="translate(0.000000, 7.337740)">
                        <g id="Shape">
                            <g>
                                <polygon fill="#003764" points="8.82103287 3.96192271 16.2616751 11.3244957 18.9214522 8.68321394 11.48081 1.3206409"></polygon>
                                <path d="M10.8074487,0.660320451 C10.0667513,-0.0660320451 8.888369,-0.0660320451 8.14767158,0.660320451 L0,8.68321394 L2.65977709,11.3244957 L9.46072609,4.58922714 C10.9421209,3.13652214 13.3325535,3.13652214 14.7802803,4.58922714 L10.8074487,0.660320451 Z" fill="#005CB9"></path>
                                <polygon fill="#003764" points="44.2061685 3.96192271 51.6468108 11.3244957 54.3065879 8.68321394 46.8659456 1.3206409"></polygon>
                                <path d="M46.1925843,0.660320451 C45.4518869,-0.0660320451 44.2735047,-0.0660320451 43.5328073,0.660320451 L35.3514676,8.68321394 L38.0112447,11.3244957 L44.8121937,4.58922714 C46.2935885,3.13652214 48.6840211,3.13652214 50.1317479,4.58922714 L46.1925843,0.660320451 Z" fill="#0060A4"></path>
                            </g>
                            <polygon fill="#A32035" points="27.9781615 7.49463712 20.5038512 0.13206409 17.8440741 2.74032987 25.3183844 10.1029029"></polygon>
                            <path d="M25.9917457,10.7632234 C26.7324431,11.4895759 27.9108254,11.4895759 28.6515228,10.7632234 L36.7991944,2.74032987 L34.1394173,0.0990480677 L27.3384683,6.83431667 C25.8570735,8.28702167 23.4666409,8.28702167 21.985246,6.83431667 L25.9917457,10.7632234 Z" fill="#E1251B"></path>
                        </g>
                        <polygon id="Rectangle-path" fill="#003764" points="56.2930037 0.0990480677 59.8281504 0.0990480677 59.8281504 8.68321394 56.2930037 8.68321394"></polygon>
                        <path d="M56.2930037,9.54163052 C56.2930037,10.4990952 57.1010372,11.2914797 58.0774111,11.2914797 L67.8748178,11.2914797 L67.8748178,7.82479735 L59.8281504,7.82479735 C57.8754027,7.82479735 56.2930037,6.27304429 56.2930037,4.32509896 L56.2930037,9.54163052 Z" id="Shape" fill="#0060A4"></path>
                    </g>
                </g>
            </g>
        </g>
    </g>
</svg>