<svg width="144" height="48" viewBox="0 0 144 48" fill="none" xmlns="http://www.w3.org/2000/svg">
<path fill-rule="evenodd" clip-rule="evenodd" d="M75.6 9.27002H70.83L64.53 20.88H64.44L62.64 9.27002H57.96L60.84 26.28H65.88L75.6 9.27002Z" fill="#E1001D"/>
<path fill-rule="evenodd" clip-rule="evenodd" d="M101.43 26.2798H105.66L109.26 8.5498H104.94L101.43 26.2798Z" fill="#E1001D"/>
<path fill-rule="evenodd" clip-rule="evenodd" d="M129.78 25.3798C131.04 25.9198 132.84 26.7298 135.45 26.4598C139.86 26.0098 142.11 24.7498 142.47 21.5998C142.92 17.4598 136.08 18.8998 135.99 16.9198C135.99 16.0198 137.43 15.6598 138.42 15.6598C139.95 15.6598 141.48 16.4698 142.83 17.1898L143.46 13.8598C141.84 13.3198 139.41 13.0498 138.33 13.0498C135.09 13.0498 131.49 14.8498 131.49 17.8198C131.49 22.1398 137.97 20.6998 137.97 22.4998C137.97 23.5798 136.35 23.7598 135.63 23.7598C134.37 23.7598 132.3 23.3098 130.59 21.8698L129.78 25.3798Z" fill="#E1001D"/>
<path fill-rule="evenodd" clip-rule="evenodd" d="M96.3002 9.27002H91.6202L85.2302 20.88H85.1402L83.3402 9.27002H78.6602L81.5402 26.28H86.5802L96.3002 9.27002Z" fill="#E1001D"/>
<path fill-rule="evenodd" clip-rule="evenodd" d="M108.63 26.2798H112.95L116.46 8.5498H112.14L108.63 26.2798Z" fill="#E1001D"/>
<path d="M123.39 26.2796H127.89C128.34 22.4996 129.33 19.4396 129.51 17.4596C129.78 14.6696 127.98 13.1396 123.84 13.1396C121.77 13.1396 120.15 13.4096 118.26 13.6796L117.81 16.8296C119.34 16.1096 121.14 15.8396 122.76 15.8396C124.29 15.8396 125.1 16.4696 125.1 17.3696C125.1 17.5496 125.1 17.7296 125.01 17.9096C124.38 17.8196 123.57 17.9996 122.67 17.9996C118.71 18.1796 115.65 19.7996 115.38 22.8596C115.2 25.3796 116.46 26.5496 119.25 26.5496C120.96 26.5496 122.04 25.9196 123.48 24.9296V25.1996L123.39 26.2796ZM119.79 22.8596C119.61 21.4196 120.78 20.4296 123.21 20.3396C123.48 20.3396 124.02 20.2496 124.56 20.2496C124.38 21.6896 124.11 22.9496 124.11 22.9496C123.39 23.4896 122.58 23.7596 121.68 23.8496C120.78 23.9396 119.88 23.6696 119.79 22.8596Z" fill="#E1001D"/>
<path d="M40.3201 26.28H44.9101L46.8001 22.68H52.7401L53.1001 26.28H57.7801L54.9001 9.27002H49.9501L40.3201 26.28ZM52.2901 19.62H48.4201L51.4801 13.95L52.2901 19.62Z" fill="#E1001D"/>
<path d="M94.1401 26.2798H98.4601L100.98 13.4998H96.6601L94.1401 26.2798ZM97.0201 11.6098H101.61L102.24 8.5498H97.6501L97.0201 11.6098Z" fill="#E1001D"/>
<path d="M99.09 31.6802C99.81 31.6802 100.44 31.7702 100.98 32.0402C101.52 32.3102 101.97 32.5802 102.33 32.9402C102.69 33.3002 102.96 33.7502 103.14 34.2902C103.32 34.8302 103.41 35.3702 103.41 35.9102C103.41 36.7202 103.23 37.4402 102.96 38.2502C102.69 38.9702 102.24 39.6902 101.61 40.2302C101.07 40.8602 100.35 41.3102 99.45 41.6702C98.64 42.0302 97.65 42.2102 96.57 42.2102H92.52L94.86 31.6802H99.09ZM97.11 40.5902C97.74 40.5902 98.37 40.5002 98.91 40.2302C99.45 39.9602 99.9 39.6902 100.35 39.2402C100.71 38.7902 101.07 38.3402 101.25 37.8002C101.43 37.2602 101.61 36.7202 101.61 36.1802C101.61 35.8202 101.52 35.3702 101.43 35.0102C101.34 34.6502 101.16 34.3802 100.98 34.1102C100.71 33.8402 100.44 33.6602 100.08 33.4802C99.72 33.3002 99.27 33.2102 98.73 33.2102H96.57L94.95 40.5902H97.11Z" fill="#252B31"/>
<path d="M105.75 42.2102H104.04L105.66 34.9202H107.37L105.75 42.2102ZM105.93 32.8502C105.93 32.6702 105.93 32.4902 106.02 32.3102C106.11 32.1302 106.2 32.0402 106.29 31.9502C106.38 31.8602 106.56 31.7702 106.74 31.7702C106.92 31.6802 107.01 31.6802 107.19 31.6802C107.37 31.6802 107.64 31.7702 107.82 31.8602C108 31.9502 108.09 32.2202 108.09 32.4002C108.09 32.5802 108.09 32.7602 108 32.9402C107.91 33.1202 107.82 33.2102 107.73 33.3002C107.64 33.3902 107.46 33.4802 107.28 33.5702C107.1 33.6602 107.01 33.6602 106.83 33.6602C106.65 33.6602 106.38 33.5702 106.2 33.4802C106.02 33.3902 105.93 33.1202 105.93 32.8502Z" fill="#252B31"/>
<path d="M107.91 44.0101C108.36 44.2801 108.9 44.4601 109.44 44.6401C109.98 44.8201 110.52 44.8201 111.06 44.7301C111.6 44.6401 112.05 44.4601 112.5 44.1001C112.95 43.7401 113.22 43.2001 113.4 42.4801L113.76 41.0401C113.4 41.4901 113.04 41.8501 112.5 42.0301C111.96 42.2101 111.51 42.3901 110.88 42.3901C110.43 42.3901 110.07 42.3001 109.71 42.1201C109.35 41.9401 108.99 41.7601 108.81 41.4001C108.54 41.1301 108.36 40.6801 108.27 40.2301C108.18 39.7801 108.18 39.1501 108.36 38.5201C108.54 37.8901 108.72 37.2601 109.08 36.8101C109.44 36.3601 109.8 35.9101 110.25 35.6401C110.7 35.3701 111.24 35.1001 111.78 35.0101C112.32 34.8301 112.95 34.8301 113.49 34.8301C114.03 34.8301 114.57 34.9201 115.02 35.0101C115.56 35.1001 116.01 35.2801 116.46 35.5501L114.93 42.4801C114.75 43.4701 114.3 44.1901 113.76 44.8201C113.22 45.3601 112.59 45.8101 111.87 45.9901C111.15 46.1701 110.43 46.2601 109.62 46.1701C108.81 46.0801 108.09 45.8101 107.46 45.4501L107.91 44.0101ZM114.66 36.5401C114.21 36.3601 113.67 36.1801 113.13 36.1801C112.77 36.1801 112.5 36.2701 112.14 36.3601C111.78 36.4501 111.51 36.6301 111.24 36.8101C110.97 36.9901 110.7 37.2601 110.52 37.5301C110.34 37.8001 110.16 38.1601 110.07 38.6101C109.98 38.9701 109.98 39.2401 109.98 39.6001C109.98 39.8701 110.07 40.1401 110.16 40.3201C110.25 40.5001 110.43 40.6801 110.61 40.7701C110.79 40.8601 111.06 40.9501 111.42 40.9501C111.78 40.9501 112.05 40.8601 112.41 40.7701C112.68 40.5901 112.95 40.4101 113.22 40.2301C113.49 39.9601 113.67 39.7801 113.85 39.5101C114.03 39.2401 114.12 38.9701 114.21 38.7001L114.66 36.5401Z" fill="#252B31"/>
<path d="M118.98 42.2102H117.27L118.89 34.9202H120.6L118.98 42.2102ZM119.16 32.8502C119.16 32.6702 119.16 32.4902 119.25 32.3102C119.34 32.1302 119.43 32.0402 119.52 31.9502C119.61 31.8602 119.79 31.7702 119.97 31.7702C120.15 31.6802 120.24 31.6802 120.42 31.6802C120.6 31.6802 120.87 31.7702 121.05 31.8602C121.23 31.9502 121.32 32.2202 121.32 32.4002C121.32 32.5802 121.32 32.7602 121.23 32.9402C121.14 33.1202 121.05 33.2102 120.96 33.3002C120.87 33.3902 120.69 33.4802 120.51 33.5702C120.33 33.6602 120.24 33.6602 120.06 33.6602C119.88 33.6602 119.61 33.5702 119.43 33.4802C119.25 33.3902 119.16 33.1202 119.16 32.8502Z" fill="#252B31"/>
<path fill-rule="evenodd" clip-rule="evenodd" d="M125.28 34.9198H127.89L127.62 36.0898H124.92L124.2 39.3298C124.02 39.9598 124.11 40.4098 124.29 40.6798C124.47 40.9498 124.83 41.0398 125.28 41.0398C125.64 41.0398 126.18 40.9498 126.63 40.7698L126.54 42.0298C125.82 42.2098 125.1 42.3898 124.56 42.3898C124.2 42.3898 123.84 42.2998 123.48 42.2098C123.12 42.1198 122.94 41.9398 122.76 41.6698C122.58 41.3998 122.49 41.1298 122.4 40.7698C122.31 40.4098 122.4 39.9598 122.49 39.4198L123.21 36.1798L121.68 36.0898L121.95 35.0098H123.48L124.11 32.7598H125.64L125.28 34.9198Z" fill="#252B31"/>
<path d="M135.45 40.0497C135.45 40.2297 135.36 40.4097 135.36 40.4997C135.36 40.5897 135.36 40.7697 135.36 40.8597C135.36 40.9497 135.45 41.0397 135.54 41.0397C135.63 41.0397 135.81 41.1297 135.99 41.0397L135.72 42.1197C135.45 42.2097 135.18 42.2097 134.91 42.2097C134.64 42.2097 134.46 42.1197 134.19 42.0297C134.01 41.9397 133.83 41.7597 133.83 41.5797C133.74 41.3997 133.74 41.0397 133.83 40.6797C133.47 41.2197 133.02 41.5797 132.48 41.8497C131.94 42.1197 131.4 42.2997 130.77 42.2997C130.23 42.2997 129.78 42.2097 129.33 42.0297C128.97 41.8497 128.61 41.5797 128.43 41.2197C128.25 40.8597 128.07 40.4097 128.07 39.9597C127.98 39.5097 128.07 38.9697 128.16 38.5197C128.34 37.8897 128.52 37.3497 128.88 36.8997C129.15 36.4497 129.6 36.0897 130.05 35.7297C130.5 35.4597 130.95 35.1897 131.58 35.0097C132.12 34.8297 132.75 34.7397 133.38 34.8297C133.92 34.8297 134.46 34.9197 135 35.0097C135.54 35.0997 135.99 35.2797 136.44 35.5497L135.45 40.0497ZM134.55 36.4497C134.28 36.3597 134.01 36.2697 133.74 36.1797C133.47 36.0897 133.2 36.0897 132.93 36.0897C132.21 36.0897 131.58 36.2697 131.04 36.7197C130.5 37.0797 130.14 37.7097 129.96 38.5197C129.87 38.8797 129.87 39.1497 129.87 39.4197C129.87 39.6897 129.96 39.9597 130.05 40.1397C130.14 40.3197 130.32 40.4997 130.5 40.6797C130.68 40.8597 130.95 40.8597 131.31 40.8597C131.67 40.8597 131.94 40.7697 132.21 40.6797C132.48 40.5897 132.75 40.4097 133.02 40.2297C133.29 40.0497 133.47 39.7797 133.65 39.5097C133.83 39.2397 133.92 38.8797 134.01 38.6097L134.55 36.4497Z" fill="#252B31"/>
<path fill-rule="evenodd" clip-rule="evenodd" d="M141.57 31.14L139.68 39.6C139.59 40.14 139.59 40.5 139.68 40.68C139.77 40.86 140.04 40.95 140.4 40.95C140.49 40.95 140.58 40.95 140.67 40.95C140.76 40.95 140.94 40.95 141.03 40.86L140.76 42.12C140.58 42.12 140.4 42.21 140.22 42.21C140.04 42.21 139.86 42.21 139.68 42.21C138.87 42.21 138.24 42.03 137.97 41.58C137.7 41.13 137.61 40.5 137.88 39.42L139.77 30.96H141.57V31.14Z" fill="#252B31"/>
<path fill-rule="evenodd" clip-rule="evenodd" d="M29.7088 7.45767C28.8747 9.91716 28.6223 11.0645 29.7088 9.67416C35.9479 1.31493 42.8109 0 42.8109 0C38.2653 1.9724 35.1457 5.16582 35.1457 5.16582C35.9479 5.91721 36.4827 6.76252 37.0174 7.70176C40.2261 14.1825 35.9479 23.1053 25.6089 28.4589C16.5176 33.1551 5.55469 32.0281 2.34602 25.5473C-0.862646 19.0666 3.41558 10.4256 13.4872 4.97797C20.0828 1.40886 27.4806 1.03316 32.3827 3.38126C31.0091 4.76387 30.3607 5.53559 29.7088 7.45767Z" fill="url(#paint0_linear_2231_23327)"/>
<path fill-rule="evenodd" clip-rule="evenodd" d="M32.3793 3.36871C25.6924 7.57959 22.3935 16.3757 22.3935 16.3757C18.1139 9.8254 8.12805 11.3226 8.12805 11.3226C23.4634 13.7556 22.3935 26.0139 22.3935 26.0139C23.7309 19.2765 28.5455 11.229 29.7046 9.63825C35.9457 1.31005 42.8109 0 42.8109 0C37.7289 0 32.3793 3.36871 32.3793 3.36871ZM18.8271 18.9022C18.8271 18.9022 9.55459 17.3114 9.55459 20.9608C9.55459 22.458 11.0703 24.4231 16.0632 25.1717C16.9548 25.3589 19.9862 25.7332 21.9477 24.4231C21.9477 24.4231 20.7886 27.0432 15.0825 26.5754C14.1017 26.4818 8.30637 26.0139 6.25571 22.0837C5.72075 21.0544 5.63159 18.06 9.91123 17.3114C12.3185 16.9371 16.5982 17.2178 18.8271 18.9022Z" fill="white"/>
<defs>
<linearGradient id="paint0_linear_2231_23327" x1="3.37324" y1="22.3982" x2="38.4003" y2="-0.869561" gradientUnits="userSpaceOnUse">
<stop stop-color="#3157FA"/>
<stop offset="0.9979" stop-color="#0E199A"/>
</linearGradient>
</defs>
</svg>
