<svg xmlns="http://www.w3.org/2000/svg" xmlns:xlink="http://www.w3.org/1999/xlink" width="92" height="70" viewBox="0 0 92 70">
    <defs>
        <path id="a" d="M.569.786h48.964v23H.57z"/>
    </defs>
    <g fill="none" fill-rule="evenodd">
        <g transform="translate(41.733 .078)">
            <mask id="b" fill="#fff">
                <use xlink:href="#a"/>
            </mask>
            <path fill="#F0F5FB" d="M45.384 23.786H4.718a4.144 4.144 0 0 1-4.15-4.138V4.924A4.144 4.144 0 0 1 4.719.786h40.666a4.144 4.144 0 0 1 4.15 4.138v14.724a4.144 4.144 0 0 1-4.15 4.138" mask="url(#b)"/>
        </g>
        <path fill="#0E199A" d="M73.18 11.282L72.475 9.2a.592.592 0 0 0-.779-.36l-1.84.724a.592.592 0 0 1-.806-.602l.164-1.809a.59.59 0 0 0-.588-.643h-2.363a.59.59 0 0 0-.589.643l.166 1.83a.591.591 0 0 1-.796.606l-1.948-.726a.592.592 0 0 0-.772.376l-.32 1.021c.6.709 1.153 1.455 1.658 2.237l.409.103a.59.59 0 0 1 .293.97l-.032.035a21.155 21.155 0 0 1 1.57 3.506l1.054-1.578a.593.593 0 0 1 .983-.004l1.196 1.761a.592.592 0 0 0 .84.145l1.948-1.422a.589.589 0 0 0 .092-.868l-1.45-1.624a.59.59 0 0 1 .288-.962l1.919-.518a.59.59 0 0 0 .406-.758M85.353 13.52l1.449 1.623c.232.26.19.663-.092.869l-1.948 1.422a.591.591 0 0 1-.84-.145l-1.197-1.761a.592.592 0 0 0-.982.004l-1.165 1.744a.593.593 0 0 1-.848.144l-1.913-1.436a.588.588 0 0 1-.082-.868l1.415-1.547a.589.589 0 0 0-.292-.969l-1.99-.501a.588.588 0 0 1-.419-.748l.662-2.113a.592.592 0 0 1 .772-.377l1.948.726a.592.592 0 0 0 .797-.605l-.168-1.83a.59.59 0 0 1 .59-.643h2.362a.59.59 0 0 1 .59.643l-.165 1.81a.591.591 0 0 0 .807.601l1.839-.725c.314-.124.67.04.778.36l.705 2.084a.59.59 0 0 1-.407.758l-1.919.518a.59.59 0 0 0-.287.962M54.636 13.52a.59.59 0 0 1 .288-.962l.883-.239c-1.6-1.48-3.57-2.573-5.924-3.17-.07.34-.66-.012-1.01-.143l-1.707-.145a.592.592 0 0 0-.77.377l-.663 2.113a.589.589 0 0 0 .42.748l1.988.501c.434.109.594.64.293.969l-1.415 1.547a.589.589 0 0 0 .082.868l1.912 1.436c.272.204.66.139.849-.144l1.165-1.744a.593.593 0 0 1 .982-.004l1.197 1.761a.591.591 0 0 0 .84.145l1.947-1.422a.589.589 0 0 0 .092-.869l-1.449-1.623z"/>
        <path fill="#BFD0E3" d="M30.047 28.647l-.08-2.492s-.806-.008-2.782-.402c-1.21-.241-.363-4.462-.363-4.462C29.886 4.811 45.7 2.708 45.7 2.708c-11.792 0-21.352 9.533-21.352 21.292l.055 4.486 5.644.161z"/>
        <path stroke="#1A3446" d="M30.108 28.158C29.53 17.716 34.45 8.625 45.618 8.625c9.583 0 14.444 6.743 15.47 15.213 0 0-.002 1.674 2.739 1.674 3.144 0 3.225-1.513 3.225-1.513 0-11.758-9.56-21.29-21.352-21.29s-21.352 9.532-21.352 21.29v4.005"/>
        <path fill="#E1001D" d="M22.314 69.214c-3.425 0-6.201-2.768-6.201-6.183V35.332c0-3.415 2.776-6.183 6.201-6.183h42.9c3.426 0 6.202 2.768 6.202 6.183v27.7c0 3.414-2.776 6.182-6.201 6.182H22.314z"/>
        <path fill="#FF445E" d="M64.248 29.992c3.425 0 6.2 2.77 6.2 6.184v27.7s-.978 2.072-.978-5.163c0-3.209-.484-19.454-.645-22.026-.327-5.225-4.577-6.695-4.577-6.695"/>
        <path fill="#C30018" d="M67.858 68.57H23.442c-3.425 0-6.2-2.767-6.2-6.182V34.292c0-3.415 2.775-6.184 6.2-6.184 0 0-2.263.218-2.263 6.006v27.573c0 2.253.887 5.628 7.498 5.628 6.61 0 39.181 1.256 39.181 1.256"/>
        <path stroke="#1A3446" d="M67.858 68.57H23.442c-3.425 0-6.2-2.767-6.2-6.182V34.292c0-3.415 2.775-6.184 6.2-6.184h44.416c3.425 0 6.201 2.77 6.201 6.184v28.096c0 3.415-2.776 6.183-6.201 6.183z"/>
        <path fill="#E40012" d="M48.367 59.055c.51 0 .91-.437.864-.943l-.67-7.413a5.67 5.67 0 0 0 2.954-4.976c0-3.134-2.548-5.675-5.69-5.675 0 0 6.143-.072 6.635 4.999.483 4.984-2.722 5.969-2.722 5.969s.605 6.09.605 7.054c0 .965-1.976.985-1.976.985"/>
        <path fill="#6D010E" d="M51.515 45.724c0-3.135-2.548-5.676-5.69-5.676-3.144 0-5.692 2.541-5.692 5.676a5.662 5.662 0 0 0 2.771 4.863l-.68 7.525a.867.867 0 0 0 .865.943h5.278c.51 0 .91-.437.864-.943l-.67-7.413a5.67 5.67 0 0 0 2.954-4.975"/>
        <path stroke="#FF0017" stroke-linecap="round" stroke-linejoin="round" stroke-width="1.3" d="M3.77 12.454l-.081 4.32M5.896 14.655l-4.333-.082"/>
        <path stroke="#08129E" stroke-linecap="round" stroke-linejoin="round" d="M17.513 12.04a1.77 1.77 0 0 1-1.774 1.768 1.77 1.77 0 0 1-1.774-1.768c0-.977.794-1.769 1.774-1.769s1.774.792 1.774 1.77z"/>
        <path stroke="#BFD0E3" d="M9.967 25.816a1.77 1.77 0 0 1-1.774 1.768 1.77 1.77 0 0 1-1.774-1.768c0-.978.794-1.77 1.774-1.77s1.774.792 1.774 1.77z"/>
    </g>
</svg>
