<svg width="8" height="96" viewBox="0 0 8 96" fill="none" xmlns="http://www.w3.org/2000/svg">
<path fill-rule="evenodd" clip-rule="evenodd" d="M1.84521 92.2504L5.53003 93.5889L1.84521 94.9267L1.84522 95.399L6.15094 93.7822L6.15094 93.4096L1.84521 91.7928L1.84521 92.2504Z" fill="#838F9A"/>
<path fill-rule="evenodd" clip-rule="evenodd" d="M1.84521 89.8035L6.15094 89.8035L6.15094 89.3888L1.84521 89.3888L1.84521 89.8035Z" fill="#838F9A"/>
<path fill-rule="evenodd" clip-rule="evenodd" d="M4.00924 87.5857L3.99457 87.5857C2.85258 87.5857 1.84521 86.786 1.84521 85.6018C1.84521 84.9303 2.04682 84.515 2.3977 84.1228L2.75561 84.4098C2.47235 84.7194 2.27776 85.0587 2.27776 85.6166C2.27776 86.4918 3.05419 87.1252 3.97925 87.1252L3.99457 87.1252C4.98662 87.1252 5.7254 86.5144 5.7254 85.5566C5.7254 85.1032 5.53911 84.6814 5.30753 84.4098L4.27783 84.4098L4.27783 85.6166L3.8523 85.6166L3.8523 83.9796L5.50913 83.9796C5.86002 84.3492 6.15094 84.9078 6.15094 85.5714C6.15094 86.8163 5.19588 87.5857 4.00924 87.5857Z" fill="#838F9A"/>
<path fill-rule="evenodd" clip-rule="evenodd" d="M1.84521 81.9903L6.15094 81.9903L6.15094 81.5756L1.84521 81.5756L1.84521 81.9903Z" fill="#838F9A"/>
<path fill-rule="evenodd" clip-rule="evenodd" d="M1.84521 79.7725L1.84521 79.366L5.70361 79.366L5.70361 77.3684L6.15094 77.3684L6.15094 79.7725L1.84521 79.7725Z" fill="#838F9A"/>
<path fill-rule="evenodd" clip-rule="evenodd" d="M4.58796 72.9586L2.41184 73.7623L4.58796 74.5723L4.58796 72.9586ZM1.84521 73.9517L1.84521 73.5729L6.15094 71.9592L6.15094 72.3847L5.02488 72.8027L5.02488 74.7345L6.15094 75.1537L6.15094 75.5653L1.84521 73.9517Z" fill="#838F9A"/>
<path fill-rule="evenodd" clip-rule="evenodd" d="M5.70361 68.3619C5.70361 67.5014 4.96267 66.9474 4.01325 66.9474L3.99808 66.9474C3.04865 66.9474 2.29255 67.5014 2.29255 68.3619L2.29255 69.1706L5.70361 69.1706L5.70361 68.3619ZM1.84521 69.5551L1.84521 68.3619C1.84521 67.293 2.7788 66.55 3.9829 66.55L3.99808 66.55C5.20943 66.55 6.15094 67.293 6.15094 68.3619L6.15094 69.5551L1.84521 69.5551Z" fill="#838F9A"/>
<path fill-rule="evenodd" clip-rule="evenodd" d="M4.00924 61.5523L3.99457 61.5523C3.04653 61.5523 2.27776 62.1389 2.27776 62.9474C2.27776 63.7559 3.03887 64.3356 3.97925 64.3356L3.99457 64.3356C4.94197 64.3356 5.71073 63.7426 5.71073 62.9336C5.71073 62.1251 4.94962 61.5523 4.00924 61.5523ZM4.00924 64.747L3.99457 64.747C2.84493 64.747 1.84521 64.0123 1.84521 62.9336C1.84521 61.8623 2.83791 61.1409 3.97925 61.1409L3.99457 61.1409C5.14357 61.1409 6.15094 61.8692 6.15094 62.9474C6.15094 64.0255 5.15122 64.747 4.00924 64.747Z" fill="#838F9A"/>
<path fill-rule="evenodd" clip-rule="evenodd" d="M3.30793 58.7368L3.00703 58.4886C3.20568 58.2689 3.32137 58.0413 3.32137 57.7573C3.32137 57.5018 3.19867 57.3385 3.02105 57.3385L3.00703 57.3385C2.84343 57.3385 2.74761 57.4374 2.64477 57.8641C2.52207 58.3605 2.37191 58.6445 1.92727 58.6445C1.51769 58.6445 1.23022 58.3114 1.23022 57.8495C1.23022 57.509 1.34007 57.239 1.53113 57.0047L1.84547 57.225C1.6883 57.4308 1.59949 57.6438 1.59949 57.8568C1.59949 58.091 1.7292 58.2331 1.88637 58.2331L1.89338 58.2331C2.07802 58.2331 2.15982 58.1263 2.26908 57.6796C2.39236 57.1892 2.56998 56.9337 2.96613 56.9337L2.98015 56.9337C3.4242 56.9337 3.69064 57.2748 3.69064 57.7639C3.69064 58.119 3.56794 58.4528 3.30793 58.7368Z" fill="#838F9A"/>
<path fill-rule="evenodd" clip-rule="evenodd" d="M2.62339 56.3327L1.23022 56.3327L1.23022 55.9607L2.60976 55.9607C3.06013 55.9607 3.30249 55.7621 3.30249 55.4284C3.30249 55.1009 3.07376 54.9022 2.62339 54.9022L1.23022 54.9022L1.23022 54.5297L2.60976 54.5297C3.33034 54.5297 3.69064 54.8825 3.69064 55.4345C3.69064 55.9865 3.33035 56.3327 2.62339 56.3327Z" fill="#838F9A"/>
<path fill-rule="evenodd" clip-rule="evenodd" d="M2.50971 53.0413C2.50971 52.736 2.32701 52.537 2.06679 52.537C1.77171 52.537 1.62387 52.736 1.62387 53.0413L1.62387 53.5165L2.50971 53.5165L2.50971 53.0413ZM1.23022 53.9286L1.23022 53.0055C1.23022 52.466 1.56076 52.1255 2.05297 52.1255L2.05958 52.1255C2.61548 52.1255 2.89614 52.5442 2.89614 53.0552L2.89614 53.5165L3.69064 53.5165L3.69064 53.9286L1.23022 53.9286Z" fill="#838F9A"/>
<path fill-rule="evenodd" clip-rule="evenodd" d="M1.23022 51.5245L1.23022 49.7434L1.61665 49.7434L1.61665 51.099L2.2567 51.099L2.2567 49.8969L2.64313 49.8969L2.64313 51.099L3.30361 51.099L3.30361 49.7214L3.69064 49.7214L3.69064 51.5245L1.23022 51.5245Z" fill="#838F9A"/>
<path fill-rule="evenodd" clip-rule="evenodd" d="M2.4463 48.2026C2.4463 47.9379 2.29181 47.7633 2.03874 47.7633L2.03153 47.7633C1.77124 47.7633 1.62396 47.9313 1.62396 48.2026L1.62396 48.7458L2.4463 48.7458L2.4463 48.2026ZM1.23022 49.1204L1.23022 48.1772C1.23022 47.9053 1.32099 47.6987 1.47609 47.5633C1.60954 47.4533 1.79228 47.3881 2.01049 47.3881C2.41805 47.3881 2.6573 47.5953 2.75588 47.8926L3.69064 47.3174L3.69064 47.7567L2.83283 48.2805L2.83283 48.2866L2.83283 48.7458L3.69064 48.7458L3.69064 49.1204L1.23022 49.1204Z" fill="#838F9A"/>
<path fill-rule="evenodd" clip-rule="evenodd" d="M1.23022 47.1244L3.69064 47.1244L3.69064 46.7163L1.23022 46.7163L1.23022 47.1244Z" fill="#838F9A"/>
<path fill-rule="evenodd" clip-rule="evenodd" d="M1.23022 46.1153L1.23022 45.7752L2.931 44.6718L1.23022 44.6718L1.23022 44.3123L3.69064 44.3123L3.69064 44.6152L1.93998 45.7563L3.69064 45.7563L3.69064 46.1153L1.23022 46.1153Z" fill="#838F9A"/>
<path fill-rule="evenodd" clip-rule="evenodd" d="M1.63108 43.0066L1.63108 43.7111L1.23022 43.7111L1.23022 41.9081L1.63108 41.9081L1.63108 42.6132L3.69064 42.6132L3.69064 43.0066L1.63108 43.0066Z" fill="#838F9A"/>
<path fill-rule="evenodd" clip-rule="evenodd" d="M1.23022 41.3071L1.23022 39.5253L1.61665 39.5253L1.61665 40.8815L2.2567 40.8815L2.2567 39.6795L2.64313 39.6795L2.64313 40.8815L3.30361 40.8815L3.30361 39.504L3.69064 39.504L3.69064 41.3071L1.23022 41.3071Z" fill="#838F9A"/>
<path fill-rule="evenodd" clip-rule="evenodd" d="M1.23022 38.903L1.23022 38.5624L2.931 37.459L1.23022 37.459L1.23022 37.1L3.69064 37.1L3.69064 37.4029L1.93998 38.5435L3.69064 38.5435L3.69064 38.903L1.23022 38.903Z" fill="#838F9A"/>
<path fill-rule="evenodd" clip-rule="evenodd" d="M3.29699 35.752C3.29699 35.3394 2.95263 35.0664 2.46764 35.0664L2.46043 35.0664C1.98265 35.0664 1.62387 35.3394 1.62387 35.752L1.62387 36.147L3.29699 36.147L3.29699 35.752ZM1.23022 36.4989L1.23022 35.752C1.23022 35.1271 1.75728 34.6958 2.45322 34.6958L2.46043 34.6958C3.14915 34.6958 3.69064 35.1271 3.69064 35.752L3.69064 36.4989L1.23022 36.4989Z" fill="#838F9A"/>
<path fill-rule="evenodd" clip-rule="evenodd" d="M1.23022 34.0948L1.23022 32.3137L1.61665 32.3137L1.61665 33.6693L2.2567 33.6693L2.2567 32.4672L2.64313 32.4672L2.64313 33.6693L3.30361 33.6693L3.30361 32.2917L3.69064 32.2917L3.69064 34.0948L1.23022 34.0948Z" fill="#838F9A"/>
<path fill-rule="evenodd" clip-rule="evenodd" d="M1.23022 31.6908L1.23022 31.3506L2.931 30.2472L1.23022 30.2472L1.23022 29.8877L3.69064 29.8877L3.69064 30.1906L1.93998 31.3318L3.69064 31.3318L3.69064 31.6908L1.23022 31.6908Z" fill="#838F9A"/>
<path fill-rule="evenodd" clip-rule="evenodd" d="M2.4674 29.2867L2.46043 29.2867C1.78112 29.2867 1.23022 28.7257 1.23022 27.9319C1.23022 27.4517 1.38654 27.1559 1.60388 26.9065L1.91012 27.2031C1.73346 27.412 1.61782 27.636 1.61782 27.9401C1.61782 28.4373 1.9845 28.8058 2.45404 28.8058L2.46043 28.8058C2.92241 28.8058 3.30304 28.4373 3.30304 27.9401C3.30304 27.612 3.18798 27.412 2.99737 27.1798L3.26933 26.8826C3.52735 27.1634 3.69064 27.46 3.69064 27.9483C3.69064 28.7175 3.15369 29.2867 2.4674 29.2867Z" fill="#838F9A"/>
<path fill-rule="evenodd" clip-rule="evenodd" d="M1.23022 26.6897L3.69064 26.6897L3.69064 26.2816L1.23022 26.2816L1.23022 26.6897Z" fill="#838F9A"/>
<path fill-rule="evenodd" clip-rule="evenodd" d="M2.72173 24.0854L1.74626 24.4856L2.72173 24.8791L2.72173 24.0854ZM1.23022 24.6688L1.23022 24.2891L3.69064 23.2766L3.69064 23.7056L3.09833 23.9376L3.09833 25.0269L3.69064 25.2661L3.69064 25.6807L1.23022 24.6688Z" fill="#838F9A"/>
<path fill-rule="evenodd" clip-rule="evenodd" d="M1.23022 22.0745L1.23022 20.2715L1.62387 20.2715L1.62387 21.6456L2.29156 21.6456L2.29156 20.4269L2.6852 20.4269L2.6852 21.6456L3.69064 21.6456L3.69064 22.0745L1.23022 22.0745Z" fill="#838F9A"/>
<path fill-rule="evenodd" clip-rule="evenodd" d="M1.23022 19.4775L3.69064 19.4775L3.69064 19.0695L1.23022 19.0695L1.23022 19.4775Z" fill="#838F9A"/>
<path fill-rule="evenodd" clip-rule="evenodd" d="M1.23022 18.4685L1.23022 18.1283L2.931 17.0249L1.23022 17.0249L1.23022 16.6654L3.69064 16.6654L3.69064 16.9683L1.93998 18.1095L3.69064 18.1095L3.69064 18.4685L1.23022 18.4685Z" fill="#838F9A"/>
<path fill-rule="evenodd" clip-rule="evenodd" d="M2.72173 14.4692L1.74626 14.8695L2.72173 15.2632L2.72173 14.4692ZM1.23022 15.0528L1.23022 14.673L3.69064 13.6603L3.69064 14.0894L3.09833 14.3214L3.09833 15.4104L3.69064 15.6503L3.69064 16.0644L1.23022 15.0528Z" fill="#838F9A"/>
<path fill-rule="evenodd" clip-rule="evenodd" d="M1.23022 13.0593L1.23022 12.7187L2.931 11.6157L1.23022 11.6157L1.23022 11.2562L3.69064 11.2562L3.69064 11.5591L1.93998 12.6999L3.69064 12.6999L3.69064 13.0593L1.23022 13.0593Z" fill="#838F9A"/>
<path fill-rule="evenodd" clip-rule="evenodd" d="M2.4674 11.2561L2.46043 11.2561C1.78112 11.2561 1.23022 10.695 1.23022 9.90165C1.23022 9.4207 1.38654 9.12473 1.60388 8.87534L1.91012 9.17269C1.73346 9.38096 1.61782 9.605 1.61782 9.90987C1.61782 10.4066 1.9845 10.7752 2.45404 10.7752L2.46043 10.7752C2.92241 10.7752 3.30304 10.4066 3.30304 9.90987C3.30304 9.58102 3.18798 9.38096 2.99737 9.14871L3.26933 8.85205C3.52735 9.13226 3.69064 9.42892 3.69064 9.9181C3.69064 10.6868 3.15369 11.2561 2.4674 11.2561Z" fill="#838F9A"/>
<path fill-rule="evenodd" clip-rule="evenodd" d="M1.23022 8.65919L3.69064 8.65919L3.69064 8.2511L1.23022 8.2511L1.23022 8.65919Z" fill="#838F9A"/>
<path fill-rule="evenodd" clip-rule="evenodd" d="M1.23022 7.64999L1.23022 5.86886L1.61665 5.86886L1.61665 7.22507L2.2567 7.22507L2.2567 6.0224L2.64313 6.0224L2.64313 7.22507L3.30361 7.22507L3.30361 5.84692L3.69064 5.84692L3.69064 7.64999L1.23022 7.64999Z" fill="#838F9A"/>
<path fill-rule="evenodd" clip-rule="evenodd" d="M2.4463 4.32838C2.4463 4.06378 2.29181 3.88867 2.03874 3.88867L2.03153 3.88867C1.77124 3.88867 1.62396 4.05715 1.62396 4.32838L1.62396 4.87085L2.4463 4.87085L2.4463 4.32838ZM1.23022 5.24593L1.23022 4.30242C1.23022 4.03119 1.32099 3.82459 1.47609 3.68869C1.60954 3.57932 1.79228 3.51413 2.01049 3.51413C2.41805 3.51413 2.6573 3.72073 2.75588 4.01793L3.69064 3.44287L3.69064 3.88204L2.83283 4.40627L2.83283 4.41235L2.83283 4.87085L3.69064 4.87085L3.69064 5.24593L1.23022 5.24593Z" fill="#838F9A"/>
<path fill-rule="evenodd" clip-rule="evenodd" d="M2.72173 1.24624L1.74626 1.64712L2.72173 2.04019L2.72173 1.24624ZM1.23022 1.82983L1.23022 1.44999L3.69064 0.437866L3.69064 0.866394L3.09833 1.09839L3.09833 2.18804L3.69064 2.42724L3.69064 2.84195L1.23022 1.82983Z" fill="#838F9A"/>
<path fill-rule="evenodd" clip-rule="evenodd" d="M6.37243 40.5602C6.37243 40.1476 6.02086 39.8746 5.54308 39.8746L5.53587 39.8746C5.05088 39.8746 4.69931 40.1476 4.69931 40.5602L4.69931 40.9552L6.37243 40.9552L6.37243 40.5602ZM4.30566 41.3071L4.30566 40.5602C4.30566 39.9353 4.83994 39.504 5.52866 39.504L5.53587 39.504C6.2318 39.504 6.76608 39.9353 6.76608 40.5602L6.76608 41.3071L4.30566 41.3071Z" fill="#838F9A"/>
<path fill-rule="evenodd" clip-rule="evenodd" d="M4.30566 38.903L4.30566 37.1219L4.69209 37.1219L4.69209 38.4775L5.33214 38.4775L5.33214 37.2755L5.71857 37.2755L5.71857 38.4775L6.37904 38.4775L6.37904 37.1L6.76608 37.1L6.76608 38.903L4.30566 38.903Z" fill="#838F9A"/>
<path fill-rule="evenodd" clip-rule="evenodd" d="M5.54284 35.8979L5.53587 35.8979C4.86295 35.8979 4.30566 35.345 4.30566 34.5434C4.30566 34.0624 4.45559 33.7665 4.67292 33.5178L4.98556 33.8144C4.8089 34.0234 4.68629 34.2474 4.68629 34.5516C4.68629 35.049 5.06692 35.4176 5.52948 35.4176L5.53587 35.4176C6.00482 35.4176 6.38545 35.049 6.38545 34.5516C6.38545 34.2234 6.26342 34.0151 6.07281 33.7904L6.34477 33.4938C6.60337 33.774 6.76608 34.0706 6.76608 34.5598C6.76608 35.3292 6.22274 35.8979 5.54284 35.8979Z" fill="#838F9A"/>
<path fill-rule="evenodd" clip-rule="evenodd" d="M5.54284 31.517L5.53587 31.517C5.07389 31.517 4.68629 31.8393 4.68629 32.2954C4.68629 32.7508 5.06692 33.0731 5.52948 33.0731L5.53587 33.0731C5.99843 33.0731 6.38545 32.7436 6.38545 32.2882C6.38545 31.8322 6.00482 31.517 5.54284 31.517ZM5.54284 33.4938L5.53587 33.4938C4.86295 33.4938 4.30566 32.9964 4.30566 32.2882C4.30566 31.5871 4.86295 31.0897 5.52948 31.0897L5.53587 31.0897C6.20879 31.0897 6.76608 31.5871 6.76608 32.2954C6.76608 33.003 6.20879 33.4938 5.54284 33.4938Z" fill="#838F9A"/>
<path fill-rule="evenodd" clip-rule="evenodd" d="M4.30566 30.4887L4.30566 30.0341L6.37243 30.0341L6.37243 28.6857L6.76608 28.6857L6.76608 30.4887L4.30566 30.4887Z" fill="#838F9A"/>
<path fill-rule="evenodd" clip-rule="evenodd" d="M5.54284 26.7095L5.53587 26.7095C5.07389 26.7095 4.68629 27.0318 4.68629 27.4872C4.68629 27.9433 5.06692 28.2656 5.52948 28.2656L5.53587 28.2656C5.99843 28.2656 6.38545 27.9361 6.38545 27.4801C6.38545 27.0246 6.00482 26.7095 5.54284 26.7095ZM5.54284 28.6857L5.53587 28.6857C4.86295 28.6857 4.30566 28.1883 4.30566 27.4801C4.30566 26.7796 4.86295 26.2816 5.52948 26.2816L5.53587 26.2816C6.20879 26.2816 6.76608 26.7796 6.76608 27.4872C6.76608 28.1949 6.20879 28.6857 5.54284 28.6857Z" fill="#838F9A"/>
<path fill-rule="evenodd" clip-rule="evenodd" d="M4.30566 26.2816L4.30566 25.8197L5.47277 25.0834L4.30566 24.3389L4.30566 23.8776L6.76608 23.8776L6.76608 24.309L5.0016 24.309L6.16149 25.0834L6.16149 25.0911L5.00881 25.8572L6.76608 25.8572L6.76608 26.2816L4.30566 26.2816Z" fill="#838F9A"/>
<path fill-rule="evenodd" clip-rule="evenodd" d="M6.38626 22.2663C6.38626 22.0088 6.26666 21.8502 6.04911 21.8502L6.03468 21.8502C5.83095 21.8502 5.71136 21.9958 5.71136 22.2997L5.71136 22.9005L6.38626 22.9005L6.38626 22.2663ZM5.34596 22.3781C5.34596 22.1342 5.23358 21.9693 5.00881 21.9693L5.0016 21.9693C4.81169 21.9693 4.68548 22.1077 4.68548 22.3516L4.68548 22.9005L5.34596 22.9005L5.34596 22.3781ZM4.30566 23.2766L4.30566 22.3059C4.30566 22.0546 4.38319 21.8631 4.52382 21.7378C4.62899 21.639 4.76962 21.5927 4.93128 21.5927L4.9385 21.5927C5.23358 21.5927 5.38803 21.7378 5.48659 21.9027C5.58515 21.6452 5.75403 21.4735 6.08396 21.4735L6.09118 21.4735C6.52689 21.4735 6.76608 21.7903 6.76608 22.2731L6.76608 23.2766L4.30566 23.2766Z" fill="#838F9A"/>
<path fill-rule="evenodd" clip-rule="evenodd" d="M4.30566 20.6796L6.76608 20.6796L6.76608 20.2715L4.30566 20.2715L4.30566 20.6796Z" fill="#838F9A"/>
<path fill-rule="evenodd" clip-rule="evenodd" d="M5.79434 18.0747L4.81603 18.4756L5.79434 18.8687L5.79434 18.0747ZM4.30566 18.6583L4.30566 18.2785L6.76608 17.2664L6.76608 17.6949L6.17861 17.9269L6.17861 19.0165L6.76608 19.2557L6.76608 19.6704L4.30566 18.6583Z" fill="#838F9A"/>
<path fill-rule="evenodd" clip-rule="evenodd" d="M6.76611 96L7.37015 96L7.37014 61.1409L6.76611 61.1409L6.76611 96Z" fill="#838F9A"/>
<path fill-rule="evenodd" clip-rule="evenodd" d="M1.52374e-06 96L0.604033 96L0.604031 61.1409L0 61.1409L1.52374e-06 96Z" fill="#838F9A"/>
</svg>
