<?xml version="1.0" encoding="UTF-8"?>
<svg width="130px" height="11px" viewBox="0 0 130 11" version="1.1" xmlns="http://www.w3.org/2000/svg" xmlns:xlink="http://www.w3.org/1999/xlink">
    <title>logo vigilado copy</title>
    <g id="Registro-mobile" stroke="none" stroke-width="1" fill="none" fill-rule="evenodd">
        <g id="footer-aval" transform="translate(-159.000000, -21.000000)">
            <g id="logo-vigilado-copy" transform="translate(224.480392, 26.500000) rotate(-270.000000) translate(-224.480392, -26.500000) translate(219.000000, -38.000000)">
                <polygon id="Fill-1" fill="#2C2C33" points="2.91059099 124.023545 7.47839636 125.800004 2.91059099 127.575651 2.91059099 128.202446 8.24808699 126.056568 8.24808699 125.562115 2.91059099 123.416237"></polygon>
                <polygon id="Fill-2" fill="#2C2C33" points="2.91059099 120.889898 8.20992723 120.889898 8.20992723 120.32968 2.91059099 120.32968"></polygon>
                <path d="M5.57909542,117.633165 L5.56042149,117.633165 C4.10710268,117.633165 2.82509687,116.626396 2.82509687,115.13573 C2.82509687,114.290531 3.08166041,113.767661 3.52821089,113.27402 L3.98369237,113.63532 C3.62320435,114.025037 3.37557181,114.452101 3.37557181,115.154404 C3.37557181,116.256165 4.36366622,117.053461 5.54093565,117.053461 L5.56042149,117.053461 C6.82294146,117.053461 7.76313318,116.284582 7.76313318,115.078896 C7.76313318,114.508123 7.52605547,113.977134 7.23133216,113.63532 L5.92090951,113.63532 L5.92090951,115.154404 L5.37936557,115.154404 L5.37936557,113.093776 L7.48789571,113.093776 C7.93444618,113.559 8.30467712,114.262115 8.30467712,115.09757 C8.30467712,116.664556 7.08924792,117.633165 5.57909542,117.633165 Z" id="Fill-3" fill="#2C2C33"></path>
                <path d="M10.1374014,0.00137784017 L0.564983144,0.00137784017 L10.1374014,0.00137784017 Z" id="Clip-6"></path>
                <polygon id="Fill-5" fill="#2C2C33" points="2.91059099 110.292037 8.20911532 110.292037 8.20911532 109.731819 2.91059099 109.731819"></polygon>
                <polygon id="Fill-7" fill="#2C2C33" points="2.91067218 106.816738 2.91067218 106.246777 7.65872156 106.246777 7.65872156 103.445688 8.20919651 103.445688 8.20919651 106.816738"></polygon>
                <path d="M6.27230413,97.6906265 L3.57513928,98.8208051 L6.27230413,99.9599148 L6.27230413,97.6906265 Z M2.87283717,99.0871116 L2.87283717,98.5544987 L8.20952127,96.2852104 L8.20952127,96.883588 L6.81384807,97.4714108 L6.81384807,100.188062 L8.20952127,100.777508 L8.20952127,101.3564 L2.87283717,99.0871116 Z" id="Fill-8" fill="#2C2C33"></path>
                <path d="M7.65888394,92.0778118 C7.65888394,90.8242229 6.74710907,90.0171844 5.57877065,90.0171844 L5.56009672,90.0171844 C4.39175831,90.0171844 3.46130951,90.8242229 3.46130951,92.0778118 L3.46130951,93.2558932 L7.65888394,93.2558932 L7.65888394,92.0778118 Z M2.91083456,93.816111 L2.91083456,92.0778118 C2.91083456,90.5205685 4.05968714,89.4382926 5.5414228,89.4382926 L5.56009672,89.4382926 C7.05076339,89.4382926 8.20935889,90.5205685 8.20935889,92.0778118 L8.20935889,93.816111 L2.91083456,93.816111 Z" id="Fill-9" fill="#2C2C33"></path>
                <path d="M5.57909542,82.4776262 L5.56042149,82.4776262 C4.3539233,82.4776262 3.37557181,83.3041505 3.37557181,84.4432602 C3.37557181,85.5823699 4.34418038,86.3991513 5.54093565,86.3991513 L5.56042149,86.3991513 C6.76610776,86.3991513 7.74445925,85.5636959 7.74445925,84.4237744 C7.74445925,83.2846647 6.77585068,82.4776262 5.57909542,82.4776262 M5.57909542,86.978855 L5.56042149,86.978855 C4.09735976,86.978855 2.82509687,85.9436698 2.82509687,84.4237744 C2.82509687,82.9144338 4.08842875,81.8979225 5.54093565,81.8979225 L5.56042149,81.8979225 C7.02267131,81.8979225 8.30467712,82.9241767 8.30467712,84.4432602 C8.30467712,85.9623437 7.03241423,86.978855 5.57909542,86.978855" id="Fill-10" fill="#2C2C33"></path>
                <path d="M4.28750907,78.5932866 L3.86937545,78.2612155 C4.14542483,77.9673041 4.306183,77.6628378 4.306183,77.282864 C4.306183,76.9410499 4.13568191,76.7226461 3.88886128,76.7226461 L3.86937545,76.7226461 C3.64204066,76.7226461 3.50888743,76.8549874 3.36599128,77.4257601 C3.19549019,78.0899025 2.98682933,78.4698763 2.36896586,78.4698763 C1.79981699,78.4698763 1.40035729,78.0241378 1.40035729,77.4062743 C1.40035729,76.9507928 1.55299636,76.5894929 1.81849091,76.2760956 L2.25529847,76.5708189 C2.03689469,76.8460564 1.91348438,77.1310368 1.91348438,77.4160172 C1.91348438,77.7294144 2.09372839,77.9194014 2.31213216,77.9194014 L2.32187508,77.9194014 C2.57843863,77.9194014 2.69210602,77.7765052 2.84393318,77.1789395 C3.01524618,76.5229163 3.2620668,76.1811022 3.81254175,76.1811022 L3.83202759,76.1811022 C4.44907915,76.1811022 4.81931009,76.6373956 4.81931009,77.291795 C4.81931009,77.7667623 4.648809,78.2133128 4.28750907,78.5932866" id="Fill-11" fill="#2C2C33"></path>
                <path d="M3.35689789,75.5637258 L1.4480976,75.5637258 L1.4480976,75.0132509 L3.33822396,75.0132509 C3.95527552,75.0132509 4.28734669,74.7193395 4.28734669,74.2256982 C4.28734669,73.740988 3.97394945,73.4470766 3.35689789,73.4470766 L1.4480976,73.4470766 L1.4480976,72.8957898 L3.33822396,72.8957898 C4.32550646,72.8957898 4.8191477,73.4178478 4.8191477,74.2346293 C4.8191477,75.0514107 4.32550646,75.5637258 3.35689789,75.5637258" id="Fill-12" fill="#2C2C33"></path>
                <path d="M3.1764915,70.9491545 C3.1764915,70.5407638 2.92967087,70.2744573 2.57811386,70.2744573 C2.17946608,70.2744573 1.97973623,70.5407638 1.97973623,70.9491545 L1.97973623,71.5848799 L3.1764915,71.5848799 L3.1764915,70.9491545 Z M1.44793521,72.1361668 L1.44793521,70.9012518 C1.44793521,70.1794638 1.89448569,69.7239823 2.55943993,69.7239823 L2.56837094,69.7239823 C3.31938765,69.7239823 3.69854959,70.2842002 3.69854959,70.9678284 L3.69854959,71.5848799 L4.77189455,71.5848799 L4.77189455,72.1361668 L1.44793521,72.1361668 Z" id="Fill-13" fill="#2C2C33"></path>
                <polygon id="Fill-14" fill="#2C2C33" points="1.44817879 69.1445222 1.44817879 66.8370741 1.97023688 66.8370741 1.97023688 68.5932354 2.83492098 68.5932354 2.83492098 67.0359921 3.35697908 67.0359921 3.35697908 68.5932354 4.24926811 68.5932354 4.24926811 66.8086573 4.77213812 66.8086573 4.77213812 69.1445222"></polygon>
                <path d="M3.09107857,64.7947959 C3.09107857,64.405891 2.88241771,64.1493274 2.54060362,64.1493274 L2.5308607,64.1493274 C2.1793037,64.1493274 1.98038576,64.3961481 1.98038576,64.7947959 L1.98038576,65.5929033 L3.09107857,65.5929033 L3.09107857,64.7947959 Z M1.44858474,66.1433783 L1.44858474,64.757448 C1.44858474,64.3579883 1.57118314,64.054334 1.78065591,63.855416 C1.96089992,63.693846 2.20772054,63.5980406 2.50244386,63.5980406 C3.0529188,63.5980406 3.37605896,63.9025068 3.50921219,64.3393144 L4.77173216,63.4941161 L4.77173216,64.1395845 L3.61313667,64.9092752 L3.61313667,64.9182062 L3.61313667,65.5929033 L4.77173216,65.5929033 L4.77173216,66.1433783 L1.44858474,66.1433783 Z" id="Fill-15" fill="#2C2C33"></path>
                <polygon id="Fill-16" fill="#2C2C33" points="1.44834117 62.8862391 4.7723005 62.8862391 4.7723005 62.3349523 1.44834117 62.3349523"></polygon>
                <polygon id="Fill-17" fill="#2C2C33" points="1.44817879 61.4900788 1.44817879 60.9777636 3.74588394 59.3157839 1.44817879 59.3157839 1.44817879 58.77424 4.77213812 58.77424 4.77213812 59.2305334 2.40704444 60.9493468 4.77213812 60.9493468 4.77213812 61.4900788"></polygon>
                <polygon id="Fill-18" fill="#2C2C33" points="1.98931677 57.1887423 1.98931677 58.1760248 1.44777283 58.1760248 1.44777283 55.649361 1.98931677 55.649361 1.98931677 56.6374554 4.77173216 56.6374554 4.77173216 57.1887423"></polygon>
                <polygon id="Fill-19" fill="#2C2C33" points="1.44817879 55.0613758 1.44817879 52.7531158 1.97023688 52.7531158 1.97023688 54.510089 2.83492098 54.510089 2.83492098 52.9528457 3.35697908 52.9528457 3.35697908 54.510089 4.24926811 54.510089 4.24926811 52.7255109 4.77213812 52.7255109 4.77213812 55.0613758"></polygon>
                <polygon id="Fill-20" fill="#2C2C33" points="1.44817879 52.0603943 1.44817879 51.5472672 3.74588394 49.8852875 1.44817879 49.8852875 1.44817879 49.3445555 4.77213812 49.3445555 4.77213812 49.8008489 2.40704444 51.5188503 4.77213812 51.5188503 4.77213812 52.0603943"></polygon>
                <path d="M4.24017472,47.3593545 C4.24017472,46.713886 3.77495032,46.2868214 3.11973899,46.2868214 L3.10999607,46.2868214 C2.46452766,46.2868214 1.97981742,46.713886 1.97981742,47.3593545 L1.97981742,47.9772179 L4.24017472,47.9772179 L4.24017472,47.3593545 Z M1.4480164,48.5276929 L1.4480164,47.3593545 C1.4480164,46.3818149 2.16006143,45.7071177 3.10025315,45.7071177 L3.10999607,45.7071177 C4.04044487,45.7071177 4.77197574,46.3818149 4.77197574,47.3593545 L4.77197574,48.5276929 L1.4480164,48.5276929 Z" id="Fill-21" fill="#2C2C33"></path>
                <polygon id="Fill-22" fill="#2C2C33" points="1.44817879 45.0235707 1.44817879 42.7161226 1.97023688 42.7161226 1.97023688 44.4722839 2.83492098 44.4722839 2.83492098 42.9150406 3.35697908 42.9150406 3.35697908 44.4722839 4.24926811 44.4722839 4.24926811 42.6877058 4.77213812 42.6877058 4.77213812 45.0235707"></polygon>
                <polygon id="Fill-23" fill="#2C2C33" points="1.44817879 42.022508 1.44817879 41.5101928 3.74588394 39.8482131 1.44817879 39.8482131 1.44817879 39.3066692 4.77213812 39.3066692 4.77213812 39.7629626 2.40704444 41.481776 4.77213812 41.481776 4.77213812 42.022508"></polygon>
                <path d="M3.11957661,38.6233658 L3.10983369,38.6233658 C2.16071096,38.6233658 1.39102033,37.9584115 1.39102033,37.0174079 C1.39102033,36.448259 1.6094241,36.0975139 1.91307842,35.8019787 L2.34095497,36.1535357 C2.09413434,36.4011683 1.93256426,36.6666628 1.93256426,37.0271508 C1.93256426,37.6165974 2.44487944,38.053405 3.10090268,38.053405 L3.10983369,38.053405 C3.7553021,38.053405 4.28710311,37.6165974 4.28710311,37.0271508 C4.28710311,36.638246 4.12634494,36.4011683 3.86003848,36.1259308 L4.24001234,35.7735619 C4.60050036,36.1064449 4.82864705,36.458002 4.82864705,37.0368937 C4.82864705,37.9486686 4.07844226,38.6233658 3.11957661,38.6233658" id="Fill-24" fill="#2C2C33"></path>
                <polygon id="Fill-25" fill="#2C2C33" points="1.44834117 35.1570786 4.7723005 35.1570786 4.7723005 34.6057918 1.44834117 34.6057918"></polygon>
                <path d="M3.45181016,31.8807784 L2.12271357,32.4215104 L3.45181016,32.9533115 L3.45181016,31.8807784 Z M1.41959956,32.669143 L1.41959956,32.1560159 L4.77197574,30.7879476 L4.77197574,31.3676513 L3.96493725,31.6810486 L3.96493725,33.1530413 L4.77197574,33.4761815 L4.77197574,34.0363993 L1.41959956,32.669143 Z" id="Fill-26" fill="#2C2C33"></path>
                <polygon id="Fill-27" fill="#2C2C33" points="1.44817879 28.889215 1.44817879 26.572024 1.9799798 26.572024 1.9799798 28.3379282 2.88201176 28.3379282 2.88201176 26.7717539 3.41381277 26.7717539 3.41381277 28.3379282 4.77213812 28.3379282 4.77213812 28.889215"></polygon>
                <polygon id="Fill-28" fill="#2C2C33" points="1.44834117 25.9264744 4.7723005 25.9264744 4.7723005 25.3751876 1.44834117 25.3751876"></polygon>
                <polygon id="Fill-29" fill="#2C2C33" points="1.44817879 24.5394887 1.44817879 24.0271735 3.74588394 22.3651938 1.44817879 22.3651938 1.44817879 21.8236499 4.77213812 21.8236499 4.77213812 22.2799433 2.40704444 23.9987566 4.77213812 23.9987566 4.77213812 24.5394887"></polygon>
                <path d="M3.45181016,19.1177164 L2.12271357,19.6584484 L3.45181016,20.1902494 L3.45181016,19.1177164 Z M1.41959956,19.906081 L1.41959956,19.3929539 L4.77197574,18.0248856 L4.77197574,18.6045893 L3.96493725,18.9179866 L3.96493725,20.3891674 L4.77197574,20.7131195 L4.77197574,21.2725254 L1.41959956,19.906081 Z" id="Fill-30" fill="#2C2C33"></path>
                <polygon id="Fill-31" fill="#2C2C33" points="1.44817879 17.4653985 1.44817879 16.9522714 3.74588394 15.2902917 1.44817879 15.2902917 1.44817879 14.7487478 4.77213812 14.7487478 4.77213812 15.2050412 2.40704444 16.9238545 4.77213812 16.9238545 4.77213812 17.4653985"></polygon>
                <path d="M3.11957661,14.0655256 L3.10983369,14.0655256 C2.16071096,14.0655256 1.39102033,13.4005713 1.39102033,12.4603796 C1.39102033,11.8904188 1.6094241,11.5396737 1.91307842,11.2441385 L2.34095497,11.5965074 C2.09413434,11.843328 1.93256426,12.1088226 1.93256426,12.4701225 C1.93256426,13.0587572 2.44487944,13.4955648 3.10090268,13.4955648 L3.10983369,13.4955648 C3.7553021,13.4955648 4.28710311,13.0587572 4.28710311,12.4701225 C4.28710311,12.0804057 4.12634494,11.843328 3.86003848,11.5680905 L4.24001234,11.2165335 C4.60050036,11.5486047 4.82864705,11.9001617 4.82864705,12.4798654 C4.82864705,13.3908284 4.07844226,14.0655256 3.11957661,14.0655256" id="Fill-32" fill="#2C2C33"></path>
                <polygon id="Fill-33" fill="#2C2C33" points="1.44834117 10.5992384 4.7723005 10.5992384 4.7723005 10.0479516 1.44834117 10.0479516"></polygon>
                <polygon id="Fill-34" fill="#2C2C33" points="1.44817879 9.21225264 1.44817879 6.90480456 1.97023688 6.90480456 1.97023688 8.66177769 2.83492098 8.66177769 2.83492098 7.1037225 3.35697908 7.1037225 3.35697908 8.66177769 4.24926811 8.66177769 4.24926811 6.87638772 4.77213812 6.87638772 4.77213812 9.21225264"></polygon>
                <path d="M3.09107857,4.86333819 C3.09107857,4.47443332 2.88241771,4.21705787 2.54060362,4.21705787 L2.5308607,4.21705787 C2.1793037,4.21705787 1.98038576,4.4646904 1.98038576,4.86333819 L1.98038576,5.66063376 L3.09107857,5.66063376 L3.09107857,4.86333819 Z M1.44858474,6.21192061 L1.44858474,4.82517842 C1.44858474,4.42653064 1.57118314,4.12287632 1.78065591,3.92314647 C1.96089992,3.7623883 2.20772054,3.66658292 2.50244386,3.66658292 C3.0529188,3.66658292 3.37605896,3.97023724 3.50921219,4.4070448 L4.77173216,3.56184654 L4.77173216,4.20731495 L3.61313667,4.97781749 L3.61313667,4.9867485 L3.61313667,5.66063376 L4.77173216,5.66063376 L4.77173216,6.21192061 L1.44858474,6.21192061 Z" id="Fill-35" fill="#2C2C33"></path>
                <path d="M3.45181016,1.09315315 L2.12271357,1.63469708 L3.45181016,2.16568619 L3.45181016,1.09315315 Z M1.41959956,1.88151771 L1.41959956,1.36839062 L4.77197574,0.00113426718 L4.77197574,0.580026061 L3.96493725,0.893423301 L3.96493725,2.36541604 L4.77197574,2.6885562 L4.77197574,3.24877406 L1.41959956,1.88151771 Z" id="Fill-36" fill="#2C2C33"></path>
                <path d="M8.61807436,54.4056773 C8.61807436,53.7602089 8.14310704,53.3331443 7.49763863,53.3331443 L7.48789571,53.3331443 C6.83268438,53.3331443 6.35771706,53.7602089 6.35771706,54.4056773 L6.35771706,55.0235408 L8.61807436,55.0235408 L8.61807436,54.4056773 Z M5.82591604,55.5740157 L5.82591604,54.4056773 C5.82591604,53.4281378 6.54770399,52.7534406 7.47815279,52.7534406 L7.48789571,52.7534406 C8.42808743,52.7534406 9.14987537,53.4281378 9.14987537,54.4056773 L9.14987537,55.5740157 L5.82591604,55.5740157 Z" id="Fill-37" fill="#2C2C33"></path>
                <polygon id="Fill-38" fill="#2C2C33" points="5.82591604 52.0698936 5.82591604 49.7624455 6.34797414 49.7624455 6.34797414 51.5186067 7.21265823 51.5186067 7.21265823 49.9613635 7.73471633 49.9613635 7.73471633 51.5186067 8.62700537 51.5186067 8.62700537 49.7340287 9.14987537 49.7340287 9.14987537 52.0698936"></polygon>
                <path d="M7.49731386,47.8628198 L7.48757094,47.8628198 C6.54737922,47.8628198 5.76875758,47.2076085 5.76875758,46.2576738 C5.76875758,45.6877131 5.97823035,45.336968 6.28188467,45.0422447 L6.71869222,45.3938017 C6.4718716,45.6414342 6.3005586,45.9069287 6.3005586,46.2674168 C6.3005586,46.8568634 6.83235961,47.2936709 7.47863993,47.2936709 L7.48757094,47.2936709 C8.14278227,47.2936709 8.67458329,46.8568634 8.67458329,46.2674168 C8.67458329,45.8785119 8.5040822,45.6316913 8.23777574,45.3653848 L8.61774959,45.0138278 C8.97904952,45.345899 9.20638431,45.697456 9.20638431,46.2771597 C9.20638431,47.1889346 8.4472485,47.8628198 7.49731386,47.8628198" id="Fill-39" fill="#2C2C33"></path>
                <path d="M7.49731386,41.9749301 L7.48757094,41.9749301 C6.84210253,41.9749301 6.3005586,42.4117376 6.3005586,43.0296011 C6.3005586,43.6466526 6.83235961,44.0834602 7.47863993,44.0834602 L7.48757094,44.0834602 C8.13385126,44.0834602 8.67458329,43.6369097 8.67458329,43.0198582 C8.67458329,42.4019947 8.14278227,41.9749301 7.49731386,41.9749301 M7.49731386,44.653421 L7.48757094,44.653421 C6.54737922,44.653421 5.76875758,43.9795357 5.76875758,43.0198582 C5.76875758,42.0699235 6.54737922,41.3960383 7.47863993,41.3960383 L7.48757094,41.3960383 C8.42776266,41.3960383 9.20638431,42.0699235 9.20638431,43.0296011 C9.20638431,43.9884667 8.42776266,44.653421 7.49731386,44.653421" id="Fill-40" fill="#2C2C33"></path>
                <polygon id="Fill-41" fill="#2C2C33" points="5.82591604 40.7213411 5.82591604 40.1708661 8.61807436 40.1708661 8.61807436 38.5381152 9.14987537 38.5381152 9.14987537 40.7213411"></polygon>
                <path d="M7.49731386,35.5843057 L7.48757094,35.5843057 C6.84210253,35.5843057 6.3005586,36.0211132 6.3005586,36.6381648 C6.3005586,37.2560282 6.83235961,37.6928358 7.47863993,37.6928358 L7.48757094,37.6928358 C8.13385126,37.6928358 8.67458329,37.2462853 8.67458329,36.6284218 C8.67458329,36.0113703 8.14278227,35.5843057 7.49731386,35.5843057 M7.49731386,38.2619847 L7.48757094,38.2619847 C6.54737922,38.2619847 5.76875758,37.5880994 5.76875758,36.6284218 C5.76875758,35.6792991 6.54737922,35.004602 7.47863993,35.004602 L7.48757094,35.004602 C8.42776266,35.004602 9.20638431,35.6792991 9.20638431,36.6381648 C9.20638431,37.5970304 8.42776266,38.2619847 7.49731386,38.2619847" id="Fill-42" fill="#2C2C33"></path>
                <polygon id="Fill-43" fill="#2C2C33" points="5.82591604 34.3212173 5.82591604 33.7317707 7.40264516 32.7923909 5.82591604 31.8424563 5.82591604 31.2538216 9.14987537 31.2538216 9.14987537 31.8042965 6.76610776 31.8042965 8.33309396 32.7923909 8.33309396 32.8021338 6.77585068 33.7796734 9.14987537 33.7796734 9.14987537 34.3212173"></polygon>
                <path d="M8.63682948,28.9843709 C8.63682948,28.6141399 8.4752594,28.3859932 8.18134799,28.3859932 L8.16186216,28.3859932 C7.88662468,28.3859932 7.7250546,28.595466 7.7250546,29.0322736 L7.7250546,29.8961457 L8.63682948,29.8961457 L8.63682948,28.9843709 Z M7.23141335,29.145129 C7.23141335,28.7943839 7.07958619,28.5573062 6.77593187,28.5573062 L6.76618895,28.5573062 C6.50962541,28.5573062 6.33912432,28.7562242 6.33912432,29.1069693 L6.33912432,29.8961457 L7.23141335,29.8961457 L7.23141335,29.145129 Z M5.82599723,30.4368778 L5.82599723,29.0412046 C5.82599723,28.6799046 5.93073362,28.4046672 6.12072054,28.2244232 C6.26280479,28.0823389 6.45279171,28.0157623 6.67119549,28.0157623 L6.68093841,28.0157623 C7.07958619,28.0157623 7.28824705,28.2244232 7.42140028,28.4615009 C7.55455351,28.0912699 7.78270021,27.8444493 8.22843877,27.8444493 L8.23818169,27.8444493 C8.8268164,27.8444493 9.14995656,28.2999308 9.14995656,28.9941138 L9.14995656,30.4368778 L5.82599723,30.4368778 Z" id="Fill-44" fill="#2C2C33"></path>
                <polygon id="Fill-45" fill="#2C2C33" points="5.82615961 27.1800634 9.15011895 27.1800634 9.15011895 26.6287765 5.82615961 26.6287765"></polygon>
                <path d="M7.8297098,23.9036008 L6.50061321,24.4451447 L7.8297098,24.9761338 L7.8297098,23.9036008 Z M5.80724211,24.6919653 L5.80724211,24.1788383 L9.14987537,22.8115819 L9.14987537,23.3904737 L8.35176789,23.7038709 L8.35176789,25.1758637 L9.14987537,25.4990038 L9.14987537,26.0592217 L5.80724211,24.6919653 Z" id="Fill-46" fill="#2C2C33"></path>
                <polygon id="Fill-47" fill="#2C2C33" points="9.34010587 128.478008 10.1374014 128.478008 10.1374014 81.6705877 9.34010587 81.6705877"></polygon>
                <polygon id="Fill-48" fill="#2C2C33" points="0.564983144 128.478008 1.36227871 128.478008 1.36227871 81.6705877 0.564983144 81.6705877"></polygon>
            </g>
        </g>
    </g>
</svg>